<svg xmlns="http://www.w3.org/2000/svg" fill-rule="evenodd" stroke-linecap="round" stroke-linejoin="round" stroke-miterlimit="10" clip-rule="evenodd" viewBox="0 0 24 24">
  <path 
  fill="none" 
  stroke="#757575"
  stroke-width=".8" 
  d="M9.567 13.102C7.227 13.174 5.3 15.144 5.3 17.5c0 2.4 2 4.4 4.4 4.4 2.332 0 4.287-1.889 4.395-4.198
  M18.8 11.7c-1.6 0-4-.9-5.3-3-.4-.6-1-1-1.8-1-1.2 0-2.1.9-2.1 2.1v5.9c0 1.1.9 2 2 2h5V22
  M11.7 2c-1.2 0-2.1.9-2.1 2.1 0 1.2.9 2.1 2.1 2.1 1.2 0 2.1-.9 2.1-2.1 0-1.2-.9-2.1-2.1-2.1z"/>
</svg>
