<svg xmlns="http://www.w3.org/2000/svg" fill-rule="evenodd" stroke-linecap="round" stroke-linejoin="round" stroke-miterlimit="1.41421" clip-rule="evenodd" viewBox="0 0 24 24">
  <path fill="none" stroke="#757575" stroke-width="2" 
  d="M18.33 11.68c-1.25-.21-2.43-.88-3.23-1.76l-1.29-1.43c-.17-.19-.38-.34-.61-.45-.01
  0-.01-.01-.02-.01h-.01c-.37-.21-.78-.31-1.25-.25-1.02.12-1.75 1.04-1.75 2.07v4.9c0 
  1.1.9 2 2 2h3.5c.828 0 1.5.672 1.5 1.5v3m-2.521-4.062c-.22 2.279-2.143 4.062-4.479 
  4.062-2.484 0-4.5-2.016-4.5-4.5 0-2.323 1.764-4.237 4.024-4.475
  M11.493 3.543c.39-.39 1.024-.39 1.414 0 .39.39.39 1.024 0
  1.414-.39.39-1.024.39-1.414 0-.39-.39-.39-1.024 0-1.414z"/>
</svg>