<svg xmlns="http://www.w3.org/2000/svg" fill-rule="evenodd" stroke-linecap="round" stroke-linejoin="round" stroke-miterlimit="1.41421" clip-rule="evenodd" viewBox="0 0 24 24">
  <path 
  fill="none" 
  stroke="#757575"
  stroke-width="1.5" 
  d="M12 2.75c-5.106 0-9.25 4.144-9.25 9.25s4.144 
  9.25 9.25 9.25 9.25-4.144 9.25-9.25S17.106 
  2.75 12 2.75z M10.232 7.732c.976-.975 2.56-.975
  3.536 0 .975.976.975 2.56 0 3.536-.976.975-2.56.975-3.536
  0-.975-.976-.975-2.56 0-3.536zM5.31 18.375C6.867 16.625
  9.286 15.5 12 15.5c2.714 0 5.133 1.125 
  6.69 2.875"/>
</svg>