<svg xmlns="http://www.w3.org/2000/svg" fill-rule="evenodd" stroke-linecap="round" stroke-linejoin="round" stroke-miterlimit="1.41421" clip-rule="evenodd" viewBox="0 0 24 24">
  <path fill="none" stroke="#757575" stroke-width="2" 
  d="M12 2.75c-5.106 0-9.25 4.144-9.25 9.25s4.144 9.25 9.25 9.25 9.25-4.144 
  9.25-9.25S17.106 2.75 12 2.75zm-1.768 4.982c.976-.975 2.56-.975 3.536 0 
  .975.976.975 2.56 0 3.536-.976.975-2.56.975-3.536 0-.975-.976-.975-2.56 
  0-3.536zM5.746 17.923C7.3 16.434 9.528 15.5 12 15.5c2.513 0 4.772.964 
  6.329 2.496"/>
</svg>