<?xml version="1.0" encoding="utf-8"?>
<!-- Generator: Adobe Illustrator 21.1.0, SVG Export Plug-In . SVG Version: 6.00 Build 0)  -->
<svg version="1.1" id="Ebene_1" xmlns="http://www.w3.org/2000/svg" xmlns:xlink="http://www.w3.org/1999/xlink" x="0px" y="0px"
	 viewBox="0 0 24 24" style="enable-background:new 0 0 24 24;" xml:space="preserve">
<style type="text/css">
	.st0{fill:none;stroke:#757575;stroke-width:0.8;stroke-miterlimit:10;}
</style>
<path id="Standard_Apps" class="st0" d="M18.4,11.4H5.6 M5.6,10v5.6c0,3.6,2.8,6.4,6.4,6.4s6.4-2.8,6.4-6.4V10 M9.3,9.1
	c-0.5,0-0.9-0.4-0.9-0.9s0.4-0.9,0.9-0.9s0.9,0.4,0.9,0.9S9.8,9.1,9.3,9.1z M14.7,9.1c-0.5,0-0.9-0.4-0.9-0.9s0.4-0.9,0.9-0.9
	s0.9,0.4,0.9,0.9S15.3,9.1,14.7,9.1z M5.6,10c0-3.6,2.8-6.4,6.4-6.4s6.4,2.8,6.4,6.4 M7.6,2l1.6,2.2 M16.4,2l-1.6,2.2"/>
</svg>
