<svg version="1.1" id="Ebene_1" xmlns="http://www.w3.org/2000/svg" x="0" y="0" viewBox="0 0 24 24" xml:space="preserve">
  <style type="text/css">
    .st0{fill:none;stroke:#757575;stroke-width:.8;stroke-miterlimit:10;stroke-linecap="round"}
  </style>
  <path class="st0" d="M5.1 7.3l2.158 3.689M18.9 7.3l-2.145 3.696M21.5 20.3v-1.1c0-5.2-4.3-9.5-9.5-9.5S2.5 14 2.5 19.2v1.1h19zM16.7 4c-1.4-.8-3-1.2-4.7-1.2-1.8 0-3.4.5-4.8 1.3M16.7 7c-1.4-.8-3-1.2-4.7-1.2-1.8 0-3.4.5-4.8 1.3"/>
  <path class="st0" d="M8 13.6c.55228475 0 1 .44771525 1 1s-.44771525 1-1 1-1-.44771525-1-1 .44771525-1 1-1zM16 13.6c.55228475 0 1 .44771525 1 1s-.44771525 1-1 1-1-.44771525-1-1 .44771525-1 1-1z"/>
</svg>
