<svg xmlns="http://www.w3.org/2000/svg" fill-rule="evenodd" stroke-linecap="round" stroke-linejoin="round" stroke-miterlimit="10" clip-rule="evenodd" viewBox="0 0 24 24">
  <path 
  fill="none" 
  stroke="#757575" 
  stroke-width="1.5"
  d="M 12 10.213 C 12.9996353972 10.213 13.81 11.0233646028 13.81 12.023 C 
  13.81 13.0226353972 12.9996353972 13.833 12 13.833 C 11.0003646028 13.833 
  10.19 13.0226353972 10.19 12.023 C 10.19 11.0233646028 11.0003646028 10.213
  12 10.213 Z M6.119 12.023c0-3.246 2.635-5.881 5.881-5.881 3.246 0 5.881 2.635
  5.881 5.881 M2.5 12.023c0-5.243 4.257-9.5 9.5-9.5s9.5 4.257 9.5 9.5M12 
  13.833v3.619l-3.025 3.025M15.016 20.467L12 17.452"/>
</svg>
