<?xml version="1.0" encoding="utf-8"?>
<!-- Generator: Adobe Illustrator 21.1.0, SVG Export Plug-In . SVG Version: 6.00 Build 0)  -->
<svg version="1.1" id="Ebene_1" xmlns="http://www.w3.org/2000/svg" xmlns:xlink="http://www.w3.org/1999/xlink" x="0px" y="0px"
	 viewBox="0 0 24 24" style="enable-background:new 0 0 24 24;" xml:space="preserve">
<style type="text/css">
	.st0{fill:none;stroke:#757575;stroke-width:0.8;stroke-miterlimit:10;}
</style>
<path class="st0" d="M13,7.5c1.4-1.2,4-0.4,4.2-0.4c1.5,0.5,2.5,1.6,3,2.4c2.1,3.1-3.1,12.4-5.2,12.4S13,21,12,21s-1,1-3.1,1
	S1.6,12.7,3.7,9.6c0.9-1.3,1.9-2.1,3-2.4c0.1,0,2.9-0.9,4.2,0.4c0.2,0.2,0.6,0.6,1,0.6C12.5,8.1,12.8,7.7,13,7.5z M12,2.3v5.8
	 M9.4,3.9C7.3,5,6,4.8,5.2,4.3S4.2,3,4.2,3s0.5-0.7,1.4-0.9S7.8,2.1,9.4,3.9z"/>
</svg>
