<svg xmlns="http://www.w3.org/2000/svg" fill-rule="evenodd" stroke-linecap="round" stroke-linejoin="round" stroke-miterlimit="1.5" clip-rule="evenodd" viewBox="0 0 24 24">
  <path fill="none" stroke="#757575" stroke-width="1.5" 
  d="M10.25 6.05c0-.345-.137-.675-.381-.919s-.574-.381-.919-.381h-2.9c-.345
  0-.675.137-.919.381s-.381.574-.381.919v2.9c0 
  .345.137.675.381.919s.574.381.919.381h2.9c.345 
  0 .675-.137.919-.381s.381-.574.381-.919v-2.9zM19.25 
  6.05c0-.345-.137-.675-.381-.919s-.574-.381-.919-.381h-2.9c-.345 
  0-.675.137-.919.381s-.381.574-.381.919v2.9c0
  .345.137.675.381.919s.574.381.919.381h2.9c.345 
  0 .675-.137.919-.381s.381-.574.381-.919v-2.9zM19.25
  15.05c0-.345-.137-.675-.381-.919s-.574-.381-.919-.381h-2.9c-.345 
  0-.675.137-.919.381s-.381.574-.381.919v2.9c0 
  .345.137.675.381.919s.574.381.919.381h2.9c.345 
  0 .675-.137.919-.381s.381-.574.381-.919v-2.9zM10.25
  15.05c0-.345-.137-.675-.381-.919s-.574-.381-.919-.381h-2.9c-.345
  0-.675.137-.919.381s-.381.574-.381.919v2.9c0 
  .345.137.675.381.919s.574.381.919.381h2.9c.345 
  0 .675-.137.919-.381s.381-.574.381-.919v-2.9z"/>
</svg>