<svg width="100%" height="100%" viewBox="0 0 24 24" version="1.1" xmlns="http://www.w3.org/2000/svg" xml:space="preserve" fill-rule="evenodd" clip-rule="evenodd" stroke-linecap="round" stroke-miterlimit="10">
  <path d="M12 5.818V12.5m-1.788-4.078c.547-.304 1.162-.464 1.788-.464.626 0 1.241.16 1.788.464 1.976 1.097 6.774 3.763 6.774 3.763.606.337.982.976.982 1.669v1.995c0 .694-.376 1.332-.982 1.669l-7.635 4.242c-.576.32-1.278.32-1.854 0l-7.635-4.242c-.606-.337-.982-.975-.982-1.669v-1.995c0-.693.376-1.332.982-1.669 0 0 4.798-2.666 6.774-3.763z" fill="none" stroke="#757575" stroke-width=".76"/>
  <path d="M21.257 12.856c-.169.272-.405.501-.695.662l-7.635 4.242c-.576.32-1.278.32-1.854 0l-7.635-4.242c-.251-.14-.463-.331-.625-.557M12 5.818c-1.054 0-1.909-.855-1.909-1.909S10.946 2 12 2s1.909.855 1.909 1.909S13.054 5.818 12 5.818z" fill="none" stroke="#757575" stroke-width=".76"/>
</svg>
