<?xml version="1.0" encoding="utf-8"?>
<!-- Generator: Adobe Illustrator 21.1.0, SVG Export Plug-In . SVG Version: 6.00 Build 0)  -->
<svg version="1.1" id="Ebene_1" xmlns="http://www.w3.org/2000/svg" xmlns:xlink="http://www.w3.org/1999/xlink" x="0px" y="0px"
	 viewBox="0 0 24 24" style="enable-background:new 0 0 24 24;" xml:space="preserve">
<style type="text/css">
	.st0{fill:none;stroke:#757575;stroke-width:0.8;stroke-miterlimit:10;}
</style>
<path class="st0" d="M20.5,5.2l-1.4-1.7C18.9,3.2,18.5,3,18,3H6C5.5,3,5.1,3.2,4.8,3.5L3.5,5.2C3.2,5.6,3,6,3,6.5V19
	c0,1.1,0.9,2,2,2h14c1.1,0,2-0.9,2-2V6.5C21,6,20.8,5.6,20.5,5.2z M21,6.5H3 M12,10v7 M16,13.5L12,17l-4-3.5"/>
</svg>
