<svg xmlns="http://www.w3.org/2000/svg" fill-rule="evenodd" stroke-linecap="round" stroke-linejoin="round" stroke-miterlimit="1.5" clip-rule="evenodd" viewBox="0 0 24 24">
  <path fill="none" stroke="#757575" stroke-width="1.5" 
  d="M11.757 21.018c.056.06.135.094.218.094.083 0 
  .162-.034.219-.094 1.095-1.162 5.996-6.36 
  7.554-8.012.082-.087.105-.215.057-.325-.047-.11-.155-.181-.275-.181h-4.555V3.55c0-.166-.134-.3-.3-.3h-5.4c-.166
  0-.3.134-.3.3v8.95H4.444c-.12 0-.228.071-.276.181-.047.11-.025.237.057.324
  1.553 1.652 6.439 6.85 7.532 8.013z"/>
</svg>