<?xml version="1.0" encoding="UTF-8" standalone="no"?><!DOCTYPE svg PUBLIC "-//W3C//DTD SVG 1.1//EN" "http://www.w3.org/Graphics/SVG/1.1/DTD/svg11.dtd"><svg width="100%" height="100%" viewBox="0 0 24 24" version="1.1" xmlns="http://www.w3.org/2000/svg" xmlns:xlink="http://www.w3.org/1999/xlink" xml:space="preserve" xmlns:serif="http://www.serif.com/" style="fill-rule:evenodd;clip-rule:evenodd;stroke-linecap:round;stroke-linejoin:round;stroke-miterlimit:1.5;"><path d="M17.5,6.5c0,0 0,8.24 0,11c0,2.76 -2.24,5 -5,5c-2.76,0 -5,-2.24 -5,-5c0,0 0,-10.568 0,-12.5c0,-1.932 1.568,-3.5 3.5,-3.5c1.932,0 3.5,1.568 3.5,3.5l0,10.5c0,1.104 -0.896,2 -2,2c-1.104,0 -2,-0.896 -2,-2c0,-1.104 0,-9 0,-9" style="fill:none;stroke:#757575;stroke-width:1.5px;"/></svg>