<svg xmlns="http://www.w3.org/2000/svg" fill-rule="evenodd" stroke-linecap="round" stroke-linejoin="round" stroke-miterlimit="1.5" clip-rule="evenodd" viewBox="0 0 24 24">
  <path fill="none" stroke="#757575" stroke-width="1.5"
  d="M7.757 10.757c2.342-2.341 6.144-2.341 8.486 0 2.341 2.342 2.341 
  6.144 0 8.486-2.342 2.341-6.144 2.341-8.486 0-2.341-2.342-2.341-6.144 
  0-8.486zM11.75 14.75l-3.548-3.548M.97 14.47c.292-.293.768-.293 1.06 0 
  .293.292.293.768 0 1.06-.292.293-.768.293-1.06 0-.293-.292-.293-.768 
  0-1.06zM21.97 14.47c.292-.293.768-.293 1.06 0 .293.292.293.768 0 
  1.06-.292.293-.768.293-1.06 0-.293-.292-.293-.768 0-1.06zM11.47 
  3.97c.292-.293.768-.293 1.06 0 .293.292.293.768 0 1.06-.292.293-.768.293-1.06 
  0-.293-.292-.293-.768 0-1.06zM3.97 6.97c.292-.293.768-.293 1.06
  0 .293.292.293.768 0 1.06-.292.293-.768.293-1.06 0-.293-.292-.293-.768 
  0-1.06zM18.97 6.97c.292-.293.768-.293 1.06 0 .293.292.293.768 
  0 1.06-.292.293-.768.293-1.06 0-.293-.292-.293-.768 0-1.06z"/>
</svg>