<svg xmlns="http://www.w3.org/2000/svg" fill-rule="evenodd" stroke-linecap="round" stroke-linejoin="round" stroke-miterlimit="1.5" clip-rule="evenodd" viewBox="0 0 24 24">
  <path 
  fill="none"
  stroke="#757575"
  stroke-width="1.5" 
  d="M8.507 12.036l2.405-1.095 1.08-2.42 1.126 2.405 2.374 
  1.11-2.39 1.111-1.11 2.374-1.08-2.374-2.405-1.111z
  M11 3H5c-.53 0-1.039.211-1.414.586S3 4.47 3 5v14c0 
  .53.211 1.039.586 1.414S4.47 21 5 21h14c.53 0 1.039-.211
  1.414-.586S21 19.53 21 19v-6M15.506 6.011l1.717-.782.771-1.729.805
  1.718 1.695.793-1.706.793-.794 
  1.696-.771-1.696-1.717-.793z"/>
</svg>