<svg xmlns="http://www.w3.org/2000/svg" fill-rule="evenodd" stroke-linecap="round" stroke-linejoin="round" stroke-miterlimit="1.5" clip-rule="evenodd" viewBox="0 0 24 24">
  <path 
  fill="none" 
  stroke="#757575"
  stroke-width="1.5" 
  d="M11.948 4.4A3.003 3.003 0 0 1 15 7.348a3.003
  3.003 0 0 1-2.948 3.052A3.003 3.003 0 0 1 9 7.452
  3.003 3.003 0 0 1 11.948 4.4zM5.353 16.401c.558-1.535 
  3.324-2.702 6.647-2.702 3.323 0 6.089 1.167 
  6.647 2.702-.471 1.862-2.519 3.347-5.147
  3.763a13.768 13.768 0 0 1-3
  0c-2.628-.416-4.676-1.901-5.147-3.763z"/>
</svg>