<svg xmlns="http://www.w3.org/2000/svg" fill-rule="evenodd" stroke-linecap="round" stroke-linejoin="round" stroke-miterlimit="1.5" clip-rule="evenodd" viewBox="0 0 24 24">
  <path 
  id="Cloud"
  fill="none"
  stroke="#757575"
  stroke-width="1.5"
  d="M18.5 19h-12c-2.76 0-5-2.24-5-5 0-2.594 1.98-4.645 4.509-4.89M6.058 9.058C6.876
  6.558 9.228 4.75 12 4.75c3.449 0 6.25 2.801 6.25 6.25M18.284 11.006c.071-.004.143-.006.216-.006
  2.208 0 4 1.792 4 4s-1.792 4-4 4"/>
  
  <path 
  id="Upload"
  fill="none"
  stroke="#757575"
  stroke-width="1.5"
  d="M12.004 15.5v-6 M9.49 12l2.514-2.5 2.496 2.456"/>
  
   <path 
  id="Done"
  visibility="hidden"
  fill="none"
  stroke="#757575"
  stroke-width="1.5"
  d="M9 13.386l1.722 1.75L15 10.864"/>
  
   <path 
  id="Off"
  visibility="hidden"
  fill="none"
  stroke="#757575"
  stroke-width="1.5"
  d="M4 4l18 18"/>
</svg>
