<?xml version="1.0" encoding="UTF-8" standalone="no"?><!DOCTYPE svg PUBLIC "-//W3C//DTD SVG 1.1//EN" "http://www.w3.org/Graphics/SVG/1.1/DTD/svg11.dtd"><svg width="100%" height="100%" viewBox="0 0 24 24" version="1.1" xmlns="http://www.w3.org/2000/svg" xmlns:xlink="http://www.w3.org/1999/xlink" xml:space="preserve" xmlns:serif="http://www.serif.com/" style="fill-rule:evenodd;clip-rule:evenodd;stroke-linecap:round;stroke-linejoin:round;stroke-miterlimit:10;"><path id="Battery" d="M12.628,8.5l-1.422,3.556c-0.1,0.2 0.066,0.355 0.266,0.355l1.156,0c0.2,0 0.366,0.156 0.266,0.356l-1.511,3.733m2.117,-14.5l-3,0c-0.3,0 -0.5,0.2 -0.5,0.5l0,1.5l-2,0c-1.1,0 -2,0.9 -2,2l0,14c0,1.1 0.9,2 2,2l8,0c1.1,0 2,-0.9 2,-2l0,-14c0,-1.1 -0.9,-2 -2,-2l-2,0l0,-1.5c0,-0.3 -0.2,-0.5 -0.5,-0.5Z" style="fill:none;stroke:#757575;stroke-width:0.8px;"/></svg>