<svg xmlns="http://www.w3.org/2000/svg" fill-rule="evenodd" stroke-linecap="round" stroke-linejoin="round" stroke-miterlimit="1.5" clip-rule="evenodd" viewBox="0 0 24 24">
  <path 
  id="Battery"
  fill="none" 
  stroke="#757575" 
  stroke-width="1.5" 
  d="M8 21.5c-.552 0-1-.448-1-1v-15c0-.552.448-1
  1-1h2.5V3c0-.133.053-.26.146-.354.094-.093.221-.146.354-.146h2c.133
  0 .26.053.354.146.093.094.146.221.146.354v1.5H16c.552
  0 1 .448 1 1v15c0 .552-.448 1-1 1H8z"/>
  
  <path 
  id="Add"
  visibility="hidden"
  fill="none" 
  stroke="#757575" 
  stroke-width="1.5" 
  d="M11.969 11v4-4zm-2 2h4-4z"/>
  
   <path 
  id="Good"
  visibility="hidden"
  fill="none" 
  stroke="#757575" 
  stroke-width="1.5" 
  d="M9.5,13.402l1.669,1.697l3.331,-4.198"/>
  
  <path 
  id="Maybe"
  visibility="hidden"
  fill="none" 
  stroke="#757575" 
  stroke-width="1.5" 
  d="M12,15.75l0,0.5M12,9.75l0,2.5"/>
  
  <path 
  id="Charging"
  fill="none" 
  stroke="#757575" 
  stroke-width="1.5" 
  d="M12.599 9l-1.598 4.007 1.998.4L11.8 17"/>
</svg>