<?xml version="1.0" encoding="utf-8"?>
<!-- Generator: Adobe Illustrator 21.1.0, SVG Export Plug-In . SVG Version: 6.00 Build 0)  -->
<svg version="1.1" id="Ebene_1" xmlns="http://www.w3.org/2000/svg" xmlns:xlink="http://www.w3.org/1999/xlink" x="0px" y="0px"
	 viewBox="0 0 24 24" style="enable-background:new 0 0 24 24;" xml:space="preserve">
<style type="text/css">
	.st0{fill:none;stroke:#757575;stroke-width:0.8;stroke-miterlimit:10;}
	.st1{display:none;fill:none;stroke:#757575;stroke-width:0.8;stroke-miterlimit:10;}
</style>
<path id="Bluetooth" class="st0" d="M6.2,6.2l10.5,10.6c0.1,0.1,0.1,0.3,0,0.4l-4.2,4.2c-0.2,0.2-0.5,0.1-0.5-0.2V2.8
	c0-0.3,0.3-0.4,0.5-0.2l4.2,4.2c0.1,0.1,0.1,0.3,0,0.4L6.2,17.8"/>
<path id="Dot_Left" class="st0" d="M5.4,12.9c-0.5,0.5-1.3,0.5-1.8,0c-0.5-0.5-0.5-1.3,0-1.8c0,0,0,0,0,0c0.5-0.5,1.3-0.5,1.8,0
	c0,0,0,0,0,0C5.9,11.6,5.9,12.4,5.4,12.9z"/>
<path id="Dot_Right" class="st0" d="M19.4,11.1c0.5,0.5,0.5,1.3,0,1.8c-0.5,0.5-1.3,0.5-1.8,0c-0.5-0.5-0.5-1.3,0-1.8c0,0,0,0,0,0
	C18.1,10.6,18.9,10.6,19.4,11.1C19.4,11.1,19.4,11.1,19.4,11.1z"/>
<path id="Connecting" class="st1" d="M19.5,7c1.3,1.3,2,3,2,5s-0.8,3.7-2,5 M18.4,13.6c0.2-0.5,0.4-1.1,0.4-1.6s-0.1-1.1-0.4-1.6"/>
</svg>
