<svg xmlns="http://www.w3.org/2000/svg" fill-rule="evenodd" stroke-miterlimit="10" clip-rule="evenodd" viewBox="0 0 24 24">
  <path fill="none" stroke="#757575" stroke-width="2" stroke-linecap="round" stroke-linejoin="round"
  d="M12 2.5c-5.244 0-9.5 4.256-9.5 9.5s4.256 9.5 9.5 9.5 9.5-4.256 9.5-9.5-4.256-9.5-9.5-9.5z 
  M9.483 8.5c.551-.009 1.007.431 1.017.983.009.551-.431 1.007-.983 
  1.017-.551.009-1.007-.431-1.017-.983-.009-.551.431-1.007.983-1.017zm5 0c.551-.009
  1.007.431 1.017.983.009.551-.431 1.007-.983 1.017-.551.009-1.007-.431-1.017-.983-.009-.551.431-1.007.983-1.017zm0
  5c.551-.009 1.007.431 1.017.983.009.551-.431 1.007-.983
  1.017-.551.009-1.007-.431-1.017-.983-.009-.551.431-1.007.983-1.017zm-5 0c.551-.009
  1.007.431 1.017.983.009.551-.431 1.007-.983 1.017-.551.009-1.007-.431-1.017-.983-.009-.551.431-1.007.983-1.017z
  M9.495 6h.01M14.495 6h.01M17.995 9.25h.01M17.995 14.25h.01M14.495 18h.01M9.495 18h.01M5.995 14.25h.01M5.995 9.25h.01"/>
</svg>