<svg xmlns="http://www.w3.org/2000/svg" fill-rule="evenodd" stroke-miterlimit="10" clip-rule="evenodd" viewBox="0 0 24 24">
  <path 
  fill="none" 
  stroke="#757575" 
  stroke-width="1.5" 
  d="M12 2.5c-5.244 0-9.5 4.256-9.5 9.5s4.256 9.5 9.5
  9.5 9.5-4.256 9.5-9.5-4.256-9.5-9.5-9.5z"/>
  
  <path 
  fill="none"
  stroke="#757575"
  stroke-linecap="round"
  stroke-linejoin="round"
  stroke-miterlimit="1" 
  d="M9.983 9c.551-.009 1.007.431 1.017.983.009.551-.431 
  1.007-.983 1.017-.551.009-1.007-.431-1.017-.983-.009-.551.431-1.007.983-1.017zM13.983 
  9c.551-.009 1.007.431 1.017.983.009.551-.431 1.007-.983
  1.017-.551.009-1.007-.431-1.017-.983-.009-.551.431-1.007.983-1.017zM13.983 
  13c.551-.009 1.007.431 1.017.983.009.551-.431 1.007-.983
  1.017-.551.009-1.007-.431-1.017-.983-.009-.551.431-1.007.983-1.017zM9.983
  13c.551-.009 1.007.431 1.017.983.009.551-.431 1.007-.983
  1.017-.551.009-1.007-.431-1.017-.983-.009-.551.431-1.007.983-1.017zM9.487
  16.75c.414-.007.756.323.763.737.007.414-.323.756-.737.763-.414.007-.756-.323-.763-.737-.007-.414.323-.756.737-.763zM14.487
  16.75c.414-.007.756.323.763.737.007.414-.323.756-.737.763-.414.007-.756-.323-.763-.737-.007-.414.323-.756.737-.763zM17.487
  13.75c.414-.007.756.323.763.737.007.414-.323.756-.737.763-.414.007-.756-.323-.763-.737-.007-.414.323-.756.737-.763zM17.487 
  8.75c.414-.007.756.323.763.737.007.414-.323.756-.737.763-.414.007-.756-.323-.763-.737-.007-.414.323-.756.737-.763zM14.487
  5.75c.414-.007.756.323.763.737.007.414-.323.756-.737.763-.414.007-.756-.323-.763-.737-.007-.414.323-.756.737-.763zM9.487
  5.75c.414-.007.756.323.763.737.007.414-.323.756-.737.763-.414.007-.756-.323-.763-.737-.007-.414.323-.756.737-.763zM6.487
  8.75c.414-.007.756.323.763.737.007.414-.323.756-.737.763-.414.007-.756-.323-.763-.737-.007-.414.323-.756.737-.763zM6.487
  13.75c.414-.007.756.323.763.737.007.414-.323.756-.737.763-.414.007-.756-.323-.763-.737-.007-.414.323-.756.737-.763z"/>
</svg>