<svg xmlns="http://www.w3.org/2000/svg" fill-rule="evenodd" stroke-linecap="round" stroke-linejoin="round" stroke-miterlimit="1.5" clip-rule="evenodd" viewBox="0 0 24 24">
  <path fill="none" 
  stroke="#757575" 
  stroke-width="1.5" 
  d="M3.882 13.037c1.177-1.177 3.087-1.177 4.264 0 1.176 1.176 1.176 3.087 0 
  4.263-1.177 1.177-3.087 1.177-4.264 0-1.176-1.176-1.176-3.087 0-4.263zM11.45
  4.638c2.183-2.184 5.729-2.184 7.912 0 2.184 2.183 2.184 5.729 0 7.913-2.183
  2.183-5.729 2.183-7.912 0-2.184-2.184-2.184-5.73 0-7.913zM13.506
  17.612c.775-.775 2.033-.775 2.807 0 .775.774.775 2.032 0 2.807-.774.774-2.032.774-2.807
  0-.775-.775-.775-2.033 0-2.807z"/>
</svg>