<svg xmlns="http://www.w3.org/2000/svg" fill-rule="evenodd" stroke-linecap="round" stroke-linejoin="round" stroke-miterlimit="1.5" clip-rule="evenodd" viewBox="0 0 24 24">
  <path fill="none" stroke="#757575" stroke-width="1.5" 
  d="M3.75 8.25V5.5h16v2.75M11.764 5.5V3.25M6.371 8.75h10.66M12.344 8.75c-2.112 
  1.722-5.036 3.072-8.42 4.017M4.09 16.21c2.311-.874 4.587-1.87 6.574-3.422M3.53 
  19.86c3.664-1.22 6.313-2.701 8.893-4.871M8.474 11.114c1.761.656 4.053 2.753 
  4.741 6.257M13.215 17.371c.186 2.638-1.376 3.861-4.417 3.422M12.344 8.75c1.8
  5.707 4.737 8.91 8.42 10.363M14.793 14.088l4.416-3.022"/>
</svg>