<?xml version="1.0" encoding="utf-8"?>
<!-- Generator: Adobe Illustrator 21.1.0, SVG Export Plug-In . SVG Version: 6.00 Build 0)  -->
<svg version="1.1" id="Ebene_1" xmlns="http://www.w3.org/2000/svg" xmlns:xlink="http://www.w3.org/1999/xlink" x="0px" y="0px"
	 viewBox="0 0 24 24" style="enable-background:new 0 0 24 24;" xml:space="preserve">
<style type="text/css">
	.st0{fill:none;stroke:#757575;stroke-width:0.8;stroke-miterlimit:10;}
</style>
<path class="st0" d="M6.6,11.1c2,0,3.6,1.6,3.6,3.6s-1.6,3.6-3.6,3.6S3,16.7,3,14.7S4.6,11.1,6.6,11.1z M15.2,16.5
	c1.2,0,2.2,1,2.2,2.3s-1,2.3-2.2,2.3s-2.3-1-2.3-2.3S13.9,16.5,15.2,16.5z M15.6,3c3,0,5.4,2.4,5.4,5.4s-2.4,5.4-5.4,5.4
	s-5.4-2.4-5.4-5.4S12.6,3,15.6,3z"/>
</svg>
