<svg xmlns="http://www.w3.org/2000/svg" fill-rule="evenodd" stroke-linecap="round" stroke-linejoin="round" stroke-miterlimit="1.5" clip-rule="evenodd" viewBox="0 0 24 24">
  <path 
  fill="none"
  stroke="#757575"
  stroke-width="1.5" 
  d="M11.25 20.25V5.05c0-.718-.582-1.3-1.3-1.3H4.035c-.341 
  0-.668.135-.909.376s-.376.568-.376.909V18.95c0 .718.582 
  1.3 1.3 1.3h15.931c.718 0 1.3-.582 
  1.3-1.3V9.3c0-.345-.137-.675-.381-.919S20.326 8 
  19.981 8H2.8M2.75 12h10.5M2.75 16h10.5M16.75
  16h.5M16.75 12h.5M7 3.75v16.5"/>
</svg>