<?xml version="1.0" encoding="utf-8"?>
<!-- Generator: Adobe Illustrator 21.1.0, SVG Export Plug-In . SVG Version: 6.00 Build 0)  -->
<svg version="1.1" id="Ebene_1" xmlns="http://www.w3.org/2000/svg" xmlns:xlink="http://www.w3.org/1999/xlink" x="0px" y="0px"
	 viewBox="0 0 24 24" style="enable-background:new 0 0 24 24;" xml:space="preserve">
<style type="text/css">
	.st0{fill:none;stroke:#757575;stroke-width:0.8;stroke-miterlimit:10;}
</style>
<path class="st0" d="M19.3,21.5h-5.8c-0.5,0-1-0.5-1-1v-5.8c0-0.6,0.5-1,1-1h5.8c0.5,0,1,0.4,1,1v5.8C20.3,21,19.8,21.5,19.3,21.5z
	 M16.3,2.5c-2.2,0-3.9,1.8-3.9,3.9s1.8,3.9,3.9,3.9s3.9-1.8,3.9-3.9S18.5,2.5,16.3,2.5z M1.9,12.3l6.2,3.6c0.2,0.1,0.5,0,0.5-0.3
	V8.4c0-0.3-0.3-0.4-0.5-0.3l-6.2,3.6C1.7,11.9,1.7,12.2,1.9,12.3z"/>
</svg>
