<svg xmlns="http://www.w3.org/2000/svg" fill-rule="evenodd" stroke-linecap="round" stroke-linejoin="round" stroke-miterlimit="10" clip-rule="evenodd" viewBox="0 0 24 24">
  <path 
  fill="none"
  stroke="#757575" 
  stroke-width=".8" 
  d="M20 22H4c-.5 0-1-.5-1-1v-9.4C3 10.2 4.2 9 5.6 9H19c1.1 0 2 .9 2 2v10c0 .5-.5 1-1 1z
  M12 7v2m-1.3-4.8c0-.3.1-.5.2-.7l1.1-2 1.1 2c.1.2.2.4.2.7 0 .7-.6 1.3-1.3 1.3-.7 0-1.3-.6-1.3-1.3z
  M3 15.4c.6.4 1.2.6 2 .6.9 0 1.8-.4 2.4-1l1.1-1.1L9.6 15c1.3 1.3 3.6 1.3 4.9 0l1.1-1.1 1.1 1.1c.6.6 1.5 1 2.4 1 .66 0 1.32-.178 1.897-.534"/>
</svg>
