<?xml version="1.0" encoding="utf-8"?>
<!-- Generator: Adobe Illustrator 21.1.0, SVG Export Plug-In . SVG Version: 6.00 Build 0)  -->
<svg version="1.1" id="Ebene_1" xmlns="http://www.w3.org/2000/svg" xmlns:xlink="http://www.w3.org/1999/xlink" x="0px" y="0px"
	 viewBox="0 0 24 24" style="enable-background:new 0 0 24 24;" xml:space="preserve">
<style type="text/css">
	.st0{fill:none;stroke:#757575;stroke-width:0.8;stroke-miterlimit:10;}
</style>
<path class="st0" d="M20,22H4c-0.5,0-1-0.5-1-1v-9.4C3,10.2,4.2,9,5.6,9H19c1.1,0,2,0.9,2,2v10C21,21.5,20.5,22,20,22z M12,7v2
	 M10.7,4.2c0-0.3,0.1-0.5,0.2-0.7l1.1-2l1.1,2c0.1,0.2,0.2,0.4,0.2,0.7c0,0.7-0.6,1.3-1.3,1.3C11.3,5.5,10.7,4.9,10.7,4.2z M3,15.4
	C3.6,15.8,4.2,16,5,16c0.9,0,1.8-0.4,2.4-1l1.1-1.1L9.6,15c1.3,1.3,3.6,1.3,4.9,0l1.1-1.1l1.1,1.1c0.6,0.6,1.5,1,2.4,1
	c0.7,0,1.4-0.2,2-0.6"/>
</svg>
