<svg xmlns="http://www.w3.org/2000/svg" fill-rule="evenodd" stroke-linecap="round" stroke-linejoin="round" stroke-miterlimit="1.5" clip-rule="evenodd" viewBox="0 0 24 24">
  <path fill="none" stroke="#757575" stroke-width="1.5"
  d="M18.25 4.05c0-.345-.137-.675-.381-.919s-.574-.381-.919-.381h-9.9c-.345
  0-.675.137-.919.381s-.381.574-.381.919v15.9c0 .345.137.675.381.919s.574.381.919.381h9.9c.345 
  0 .675-.137.919-.381s.381-.574.381-.919V4.05zM6.083 9h11.75M6.083 13h11.75M6.083 17h11.75M10
  9.45v11.5M14 9.45v11.5"/>
</svg>