<svg xmlns="http://www.w3.org/2000/svg" fill-rule="evenodd" stroke-linecap="round" stroke-linejoin="round" stroke-miterlimit="1.5" clip-rule="evenodd" viewBox="0 0 24 24">
  <path fill="none" stroke="#757575" stroke-width="2" 
  d="M20.25 6.75c0-1.105-.895-2-2-2H5.75c-1.105 0-2 .895-2 
  2v12.5c0 1.105.895 2 2 2h12.5c1.105 0 2-.895 2-2V6.75zm-16.5 
  2.5h16.5M7.006 4.75v-2m10 2v-2 M14.793 15.793c.39-.39 
  1.024-.39 1.414 0 .39.39.39 1.024 0 1.414-.39.39-1.024.39-1.414 
  0-.39-.39-.39-1.024 0-1.414z"/>
</svg>