<svg xmlns="http://www.w3.org/2000/svg" fill-rule="evenodd" stroke-linecap="round" stroke-linejoin="round" stroke-miterlimit="1.5" clip-rule="evenodd" viewBox="0 0 24 24">
  <path 
  fill="none"
  stroke="#757575"
  stroke-width="1.5" 
  d="M20.5 5.5c0-.398-.158-.779-.439-1.061C19.779 4.158 19.398
  4 19 4H4.991c-.395 0-.775.157-1.054.437-.28.279-.437.659-.437 
  1.054V19.5c0 .398.158.779.439 1.061.282.281.663.439 1.061.439h14c.398
  0 .779-.158 1.061-.439.281-.282.439-.663.439-1.061v-14zM7.009
  2v2M16.991 2v2 M12.503 13.003h4v4h-4z"/>
</svg>