<svg xmlns="http://www.w3.org/2000/svg" fill-rule="evenodd" stroke-linecap="round" stroke-linejoin="round" stroke-miterlimit="1.5" clip-rule="evenodd" viewBox="0 0 24 24">
  <path
      fill="none"
      stroke="#757575"
      stroke-width="1.5"
      d="M20.25 6.75c0-1.105-.895-2-2-2H5.75c-1.105 0-2
  .895-2 2v12.5c0 1.105.895 2 2 2h12.5c1.105 0 2-.895
  2-2V6.75zm-16.5 2.5h16.5M7.006 4.75v-2m10 2v-2
  M13.286 14.263c.683-.683 1.792-.683 2.474 0 .683.683.683
  1.791 0 2.474-.682.683-1.791.683-2.474 0-.683-.683-.683-1.791
  0-2.474z"/>
</svg>