<svg xmlns="http://www.w3.org/2000/svg" fill-rule="evenodd" stroke-linecap="round" stroke-linejoin="round" stroke-miterlimit="1.5" clip-rule="evenodd" viewBox="0 0 24 24">
  <path fill="none" stroke="#757575" stroke-width="1.5" 
  d="M5.228 10.753L8.25 7.75c-.501-1.333-.61-2.572-.6-3.763 0 
  0-2.334.008-3.386.011-.135.001-.263.055-.357.151-.094.096-.145.226-.142.36.267 
  8.564 7.176 15.468 15.746
  15.733.134.003.263-.048.359-.142.096-.093.15-.222.15-.355.002-1.053.002-3.385.002-3.385-1.19.01-2.429-.099-3.762-.6l-3.003
  3.021M13.75 4h6.2m-6.2 3h6.2m-6.2 3h6.2"/>
</svg>