<?xml version="1.0" encoding="utf-8"?>
<!-- Generator: Adobe Illustrator 21.1.0, SVG Export Plug-In . SVG Version: 6.00 Build 0)  -->
<svg version="1.1" id="Ebene_1" xmlns="http://www.w3.org/2000/svg" xmlns:xlink="http://www.w3.org/1999/xlink" x="0px" y="0px"
	 viewBox="0 0 24 24" style="enable-background:new 0 0 24 24;" xml:space="preserve">
<style type="text/css">
	.st0{fill:none;stroke:#757575;stroke-width:0.8;stroke-miterlimit:10;}
</style>
<path class="st0" d="M11.7,18.8l3.7-3.7c0.3-0.3,0.7-0.4,1-0.2c1.1,0.4,2.3,0.6,3.6,0.6c0.5,0,1,0.4,1,1V20c0,0.5-0.5,1-1,1
	C10.6,21,3,13.4,3,4c0-0.5,0.5-1,1-1h3.5c0.6,0,1,0.5,1,1c0,1.3,0.2,2.4,0.6,3.6c0.1,0.3,0,0.7-0.3,1l-3.7,3.7 M16.9,2.6v9
	 M12.4,7.1h9"/>
</svg>
