<svg xmlns="http://www.w3.org/2000/svg" fill-rule="evenodd" stroke-linecap="round" stroke-linejoin="round" stroke-miterlimit="1.5" clip-rule="evenodd" viewBox="0 0 24 24">
  <path fill="none" stroke="#757575" stroke-width="1.5" 
  d="M21.25 7.25c0-.828-.672-1.5-1.5-1.5H4.25c-.828 0-1.5.672-1.5 1.5v11.5c0 
  .828.672 1.5 1.5 1.5h15.5c.828 0 1.5-.672 1.5-1.5V7.25zM7.942 
  5.356L9.5 3.75h5l1.621 1.621M9 4.761h6 M10.732 9.525c.7-.699 1.836-.699 2.536 
  0 .7.7.7 1.836 0 2.536s-1.836.7-2.536 0-.7-1.836 0-2.536zm5.27 
  6.771c0 .49.002.705.002.705H7.996s.002-.206.002-.705c0-.989 
  1.793-1.793 4.002-1.793 2.209 0 4.002.804 4.002 1.793z"/>
</svg>