<?xml version="1.0" encoding="utf-8"?>
<!-- Generator: Adobe Illustrator 21.1.0, SVG Export Plug-In . SVG Version: 6.00 Build 0)  -->
<svg version="1.1" id="Ebene_1" xmlns="http://www.w3.org/2000/svg" xmlns:xlink="http://www.w3.org/1999/xlink" x="0px" y="0px"
	 viewBox="0 0 24 24" style="enable-background:new 0 0 24 24;" xml:space="preserve">
<style type="text/css">
	.st0{fill:none;stroke:#757575;stroke-width:0.8;stroke-miterlimit:10;}
</style>
<path class="st0" d="M9,3L7.2,5H4C2.9,5,2,5.9,2,7v12c0,1.1,0.9,2,2,2h16c1.1,0,2-0.9,2-2V7c0-1.1-0.9-2-2-2h-3.2L15,3H9z M12,18.5
	V21 M10.1,14.7v-3.8C10.1,9.8,11,9,12,9s1.9,0.8,1.9,1.9v3.8c0,1-0.8,1.9-1.9,1.9S10.1,15.7,10.1,14.7z M7.9,14.3
	c0,2.3,1.9,4.1,4.1,4.1s4.1-1.9,4.1-4.1"/>
</svg>
