<svg xmlns="http://www.w3.org/2000/svg" fill-rule="evenodd" stroke-linecap="round" stroke-linejoin="round" stroke-miterlimit="1.5" clip-rule="evenodd" viewBox="0 0 24 24">
  <path fill="none" stroke="#757575" stroke-width="1.5"
      d="M21.25 7.25c0-.828-.672-1.5-1.5-1.5H4.25c-.828
  0-1.5.672-1.5 1.5v11.5c0 .828.672 1.5 1.5 1.5h15.5c.828
  0 1.5-.672 1.5-1.5V7.25zM7.548 5.75l1.952-2h5l2 2M9
  4.761h6 M9.879 10.879c1.17-1.171 3.072-1.171 4.242
  0 1.171 1.17 1.171 3.072 0 4.242-1.17 1.171-3.072
  1.171-4.242 0-1.171-1.17-1.171-3.072 0-4.242z"/>
</svg>