<?xml version="1.0" encoding="utf-8"?>
<!-- Generator: Adobe Illustrator 21.1.0, SVG Export Plug-In . SVG Version: 6.00 Build 0)  -->
<svg version="1.1" id="Ebene_1" xmlns="http://www.w3.org/2000/svg" xmlns:xlink="http://www.w3.org/1999/xlink" x="0px" y="0px"
	 viewBox="0 0 24 24" style="enable-background:new 0 0 24 24;" xml:space="preserve">
<style type="text/css">
	.st0{fill:none;stroke:#757575;stroke-width:0.8;stroke-miterlimit:10;}
</style>
<path class="st0" d="M19.4,4.4c-0.2-0.6-0.8-1.1-1.6-1.1h-12C5.1,3.3,4.5,3.8,4.3,4.4L2,10v9.6c0,0.6,0.5,1.1,1.1,1.1h1.1
	c0.6,0,1.1-0.5,1.1-1.1v-1.1h13.2v1.1c0,0.6,0.5,1.1,1.1,1.1h1.1c0.6,0,1.1-0.5,1.1-1.1V10L19.4,4.4z M6,15.5
	c-0.8,0-1.5-0.7-1.5-1.5c0-0.8,0.7-1.5,1.5-1.5s1.5,0.7,1.5,1.5C7.5,14.8,6.8,15.5,6,15.5z M18,15.5c-0.8,0-1.5-0.7-1.5-1.5
	s0.7-1.5,1.5-1.5s1.5,0.7,1.5,1.5S18.8,15.5,18,15.5z M22,10H2"/>
</svg>
