<svg xmlns="http://www.w3.org/2000/svg" fill-rule="evenodd" stroke-linecap="round" stroke-linejoin="round" stroke-miterlimit="10" clip-rule="evenodd" viewBox="0 0 24 24">
  <path 
  fill="none"
  stroke="#757575" 
  stroke-width=".8" 
  d="M19.4 4.4c-.2-.6-.8-1.1-1.6-1.1h-12c-.7 0-1.3.5-1.5 1.1L2 10v9.6c0 .6.5 1.1 1.1 1.1h1.1c.6 0 
  1.1-.5 1.1-1.1v-1.1h13.2v1.1c0 .6.5 1.1 1.1 1.1h1.1c.6 0 1.1-.5 1.1-1.1V10l-2.4-5.6z
  M6 15.5c-.8 0-1.5-.7-1.5-1.5s.7-1.5 1.5-1.5 1.5.7 1.5 1.5-.7 1.5-1.5 1.5zm12 0c-.8 0-1.5-.7-1.5-1.5s.7-1.5 1.5-1.5 1.5.7 1.5 1.5-.7 1.5-1.5 1.5zm3.8-5.5H2"/>
</svg>
