<?xml version="1.0" encoding="utf-8"?>
<!-- Generator: Adobe Illustrator 21.1.0, SVG Export Plug-In . SVG Version: 6.00 Build 0)  -->
<svg version="1.1" id="Ebene_1" xmlns="http://www.w3.org/2000/svg" xmlns:xlink="http://www.w3.org/1999/xlink" x="0px" y="0px"
	 viewBox="0 0 24 24" style="enable-background:new 0 0 24 24;" xml:space="preserve">
<style type="text/css">
	.st0{fill:none;stroke:#757575;stroke-width:0.8;stroke-miterlimit:10;}
</style>
<path class="st0" d="M8,18.5c0.5,0,1-0.3,1.2-0.8l1.4-3.5c0.2-0.6,0.8-1,1.4-1s1.2,0.4,1.4,1l1.4,3.5c0.2,0.5,0.6,0.8,1.1,0.8H20
	c1.1,0,2-0.9,2-2v-9c0-1.1-0.9-2-2-2H4c-1.1,0-2,0.9-2,2v9c0,1.1,0.9,2,2,2H8z M8.8,10.5c0,1-0.8,1.8-1.8,1.8s-1.8-0.8-1.8-1.8
	S6,8.8,7,8.8S8.8,9.5,8.8,10.5z M18.8,10.5c0,1-0.8,1.8-1.8,1.8s-1.8-0.8-1.8-1.8S16,8.8,17,8.8S18.8,9.5,18.8,10.5z"/>
</svg>
