<svg xmlns="http://www.w3.org/2000/svg" fill-rule="evenodd" stroke-miterlimit="10" clip-rule="evenodd" viewBox="0 0 24 24">
  <path
  fill="none"
  stroke="#757575"
  stroke-width="1.5" 
  d="M8.2 18.175c.475 0 .95-.285 1.14-.76l1.33-3.325c.19-.57.76-.95 1.33-.95.57 0 
  1.14.38 1.33.95l1.33 3.325c.19.475.57.76 1.045.76H19.6c1.045 0 1.9-.855
  1.9-1.9v-8.55c0-1.045-.855-1.9-1.9-1.9H4.4c-1.045 0-1.9.855-1.9 1.9v8.55c0
  1.045.855 1.9 1.9 1.9h3.8z M7.225 9.15c.786-.014 1.436.614 1.45 1.4.014.786-.614 1.436-1.4 
  1.45-.786.014-1.436-.614-1.45-1.4-.014-.786.614-1.436 1.4-1.45zM16.725 9.15c.786-.014 
  1.436.614 1.45 1.4.014.786-.614 1.436-1.4 1.45-.786.014-1.436-.614-1.45-1.4-.014-.786.614-1.436
  1.4-1.45z"/>
</svg>