<?xml version="1.0" encoding="utf-8"?>
<!-- Generator: Adobe Illustrator 21.1.0, SVG Export Plug-In . SVG Version: 6.00 Build 0)  -->
<svg version="1.1" id="Ebene_1" xmlns="http://www.w3.org/2000/svg" xmlns:xlink="http://www.w3.org/1999/xlink" x="0px" y="0px"
	 viewBox="0 0 24 24" style="enable-background:new 0 0 24 24;" xml:space="preserve">
<style type="text/css">
	.st0{fill:none;stroke:#757575;stroke-width:0.8;stroke-miterlimit:10;}
</style>
<path class="st0" d="M16.1,12l3.2,3.2l3.2-3.2H16.1z M16.8,18c-1.5,1.5-3.7,2.5-6,2.5c-4.7,0-8.5-3.8-8.5-8.5s3.8-8.5,8.5-8.5
	s8.5,3.8,8.5,8.5 M12,9.9c0-0.6-0.5-1.2-1.2-1.2c-0.7,0-1.2,0.6-1.2,1.2c0,0.6,0.5,1.2,1.2,1.2C11.5,11,12,10.5,12,9.9z M13.7,13.7
	c0-0.9-1.9-1.4-2.9-1.4s-2.9,0.4-2.9,1.4"/>
</svg>
