<svg xmlns="http://www.w3.org/2000/svg" fill-rule="evenodd" stroke-linecap="round" stroke-linejoin="round" stroke-miterlimit="1.5" clip-rule="evenodd" viewBox="0 0 24 24">
  <path fill="none" stroke="#757575" stroke-width="1.5"
  d="M20.25 5.25c0-.398-.158-.779-.439-1.061-.282-.281-.663-.439-1.061-.439H5.25c-.398
  0-.779.158-1.061.439-.281.282-.439.663-.439 1.061v13.5c0 .398.158.779.439 
  1.061.282.281.663.439 1.061.439h13.5c.398 0 .779-.158
  1.061-.439.281-.282.439-.663.439-1.061V5.25z
  M7.241 12.783l2.781 2.842 6.742-6.786"/>
</svg>