<?xml version="1.0" encoding="utf-8"?>
<!-- Generator: Adobe Illustrator 21.1.0, SVG Export Plug-In . SVG Version: 6.00 Build 0)  -->
<svg version="1.1" id="Ebene_1" xmlns="http://www.w3.org/2000/svg" xmlns:xlink="http://www.w3.org/1999/xlink" x="0px" y="0px"
	 viewBox="0 0 24 24" style="enable-background:new 0 0 24 24;" xml:space="preserve">
<style type="text/css">
	.st0{fill:none;stroke:#757575;stroke-width:0.8;stroke-miterlimit:10;}
</style>
<path class="st0" d="M19,4H5C3.9,4,3,4.9,3,6v12c0,1.1,0.9,2,2,2h14c1.1,0,2-0.9,2-2V6C21,4.9,20.1,4,19,4z M11.1,12.8v0.8
	c0,0.5-0.3,0.8-0.8,0.8H7.8c-0.5,0-0.8-0.3-0.8-0.8v-3.3c0-0.5,0.3-0.8,0.8-0.8h2.5c0.5,0,0.8,0.3,0.8,0.8v0.8 M17.1,12.8v0.8
	c0,0.5-0.4,0.8-0.8,0.8h-2.5c-0.5,0-0.8-0.3-0.8-0.8v-3.3c0-0.5,0.3-0.8,0.8-0.8h2.5c0.4,0,0.8,0.3,0.8,0.8v0.8"/>
</svg>
