<svg xmlns="http://www.w3.org/2000/svg" fill-rule="evenodd" stroke-linecap="round" stroke-linejoin="round" stroke-miterlimit="1.5" clip-rule="evenodd" viewBox="0 0 24 24">
  <path fill="none" stroke="#757575" stroke-width="2" 
  d="M7.689 7.738C8.837 8.756 10.347 9.375 12 9.375s3.163-.619 
  4.311-1.637c1.928 1.358 3.189 3.602 3.189 6.137 0 4.139-3.361 
  7.5-7.5 7.5-4.139 0-7.5-3.361-7.5-7.5 0-2.535 1.261-4.779 
  3.189-6.137zM15.111 17.125c-1.717 1.717-4.505 1.717-6.222 0
  M7.689 7.738L12 2.625l4.311 5.113M4.231 13.728c-.813-.143-1.357-.92-1.213-1.733.126-.719.749-1.228 
  1.455-1.236M19.453 10.76c.736-.029 1.399.49 1.531 1.235.143.813-.401 
  1.59-1.214 1.733M7.75 12.625h2M8.75 13.625v-2M14.25 12.625h2M15.25 13.625v-2"/>
</svg>