<svg xmlns="http://www.w3.org/2000/svg" fill-rule="evenodd" stroke-linejoin="round" stroke-miterlimit="1.41421" clip-rule="evenodd" viewBox="0 0 24 24">
  <path fill="none" stroke="#757575" stroke-width="2" 
  d="M12 2.5c-5.246 0-9.5 4.254-9.5 9.5s4.254 9.5 9.5 9.5c.876 0 1.583-.707 
  1.583-1.583 0-.412-.158-.781-.411-1.066-.243-.275-.401-.644-.401-1.045
  0-.877.707-1.584 1.583-1.584h1.868c2.914 0 5.278-2.364 5.278-5.278C21.5 
  6.279 17.246 2.5 12 2.5z M5.703 10.718c.39-.39 1.024-.39 1.414 0 .39.39.39 
  1.024 0 1.414-.39.39-1.024.39-1.414 0-.39-.39-.39-1.024 0-1.414zM8.493 
  6.267c.39-.39 1.023-.39 1.414 0 .39.39.39 1.024 0 1.414-.391.391-1.024.391-1.414
  0-.391-.39-.391-1.024 0-1.414zM14.093 6.267c.391-.39 1.024-.39 1.414 0 .391.39.391 
  1.024 0 1.414-.39.391-1.023.391-1.414 0-.39-.39-.39-1.024 0-1.414zM16.883 
  10.718c.39-.39 1.024-.39 1.414 0 .39.39.39 
  1.024 0 1.414-.39.39-1.024.39-1.414 0-.39-.39-.39-1.024 0-1.414z"/>
</svg>