<svg xmlns="http://www.w3.org/2000/svg" viewBox="0 0 24 24">
  <path 
  fill="none" 
  stroke="#757575" 
  stroke-width=".8" 
  d="M12 2.5c-5.2 0-9.5 4.3-9.5 9.5s4.3 9.5 9.5 9.5c.9 0 1.6-.7 1.6-1.6 
  0-.4-.2-.8-.4-1.1-.2-.3-.4-.6-.4-1 0-.9.7-1.6 1.6-1.6h1.9c2.9 0 5.3-2.4 
  5.3-5.3-.1-4.6-4.4-8.4-9.6-8.4zm-5.5 9c-.6 0-1-.4-1-1s.4-1 1-1 1 .4 1 1-.4 1-1 1zm3-4c-.6 
  0-1-.4-1-1s.4-1 1-1 1 .4 1 1-.4 1-1 1zm5 0c-.6 0-1-.4-1-1s.4-1 1-1 1 .4 1 1-.4 1-1 1zm3 4c-.6 0-1-.4-1-1s.4-1 1-1 1 .4 1 1-.4 1-1 1z"/>
</svg>
