<?xml version="1.0" encoding="UTF-8" standalone="no"?><!DOCTYPE svg PUBLIC "-//W3C//DTD SVG 1.1//EN" "http://www.w3.org/Graphics/SVG/1.1/DTD/svg11.dtd"><svg width="100%" height="100%" viewBox="0 0 24 24" version="1.1" xmlns="http://www.w3.org/2000/svg" xmlns:xlink="http://www.w3.org/1999/xlink" xml:space="preserve" xmlns:serif="http://www.serif.com/" style="fill-rule:evenodd;clip-rule:evenodd;stroke-linecap:round;stroke-linejoin:round;stroke-miterlimit:1.5;"><circle cx="11.906" cy="16.612" r="4.171" style="fill:none;stroke:#757575;stroke-width:1.5px;"/><path d="M4.649,19.501c-1.93,-1.783 -3.127,-4.26 -3.127,-6.997c0,-5.426 4.705,-9.832 10.5,-9.832c5.795,0 10.5,4.406 10.5,9.832c0,2.473 -0.977,4.733 -2.588,6.461" style="fill:none;stroke:#757575;stroke-width:1.5px;"/><path d="M4.817,19.54c-0.941,-1.378 -1.492,-3.043 -1.492,-4.835c0,-4.736 3.845,-8.581 8.581,-8.581c4.736,0 8.581,3.845 8.581,8.581c0,1.322 -0.3,2.574 -0.835,3.693" style="fill:none;stroke:#757575;stroke-width:1.5px;"/><path d="M19.934,18.965l-3.368,-1.584" style="fill:none;stroke:#757575;stroke-width:1.5px;"/><path d="M14.589,13.194l2.588,-4.71" style="fill:none;stroke:#757575;stroke-width:1.5px;"/></svg>