<?xml version="1.0" encoding="utf-8"?>
<!-- Generator: Adobe Illustrator 21.1.0, SVG Export Plug-In . SVG Version: 6.00 Build 0)  -->
<svg version="1.1" id="Ebene_1" xmlns="http://www.w3.org/2000/svg" xmlns:xlink="http://www.w3.org/1999/xlink" x="0px" y="0px"
	 viewBox="0 0 24 24" style="enable-background:new 0 0 24 24;" xml:space="preserve">
<style type="text/css">
	.st0{fill:none;stroke:#757575;stroke-width:0.8;stroke-miterlimit:10;}
</style>
<path class="st0" d="M12,2.4c-5.3,0-9.6,4.3-9.6,9.6s4.3,9.6,9.6,9.6s9.6-4.3,9.6-9.6S17.3,2.4,12,2.4z M13.5,9
	c0,0.8-0.7,1.5-1.5,1.5S10.5,9.8,10.5,9s0.7-1.5,1.5-1.5S13.5,8.2,13.5,9z M10,15c0,0.8-0.7,1.5-1.5,1.5S7,15.8,7,15
	s0.7-1.5,1.5-1.5S10,14.2,10,15z M17,15c0,0.8-0.7,1.5-1.5,1.5c-0.8,0-1.5-0.7-1.5-1.5s0.7-1.5,1.5-1.5C16.3,13.5,17,14.2,17,15z"/>
</svg>
