<svg xmlns="http://www.w3.org/2000/svg" fill-rule="evenodd" stroke-miterlimit="10" clip-rule="evenodd" viewBox="0 0 24 24">
  <path
  fill="none" 
  stroke="#757575"
  stroke-width="1.5"
  d="M13.35 8.8c0 .72-.63 1.35-1.35 1.35-.72 0-1.35-.63-1.35-1.35 
  0-.72.63-1.35 1.35-1.35.72 0 1.35.63 1.35 1.35zm-3.15 5.4c0 .72-.63 
  1.35-1.35 1.35-.72 0-1.35-.63-1.35-1.35 0-.72.63-1.35 1.35-1.35.72
  0 1.35.63 1.35 1.35zm6.3 0c0 .72-.63 1.35-1.35 1.35-.72 
  0-1.35-.63-1.35-1.35 0-.72.63-1.35 1.35-1.35.72 0 1.35.63 1.35
  1.35z M12 2.5c-5.244 0-9.5 4.256-9.5 9.5s4.256 9.5 9.5 9.5
  9.5-4.256 9.5-9.5-4.256-9.5-9.5-9.5z"/>
</svg>