<svg xmlns="http://www.w3.org/2000/svg" fill-rule="evenodd" stroke-linecap="round" stroke-linejoin="round" stroke-miterlimit="1.5" clip-rule="evenodd" viewBox="0 0 24 24">
  <path fill="none" stroke="#757575" stroke-width="1.5" 
  d="M16.177 12.772c.207-.494.207-1.05 0-1.544-.845-2.019-3.11-7.429-3.9-9.317-.047-.111-.156-.184-.277-.184-.121
  0-.23.073-.277.184-.79 1.888-3.055 7.298-3.9 9.317-.207.494-.207
  1.05 0 1.544.845 2.019 3.11 7.429 3.9 9.317.047.111.156.184.277.184.121
  0 .23-.073.277-.184.79-1.888 3.055-7.298 3.9-9.317z
  M11.47 11.47c.292-.293.768-.293 1.06 0 .293.292.293.768 
  0 1.06-.292.293-.768.293-1.06 0-.293-.292-.293-.768
  0-1.06zM12 6.5v2"/>
</svg>