<svg xmlns="http://www.w3.org/2000/svg" fill-rule="evenodd" stroke-linecap="round" stroke-linejoin="round" stroke-miterlimit="10" clip-rule="evenodd" viewBox="0 0 24 24">
  <path 
  fill="none"
  stroke="#757575"
  stroke-width="1.5" 
  d="M21.5 17.7c0 1.045-.855 1.9-1.9 1.9H4.4c-1.045 0-1.9-.855-1.9-1.9v-3.325c1.33
  0 2.375-1.045 2.375-2.375S3.83 9.625 2.5 9.625V6.3c0-1.045.855-1.9 1.9-1.9h15.2c1.045 0 1.9.855
  1.9 1.9v3.325c-1.33 0-2.375 1.045-2.375 2.375s1.045 2.375 
  2.375 2.375V17.7z M11.5 8.5h1 M11.5 15.5h1
  M11.5 12h1"/>
</svg>