<?xml version="1.0" encoding="utf-8"?>
<!-- Generator: Adobe Illustrator 21.1.0, SVG Export Plug-In . SVG Version: 6.00 Build 0)  -->
<svg version="1.1" id="Ebene_1" xmlns="http://www.w3.org/2000/svg" xmlns:xlink="http://www.w3.org/1999/xlink" x="0px" y="0px"
	 viewBox="0 0 24 24" style="enable-background:new 0 0 24 24;" xml:space="preserve">
<style type="text/css">
	.st0{fill:none;stroke:#757575;stroke-width:0.8;stroke-miterlimit:10;}
</style>
<path class="st0" d="M22,14v4c0,1.1-0.9,2-2,2H4c-1.1,0-2-0.9-2-2v-4c1.1,0,2-0.9,2-2s-0.9-2-2-2V6c0-1.1,0.9-2,2-2h16
	c1.1,0,2,0.9,2,2v4c-1.1,0-2,0.9-2,2S20.9,14,22,14z M11,7.5h2 M11,12h2 M11,16.5h2"/>
</svg>
