<svg xmlns="http://www.w3.org/2000/svg" fill-rule="evenodd" stroke-linecap="round" stroke-linejoin="round" stroke-miterlimit="10" clip-rule="evenodd" viewBox="0 0 24 24">
  <path
  fill="none" 
  stroke="#757575" 
  stroke-width="1.5" 
  d="M20 4H4c-1.1 0-2 .9-2 2v12c0 1.1.9 
  2 2 2h16c1.1 0 2-.9 2-2V6c0-1.1-.9-2-2-2z M12 10.845c.778
  0 1.4-.623 1.4-1.4 0-.778-.622-1.4-1.4-1.4-.778 0-1.4.622-1.4
  1.4 0 .777.622 1.4 1.4 1.4zm3.5 4.11c0-1.244-2.255-1.633-3.5-1.633s-3.5.623-3.5
  1.633"/>
</svg>