<?xml version="1.0" encoding="utf-8"?>
<!-- Generator: Adobe Illustrator 21.1.0, SVG Export Plug-In . SVG Version: 6.00 Build 0)  -->
<svg version="1.1" id="Ebene_1" xmlns="http://www.w3.org/2000/svg" xmlns:xlink="http://www.w3.org/1999/xlink" x="0px" y="0px"
	 viewBox="0 0 24 24" style="enable-background:new 0 0 24 24;" xml:space="preserve">
<style type="text/css">
	.st0{fill:none;stroke:#757575;stroke-width:0.8;stroke-miterlimit:10;}
</style>
<path class="st0" d="M1.5,12.9c0.4,5.4,5,9.6,10.5,9.6c0.2,0,0.4,0,0.6,0l-3.3-3.3 M22.5,11.1c-0.4-5.4-5-9.6-10.5-9.6
	c-0.2,0-0.4,0-0.6,0l3.3,3.3 M16.4,13.8V9.4c0-1-0.8-1.8-1.8-1.8h-4.4 M15.5,8.5 M7.6,5v2.4v1.5v6c0,0.8,0.7,1.5,1.5,1.5h6h1.5H19
	 M7.6,7.6H5 M16.4,16.4V19"/>
</svg>
