<?xml version="1.0" encoding="utf-8"?>
<!-- Generator: Adobe Illustrator 21.1.0, SVG Export Plug-In . SVG Version: 6.00 Build 0)  -->
<svg version="1.1" id="Ebene_1" xmlns="http://www.w3.org/2000/svg" xmlns:xlink="http://www.w3.org/1999/xlink" x="0px" y="0px"
	 viewBox="0 0 24 24" style="enable-background:new 0 0 24 24;" xml:space="preserve">
<style type="text/css">
	.st0{display:none;opacity:0.2;fill:#757575;}
	.st1{fill:none;stroke:#757575;stroke-width:0.8;stroke-miterlimit:10;}
</style>
<path class="st0" d="M21.5,12c0,5.2-4.3,9.5-9.5,9.5S2.5,17.2,2.5,12S6.8,2.5,12,2.5S21.5,6.8,21.5,12z"/>
<path class="st1" d="M12,7.5v9 M7.5,12h9 M10.8,2.5C6.1,3,2.4,7.1,2.4,12c0,5.3,4.3,9.6,9.6,9.6c3.2,0,6-1.4,7.7-3.8 M13.2,2.5
	c4.7,0.6,8.5,4.6,8.5,9.6c0,1.4-0.3,2.6-0.8,3.8"/>
</svg>
