<?xml version="1.0" encoding="UTF-8" standalone="no"?><!DOCTYPE svg PUBLIC "-//W3C//DTD SVG 1.1//EN" "http://www.w3.org/Graphics/SVG/1.1/DTD/svg11.dtd"><svg width="100%" height="100%" viewBox="0 0 24 24" version="1.1" xmlns="http://www.w3.org/2000/svg" xmlns:xlink="http://www.w3.org/1999/xlink" xml:space="preserve" xmlns:serif="http://www.serif.com/" style="fill-rule:evenodd;clip-rule:evenodd;stroke-linecap:round;stroke-miterlimit:10;"><path d="M13.35,2l-5.7,0c-1.1,0 -2,0.9 -2,2l0,16c0,1.1 0.9,2 2,2l8.7,0c1.1,0 2,-0.9 2,-2l0,-9m-7.1,9l1.5,0m2.074,-15.95l0,6m2.611,-1.553l-5.223,-2.965m0,2.965l5.153,-3.106m4.459,-2.841l0,3m1.305,-0.776l-2.611,-1.483m0,1.483l2.576,-1.553m-1.27,7.829l0,2m0.87,-0.518l-1.741,-0.988m0,0.988l1.718,-1.035" style="fill:none;stroke:#757575;stroke-width:0.8px;"/></svg>