<svg xmlns="http://www.w3.org/2000/svg" fill-rule="evenodd" stroke-linecap="round" stroke-linejoin="round" stroke-miterlimit="1.5" clip-rule="evenodd" viewBox="0 0 24 24">
  <path
  id="Device"
  fill="none" 
  stroke="#757575"
  stroke-width="1.5"
  d="M7 22.5c-.828 0-1.5-.672-1.5-1.5V2.964c0-.393.156-.77.435-1.048.278-.278.656-.434 
  1.049-.433 2.497.003 7.512.011 10.018.015.828.001 1.498.672 1.498 1.5V21c0 .398-.158.779-.439 
  1.061-.282.281-.663.439-1.061.439H7z 
  M9.95 4.5h4.1m-2.8 15h1.5"/>
  
  <path
  id="Notification"
  visibility="hidden"
  fill="none" 
  stroke="#757575"
  stroke-width="1.5"
  d="M11.969 8.5V12m0 2.5v1"/>
  
  <path
  id="Done"
  visibility="hidden"
  fill="none" 
  stroke="#757575"
  stroke-width="1.5"
  d="M9 12.386l1.722 1.75L15 9.864"/>
</svg>