<svg xmlns="http://www.w3.org/2000/svg" fill-rule="evenodd" stroke-linecap="round" stroke-linejoin="round" stroke-miterlimit="1.5" clip-rule="evenodd" viewBox="0 0 24 24">
  <path fill="none" stroke="#757575" stroke-width="1.5" 
  d="M7 22.5c-.828 0-1.5-.672-1.5-1.5V2.964c0-.393.156-.77.435-1.048.278-.278.656-.434 
  1.049-.433 2.497.003 7.512.011 10.018.015.828.001 1.498.672 1.498 
  1.5V21c0 .398-.158.779-.439 1.061-.282.281-.663.439-1.061.439H7z
  M14.771 13.186c-.146.326-.352.632-.619.899-1.172 1.172-3.073
  1.172-4.244 0-1.171-1.17-1.171-3.072 0-4.243 1.171-1.171 
  3.072-1.171 4.244 0m.92-.655c0-.042-1.655 1.612-1.613
  1.612h1.509c.057 0 .104-.046.104-.103V9.187z"/>
</svg>