<svg xmlns="http://www.w3.org/2000/svg" fill-rule="evenodd" stroke-linecap="round" stroke-linejoin="round" stroke-miterlimit="1.5" clip-rule="evenodd" viewBox="0 0 24 24">
  <path fill="none" stroke="#757575" stroke-width="2" 
  d="M6.293 3.293c.39-.39 1.024-.39 1.414 0 .39.39.39 1.024 0 1.414-.39.39-1.024.39-1.414 
  0-.39-.39-.39-1.024 0-1.414zM11.293 3.293c.39-.39 1.024-.39 1.414 0 .39.39.39 1.024
  0 1.414-.39.39-1.024.39-1.414 0-.39-.39-.39-1.024 0-1.414zM16.293 3.293c.39-.39 
  1.024-.39 1.414 0 .39.39.39 1.024 0 1.414-.39.39-1.024.39-1.414 0-.39-.39-.39-1.024 
  0-1.414zM6.293 8.293c.39-.39 1.024-.39 1.414 0 .39.39.39 1.024 0 1.414-.39.39-1.024.39-1.414 
  0-.39-.39-.39-1.024 0-1.414zM11.293 8.293c.39-.39 1.024-.39 1.414 0 .39.39.39 1.024 
  0 1.414-.39.39-1.024.39-1.414 0-.39-.39-.39-1.024 0-1.414zM16.293 8.293c.39-.39 
  1.024-.39 1.414 0 .39.39.39 1.024 0 1.414-.39.39-1.024.39-1.414 0-.39-.39-.39-1.024 
  0-1.414zM6.293 13.293c.39-.39 1.024-.39 1.414 0 .39.39.39 1.024 0 1.414-.39.39-1.024.39-1.414 
  0-.39-.39-.39-1.024 0-1.414zM11.293 13.293c.39-.39 1.024-.39 1.414 0 .39.39.39 
  1.024 0 1.414-.39.39-1.024.39-1.414 0-.39-.39-.39-1.024 0-1.414zM11.293 19.293c.39-.39 
  1.024-.39 1.414 0 .39.39.39 1.024 0 1.414-.39.39-1.024.39-1.414 0-.39-.39-.39-1.024 
  0-1.414zM16.293 13.293c.39-.39 1.024-.39 1.414 0 .39.39.39 1.024 0 
  1.414-.39.39-1.024.39-1.414 0-.39-.39-.39-1.024 0-1.414z"/>
</svg>