<?xml version="1.0" encoding="utf-8"?>
<!-- Generator: Adobe Illustrator 21.1.0, SVG Export Plug-In . SVG Version: 6.00 Build 0)  -->
<svg version="1.1" id="Ebene_1" xmlns="http://www.w3.org/2000/svg" xmlns:xlink="http://www.w3.org/1999/xlink" x="0px" y="0px"
	 viewBox="0 0 24 24" style="enable-background:new 0 0 24 24;" xml:space="preserve">
<style type="text/css">
	.st0{fill:none;stroke:#757575;stroke-width:0.8;stroke-miterlimit:10;}
</style>
<path class="st0" d="M8,3.6c0,0.9-0.7,1.6-1.6,1.6S4.8,4.5,4.8,3.6S5.5,2,6.4,2S8,2.7,8,3.6z M12,2c-0.9,0-1.6,0.7-1.6,1.6
	s0.7,1.6,1.6,1.6s1.6-0.7,1.6-1.6S12.9,2,12,2z M17.6,2C16.7,2,16,2.7,16,3.6s0.7,1.6,1.6,1.6c0.9,0,1.6-0.7,1.6-1.6S18.5,2,17.6,2z
	 M6.4,7.6c-0.9,0-1.6,0.7-1.6,1.6c0,0.9,0.7,1.6,1.6,1.6S8,10.1,8,9.2C8,8.3,7.3,7.6,6.4,7.6z M12,7.6c-0.9,0-1.6,0.7-1.6,1.6
	c0,0.9,0.7,1.6,1.6,1.6s1.6-0.7,1.6-1.6C13.6,8.3,12.9,7.6,12,7.6z M17.6,7.6c-0.9,0-1.6,0.7-1.6,1.6c0,0.9,0.7,1.6,1.6,1.6
	c0.9,0,1.6-0.7,1.6-1.6C19.2,8.3,18.5,7.6,17.6,7.6z M6.4,13.2c-0.9,0-1.6,0.7-1.6,1.6c0,0.9,0.7,1.6,1.6,1.6S8,15.7,8,14.8
	C8,13.9,7.3,13.2,6.4,13.2z M12,13.2c-0.9,0-1.6,0.7-1.6,1.6c0,0.9,0.7,1.6,1.6,1.6s1.6-0.7,1.6-1.6C13.6,13.9,12.9,13.2,12,13.2z
	 M17.6,13.2c-0.9,0-1.6,0.7-1.6,1.6c0,0.9,0.7,1.6,1.6,1.6c0.9,0,1.6-0.7,1.6-1.6C19.2,13.9,18.5,13.2,17.6,13.2z M12,18.7
	c-0.9,0-1.6,0.7-1.6,1.6S11.1,22,12,22s1.6-0.7,1.6-1.6S12.9,18.7,12,18.7z"/>
</svg>
