<svg xmlns="http://www.w3.org/2000/svg" fill-rule="evenodd" stroke-miterlimit="10" clip-rule="evenodd" viewBox="0 0 24 24">
  <path
  fill="none"
  stroke="#757575"
  stroke-width="1.5"
  d="M19 21H5c-1.1 0-2-.9-2-2V5c0-1.1.9-2 2-2h14c1.1 0 2 .9 2 
  2v14c0 1.1-.9 2-2 2zM8.5 7C7.7 7 7 7.7 7 8.5S7.7 10 8.5 10 10
  9.3 10 8.5 9.3 7 8.5 7zm0 7c-.8 0-1.5.7-1.5 1.5S7.7 17 8.5 
  17s1.5-.7 1.5-1.5S9.3 14 8.5 14zm7 0c-.8 0-1.5.7-1.5 1.5s.7
  1.5 1.5 1.5 1.5-.7 1.5-1.5-.7-1.5-1.5-1.5zm0-7c-.8 0-1.5.7-1.5
  1.5s.7 1.5 1.5 1.5S17 9.3 17 
  8.5 16.3 7 15.5 7z"/>
</svg>