<svg xmlns="http://www.w3.org/2000/svg" fill-rule="evenodd" stroke-linecap="round" stroke-linejoin="round" stroke-miterlimit="1.5" clip-rule="evenodd" viewBox="0 0 24 24">
  <path 
  fill="none" 
  stroke="#757575"
  stroke-width="1.5"
  d="M10.055 3.78c1.074-1.073 2.816-1.073 3.89 
  0 1.073 1.074 1.073 2.816 0 3.89-1.074 1.073-2.816 
  1.073-3.89 0-1.073-1.074-1.073-2.816 0-3.89z
  M10.445 11.78L12 13.402s.482-.548 1.555-1.622c1.074-1.073 
  2.816-1.073 3.89 0 1.073 1.074 1.073 2.816 0 3.89L12 
  21.025 6.555 15.67c-1.073-1.074-1.073-2.816 0-3.89 
  1.074-1.073 2.816-1.073 3.89 0"/>
</svg>