<svg xmlns="http://www.w3.org/2000/svg" fill-rule="evenodd" stroke-linejoin="round" stroke-miterlimit="1.41421" clip-rule="evenodd" viewBox="0 0 24 24">
  <path 
  fill="none" 
  stroke="#757575" 
  stroke-width="1.5"
  d="M15 9V4c0-.265-.105-.52-.293-.707C14.52 3.105 14.265 3 14 3h-4c-.265 
  0-.52.105-.707.293C9.105 3.48 9 3.735 9 4v5l3 3 3-3zM9 9H4c-.265 0-.52.105-.707.293C3.105
  9.48 3 9.735 3 10v4c0 .265.105.52.293.707.187.188.442.293.707.293h5m0 0v5c0 
  .265.105.52.293.707.187.188.442.293.707.293h4c.265 0 .52-.105.707-.293.188-.187.293-.442.293-.707v-5l-3-3-3
  3zm6 0h5c.265 0 .52-.105.707-.293.188-.187.293-.442.293-.707v-4c0-.265-.105-.52-.293-.707C20.52 
  9.105 20.265 9 20 9h-5"/>
</svg>