<?xml version="1.0" encoding="utf-8"?>
<!-- Generator: Adobe Illustrator 21.1.0, SVG Export Plug-In . SVG Version: 6.00 Build 0)  -->
<svg version="1.1" id="Ebene_1" xmlns="http://www.w3.org/2000/svg" xmlns:xlink="http://www.w3.org/1999/xlink" x="0px" y="0px"
	 viewBox="0 0 24 24" style="enable-background:new 0 0 24 24;" xml:space="preserve">
<style type="text/css">
	.st0{fill:none;stroke:#757575;stroke-width:0.8;stroke-miterlimit:10;}
</style>
<path class="st0" d="M11.5,13.5c-0.3,7.1,6.9,6.9,6.9,6.9c0,0,0,0,0,0c-6,3.2-12.8,1.1-15.3-3.4C1.5,13,2.2,8.6,5,5.5
	C8.2,1.9,12.9,2,13.5,2L13,3.6c0,0,1.7,0.5,2.7,2.8l6.1-2.5l-5.2,4.8l2.3,5c0,0,0,3.2-3.1,2.4L11.5,13.5c0,0-5.7,0.8-4.5-5.5
	 M12.3,8.8l1.6,0.9"/>
</svg>
