<?xml version="1.0" encoding="utf-8"?>
<!-- Generator: Adobe Illustrator 21.1.0, SVG Export Plug-In . SVG Version: 6.00 Build 0)  -->
<svg version="1.1" id="Ebene_1" xmlns="http://www.w3.org/2000/svg" xmlns:xlink="http://www.w3.org/1999/xlink" x="0px" y="0px"
	 viewBox="0 0 24 24" style="enable-background:new 0 0 24 24;" xml:space="preserve">
<style type="text/css">
	.st0{fill:none;stroke:#757575;stroke-width:0.8;stroke-miterlimit:10;}
</style>
<path class="st0" d="M19,21H5c-1.1,0-2-0.9-2-2V5c0-1.1,0.9-2,2-2h14c1.1,0,2,0.9,2,2v14C21,20.1,20.1,21,19,21z M13.2,13.2
	c0,0.6-0.5,1.1-1.1,1.1h-1.1V9.8H12c0.6,0,1.1,0.5,1.1,1.1V13.2z M6.5,14.6V9.8h1.1c0.6,0,1.1,0.5,1.1,1.1l0,0
	c0,0.6-0.5,1.1-1.1,1.1H6.5 M15.3,14.4V9.6l2.6,0 M17.1,11.9l-1.8,0"/>
</svg>
