<svg xmlns="http://www.w3.org/2000/svg" fill-rule="evenodd" stroke-linecap="round" stroke-linejoin="round" stroke-miterlimit="10" clip-rule="evenodd" viewBox="0 0 24 24">
  <path
  id="Document"
  fill="none" 
  stroke="#757575"
  stroke-width="1.5" 
  d="M21 5c0-.53-.211-1.039-.586-1.414S19.53 3 19 3H5c-.53
  0-1.039.211-1.414.586S3 4.47 3 5v14c0 .53.211 1.039.586 1.414S4.47 21 5 21h14c.53
  0 1.039-.211 1.414-.586S21 19.53 21 19V5z"/>
  
  <path
  id="Text"
  fill="none" 
  stroke="#757575"
  stroke-width="1.5" 
  d="M8 8h8m-8 8h5M8 12h8"/>
  
  <path
  id="Code"
  visibility="hidden"
  fill="none" 
  stroke="#757575"
  stroke-width="1.5" 
  d="M9.9 14.3L7.5 12l2.3-2.3m4.4 0l2.3 2.3-2.3 2.3"/>
  
  <path
  id="Excel"
  visibility="hidden"
  fill="none" 
  stroke="#757575"
  stroke-width="1.5" 
  d="M14.9 16.5l-5.8-9m5.8 0l-5.8 9"/>
  
  <path
  id="Form"
  visibility="hidden"
  fill="none" 
  stroke="#757575"
  stroke-width="1.5" 
  d="M7.499 8h1.002m-1.002 4h1.002m-1.002 4h1.002m2.998 0h5.002m-5.002-4h5.002m-5.002-4h5.002"/>
  
  <path
  id="PDF"
  visibility="hidden"
  fill="none" 
  stroke="#757575"
  stroke-width="1.5" 
  d="M6 14.357v-4.214c0-.276.224-.5.5-.5h1.112c.254 0 
  .499.101.678.281.18.18.281.424.281.678v.602c0 .267-.106.523-.296.711-.19.188-.447.292-.714.289-.72-.008-1.561-.016-1.561-.016M16.286
  14.357v-4.214c0-.133.052-.26.146-.354.094-.093.221-.146.354-.146H18M18 12.214l-1.714-.026M11.643 14.357c-.276
  0-.5-.224-.5-.5v-3.714c0-.276.224-.5.5-.5h1.112c.254 0 .498.101.678.281.18.18.281.424.281.678v2.755c0
  .552-.447 1-1 1h-1.071z"/>
  
  <path
  id="PowerPoint"
  visibility="hidden"
  fill="none" 
  stroke="#757575"
  stroke-width="1.5" 
  d="M10.045 16.5V8c0-.276.224-.5.5-.5h3.45c.53 0 .96.43.96.959v2.94c0
  .267-.107.523-.297.71-.19.188-.447.292-.714.29-1.437-.015-3.899-.04-3.899-.04"/>
  
  <path
  id="Presentation"
  visibility="hidden"
  fill="none" 
  stroke="#757575"
  stroke-width="1.5" 
  d="M3,8l18,0m-18,8l18,0"/>
  
  <path
  id="Spreadsheet"
  visibility="hidden"
  fill="none" 
  stroke="#757575"
  stroke-width="1.5" 
  d="M3 8h18M8 21V3"/>
  
  <path
  id="Stat"
  visibility="hidden"
  fill="none" 
  stroke="#757575"
  stroke-width="1.5" 
  d="M8.939 8.439c.586-.585 1.536-.585 2.122 0 
  .585.586.585 1.536 0 2.122-.586.585-1.536.585-2.122 
  0-.585-.586-.585-1.536 0-2.122zm5 5c.586-.585 
  1.536-.585 2.122 0 .585.586.585 1.536 0 
  2.122-.586.585-1.536.585-2.122 0-.585-.586-.585-1.536 
  0-2.122zM3 16.5l5.939-5.939m2.122 0l2.878 2.878m2.122 
  0L21 8.5"/>
  
  <path
  id="Word"
  visibility="hidden"
  fill="none" 
  stroke="#757575"
  stroke-width="1.5" 
  d="M16.45 7.945l-1.978 8.011c0 .099-.099.099-.198 0l-2.275-7.319c0-.099-.098-.099-.197
  0l-2.176 7.319c0 .099-.198.099-.198 0L7.45 7.945"/>
  
  <path
  id="ZIP"
  visibility="hidden"
  fill="none" 
  stroke="#757575"
  stroke-width="1.5" 
  d="M12 3v18M10 6h2m0 3h2m-4 3h2m-2 6h2m0-3h2"/>
  
  <path
  id="Audio"
  visibility="hidden"
  fill="none" 
  stroke="#757575"
  stroke-width="1.5" 
  d="M7.736,13.157l1.654,0c0.178,0 0.349,0.071 0.475,0.197c0.125,0.126 0.196,0.296 
  0.196,0.474l0,2.003c0,0.37 -0.299,0.669 -0.668,0.669l-0.371,0c-0.71,0 -1.286,-0.575 
  -1.286,-1.286l0,-3.471c0,-2.342 1.901,-4.243 4.243,-4.243c2.342,0 4.243,1.901 4.243,4.243l0,3.471c0,0.711
  -0.576,1.286 -1.286,1.286l-0.349,0c-0.369,0 -0.669,-0.299 -0.669,-0.669l0,-2.005c0,-0.37 
  0.3,-0.669 0.669,-0.669l1.635,0"/>
</svg>