<?xml version="1.0" encoding="UTF-8" standalone="no"?><!DOCTYPE svg PUBLIC "-//W3C//DTD SVG 1.1//EN" "http://www.w3.org/Graphics/SVG/1.1/DTD/svg11.dtd"><svg width="100%" height="100%" viewBox="0 0 24 24" version="1.1" xmlns="http://www.w3.org/2000/svg" xmlns:xlink="http://www.w3.org/1999/xlink" xml:space="preserve" xmlns:serif="http://www.serif.com/" style="fill-rule:evenodd;clip-rule:evenodd;stroke-linecap:round;stroke-linejoin:round;stroke-miterlimit:10;"><path d="M12,21.67c1.222,-1.206 6.221,-6.148 8.038,-7.943c0.121,-0.119 0.157,-0.299 0.094,-0.456c-0.065,-0.157 -0.217,-0.258 -0.387,-0.258l-3.99,0l0,-9.596c0,-0.23 -0.187,-0.417 -0.417,-0.417l-3.338,0" style="fill:none;stroke:#757575;stroke-width:1.54px;"/><path d="M12,3l-3.338,0c-0.23,0 -0.417,0.187 -0.417,0.417l0,9.596l-3.99,0c-0.17,0 -0.322,0.101 -0.387,0.258c-0.063,0.157 -0.027,0.337 0.094,0.456c1.817,1.795 6.817,6.737 8.038,7.943" style="fill:none;stroke:#10d8ff;stroke-width:1.54px;"/></svg>