<?xml version="1.0" encoding="utf-8"?>
<!-- Generator: Adobe Illustrator 21.1.0, SVG Export Plug-In . SVG Version: 6.00 Build 0)  -->
<svg version="1.1" id="Ebene_1" xmlns="http://www.w3.org/2000/svg" xmlns:xlink="http://www.w3.org/1999/xlink" x="0px" y="0px"
	 viewBox="0 0 24 24" style="enable-background:new 0 0 24 24;" xml:space="preserve">
<style type="text/css">
	.st0{fill:none;stroke:#757575;stroke-width:0.8;stroke-miterlimit:10;}
</style>
<path class="st0" d="M10.8,7.5c0,0.7-0.6,1.3-1.3,1.3S8.3,8.2,8.3,7.5s0.6-1.3,1.3-1.3S10.8,6.8,10.8,7.5z M14.5,6.3
	c-0.7,0-1.3,0.6-1.3,1.3s0.6,1.3,1.3,1.3s1.3-0.6,1.3-1.3S15.2,6.3,14.5,6.3z M14.5,10.8c-0.7,0-1.3,0.6-1.3,1.3s0.6,1.3,1.3,1.3
	s1.3-0.6,1.3-1.3S15.2,10.8,14.5,10.8z M9.5,10.8c-0.7,0-1.3,0.6-1.3,1.3s0.6,1.3,1.3,1.3s1.3-0.6,1.3-1.3S10.2,10.8,9.5,10.8z
	 M9.5,15.3c-0.7,0-1.3,0.6-1.3,1.3c0,0.7,0.6,1.3,1.3,1.3s1.3-0.6,1.3-1.3C10.8,15.8,10.2,15.3,9.5,15.3z M14.5,15.3
	c-0.7,0-1.3,0.6-1.3,1.3c0,0.7,0.6,1.3,1.3,1.3s1.3-0.6,1.3-1.3C15.8,15.8,15.2,15.3,14.5,15.3z"/>
</svg>
