<?xml version="1.0" encoding="utf-8"?>
<!-- Generator: Adobe Illustrator 21.1.0, SVG Export Plug-In . SVG Version: 6.00 Build 0)  -->
<svg version="1.1" id="Ebene_1" xmlns="http://www.w3.org/2000/svg" xmlns:xlink="http://www.w3.org/1999/xlink" x="0px" y="0px"
	 viewBox="0 0 24 24" style="enable-background:new 0 0 24 24;" xml:space="preserve">
<style type="text/css">
	.st0{fill:none;stroke:#757575;stroke-width:0.8;stroke-miterlimit:10;}
</style>
<path class="st0" d="M8.6,3.6l6.3,11 M8.9,14.6 M11.9,9.3L5.6,20.4 M8.9,14.6h12.8 M7.9,4.4l-5.3,9.2c-0.4,0.6-0.4,1.4,0,2l2.3,4
	c0.4,0.6,1,1,1.7,1h10.8c0.7,0,1.4-0.4,1.7-1l2.3-4c0.4-0.6,0.4-1.4,0-2L16,4.3c-0.4-0.6-1-1-1.7-1H9.6C8.9,3.4,8.3,3.7,7.9,4.4z"/>
</svg>
