<?xml version="1.0" encoding="utf-8"?>
<!-- Generator: Adobe Illustrator 21.1.0, SVG Export Plug-In . SVG Version: 6.00 Build 0)  -->
<svg version="1.1" id="Ebene_1" xmlns="http://www.w3.org/2000/svg" xmlns:xlink="http://www.w3.org/1999/xlink" x="0px" y="0px"
	 viewBox="0 0 24 24" style="enable-background:new 0 0 24 24;" xml:space="preserve">
<style type="text/css">
	.st0{fill:none;stroke:#757575;stroke-width:0.8;stroke-miterlimit:10;}
</style>
<path class="st0" d="M18,14.4c0,3.3-2.7,6-6,6s-6-2.7-6-6s2.7-6,6-6S18,11.1,18,14.4z M12,3.5c-0.5,0-1,0.5-1,1s0.5,1,1,1s1-0.5,1-1
	S12.5,3.5,12,3.5z M19,6.5c-0.5,0-1,0.5-1,1s0.5,1,1,1s1-0.5,1-1S19.5,6.5,19,6.5z M22,13.5c-0.5,0-1,0.5-1,1c0,0.5,0.5,1,1,1
	s1-0.5,1-1C23,14,22.5,13.5,22,13.5z M5,6.5c-0.6,0-1,0.5-1,1s0.5,1,1,1s1-0.5,1-1C6,6.9,5.6,6.5,5,6.5z M2,13.5c-0.5,0-1,0.5-1,1
	c0,0.5,0.5,1,1,1s1-0.5,1-1C3,14,2.5,13.5,2,13.5z M11,13.5l-3.3-3.3"/>
</svg>
