<svg xmlns="http://www.w3.org/2000/svg" fill-rule="evenodd" stroke-linecap="round" stroke-linejoin="round" stroke-miterlimit="1.5" clip-rule="evenodd" viewBox="0 0 24 24">
  <path fill="none" stroke="#757575" stroke-width="1.5" 
  d="M2.75 12c0-5.105 4.145-9.25 9.25-9.25s9.25 4.145 9.25 9.25-4.145
  9.25-9.25 9.25S2.75 17.105 2.75 
  12zm5-2.5c0-.414.336-.75.75-.75s.75.336.75.75-.336.75-.75.75-.75-.336-.75-.75zm7
  0c0-.414.336-.75.75-.75s.75.336.75.75-.336.75-.75.75-.75-.336-.75-.75z
  M14.921 15.308c-.822.593-1.831.942-2.921.942-1.117 
  0-2.15-.367-2.982-.988"/>
</svg>