<?xml version="1.0" encoding="utf-8"?>
<!-- Generator: Adobe Illustrator 21.1.0, SVG Export Plug-In . SVG Version: 6.00 Build 0)  -->
<svg version="1.1" id="Ebene_1" xmlns="http://www.w3.org/2000/svg" xmlns:xlink="http://www.w3.org/1999/xlink" x="0px" y="0px"
	 viewBox="0 0 24 24" style="enable-background:new 0 0 24 24;" xml:space="preserve">
<style type="text/css">
	.st0{fill:none;stroke:#757575;stroke-width:0.8;stroke-miterlimit:10;}
</style>
<path class="st0" d="M15.1,8.3c0.7,0,1.4,0.6,1.4,1.3S15.9,11,15.1,11s-1.3-0.6-1.3-1.4S14.4,8.3,15.1,8.3z M8.9,8.3
	c0.7,0,1.3,0.6,1.3,1.3S9.6,11,8.9,11c-0.7,0-1.4-0.6-1.4-1.4S8.1,8.3,8.9,8.3z M12,2.4c-5.3,0-9.6,4.3-9.6,9.6s4.3,9.6,9.6,9.6
	s9.6-4.3,9.6-9.6S17.3,2.4,12,2.4z M7.9,15c0.6,1.6,2.3,2.7,4.1,2.7s3.4-1.2,4-2.8"/>
</svg>
