<?xml version="1.0" encoding="utf-8"?>
<!-- Generator: Adobe Illustrator 21.1.0, SVG Export Plug-In . SVG Version: 6.00 Build 0)  -->
<svg version="1.1" id="Ebene_1" xmlns="http://www.w3.org/2000/svg" xmlns:xlink="http://www.w3.org/1999/xlink" x="0px" y="0px"
	 viewBox="0 0 24 24" style="enable-background:new 0 0 24 24;" xml:space="preserve">
<style type="text/css">
	.st0{fill:none;stroke:#757575;stroke-width:0.8;stroke-miterlimit:10;}
</style>
<path class="st0" d="M9.1,11.3c-0.7,0-1.2,0.5-1.2,1.2s0.5,1.2,1.2,1.2s1.2-0.5,1.2-1.2S9.8,11.3,9.1,11.3z M14.9,11.3
	c-0.7,0-1.2,0.5-1.2,1.2s0.5,1.2,1.2,1.2s1.2-0.5,1.2-1.2S15.5,11.3,14.9,11.3z M12,2.4c-5.3,0-9.6,4.3-9.6,9.6s4.3,9.6,9.6,9.6
	s9.6-4.3,9.6-9.6S17.3,2.4,12,2.4z M2.5,10.7c0.5,0,1.2-0.2,1.9-0.4c0.7-0.3,1.9-0.9,3-2.1c1.1-1.1,1.7-2.3,2-3.1
	c1.7,2.5,4.6,4.1,7.8,4.1c1.1,0,1.9-0.2,2.2-0.2c0.7-0.2,1.2-0.4,1.5-0.5"/>
</svg>
