<svg xmlns="http://www.w3.org/2000/svg" fill-rule="evenodd" stroke-linecap="round" stroke-linejoin="round" stroke-miterlimit="1.5" clip-rule="evenodd" viewBox="0 0 24 24">
  <path fill="none" stroke="#757575" stroke-width="2" 
  d="M2.75 12c0-5.105 4.145-9.25 9.25-9.25s9.25 4.145 9.25 
  9.25-4.145 9.25-9.25 9.25S2.75 17.105 2.75 12zm.549-.988C6.37 
  10.037 8.748 7.5 9.5 4.337c1.603 2.753 4.587 4.606 8 4.606.843
  0 1.659-.113 2.435-.324 M8.293 12.293c.39-.39 1.024-.39 1.414 
  0 .39.39.39 1.024 0 1.414-.39.39-1.024.39-1.414 0-.39-.39-.39-1.024 
  0-1.414zM14.293 12.293c.39-.39 1.024-.39 1.414 0 .39.39.39 1.024
  0 1.414-.39.39-1.024.39-1.414 0-.39-.39-.39-1.024 0-1.414z"/>
</svg>