<?xml version="1.0" encoding="utf-8"?>
<!-- Generator: Adobe Illustrator 21.1.0, SVG Export Plug-In . SVG Version: 6.00 Build 0)  -->
<svg version="1.1" id="Ebene_1" xmlns="http://www.w3.org/2000/svg" xmlns:xlink="http://www.w3.org/1999/xlink" x="0px" y="0px"
	 viewBox="0 0 24 24" style="enable-background:new 0 0 24 24;" xml:space="preserve">
<style type="text/css">
	.st0{fill:none;stroke:#757575;stroke-width:0.8;stroke-miterlimit:10;}
</style>
<path id="Phone" class="st0" d="M8.1,8.7v4.5c0,0.4-0.2,0.7-0.5,0.7c-0.9,0.4-1.8,1-2.5,1.8c-0.3,0.3-0.8,0.4-1.2,0l-2.1-2.1
	c-0.3-0.3-0.3-0.9,0-1.2c5.7-5.7,14.9-5.7,20.5,0c0.3,0.3,0.3,0.9,0,1.2l-2.1,2.1c-0.4,0.4-0.9,0.3-1.2,0c-0.8-0.8-1.6-1.3-2.5-1.8
	c-0.2-0.1-0.4-0.4-0.4-0.8V8.6"/>
</svg>
