<svg xmlns="http://www.w3.org/2000/svg" fill-rule="evenodd" stroke-linecap="round" stroke-linejoin="round" stroke-miterlimit="10" clip-rule="evenodd" viewBox="0 0 24 24">
  <path fill="none" stroke="#757575" stroke-width="1.5" 
  d="M4.664 4.184c-.004.007.594.613 1.566 1.586l1.575 
  1.574h9.449V4.168h-6.293c-5.273 0-6.293 0-6.297.016zm-1.18 6.285c-.004.011 
  1.805 1.824 4.711 4.73l4.715 4.719 2.235.004c2.027 0
  2.23 0 2.23-.016-.004-.011-1.41-1.426-3.133-3.144l-3.125-3.129h3.063c2.246
  0 3.066-.004 3.07-.012.004-.008-.629-.648-1.566-1.586l-1.575-1.574-5.308-.004c-4.442 0-5.313 
  0-5.317.012z"/>
</svg>