<svg xmlns="http://www.w3.org/2000/svg" fill-rule="evenodd" stroke-linecap="round" stroke-linejoin="round" stroke-miterlimit="1.5" clip-rule="evenodd" viewBox="0 0 24 24">
  <path fill="none" stroke="#757575" stroke-width="1.5" 
  d="M21 5c0-.53-.211-1.039-.586-1.414S19.53 3 19 3H5c-.53 0-1.039.211-1.414.586S3 
  4.47 3 5v14c0 .53.211 1.039.586 1.414S4.47 21 5 21h14c.53 0 1.039-.211 1.414-.586S21
  19.53 21 19V5zm-5.75 8.25v4-4zm-2 2h4-4zm-9.088 4.588L20.156 3.844M6.75 
  7.75h3.5-3.5z"/>
</svg>