<?xml version="1.0" encoding="utf-8"?>
<!-- Generator: Adobe Illustrator 21.1.0, SVG Export Plug-In . SVG Version: 6.00 Build 0)  -->
<svg version="1.1" id="Ebene_1" xmlns="http://www.w3.org/2000/svg" xmlns:xlink="http://www.w3.org/1999/xlink" x="0px" y="0px"
	 viewBox="0 0 24 24" style="enable-background:new 0 0 24 24;" xml:space="preserve">
<style type="text/css">
	.st0{fill:none;stroke:#757575;stroke-width:0.8;stroke-miterlimit:10;}
</style>
<path class="st0" d="M3.8,10.9H2.5V7.3c0-1.1,0.9-2,2-2h3.5V4c0-1.4,1.1-2.5,2.5-2.5s2.5,1.1,2.5,2.5v1.3h3.5c1.1,0,2,0.9,2,2v3.5
	H20c1.4,0,2.5,1.1,2.5,2.5s-1.1,2.5-2.5,2.5h-1.3v3.5c0,1.1-0.9,2-2,2h-3.5v-1.3c0-1.4-1.1-2.5-2.5-2.5s-2.5,1.1-2.5,2.5v1.3H4.5
	c-1.1,0-2-0.9-2-2v-3.5h1.3c1.4,0,2.5-1.1,2.5-2.5S5.2,10.9,3.8,10.9"/>
</svg>
