<svg xmlns="http://www.w3.org/2000/svg" fill-rule="evenodd" stroke-linecap="round" stroke-linejoin="round" stroke-miterlimit="1.5" clip-rule="evenodd" viewBox="0 0 24 24">
  <path 
  fill="none"
  stroke="#757575" 
  stroke-width="1.5" 
  d="M2.74 11V7.75c0-.53.21-1.039.585-1.414s.884-.586 
  1.415-.586h4.01V5c0-.966.784-1.75 1.75-1.75s1.75.784
  1.75 1.75v.75h4.01c.531 0 1.04.211 1.415.586s.585.884.585
  1.414v4h.744c.966 0 1.75.784 1.75 1.75s-.784 1.75-1.75 
  1.75h-.744v4c0 .53-.21 1.039-.585 1.414s-.884.586-1.415.586H13c0-1.38-1.12-2.5-2.5-2.5S8
  19.87 8 21.25H4.74c-.531 0-1.04-.211-1.415-.586s-.585-.884-.585-1.414V16h.01c1.38
  0 2.5-1.12 2.5-2.5S4.13 11 2.75 11h-.01z"/>
</svg>