<svg xmlns="http://www.w3.org/2000/svg" fill-rule="evenodd" stroke-linecap="round" stroke-linejoin="round" stroke-miterlimit="1.5" clip-rule="evenodd" viewBox="0 0 24 24">
  <path fill="none" stroke="#757575" stroke-width="1.5"
  d="M2.75 12c0-5.105 4.145-9.25 9.25-9.25s9.25 4.145 
  9.25 9.25-4.145 9.25-9.25 9.25S2.75 17.105 2.75 
  12zm.549-.988C6.37 10.037 8.748 7.5 9.5 4.337c1.603 2.753 
  4.587 4.606 8 4.606.843 0 1.659-.113 2.435-.324M8.25 
  13c0-.414.336-.75.75-.75s.75.336.75.75-.336.75-.75.75-.75-.336-.75-.75zM2.75
  2.75l18.5 18.5"/>
</svg>