<svg xmlns="http://www.w3.org/2000/svg" fill-rule="evenodd" stroke-linecap="round" stroke-linejoin="round" stroke-miterlimit="1.5" clip-rule="evenodd" viewBox="0 0 24 24">
  <path fill="none" stroke="#757575" stroke-width="1.5" 
  d="M20.569 15.487C19.191 18.866 15.872 21.25 12 21.25c-5.105
  0-9.25-4.145-9.25-9.25 0-4.129 2.711-7.63 6.45-8.818
  M3.299 11.012C6.37 10.037 8.748 7.5 9.5 4.337c1.603 
  2.753 4.587 4.606 8 4.606M9.605 4.512c-.077-.16-.275-.517-.405-1.271M8.25
  13c0-.414.336-.75.75-.75s.75.336.75.75-.336.75-.75.75-.75-.336-.75-.75zM14.25
  13c0-.414.336-.75.75-.75s.75.336.75.75-.336.75-.75.75-.75-.336-.75-.75zM17.504 
  4.509l1.374-.626.617-1.383.644 1.374 1.357.635-1.366.635-.635
  1.356-.617-1.356-1.374-.635zM20.502
  10.504l.687-.313.309-.691.321.687.679.317-.683.318-.317.678-.309-.678-.687-.318zM12.502 
  2.504l.687-.313.309-.691.321.687.679.317-.683.318-.317.678-.309-.678-.687-.318z"/>
</svg>