<?xml version="1.0" encoding="utf-8"?>
<!-- Generator: Adobe Illustrator 21.1.0, SVG Export Plug-In . SVG Version: 6.00 Build 0)  -->
<svg version="1.1" id="Ebene_1" xmlns="http://www.w3.org/2000/svg" xmlns:xlink="http://www.w3.org/1999/xlink" x="0px" y="0px"
	 viewBox="0 0 24 24" style="enable-background:new 0 0 24 24;" xml:space="preserve">
<style type="text/css">
	.st0{fill:none;stroke:#757575;stroke-width:0.8;}
</style>
<path class="st0" d="M17.9,4.2v4.5 M12,3.4L2,12.5h2.6v8.2h14.5v-8.2H22L12,3.4z M12,16.5l-2.7-2.7c-0.2-0.2-0.4-0.6-0.4-1.1
	c0-0.8,0.6-1.6,1.6-1.6c0.4,0,0.8,0.2,1.2,0.4l0.4,0.5l0.4-0.5c0.3-0.3,0.6-0.4,1.2-0.4c0.9,0,1.6,0.7,1.6,1.6
	c0,0.4-0.2,0.8-0.4,1.2L12,16.5z"/>
</svg>
