<?xml version="1.0" encoding="utf-8"?>
<!-- Generator: Adobe Illustrator 21.1.0, SVG Export Plug-In . SVG Version: 6.00 Build 0)  -->
<svg version="1.1" id="Ebene_1" xmlns="http://www.w3.org/2000/svg" xmlns:xlink="http://www.w3.org/1999/xlink" x="0px" y="0px"
	 viewBox="0 0 24 24" style="enable-background:new 0 0 24 24;" xml:space="preserve">
<style type="text/css">
	.st0{fill:none;stroke:#757575;stroke-width:0.8;stroke-miterlimit:10;}
</style>
<path class="st0" d="M9.5,15.2c0-1.4,1.1-2.5,2.5-2.5s2.5,1.1,2.5,2.5 M6.9,15.2c0-2.8,2.3-5.1,5.1-5.1s5.1,2.3,5.1,5.1 M4.8,17.8
	c-0.3-0.8-0.5-1.7-0.5-2.6c0-4.2,3.4-7.6,7.6-7.6s7.6,3.4,7.6,7.6 M3.9,9.2C5.7,6.7,8.7,5,12,5s6.2,1.6,8.1,4 M5.9,4.1
	c1.8-1,3.9-1.6,6.1-1.6s4.3,0.6,6.1,1.5 M19.5,15.2c0,1.4-1.1,2.5-2.5,2.5s-2.5-1.1-2.5-2.5 M14,18.4c-1.2-0.6-2-1.8-2-3.2
	 M9.6,21.5c-1.7-1.6-2.7-3.8-2.7-6.3 M15.1,21.3C12,21,9.5,18.4,9.5,15.2"/>
</svg>
