<svg xmlns="http://www.w3.org/2000/svg" fill-rule="evenodd" stroke-linecap="round" stroke-miterlimit="10" clip-rule="evenodd" viewBox="0 0 24 24">
  <path fill="none" stroke="#757575" stroke-width=".76" d="M7.238 11.31l2.095 2.095c.191.19.286.381.286.666v6.477c0 .571.381.952.952.952h3.143c.572 0 .953-.381.953-.952v-6.477c0-.285.095-.476.285-.666l2-2.095c.191-.191.286-.381.286-.667V7.786c0-.572-.381-.953-.952-.953H7.905c-.572 0-.953.381-.953.953v2.857c0 .286.096.476.286.667zM12 1.5v2.476m-3.524.762L6.667 3.024m10.666 0l-1.809 1.809"/>
</svg>
