<svg xmlns="http://www.w3.org/2000/svg" fill-rule="evenodd" stroke-linecap="round" stroke-linejoin="round" stroke-miterlimit="1.5" clip-rule="evenodd" viewBox="0 0 24 24">
  <path 
  fill="none" 
  stroke="#757575"
  stroke-width="1.5" 
  d="M7.974 3.75c-.124 0-.224.1-.224.223v8.987c0
  .077.031.151.085.205.054.054.128.085.205.085h2.376c.184
  0 .334.15.334.334v6.666s3.706-6.3 4.737-8.053c.054-.091.055-.205.002-.298-.053-.092-.152-.149-.258-.149h-2.757c-.108 
  0-.209-.053-.271-.141-.061-.089-.076-.202-.038-.303.528-1.422
  2.171-5.844 2.664-7.174.033-.087.02-.184-.032-.26-.053-.077-.14-.122-.233-.122h-6.59z"/>
</svg>