<svg xmlns="http://www.w3.org/2000/svg" fill-rule="evenodd" stroke-linecap="round" stroke-linejoin="round" stroke-miterlimit="1.5" clip-rule="evenodd" viewBox="0 0 24 24">
  <path fill="none" stroke="#757575" stroke-width="1.5" 
  d="M3.5 18.611c0 .501.199.982.553 1.336.354.354.835.553 1.336.553m13.222 0c.501 0 .982-.199 
  1.336-.553.354-.354.553-.835.553-1.336m0-13.222c0-.501-.199-.982-.553-1.336-.354-.354-.835-.553-1.336-.553m-13.222 
  0c-.501 0-.982.199-1.336.553-.354.354-.553.835-.553 1.336m0 3.187v1.889m0 3.07v1.889m17-6.848v1.889m0 
  3.07v1.889M8.576 20.5h1.889m4.07 0h.889m-6.848-17h1.889m4.07 0h.889
  M12 3.5H5.4c-1.049 0-1.9.851-1.9 1.9v13.2c0 1.049.851 1.9 1.9 
  1.9H12M12 1.5v21"/>
</svg>