<svg xmlns="http://www.w3.org/2000/svg" fill-rule="evenodd" stroke-linecap="round" stroke-linejoin="round" stroke-miterlimit="1.5" clip-rule="evenodd" viewBox="0 0 24 24">
  <path 
  fill="none" 
  stroke="#757575"
  stroke-width="1.5" 
  d="M20.25 4.963c0-.322-.128-.63-.355-.858-.228-.227-.536-.355-.858-.355H8.975c-.325
  0-.637.129-.866.359-.23.229-.359.541-.359.866V15.05c0
  .318.126.623.351.849.226.225.531.351.849.351h10.1c.318 0 
  .623-.126.849-.351.225-.226.351-.531.351-.849V4.963zM3.75
  17.5v1.55c0 .663.537 1.2 1.2 1.2H6.5M10 20.25h2M15.5 
  20.25h2M3.75 14v-2M3.75 8.5v-2"/>
</svg>