<?xml version="1.0" encoding="utf-8"?>
<!-- Generator: Adobe Illustrator 21.1.0, SVG Export Plug-In . SVG Version: 6.00 Build 0)  -->
<svg version="1.1" id="Ebene_1" xmlns="http://www.w3.org/2000/svg" xmlns:xlink="http://www.w3.org/1999/xlink" x="0px" y="0px"
	 viewBox="0 0 24 24" style="enable-background:new 0 0 24 24;" xml:space="preserve">
<style type="text/css">
	.st0{fill:none;stroke:#757575;stroke-width:0.8;stroke-miterlimit:10;}
</style>
<path class="st0" d="M18,12.4c-0.3-0.1-0.5-0.3-0.8-0.4c0.3-0.1,0.5-0.2,0.8-0.4c1.7-1,2.7-2.8,2.7-4.6c-1.6-0.9-3.6-1-5.4,0
	c-0.3,0.1-0.5,0.3-0.7,0.5c0-0.3,0.1-0.6,0.1-0.8c0-2-1.1-3.7-2.7-4.6c-1.6,0.9-2.7,2.7-2.7,4.6c0,0.3,0,0.6,0.1,0.8
	C9.2,7.3,8.9,7.1,8.7,7C7,6,4.9,6.1,3.3,7c0,1.8,1,3.6,2.7,4.6c0.3,0.1,0.5,0.3,0.8,0.4c-0.3,0.1-0.5,0.2-0.8,0.4
	c-1.7,1-2.7,2.8-2.7,4.6c1.6,0.9,3.6,1,5.4,0c0.3-0.1,0.5-0.3,0.7-0.5c0,0.3-0.1,0.6-0.1,0.9c0,2,1.1,3.7,2.7,4.6
	c1.6-0.9,2.7-2.7,2.7-4.6c0-0.3,0-0.6-0.1-0.8c0.2,0.2,0.4,0.3,0.7,0.5c1.7,1,3.8,0.9,5.4,0C20.7,15.1,19.7,13.3,18,12.4z M14,12
	c0,1.1-0.9,2-2,2s-2-0.9-2-2s0.9-2,2-2S14,10.9,14,12z"/>
</svg>
