<svg xmlns="http://www.w3.org/2000/svg" fill-rule="evenodd" stroke-linecap="round" stroke-linejoin="round" stroke-miterlimit="10" clip-rule="evenodd" viewBox="0 0 24 24">
  <path
  fill="none"
  stroke="#757575" 
  stroke-width="1.5" 
  d="M3.3 15c0 1.8 1.5 3.4 3.4 3.4.7 0 1.3-.1 1.9-.6v.3c0
  1.8 1.5 3.4 3.4 3.4s3.4-1.5 3.4-3.4v-.3c.6.4 1.2.6 1.9.6
  1.8 0 3.4-1.5 3.4-3.4 0-1.3-.7-2.5-1.9-3 1.2-.6 1.9-1.6 
  1.9-3 0-1.8-1.5-3.4-3.4-3.4-.7 0-1.3.1-1.9.6v-.3c-.1-1.9-1.8-3.4-3.6-3.4S8.5
  4 8.5 5.9v.3c-.4-.4-1-.7-1.7-.7-2 0-3.5 1.5-3.5 3.4 0 
  1.3.7 2.5 1.9 3-1.1.5-1.9 1.7-1.9 3.1zm11.2-3c0 1.4-1.1 
  2.5-2.5 2.5S9.5 13.4 9.5 12s1.1-2.5 2.5-2.5 2.5 
  1.1 2.5 2.5z"/>
</svg>