<?xml version="1.0" encoding="utf-8"?>
<!-- Generator: Adobe Illustrator 21.1.0, SVG Export Plug-In . SVG Version: 6.00 Build 0)  -->
<svg version="1.1" id="Ebene_1" xmlns="http://www.w3.org/2000/svg" xmlns:xlink="http://www.w3.org/1999/xlink" x="0px" y="0px"
	 viewBox="0 0 24 24" style="enable-background:new 0 0 24 24;" xml:space="preserve">
<style type="text/css">
	.st0{fill:none;stroke:#757575;stroke-width:0.8;stroke-miterlimit:10;}
</style>
<path class="st0" d="M3.2,15c0,1.8,1.5,3.4,3.4,3.4c0.7,0,1.3-0.1,1.9-0.6v0.3c0,1.8,1.5,3.4,3.4,3.4s3.4-1.5,3.4-3.4v-0.3
	c0.6,0.4,1.2,0.6,1.9,0.6c1.8,0,3.4-1.5,3.4-3.4c0-1.3-0.7-2.5-1.9-3c1.2-0.6,1.9-1.6,1.9-3c0-1.8-1.5-3.4-3.4-3.4
	c-0.7,0-1.3,0.1-1.9,0.6V5.9c-0.1-1.9-1.8-3.4-3.6-3.4S8.4,4,8.4,5.9v0.3C8,5.8,7.4,5.5,6.7,5.5C4.7,5.5,3.2,7,3.2,8.9
	c0,1.3,0.7,2.5,1.9,3C4,12.4,3.2,13.6,3.2,15z M14.5,12c0,1.4-1.1,2.5-2.5,2.5S9.5,13.4,9.5,12s1.1-2.5,2.5-2.5S14.5,10.6,14.5,12z"
	/>
</svg>
