<svg xmlns="http://www.w3.org/2000/svg" fill-rule="evenodd" stroke-linecap="round" stroke-linejoin="round" stroke-miterlimit="1.5" clip-rule="evenodd" viewBox="0 0 24 24">
  <path
  id="Folder"
  fill="none" 
  stroke="#757575" 
  stroke-width="1.5"
  d="M21.542 8.026c0-.843-.684-1.526-1.526-1.526h-7.895c-.397 0-.779-.158-1.06-.439L9.939 
  4.939c-.281-.281-.662-.439-1.06-.439H4.025c-.819 0-1.483.664-1.483 1.484v12.053c0 .808.655 
  1.463 1.462 1.463h16.085c.386 0 .755-.153 1.027-.425.273-.273.426-.642.426-1.027V8.026z"/>
  
  <path
  id="Move"
  fill="none"
  stroke="#757575"
  stroke-width="1.5" 
  d="M11.898 13.005h6.204m0 0L15.097 10m3.005 
  3.005L15.086 16"/>
  
  <path
  id="Star"
  visibility="hidden"
  fill="none"
  stroke="#757575"
  stroke-width="1.5" 
  d="M15 15.258l1.697 1.026c.311.188.692-.09.61-.441l-.45-1.931
  1.501-1.301c.274-.237.127-.687-.233-.716l-1.976-.167-.773-1.824c-.139-.332-.613-.332-.752
  0l-.773 1.82-1.976.167c-.36.029-.507.479-.233.716l1.501 1.301-.45
  1.93c-.082.352.299.63.61.442L15 15.258z"/>
  
  <path
  id="Share"
  visibility="hidden"
  fill="none"
  stroke="#757575"
  stroke-width="1.5" 
  d="M18.5 16.103c0-1.244-2.255-1.633-3.5-1.633s-3.5.622-3.5 1.633
  M14.116 10.263c.488-.488 1.28-.488 1.768 0s.488 1.28 0 1.768-1.28.488-1.768 0-.488-1.28 0-1.768z"/>
</svg>
