<?xml version="1.0" encoding="UTF-8" standalone="no"?><!DOCTYPE svg PUBLIC "-//W3C//DTD SVG 1.1//EN" "http://www.w3.org/Graphics/SVG/1.1/DTD/svg11.dtd"><svg width="100%" height="100%" viewBox="0 0 24 24" version="1.1" xmlns="http://www.w3.org/2000/svg" xmlns:xlink="http://www.w3.org/1999/xlink" xml:space="preserve" xmlns:serif="http://www.serif.com/" style="fill-rule:evenodd;clip-rule:evenodd;stroke-linecap:round;stroke-linejoin:round;stroke-miterlimit:1.5;"><path id="Folder" d="M21.542,10.026c0,-0.843 -0.684,-1.526 -1.526,-1.526l-7.895,0c-0.397,0 -0.779,-0.158 -1.06,-0.439l-1.122,-1.122c-0.281,-0.281 -0.662,-0.439 -1.06,-0.439l-4.854,0c-0.819,0 -1.483,0.664 -1.483,1.484l0,12.053c0,0.808 0.655,1.463 1.462,1.463l16.085,0c0.386,0 0.755,-0.153 1.027,-0.425c0.273,-0.273 0.426,-0.642 0.426,-1.027l0,-10.022Z" style="fill:none;stroke:#757575;stroke-width:1.5px;"/><path id="Move" d="M16.5,4.004l5,0m0,0l-2.422,-2.422m2.422,2.422l-2.431,2.414" style="fill:none;stroke:#757575;stroke-width:1.5px;"/></svg>