<svg xmlns="http://www.w3.org/2000/svg" fill-rule="evenodd" stroke-linecap="round" stroke-linejoin="round" stroke-miterlimit="1.5" clip-rule="evenodd" viewBox="0 0 24 24">
  <path
  fill="none"
  stroke="#757575"
  stroke-width="1.5"
  d="M21 5c0-.53-.211-1.039-.586-1.414S19.53 3 19 3H5c-.53
  0-1.039.211-1.414.586S3 4.47 3 5v14c0 .53.211 1.039.586
  1.414S4.47 21 5 21h14c.53 0 1.039-.211 1.414-.586S21 19.53 21 19V5z M8.394
  16.5s2.304-6.236 3.229-8.738c.058-.158.209-.262.377-.262s.319.104.377.262c.925
  2.502 3.229 8.738 3.229 8.738m-5.801-3.818h4.39"/>
</svg>