<?xml version="1.0" encoding="utf-8"?>
<!-- Generator: Adobe Illustrator 21.1.0, SVG Export Plug-In . SVG Version: 6.00 Build 0)  -->
<svg version="1.1" id="Ebene_1" xmlns="http://www.w3.org/2000/svg" xmlns:xlink="http://www.w3.org/1999/xlink" x="0px" y="0px"
	 viewBox="0 0 24 24" style="enable-background:new 0 0 24 24;" xml:space="preserve">
<style type="text/css">
	.st0{fill:none;stroke:#757575;stroke-width:0.8;stroke-miterlimit:10;}
</style>
<path class="st0" d="M7,7c1.8-1.8,4.2-3.1,6.5-3.7c2.3-0.6,4.6-0.4,5.8-0.2c1.2,0.2,1.4,0.3,1.6,1.6c0.2,1.2,0.3,3.5-0.2,5.8
	S18.7,15.1,17,17c-1.8,1.8-4.2,3.1-6.5,3.7S5.9,21,4.7,20.8c-1.2-0.2-1.4-0.4-1.6-1.6c-0.2-1.2-0.4-3.5,0.2-5.8
	C3.9,11.2,5.2,8.9,7,7 M7.3,16.7l9.4-9.4 M13,7.3l3.7,3.7 M13.8,13.8l-3.7-3.7 M11,16.7L7.3,13"/>
</svg>
