<?xml version="1.0" encoding="utf-8"?>
<!-- Generator: Adobe Illustrator 21.1.0, SVG Export Plug-In . SVG Version: 6.00 Build 0)  -->
<svg version="1.1" id="Ebene_1" xmlns="http://www.w3.org/2000/svg" xmlns:xlink="http://www.w3.org/1999/xlink" x="0px" y="0px"
	 viewBox="0 0 24 24" style="enable-background:new 0 0 24 24;" xml:space="preserve">
<style type="text/css">
	.st0{fill:none;stroke:#757575;stroke-width:0.8;stroke-miterlimit:10;}
</style>
<path class="st0" d="M11.8,4.2c0,1.2-1,2.2-2.2,2.2s-2.1-1-2.1-2.2S8.5,2,9.7,2S11.8,3,11.8,4.2z M18.4,3.7c-1.2,0-2.2,1-2.2,2.2
	s1,2.2,2.2,2.2s2.2-1,2.2-2.2S19.5,3.7,18.4,3.7z M9.6,17.6c-1.2,0-2.2,1-2.2,2.2c0,1.2,1,2.2,2.2,2.2s2.2-1,2.2-2.2
	C11.8,18.7,10.9,17.6,9.6,17.6z M9.6,6.4v11.3 M9.6,15.1l4.6-1.7c1-0.4,1.7-1,2.2-1.9L17.6,8"/>
</svg>
