<svg xmlns="http://www.w3.org/2000/svg" fill-rule="evenodd" stroke-linecap="round" stroke-linejoin="round" stroke-miterlimit="1.5" clip-rule="evenodd" viewBox="0 0 24 24">
  <path
  fill="none"
  stroke="#757575"
  stroke-width="1.5" 
  d="M4.5 8.528h3.525c.263 0 .475-.212.476-.475.002-1.068.006-3.569.006-3.569M8.526
  19.51v-3.525c0-.263-.213-.476-.475-.476-1.069-.002-3.569-.007-3.569-.007M19.507 
  15.484h-3.525c-.262 0-.475.212-.475.475-.002 1.068-.007 3.569-.007 3.569M15.482 
  4.502v3.526c0 .262.212.475.474.475 1.069.002 
  3.57.007 3.57.007"/>
</svg>