<?xml version="1.0" encoding="utf-8"?>
<!-- Generator: Adobe Illustrator 21.1.0, SVG Export Plug-In . SVG Version: 6.00 Build 0)  -->
<svg version="1.1" id="Ebene_1" xmlns="http://www.w3.org/2000/svg" xmlns:xlink="http://www.w3.org/1999/xlink" x="0px" y="0px"
	 viewBox="0 0 24 24" style="enable-background:new 0 0 24 24;" xml:space="preserve">
<style type="text/css">
	.st0{fill:none;stroke:#757575;stroke-width:0.8;stroke-miterlimit:10;}
</style>
<path class="st0" d="M20.5,8.5c-0.4-2.3-2.4-4-4.8-4H8.3c-2.4,0-4.4,1.7-4.8,4L2,17.4c0,1.1,0.9,2.1,2.1,2.1c0.6,0,1.1-0.2,1.5-0.6
	L9,15.5h6l3.5,3.4c0.4,0.4,0.9,0.6,1.5,0.6c1.1,0,2.1-0.9,2.1-2.1L20.5,8.5z M15,8.3h1 M16.7,10h1 M15,11.7h1 M13.3,10h1 M8.5,7.8
	v4.5 M6.3,10h4.5"/>
</svg>
