<svg xmlns="http://www.w3.org/2000/svg" fill-rule="evenodd" stroke-linecap="round" stroke-linejoin="round" stroke-miterlimit="1.5" clip-rule="evenodd" viewBox="0 0 24 24">
  <path fill="none" stroke="#757575" stroke-width="1.5"
  d="M22.25 8.05c0-.345-.137-.675-.381-.919s-.574-.381-.919-.381H3.05c-.345
  0-.675.137-.919.381s-.381.574-.381.919v7.9c0
  .345.137.675.381.919s.574.381.919.381h17.9c.345
  0 .675-.137.919-.381s.381-.574.381-.919v-7.9zM7 
  9.5v5M4.5 12h5 M13.97 12.97c.292-.293.768-.293 1.06 0 
  .293.292.293.768 0 1.06-.292.293-.768.293-1.06 
  0-.293-.292-.293-.768 0-1.06zM17.97 9.97c.292-.293.768-.293
  1.06 0 .293.292.293.768 0 1.06-.292.293-.768.293-1.06
  0-.293-.292-.293-.768 0-1.06z"/>
</svg>