<svg xmlns="http://www.w3.org/2000/svg" fill-rule="evenodd" stroke-linecap="round" stroke-linejoin="round" stroke-miterlimit="1.5" clip-rule="evenodd" viewBox="0 0 24 24">
  <path fill="none" stroke="#757575" stroke-width="1.5" 
  d="M12 4.875c4.484 0 8.125 3.641 8.125 8.125S16.484 
  21.125 12 21.125c-3.533 0-6.542-2.259-7.66-5.41M3.875 
  11.5c0-4.484 3.641-8.125 8.125-8.125M3.875 
  11.5h15.513M12 3.678v1.025
  M8.75 8.5c0-.414.336-.75.75-.75s.75.336.75.75-.336.75-.75.75-.75-.336-.75-.75zM14.841 
  11.621v1.259c0 1.518-1.232 2.75-2.75
  2.75-.875 0-1.655-.41-2.159-1.047"/>
</svg>