<svg xmlns="http://www.w3.org/2000/svg" fill-rule="evenodd" stroke-linecap="round" stroke-linejoin="round" stroke-miterlimit="10" clip-rule="evenodd" viewBox="0 0 24 24">
  <path
  fill="none"
  stroke="#757575"
  stroke-width="1.5" 
  d="M21.5 12c0 5.245-4.255 9.5-9.5 9.5S2.5 
  17.245 2.5 12 6.755 2.5 12 2.5s9.5 4.255 
  9.5 9.5z M13.979 12c0 1.089-.89 1.979-1.979 
  1.979A1.984 1.984 0 0 1 10.021 12c0-1.089.89-1.979
  1.979-1.979s1.979.89 1.979 1.979zm-5.838 3.859A5.46
  5.46 0 0 1 6.557 12a5.46 5.46 0 0 1 1.584-3.859m7.718 
  0A5.46 5.46 0 0 1 17.443 12a5.46 5.46 0 0
  1-1.584 3.859"/>
</svg>