<svg xmlns="http://www.w3.org/2000/svg" fill-rule="evenodd" stroke-linecap="round" stroke-linejoin="round" stroke-miterlimit="1.5" clip-rule="evenodd" viewBox="0 0 24 24">
  <path fill="none" stroke="#757575" stroke-width="1.5" 
  d="M11.839 7.236C11.393 5.061 9.323 3.5 7 3.5c-2.76
  0-5 2.24-5 5v9.267c0 .427.271.806.675.945.868.299 
  2.396.824 3.5 1.204.305.105.643.055.906-.132.263-.188.419-.491.419-.814V17.6c0-.552.448-1
  1-1H11c.552 0 1-.448 1-1v-3.2h2c-1.202-2.198-1.904-3.906-2.161-5.164zM17.164 
  11.75c1.518 1.518 1.518 3.982 0 5.5M19.364 9.55c2.732
  2.732 2.732 7.168 0 9.9"/>
</svg>