<svg xmlns="http://www.w3.org/2000/svg" fill-rule="evenodd" stroke-linecap="round" stroke-miterlimit="10" clip-rule="evenodd" viewBox="0 0 24 24">
  <path fill="none" stroke="#757575" stroke-width="1.5" 
  d="M19.176 14.587s-2.518-1.011-3.921-1.574c-.554-.223-.918-.76-.918-1.357V7.441c0-.719-.581-1.301-1.301-1.301-.719 
  0-1.301.582-1.301 1.301v9.314l-2.983-.625c-.321-.069-.658.036-.893.27-.372.381-.372.988 
  0 1.37l3.477 3.477c.33.321.772.503 1.232.503h5.29c.868 0 1.596-.633 
  1.717-1.492l.547-3.876c.103-.737-.278-1.465-.946-1.795z
  M6.375 11.25v-9m-2.514 2.5l2.514-2.5 2.496 2.456"/>
</svg>