<svg xmlns="http://www.w3.org/2000/svg" fill-rule="evenodd" stroke-miterlimit="10" clip-rule="evenodd" viewBox="0 0 24 24">
  <path 
  fill="none" 
  stroke="#757575" 
  stroke-width=".8"
  d="M3.4 5.4v13.2c0 1.1.9 2 2 2h13.2c1.1 0 2-.9 2-2V5.4c0-1.1-.9-2-2-2H5.4c-1.1 0-2 .9-2 2zM9.119 11.573c.9 0 1.619.719 1.619 1.619 0 .899-.719 1.619-1.619 1.619-.899 0-1.619-.72-1.619-1.619 0-.9.72-1.619 1.619-1.619zm4.772 2.428c.54 0 .99.45.99 1.035 0 .584-.45 1.034-.99 1.034-.539 0-1.034-.45-1.034-1.034 0-.585.45-1.035 1.034-1.035zm.18-6.071c1.35 0 2.429 1.079 2.429 2.428 0 1.35-1.079 2.429-2.429 2.429-1.349 0-2.428-1.079-2.428-2.429 0-1.349 1.079-2.428 2.428-2.428z"/>
</svg>
