<?xml version="1.0" encoding="utf-8"?>
<!-- Generator: Adobe Illustrator 21.1.0, SVG Export Plug-In . SVG Version: 6.00 Build 0)  -->
<svg version="1.1" id="Ebene_1" xmlns="http://www.w3.org/2000/svg" xmlns:xlink="http://www.w3.org/1999/xlink" x="0px" y="0px"
	 viewBox="0 0 24 24" style="enable-background:new 0 0 24 24;" xml:space="preserve">
<style type="text/css">
	.st0{fill:none;stroke:#757575;stroke-width:0.8;stroke-miterlimit:10;}
</style>
<path class="st0" d="M3.8,15.7C5,15.8,5.7,17,5.7,17c1.1,1.8,2.8,1.4,3.6,1 M7.8,21.5c0.6,0.1,1.5-0.4,1.5-0.6v-1.1v-2.2
	c0-0.6,0.2-1.2,0.5-1.7c0.2-0.3,0-0.7-0.4-0.7c-2.6-0.4-5-1.7-5-6c0-1.4,0.5-2.5,1.2-3.3c0-0.4-0.4-1.6,0.2-3.3c0,0,1-0.4,3.4,1.2
	c1-0.2,2-0.4,3.1-0.4s2.1,0.1,3.1,0.4c2.3-1.6,3.4-1.2,3.4-1.2c0.6,1.6,0.2,3,0.1,3.2c0.7,0.9,1.2,2,1.2,3.3c0,4.3-2.3,5.6-4.9,6
	c-0.3,0-0.5,0.4-0.4,0.7c0.2,0.4,0.5,1,0.5,1.7c0,1.6,0,3,0,3.3c0,0.4,0.5,0.7,1.1,0.6"/>
</svg>
