<?xml version="1.0" encoding="utf-8"?>
<!-- Generator: Adobe Illustrator 21.1.0, SVG Export Plug-In . SVG Version: 6.00 Build 0)  -->
<svg version="1.1" id="Ebene_1" xmlns="http://www.w3.org/2000/svg" xmlns:xlink="http://www.w3.org/1999/xlink" x="0px" y="0px"
	 viewBox="0 0 24 24" style="enable-background:new 0 0 24 24;" xml:space="preserve">
<style type="text/css">
	.st0{fill:none;stroke:#757575;stroke-width:0.8;stroke-miterlimit:10;}
</style>
<path class="st0" d="M6.7,12.5h3.8v3.8C10.2,16.7,9.7,17,9,17.3c-0.7,0.3-1.5,0.4-2.3,0.4c-0.8,0-1.5-0.2-2.2-0.6
	c-0.6-0.4-1.1-1-1.5-1.7c-0.4-0.7-0.5-1.5-0.6-2.5V11c0-0.9,0.2-1.7,0.5-2.4s0.8-1.3,1.5-1.7c0.6-0.4,1.3-0.6,2.1-0.6
	c1.1,0,2,0.3,2.7,0.8s1.1,1.3,1.2,2.3 M17.3,8.6v8.4 M13.1,12.5h8.4"/>
</svg>
