<svg xmlns="http://www.w3.org/2000/svg" fill-rule="evenodd" stroke-linecap="round" stroke-linejoin="round" stroke-miterlimit="1.5" clip-rule="evenodd" viewBox="0 0 24 24">
  <path 
  fill="none"
  stroke="#757575" 
  stroke-width="1.5"
  d="M2.75 9c0-2.898 2.352-5.25 5.25-5.25S13.25 6.102 13.25 9 
  10.898 14.25 8 14.25 2.75 11.898 2.75 9zM15.25 19c0-1.242 1.008-2.25
  2.25-2.25s2.25 1.008 2.25 2.25-1.008 2.25-2.25 2.25-2.25-1.008-2.25-2.25zM15.75
  12.5c0-.966.784-1.75 1.75-1.75s1.75.784 1.75 1.75-.784 1.75-1.75
  1.75-1.75-.784-1.75-1.75z"/>
  
  <path 
  fill="none" 
  stroke="#757575" 
  d="M20.25
  9c0-.414.336-.75.75-.75s.75.336.75.75-.336.75-.75.75-.75-.336-.75-.75z"/>
</svg>