<svg xmlns="http://www.w3.org/2000/svg" fill-rule="evenodd" stroke-linecap="round" stroke-linejoin="round" stroke-miterlimit="10" clip-rule="evenodd" viewBox="0 0 24 24">
  <path 
  fill="none" 
  stroke="#757575" 
  stroke-width="1.5" 
  d="M16 6c-1.1 0-2.2.3-3.2 1H4c-1.1 0-2 .9-2 2v6c0 1.1.9 2 2
  2h1v1c0 .6.4 1 1 1h2c.6 0 1-.4 1-1v-1h6v1c0 .6.4 1 1 1h2c.6
  0 1-.4 1-1v-1h1c1.1 0 2-.9 2-2V9c0-1.1-.9-2-2-2h-.9c-.9-.7-2-1-3.1-1m-7.5
  4.5h-3m3 3h-3 M15.965 8.5c1.104-.019 2.015.861 2.035 1.965.019
  1.104-.861 2.015-1.965 2.035-1.104.019-2.015-.861-2.035-1.965-.019-1.104.861-2.015
  1.965-2.035z"/>
</svg>