<?xml version="1.0" encoding="utf-8"?>
<!-- Generator: Adobe Illustrator 21.1.0, SVG Export Plug-In . SVG Version: 6.00 Build 0)  -->
<svg version="1.1" id="Ebene_1" xmlns="http://www.w3.org/2000/svg" xmlns:xlink="http://www.w3.org/1999/xlink" x="0px" y="0px"
	 viewBox="0 0 24 24" style="enable-background:new 0 0 24 24;" xml:space="preserve">
<style type="text/css">
	.st0{fill:none;stroke:#757575;stroke-width:0.8;stroke-miterlimit:10;}
</style>
<path class="st0" d="M16,6c-1.1,0-2.2,0.3-3.2,1H4C2.9,7,2,7.9,2,9v6c0,1.1,0.9,2,2,2h1v1c0,0.6,0.4,1,1,1h2c0.6,0,1-0.4,1-1v-1h6v1
	c0,0.6,0.4,1,1,1h2c0.6,0,1-0.4,1-1v-1h1c1.1,0,2-0.9,2-2V9c0-1.1-0.9-2-2-2h-0.9C18.2,6.3,17.1,6,16,6 M16,8.5
	c1.4,0,2.5,1.1,2.5,2.5s-1.1,2.5-2.5,2.5s-2.5-1.1-2.5-2.5S14.6,8.5,16,8.5 M8,9.5H4 M8,11.5H4 M8,13.5H4"/>
</svg>
