<svg xmlns="http://www.w3.org/2000/svg" fill-rule="evenodd" stroke-linecap="round" stroke-linejoin="round" stroke-miterlimit="1.5" clip-rule="evenodd" viewBox="0 0 24 24">
  <path
  fill="none" 
  stroke="#757575"
  stroke-width="1.5" 
  d="M5.459 5.459c3.61-3.61 9.472-3.61 13.082 0 3.61 3.61 
  3.61 9.472 0 13.082-3.61 3.61-9.472 3.61-13.082
  0-3.61-3.61-3.61-9.472 0-13.082z
  M11.116 8.116c.488-.488 1.28-.488 1.768 0s.488 1.28
  0 1.768-1.28.488-1.768 0-.488-1.28 0-1.768zM14.116
  13.116c.488-.488 1.28-.488 1.768 0s.488 1.28 0 
  1.768-1.28.488-1.768 0-.488-1.28 0-1.768zM8.116 
  13.116c.488-.488 1.28-.488 1.768 0s.488 1.28 0
  1.768-1.28.488-1.768 0-.488-1.28 0-1.768z"/>
</svg>