<?xml version="1.0" encoding="utf-8"?>
<!-- Generator: Adobe Illustrator 21.1.0, SVG Export Plug-In . SVG Version: 6.00 Build 0)  -->
<svg version="1.1" id="Ebene_1" xmlns="http://www.w3.org/2000/svg" xmlns:xlink="http://www.w3.org/1999/xlink" x="0px" y="0px"
	 viewBox="0 0 24 24" style="enable-background:new 0 0 24 24;" xml:space="preserve">
<style type="text/css">
	.st0{fill:none;stroke:#757575;stroke-width:0.8;stroke-miterlimit:10;}
</style>
<path class="st0" d="M12,19c-4.7,0-8.5-3.8-8.5-8.5S7.3,2,12,2s8.5,3.8,8.5,8.5S17.7,18.9,12,22V19z M14.1,11.2l1.6,1.6V8.2
	l-1.6,1.6 M13.4,13H9c-0.4,0-0.7-0.3-0.7-0.7V8.7C8.3,8.3,8.6,8,9,8h4.3c0.4,0,0.7,0.3,0.7,0.7v3.6C14.1,12.7,13.8,13,13.4,13z"/>
</svg>
