<?xml version="1.0" encoding="utf-8"?>
<!-- Generator: Adobe Illustrator 21.1.0, SVG Export Plug-In . SVG Version: 6.00 Build 0)  -->
<svg version="1.1" id="Ebene_1" xmlns="http://www.w3.org/2000/svg" xmlns:xlink="http://www.w3.org/1999/xlink" x="0px" y="0px"
	 viewBox="0 0 24 24" style="enable-background:new 0 0 24 24;" xml:space="preserve">
<style type="text/css">
	.st0{fill:none;stroke:#757575;stroke-width:0.8;stroke-miterlimit:10;}
</style>
<path class="st0" d="M12,19c-4.7,0-8.5-3.8-8.5-8.5S7.3,2,12,2s8.5,3.8,8.5,8.5S17.7,18.9,12,22V19z M11.9,13.3l1.5-1.5
	c0.1-0.1,0.3-0.2,0.4-0.1c0.5,0.2,0.9,0.2,1.5,0.2c0.2,0,0.4,0.2,0.4,0.4v1.4c0,0.2-0.2,0.4-0.4,0.4c-3.9,0-7-3.1-7-7
	c0-0.2,0.2-0.4,0.4-0.4h1.4c0.2,0,0.4,0.2,0.4,0.4c0,0.5,0.1,1,0.2,1.5c0,0.1,0,0.3-0.1,0.4l-1.5,1.5"/>
</svg>
