<svg xmlns="http://www.w3.org/2000/svg" fill-rule="evenodd" stroke-linecap="round" stroke-linejoin="round" stroke-miterlimit="1.5" clip-rule="evenodd" viewBox="0 0 24 24">
  <path fill="none" stroke="#757575" stroke-width="1.5" 
  d="M15.713 4.287c-2.049-2.049-5.377-2.049-7.426 0-2.049 2.049-2.049 
  5.377 0 7.426 2.049 2.049 5.377 2.049 7.426 0 2.049-2.049 
  2.049-5.377 0-7.426zm-7.426 0l7.426 7.426
  M.75 16.75v4.5M4.25 16.75v4.5M7.5 21.25h2.25c.552 0 1-.448
  1-1v-2.5c0-.552-.448-1-1-1h-2.5v4.5M13.75 16.75v4.5M13.75 
  16.75h2.5c.265 0 .52.105.707.293.188.187.293.442.293.707v.5c0
  .265-.105.52-.293.707-.187.188-.442.293-.707.293h-2.206M16.203
  19.554L17 21.25M1 18.75h3M19.25 19.25h4M21.25 21.25v-4"/>
</svg>