<?xml version="1.0" encoding="utf-8"?>
<!-- Generator: Adobe Illustrator 21.1.0, SVG Export Plug-In . SVG Version: 6.00 Build 0)  -->
<svg version="1.1" id="Ebene_1" xmlns="http://www.w3.org/2000/svg" xmlns:xlink="http://www.w3.org/1999/xlink" x="0px" y="0px"
	 viewBox="0 0 24 24" style="enable-background:new 0 0 24 24;" xml:space="preserve">
<style type="text/css">
	.st0{fill:none;stroke:#757575;stroke-width:0.8;stroke-miterlimit:10;}
</style>
<g id="Headphones_x2F_set">
	<path id="Headphones" class="st0" d="M21,13.5h-5c-0.6,0-1,0.4-1,1v6c0,0.6,0.4,1,1,1h3c1.1,0,2-0.9,2-2v-7.7
		c0-5.1-4.2-9.5-9.2-9.3C6.9,2.6,3,6.6,3,11.5v8c0,1.1,0.9,2,2,2h3c0.6,0,1-0.4,1-1v-6c0-0.6-0.4-1-1-1H3"/>
</g>
</svg>
