<?xml version="1.0" encoding="UTF-8" standalone="no"?>
<!DOCTYPE svg PUBLIC "-//W3C//DTD SVG 1.1//EN" "http://www.w3.org/Graphics/SVG/1.1/DTD/svg11.dtd">
<svg width="100%" height="100%" viewBox="0 0 24 24" version="1.1" xmlns="http://www.w3.org/2000/svg" xmlns:xlink="http://www.w3.org/1999/xlink" xml:space="preserve" xmlns:serif="http://www.serif.com/" style="fill-rule:evenodd;clip-rule:evenodd;stroke-miterlimit:10;">
    <path d="M3.373,11.551L8.166,11.551C8.741,11.551 9.124,11.934 9.124,12.509L9.124,18.261C9.124,18.836 8.741,19.219 8.166,19.219L5.29,19.219C4.235,19.219 3.373,18.357 3.373,17.302L3.373,9.634C3.373,4.936 7.111,1.102 11.808,1.006C16.601,0.815 20.627,5.032 20.627,9.921L20.627,17.302C20.627,18.357 19.765,19.219 18.71,19.219L15.834,19.219C15.259,19.219 14.876,18.836 14.876,18.261L14.876,12.509C14.876,11.934 15.259,11.551 15.834,11.551L20.627,11.551L20.627,17.302C20.627,17.302 20.623,19.361 20.62,21.004C20.618,22.107 19.723,23 18.62,23C16.083,23 12.03,23 12.03,23" style="fill:none;stroke:rgb(117,117,117);stroke-width:0.84px;"/>
</svg>
