<svg xmlns="http://www.w3.org/2000/svg" fill-rule="evenodd" stroke-linecap="round" stroke-linejoin="round" stroke-miterlimit="1.5" clip-rule="evenodd" viewBox="0 0 24 24">
  <path
  fill="none"
  stroke="#757575" 
  stroke-width="1.5"
  d="M3.5 13h3.455c.853 0 1.545.692 1.545 1.545v3.945c0 .4-.159.785-.442
  1.068-.283.283-.668.442-1.068.442H5.046c-.854 0-1.546-.692-1.546-1.546V10.5C3.5
  5.809 7.309 2 12 2s8.5 3.809 8.5 8.5v8c0 .398-.158.779-.439 1.061-.282.281-.663.439-1.061.439h-2c-.398 
  0-.779-.158-1.061-.439-.281-.282-.439-.663-.439-1.061v-4c0-.398.158-.779.439-1.061.282-.281.663-.439 
  1.061-.439h3.5v8.5c0 .398-.158.779-.439 
  1.061-.282.281-.663.439-1.061.439h-6.5"/>
</svg>
