<svg xmlns="http://www.w3.org/2000/svg" fill-rule="evenodd" stroke-linecap="round" stroke-linejoin="round" stroke-miterlimit="1.5" clip-rule="evenodd" viewBox="0 0 24 24">
  <path fill="none" stroke="#757575" stroke-width="1.5" 
  d="M23.25 6.05c0-.345-.137-.675-.381-.919s-.574-.381-.919-.381H2.05c-.345
  0-.675.137-.919.381S.75 5.705.75 6.05v11.9c0
  .345.137.675.381.919s.574.381.919.381h19.9c.345 0 
  .675-.137.919-.381s.381-.574.381-.919V6.05zM3.75
  9.75v4.5M6.25 9.75v4.5M8.75 9.75v4.5
  M20.25 10.237V9.75h-2.5v4.5h2.5v-.5M5.987 11.75h-2M10.75
  11.75H9M10.75 9.75H9M10.75 14.25H9M12.85 9.75l1.4 4.5 1.4-4.5"/>
</svg>