<svg xmlns="http://www.w3.org/2000/svg" fill-rule="evenodd" stroke-linejoin="round" stroke-miterlimit="1.41421" clip-rule="evenodd" viewBox="0 0 24 24">
  <path 
  fill="none"
  stroke="#757575" 
  stroke-width="1.5"
  d="M16.733 5.282c-.651-.958-1.395-1.851-2.231-2.65-.326-.317-.875-.019-.782.427.177.874.363 2.028.363 3.06 0 
  1.916-1.255 3.468-3.171 3.468-1.432 0-2.604-.864-3.115-2.101-.093-.186-.131-.298-.186-.502-.103-.391-.614-.512-.837-.168-.168.251-.326.502-.475.772-1.106
  1.897-1.739 4.11-1.739 6.472 0 4.111 3.33 7.44 7.44 7.44s7.44-3.329
  7.44-7.44c0-3.245-1.005-6.258-2.707-8.778z"/>
</svg>
