<?xml version="1.0" encoding="utf-8"?>
<!-- Generator: Adobe Illustrator 21.1.0, SVG Export Plug-In . SVG Version: 6.00 Build 0)  -->
<svg version="1.1" id="Ebene_1" xmlns="http://www.w3.org/2000/svg" xmlns:xlink="http://www.w3.org/1999/xlink" x="0px" y="0px"
	 viewBox="0 0 24 24" style="enable-background:new 0 0 24 24;" xml:space="preserve">
<style type="text/css">
	.st0{fill:none;stroke:#757575;stroke-width:0.8;stroke-miterlimit:10;}
</style>
<path class="st0" d="M14.9,12c0,1.6-1.2,2.9-2.9,2.9S9.1,13.6,9.1,12s1.2-2.9,2.9-2.9S14.9,10.4,14.9,12z M16.4,16.3
	c1.2-1.2,1.8-2.7,1.8-4.4c0-3.5-2.8-6.2-6.2-6.2s-6.2,2.8-6.2,6.2c0,1.7,0.7,3.3,1.8,4.4 M18.8,18.8c1.7-1.7,2.8-4.1,2.8-6.8
	c0-5.3-4.3-9.6-9.6-9.6S2.4,6.7,2.4,12c0,2.7,1.1,5.1,2.8,6.8"/>
</svg>
