<?xml version="1.0" encoding="UTF-8" standalone="no"?><!DOCTYPE svg PUBLIC "-//W3C//DTD SVG 1.1//EN" "http://www.w3.org/Graphics/SVG/1.1/DTD/svg11.dtd"><svg width="100%" height="100%" viewBox="0 0 24 24" version="1.1" xmlns="http://www.w3.org/2000/svg" xmlns:xlink="http://www.w3.org/1999/xlink" xml:space="preserve" xmlns:serif="http://www.serif.com/" style="fill-rule:evenodd;clip-rule:evenodd;stroke-linecap:round;stroke-linejoin:round;stroke-miterlimit:1.5;"><path d="M19.49,10.391c0,-1.091 -0.886,-1.976 -1.976,-1.976l-11.049,0c-1.09,0 -1.975,0.885 -1.975,1.976l0,9.218c0,1.091 0.885,1.976 1.975,1.976l11.049,0c1.09,0 1.976,-0.885 1.976,-1.976l0,-9.218Z" style="fill:none;stroke:#757575;stroke-width:0.8px;"/><path d="M7.882,8.415c0,0 0,-0.142 0,-2.415c0,-2.273 1.845,-4.118 4.118,-4.118c2.273,0 4.118,1.845 4.118,4.118c0,2.273 0,2.415 0,2.415" style="fill:none;stroke:#757575;stroke-width:0.8px;"/><circle cx="12" cy="15" r="1.5" style="fill:none;stroke:#757575;stroke-width:0.8px;"/></svg>