<svg xmlns="http://www.w3.org/2000/svg" fill-rule="evenodd" stroke-linecap="round" stroke-linejoin="round" stroke-miterlimit="1.5" clip-rule="evenodd" viewBox="0 0 24 24">
  <path 
  fill="none"
  stroke="#757575"
  stroke-width="1.5" 
  d="M5.282 5.282c3.708-3.707 9.728-3.707 
  13.436 0 3.707 3.708 3.707 9.728 0 13.436-3.708 
  3.707-9.728 3.707-13.436 0-3.707-3.708-3.707-9.728
  0-13.436z M7.939 13.814a1.502 1.502 0 0 1 2.122 0 
  1.502 1.502 0 0 1 0 2.122 1.502 1.502 0 0 1-2.122 
  0 1.502 1.502 0 0 1 0-2.122zM13.939 13.814a1.502 
  1.502 0 0 1 2.122 0 1.502 1.502 0 0 1 0 2.122 
  1.502 1.502 0 0 1-2.122 0 1.502 1.502 0 0 1
  0-2.122zM10.5 14.875h3M8.5 11.125l2-4.5 
  1.5.75 1.5-.75 2 4.5M7
  11.125h10"/>
</svg>