<svg xmlns="http://www.w3.org/2000/svg" fill-rule="evenodd" stroke-linecap="round" stroke-linejoin="round" stroke-miterlimit="1.5" clip-rule="evenodd" viewBox="0 0 24 24">
  <path fill="none" stroke="#757575" stroke-width="1.5" 
  d="M4.69 15.666c1.049-1.046 2.771-1.046 3.82 0 1.046 1.049 1.046 2.772 
  0 3.82-1.049 1.046-2.771 1.046-3.82 0-1.046-1.048-1.046-2.771 0-3.82zm10.8 
  0c1.049-1.046 2.771-1.046 3.82 0 1.046 1.049 1.046 2.772 0 3.82-1.049 1.046-2.771 
  1.046-3.82 0-1.046-1.048-1.046-2.771 0-3.82zm-6.19 1.91h5.4m-9-6.75l3.6-8.1 2.7
  1.35 2.7-1.35 3.6 8.1m-15.3 0h18"/>
</svg>