<?xml version="1.0" encoding="utf-8"?>
<!-- Generator: Adobe Illustrator 21.1.0, SVG Export Plug-In . SVG Version: 6.00 Build 0)  -->
<svg version="1.1" id="Ebene_1" xmlns="http://www.w3.org/2000/svg" xmlns:xlink="http://www.w3.org/1999/xlink" x="0px" y="0px"
	 viewBox="0 0 24 24" style="enable-background:new 0 0 24 24;" xml:space="preserve">
<style type="text/css">
	.st0{fill:none;stroke:#757575;stroke-width:0.8;stroke-miterlimit:10;}
</style>
<path class="st0" d="M18.6,20.6H5.4c-1.1,0-2-0.9-2-2V5.4c0-1.1,0.9-2,2-2h13.2c1.1,0,2,0.9,2,2v13.2C20.6,19.7,19.7,20.6,18.6,20.6
	z M12,9c-1.7,0-3,1.3-3,3s1.3,3,3,3s3-1.3,3-3S13.7,9,12,9z M17.1,5.9c-0.6,0-1,0.4-1,1s0.4,1,1,1s1-0.4,1-1S17.7,5.9,17.1,5.9z"/>
</svg>
