<svg xmlns="http://www.w3.org/2000/svg" fill-rule="evenodd" stroke-linecap="round" stroke-linejoin="round" stroke-miterlimit="1.5" clip-rule="evenodd" viewBox="0 0 24 24">
  <path 
  fill="none" 
  stroke="#757575" 
  stroke-width=".8" 
  d="M21 6.6C21 4.613 19.387 3 17.4 3H6.6C4.613 3 3 4.613 3 6.6v10.8C3 19.387 4.613 21 6.6 21h10.8c1.987 0 3.6-1.613 3.6-3.6V6.6z
  M 12 9 C 13.6568542495 9 15 10.3431457505 15 12 C 15 13.6568542495 13.6568542495 15 12 15 C 10.3431457505 15 9 13.6568542495 
  9 12 C 9 10.3431457505 10.3431457505 9 12 9 ZM 17 6 C 17.5522847498 6 18 6.44771525017 18 7 C 18 7.55228474983 17.5522847498
  8 17 8 C 16.4477152502 8 16 7.55228474983 16 7 C 16 6.44771525017 16.4477152502 6 17 6 Z"/>
</svg>
