<svg xmlns="http://www.w3.org/2000/svg" fill-rule="evenodd" stroke-linecap="round" stroke-linejoin="round" stroke-miterlimit="1.41421" clip-rule="evenodd" viewBox="0 0 24 24">
  <path fill="none" stroke="#757575" stroke-width="1.5" 
  d="M4.019 8.258s-.283-.023-.412-.066c-.517-.172-.89-.659-.89-1.234V4.042c0-.718.582-1.3
  1.3-1.3h15.966c.718 0 1.3.582 1.3 1.3v2.916c0 .583-.384 1.077-.913 1.241-.122.038-.389.059-.389.059M9.5
  12.988h5m5.75-3.938c0-.718-.582-1.3-1.3-1.3H5.05c-.718 0-1.3.582-1.3 1.3v10.9c0 .718.582 1.3 1.3
  1.3h13.9c.718 0 1.3-.582 1.3-1.3V9.05z"/>
</svg>