<svg xmlns="http://www.w3.org/2000/svg" fill-rule="evenodd" stroke-linecap="round" stroke-linejoin="round" stroke-miterlimit="1.5" clip-rule="evenodd" viewBox="0 0 24 24">
  <path fill="none" stroke="#757575" stroke-width="1.5" 
  d="M5.459 5.459c3.61-3.61 9.472-3.61 13.082 0 3.61 3.61 3.61 9.472 0 13.082-3.61 
  3.61-9.472 3.61-13.082 0-3.61-3.61-3.61-9.472 0-13.082zm5.946-2.329C9.579 5.615 
  8.5 8.683 8.5 12c0 3.261 1.043 6.281 2.813 8.743m1.303.098C14.429 18.361 15.5 
  15.304 15.5 12c0-3.304-1.071-6.361-2.884-8.841M3.85 9h16.419M3.577 15h16.694"/>
</svg>