<svg xmlns="http://www.w3.org/2000/svg" fill-rule="evenodd" stroke-linecap="round" stroke-linejoin="round" stroke-miterlimit="1.5" clip-rule="evenodd" viewBox="0 0 24 24">
  <path 
  fill="none" 
  stroke="#757575" 
  stroke-width="1.5" 
  d="M5.459 5.459c3.61-3.61 9.472-3.61 13.082 0 3.61 
  3.61 3.61 9.472 0 13.082-3.61 3.61-9.472 3.61-13.082 
  0-3.61-3.61-3.61-9.472 0-13.082z M11.69 2.755C9.692
  5.303 8.5 8.514 8.5 12c0 3.486 1.192 6.697 3.19 
  9.245M12.31 21.245c1.998-2.548 3.19-5.759 3.19-9.245 
  0-3.486-1.192-6.697-3.19-9.245M3.248 9h17.504M3.248 
  15h17.504"/>
</svg>