<svg width="100%" height="100%" viewBox="0 0 24 24" version="1.1" xmlns="http://www.w3.org/2000/svg" xml:space="preserve" fill-rule="evenodd" clip-rule="evenodd" stroke-miterlimit="10">
  <path d="M21 18.8V5.3C21 4 20 3 18.8 3H5.3C4 3 3 4 3 5.3v13.5C3 20 4 21 5.3 21h13.5c1.2 0 2.2-1 2.2-2.2zm-10.693-3.496c-.061.04-.139.042-.203.007S10 15.209 10 15.136V8.864c0-.073.04-.14.104-.175.064-.035.142-.033.203.007.979.622 4.011 2.552 4.928 3.135.058.037.092.101.092.169s-.034.132-.092.169c-.917.583-3.949 2.513-4.928 3.135z" fill="none" stroke="#757575" stroke-width=".8"/>
</svg>
