<svg xmlns="http://www.w3.org/2000/svg" fill-rule="evenodd" stroke-linecap="round" stroke-linejoin="round" stroke-miterlimit="1.5" clip-rule="evenodd" viewBox="0 0 24 24">
  <path fill="none" stroke="#757575" stroke-width="1.5" 
  d="M2.75 6.75v12.5c0 .53.211 1.039.586 1.414s.884.586 
  1.414.586h12.5m4-17.3c0-.663-.537-1.2-1.2-1.2H7.95c-.663 
  0-1.2.537-1.2 1.2v12.1c0 .663.537 1.2 1.2 1.2h12.1c.663
  0 1.2-.537 1.2-1.2V3.95z M12.447 7.905v4.19c0
  .32.353.513.623.34l3.294-2.095c.117-.074.189-.203.189-.342s-.072-.268-.189-.342L13.07
  7.565c-.065-.043-.141-.065-.219-.065-.221 
  0-.404.182-.404.404v.001z"/>
</svg>