<?xml version="1.0" encoding="utf-8"?>
<!-- Generator: Adobe Illustrator 21.1.0, SVG Export Plug-In . SVG Version: 6.00 Build 0)  -->
<svg version="1.1" id="Ebene_1" xmlns="http://www.w3.org/2000/svg" xmlns:xlink="http://www.w3.org/1999/xlink" x="0px" y="0px"
	 viewBox="0 0 24 24" style="enable-background:new 0 0 24 24;" xml:space="preserve">
<style type="text/css">
	.st0{fill:none;stroke:#757575;stroke-width:0.8;stroke-miterlimit:10;}
</style>
<path class="st0" d="M21,18.8V5.3C21,4,20,3,18.8,3H5.3C4,3,3,4,3,5.3v13.5C3,20,4,21,5.3,21h13.5C20,21,21,20,21,18.8z M9.2,7.5
	l1,1.4 M14.8,7.5l-1,1.4 M12,8.4c-2.3,0-4.1,1.8-4.1,4.1s1.8,4.1,4.1,4.1s4-1.8,4-4.1S14.3,8.4,12,8.4z M10.4,10.8h0.8 M12.8,10.8
	h0.8"/>
</svg>
