<?xml version="1.0" encoding="UTF-8" standalone="no"?><!DOCTYPE svg PUBLIC "-//W3C//DTD SVG 1.1//EN" "http://www.w3.org/Graphics/SVG/1.1/DTD/svg11.dtd"><svg width="100%" height="100%" viewBox="0 0 24 24" version="1.1" xmlns="http://www.w3.org/2000/svg" xmlns:xlink="http://www.w3.org/1999/xlink" xml:space="preserve" xmlns:serif="http://www.serif.com/" style="fill-rule:evenodd;clip-rule:evenodd;stroke-linecap:round;stroke-miterlimit:10;"><path d="M21.5,19.178l0,-14.25c0,-1.372 -1.056,-2.428 -2.322,-2.428l-14.25,0c-1.372,0 -2.428,1.056 -2.428,2.428l0,14.25c0,1.266 1.056,2.322 2.428,2.322l14.25,0c1.266,0 2.322,-1.056 2.322,-2.322Zm-14.883,-7.072l1.707,2.86m9.059,-2.86l-1.621,2.911m3.627,6.377c0,-4.116 -3.272,-7.388 -7.389,-7.388c-4.117,0 -7.389,3.272 -7.389,7.388m4.856,-3.588l0.844,0m3.378,0l0.844,0" style="fill:none;stroke:#757575;stroke-width:0.8px;"/></svg>