<svg xmlns="http://www.w3.org/2000/svg" fill-rule="evenodd" stroke-linecap="round" stroke-linejoin="round" stroke-miterlimit="1.5" clip-rule="evenodd" viewBox="0 0 24 24">
  <path 
  fill="none" 
  stroke="#757575" 
  stroke-width="1.5"
  d="M5.109 8.64c-.406-.034-.808.103-1.109.379-.3.275-.471.664-.472
  1.072-.029 1.928-.036 5.232-.04 7.072-.001.749.55 1.385 1.292 1.49
  2.675.383 5.001 1.349 6.89 3.037.188.17.474.172.664.004 1.885-1.641
  4.161-2.683 6.867-3.063.746-.101 1.302-.737 1.302-1.49.012-1.85.012-5.152.012-7.09
  0-.415-.178-.811-.488-1.087-.311-.276-.725-.406-1.138-.357-2.262.381-4.554
  1.548-6.868 3.393-2.572-2.022-4.857-3.079-6.912-3.36zM9.879 
  2.879c1.17-1.171 3.072-1.171 4.242 0 1.171 1.17 1.171 3.072
  0 4.242-1.17 1.171-3.072 1.171-4.242 0-1.171-1.17-1.171-3.072
  0-4.242z"/>
</svg>