<?xml version="1.0" encoding="utf-8"?>
<!-- Generator: Adobe Illustrator 21.1.0, SVG Export Plug-In . SVG Version: 6.00 Build 0)  -->
<svg version="1.1" id="Ebene_1" xmlns="http://www.w3.org/2000/svg" xmlns:xlink="http://www.w3.org/1999/xlink" x="0px" y="0px"
	 viewBox="0 0 24 24" style="enable-background:new 0 0 24 24;" xml:space="preserve">
<style type="text/css">
	.st0{fill:none;stroke:#757575;stroke-width:0.8;stroke-miterlimit:10;}
</style>
<path id="Display" class="st0" d="M8.8,18.8v2.1c0,0.5,0.4,1.1,1.1,1.1h4.2c0.6,0,1.1-0.5,1.1-1.1v-2.1 M11.8,2
	C7.7,2,4.5,5.3,4.5,9.4c0,2.5,1.3,4.7,3.2,6.1v2.3c0,0.5,0.4,1.1,1.1,1.1h6.4c0.6,0,1.1-0.5,1.1-1.1v-2.4c2-1.4,3.2-3.6,3.2-6.1
	C19.2,5.3,16.1,2,11.8,2z"/>
</svg>
