<svg xmlns="http://www.w3.org/2000/svg" fill-rule="evenodd" stroke-linecap="round" stroke-linejoin="round" stroke-miterlimit="1.5" clip-rule="evenodd" viewBox="0 0 24 24">
  <path fill="none" stroke="#757575" stroke-width="2" 
  d="M9.5 5.984h11M9.5 12h11m-11 6h11M3.293 5.293c.39-.39 1.024-.39 
  1.414 0 .39.39.39 1.024 0 1.414-.39.39-1.024.39-1.414 0-.39-.39-.39-1.024 
  0-1.414zM3.293 11.293c.39-.39 1.024-.39 1.414 0 .39.39.39 1.024 0 
  1.414-.39.39-1.024.39-1.414 0-.39-.39-.39-1.024 0-1.414zM3.293 
  17.293c.39-.39 1.024-.39 1.414 0 .39.39.39 1.024 0 1.414-.39.39-1.024.39-1.414
  0-.39-.39-.39-1.024 0-1.414z"/>
</svg>