<svg xmlns="http://www.w3.org/2000/svg" fill-rule="evenodd" stroke-linecap="round" stroke-linejoin="round" stroke-miterlimit="1.5" clip-rule="evenodd" viewBox="0 0 24 24">
  <path 
  fill="none" 
  stroke="#757575"
  stroke-width="1.5"
  d="M8.5 5.984h12M3.978 4.75c.69-.012 1.26.538 1.272 1.228.012.69-.538 
  1.26-1.228 1.272-.69.012-1.26-.538-1.272-1.228-.012-.69.538-1.26 1.228-1.272zM3.978 10.75c.69-.012
  1.26.538 1.272 1.228.012.69-.538 1.26-1.228 1.272-.69.012-1.26-.538-1.272-1.228-.012-.69.538-1.26
  1.228-1.272zM3.978 16.75c.69-.012 1.26.538 1.272 1.228.012.69-.538 1.26-1.228 
  1.272-.69.012-1.26-.538-1.272-1.228-.012-.69.538-1.26 1.228-1.272zM8.5
  12h12M8.5 18h12"/>
</svg>