<?xml version="1.0" encoding="utf-8"?>
<!-- Generator: Adobe Illustrator 21.1.0, SVG Export Plug-In . SVG Version: 6.00 Build 0)  -->
<svg version="1.1" id="Ebene_1" xmlns="http://www.w3.org/2000/svg" xmlns:xlink="http://www.w3.org/1999/xlink" x="0px" y="0px"
	 viewBox="0 0 24 24" style="enable-background:new 0 0 24 24;" xml:space="preserve">
<style type="text/css">
	.st0{fill:none;stroke:#757575;stroke-width:0.8;stroke-miterlimit:10;}
</style>
<path class="st0" d="M9.1,10.7v6.6c0,0.2,0.2,0.4,0.4,0.2l5.8-3.3c0.2-0.1,0.2-0.4,0-0.5l-5.8-3.3C9.4,10.3,9.1,10.5,9.1,10.7z
	 M20,21.2H4c-1.1,0-2-0.9-2-2V8.9c0-1.1,0.9-2,2-2h16c1.1,0,2,0.9,2,2v10.3C22,20.3,21.1,21.2,20,21.2z M12,6.9l4-4 M12,6.9l-4-4"/>
</svg>
