<svg xmlns="http://www.w3.org/2000/svg" fill-rule="evenodd" stroke-linecap="round" stroke-linejoin="round" stroke-miterlimit="1.5" clip-rule="evenodd" viewBox="0 0 24 24">
  <path fill="none" stroke="#757575" stroke-width="1.5" 
  d="M2.75 4.005c0-.333.132-.652.368-.887.235-.236.554-.368.887-.368h6.957c.344 0 
  .675.137.919.381l8.879 8.879c.547.547.547 1.433 0 1.98l-6.77 6.77c-.547.547-1.433.547-1.98 
  0l-8.879-8.879c-.244-.244-.381-.575-.381-.919V4.005z
  M5.75 6.5c0-.414.336-.75.75-.75s.75.336.75.75-.336.75-.75.75-.75-.336-.75-.75z"/>
</svg>