<?xml version="1.0" encoding="utf-8"?>
<!-- Generator: Adobe Illustrator 21.1.0, SVG Export Plug-In . SVG Version: 6.00 Build 0)  -->
<svg version="1.1" id="Ebene_1" xmlns="http://www.w3.org/2000/svg" xmlns:xlink="http://www.w3.org/1999/xlink" x="0px" y="0px"
	 viewBox="0 0 24 24" style="enable-background:new 0 0 24 24;" xml:space="preserve">
<style type="text/css">
	.st0{fill:none;stroke:#757575;stroke-width:0.8;stroke-miterlimit:10;}
</style>
<path class="st0" d="M12,2C8.1,2,5,5.1,5,9c0,5.2,7,13,7,13s7-7.8,7-13C19,5.1,15.8,2,12,2z M12.4,5.5c0,0,0.3,0.9,0.3,1.6
	s-0.4,1.2-1.1,1.2c-0.7,0-1.2-0.6-1.2-1.2V6.9c-0.7,0.8-1,1.8-1,2.9c0,1.4,1.2,2.6,2.6,2.6s2.6-1.2,2.6-2.6
	C14.6,8.1,13.7,6.5,12.4,5.5z"/>
</svg>
