<svg xmlns="http://www.w3.org/2000/svg" fill-rule="evenodd" stroke-linecap="round" stroke-linejoin="round" stroke-miterlimit="1.5" clip-rule="evenodd" viewBox="0 0 24 24">
  <path fill="none" stroke="#757575" stroke-width="2" 
  d="M18.5 9c0 3.04-4.667 9.881-6.092 11.898-.093.133-.246.213-.408.213-.163 
  0-.315-.079-.408-.213C10.167 18.881 5.5 12.04 5.5 9c0-3.587 2.913-6.5 
  6.5-6.5s6.5 2.913 6.5 6.5zm-7.207-.707c.39-.39 1.024-.39 1.414 
  0 .39.39.39 1.024 0 1.414-.39.39-1.024.39-1.414 0-.39-.39-.39-1.024 0-1.414z
  M12 8V6m3 3h-2m-2 0H9m3 3v-2"/>
</svg>