<?xml version="1.0" encoding="utf-8"?>
<!-- Generator: Adobe Illustrator 21.1.0, SVG Export Plug-In . SVG Version: 6.00 Build 0)  -->
<svg version="1.1" id="Ebene_1" xmlns="http://www.w3.org/2000/svg" xmlns:xlink="http://www.w3.org/1999/xlink" x="0px" y="0px"
	 viewBox="0 0 24 24" style="enable-background:new 0 0 24 24;" xml:space="preserve">
<style type="text/css">
	.st0{fill:none;stroke:#757575;stroke-width:0.8;stroke-miterlimit:10;}
</style>
<path class="st0" d="M16.8,8.2V6.3c0-2.6-2.1-4.8-4.8-4.8S7.2,3.6,7.2,6.3v1.9 M12,16.7c-1,0-1.9-0.9-1.9-1.9s0.9-1.9,1.9-1.9
	s1.9,0.9,1.9,1.9S13,16.7,12,16.7z M17.6,21.5H6.4c-1.1,0-2-0.9-2-2v-9.3c0-1.1,0.9-2,2-2h11.2c1.1,0,2,0.9,2,2v9.3
	C19.6,20.6,18.7,21.5,17.6,21.5z"/>
</svg>
