<svg xmlns="http://www.w3.org/2000/svg" fill-rule="evenodd" stroke-linecap="round" stroke-linejoin="round" stroke-miterlimit="1.5" clip-rule="evenodd" viewBox="0 0 24 24">
  <path
  fill="none"
  stroke="#757575"
  stroke-width="1.5" 
  d="M19.25 10.75c0-.53-.211-1.039-.586-1.414s-.884-.586-1.414-.586H6.75c-.53 
  0-1.039.211-1.414.586s-.586.884-.586 1.414v8.5c0
  .53.211 1.039.586 1.414s.884.586 1.414.586h10.5c.53 0 
  1.039-.211 1.414-.586s.586-.884.586-1.414v-8.5z
  M11.116 14.116c.488-.488 1.28-.488 1.768 0s.488
  1.28 0 1.768-1.28.488-1.768 0-.488-1.28 0-1.768z
  M8 8.75V6c0-2.208 1.792-4 4-4s4 1.792
  4 4v2.75"/>
</svg>