<svg xmlns="http://www.w3.org/2000/svg" fill-rule="evenodd" stroke-linecap="round" stroke-linejoin="round" stroke-miterlimit="1.5" clip-rule="evenodd" viewBox="0 0 24 24">
  <path fill="none" stroke="#757575" stroke-width="2" 
  d="M19.25 10.75c0-.53-.211-1.039-.586-1.414s-.884-.586-1.414-.586H6.75c-.53 
  0-1.039.211-1.414.586s-.586.884-.586 1.414v8.5c0 .53.211 1.039.586 1.414s.884.586
  1.414.586h10.5c.53 0 1.039-.211 1.414-.586s.586-.884.586-1.414v-8.5zM8
  8.323V6c0-2.208 1.792-4 4-4s4 1.792 4 4v2.445
  M11.293 14.293c.39-.39 1.024-.39 1.414 0 .39.39.39 
  1.024 0 1.414-.39.39-1.024.39-1.414 0-.39-.39-.39-1.024 0-1.414z"/>
</svg>