<svg xmlns="http://www.w3.org/2000/svg" fill-rule="evenodd" stroke-linecap="round" stroke-linejoin="round" stroke-miterlimit="1.5" clip-rule="evenodd" viewBox="0 0 24 24">
  <path fill="none" stroke="#757575" stroke-width="1.5"
  d="M12.015 2.253c4.132-.073 7.074 2.848 6.402 6.948-.62 3.784-2.884 10.073-6.417
  10.073S6.349 12.963 5.613 9.201c-.79-4.042 2.096-6.873 6.402-6.948zm-.031 9.968c.544-.006
  1.096.122 1.412.37.764.601 1.721 2.145 2.821 2.125 1.101-.021 2.133-.289 
  3.783-2.246m-8-.249c-.544-.006-1.096.122-1.411.37-.765.601-1.721 2.145-2.822 
  2.125-1.101-.021-2.132-.289-3.783-2.246m2.091-4.449L10 9.5m8.043-1.496L14
  9.5m-2 6v6"/>
</svg>