<svg xmlns="http://www.w3.org/2000/svg" fill-rule="evenodd" stroke-linecap="round" stroke-linejoin="round" stroke-miterlimit="1.5" clip-rule="evenodd" viewBox="0 0 24 24">
  <path
  fill="none"
  stroke="#757575"
  stroke-width="1.5"
  d="M13.461 2.249H8.613c-.552 0-.999.447-1 .998-.003 2.485-.012 8.747-.012 8.747
  M7.608 6.634s-1.953.018-3.394.032c-.835.008-1.507.689-1.504 1.524.012 2.801.037
  8.771.048 11.562.004.827.676 1.495 1.504 1.494 3.47-.008 12.031-.027 
  15.498-.034.827-.002 1.496-.672 
  1.497-1.498.004-2.799.012-8.799.016-11.607.001-.4-.158-.782-.44-1.064-.283-.282-.666-.44-1.065-.438-2.959.011-9.241.035-9.241.035"/>
</svg>