<svg xmlns="http://www.w3.org/2000/svg" fill-rule="evenodd" stroke-linecap="round" stroke-linejoin="round" stroke-miterlimit="1.5" clip-rule="evenodd" viewBox="0 0 24 24">
  <path fill="none" stroke="#757575" stroke-width="1.5" 
  d="M18.439 7.621c0-.546-.217-1.07-.603-1.457-.387-.386-.911-.603-1.457-.603H7.621c-.546
  0-1.07.217-1.457.603-.386.387-.603.911-.603 1.457v8.758c0 .546.217 1.07.603 
  1.457.387.386.911.603 1.457.603h8.758c.546 0 1.07-.217 
  1.457-.603.386-.387.603-.911.603-1.457V7.621zm-4.121 2.576c0-.284-.231-.515-.515-.515h-3.606c-.284
  0-.515.231-.515.515v3.606c0 .284.231.515.515.515h3.606c.284 0
  .515-.231.515-.515v-3.606zM5 9.939H3.5M5 14.061H3.5m17 
  0H19m1.5-4.122H19M14.061 19v1.5M9.939 19v1.5m0-17V5m4.122-1.5V5"/>
</svg>