<?xml version="1.0" encoding="utf-8"?>
<!-- Generator: Adobe Illustrator 21.1.0, SVG Export Plug-In . SVG Version: 6.00 Build 0)  -->
<svg version="1.1" id="Ebene_1" xmlns="http://www.w3.org/2000/svg" xmlns:xlink="http://www.w3.org/1999/xlink" x="0px" y="0px"
	 viewBox="0 0 24 24" style="enable-background:new 0 0 24 24;" xml:space="preserve">
<style type="text/css">
	.st0{fill:none;stroke:#757575;stroke-width:0.8;stroke-miterlimit:10;}
</style>
<path id="RAM" class="st0" d="M17.1,19.4H6.9c-1.3,0-2.4-1.1-2.4-2.4V6.9c0-1.3,1.1-2.4,2.4-2.4h10.1c1.3,0,2.4,1.1,2.4,2.4v10.1
	C19.4,18.4,18.4,19.4,17.1,19.4z M8.9,4.6V2 M15.1,4.6V2 M15.1,22v-2.6 M8.9,22v-2.6 M2,8.9h2.6 M4.6,15.1H2 M22,15.1h-2.6 M22,8.9
	h-2.6 M13.8,9h-3.6C9.5,9,9,9.5,9,10.2v3.6c0,0.7,0.5,1.2,1.2,1.2h3.6c0.7,0,1.2-0.5,1.2-1.2v-3.6C15,9.5,14.5,9,13.8,9z"/>
</svg>
