<svg xmlns="http://www.w3.org/2000/svg" fill-rule="evenodd" stroke-linecap="round" stroke-linejoin="round" stroke-miterlimit="1.5" clip-rule="evenodd" viewBox="0 0 24 24">
  <path 
  fill="none" 
  stroke="#757575" 
  stroke-width="1.5" 
  d="M9.338 9.348c1.464-1.463 3.84-1.463 5.304 0 1.463 1.464 
  1.463 3.84 0 5.304-1.464 1.463-3.84 1.463-5.304 
  0-1.463-1.464-1.463-3.84 0-5.304z M16 21.25h-4.01c-5.106 
  0-9.25-4.145-9.25-9.25s4.144-9.25 9.25-9.25c5.105 0 9.25
  4.145 9.25 9.25l.01 1.5c0 1.518-1.232 2.75-2.75
  2.75s-2.75-1.232-2.75-2.75-.01-1.5-.01-1.5"/>
</svg>