<svg xmlns="http://www.w3.org/2000/svg" fill-rule="evenodd" stroke-linecap="round" stroke-linejoin="round" stroke-miterlimit="1.5" clip-rule="evenodd" viewBox="0 0 24 24">
  <path 
  fill="none" 
  stroke="#757575" 
  stroke-width="1.5"
  d="M2.5 21s2.122-2.11 3.061-3.044c.281-.28.662-.437 1.058-.437H20c.398 0 .779-.158 
  1.061-.439.281-.282.439-.663.439-1.061v-12c0-.398-.158-.779-.439-1.061-.282-.281-.663-.439-1.061-.439H4c-.398 
  0-.779.158-1.061.439-.281.282-.439.663-.439 
  1.061V21zm4-14h11m-11 3h8m-8 3h5"/>
</svg>
