<?xml version="1.0" encoding="utf-8"?>
<!-- Generator: Adobe Illustrator 21.1.0, SVG Export Plug-In . SVG Version: 6.00 Build 0)  -->
<svg version="1.1" id="Ebene_1" xmlns="http://www.w3.org/2000/svg" xmlns:xlink="http://www.w3.org/1999/xlink" x="0px" y="0px"
	 viewBox="0 0 24 24" style="enable-background:new 0 0 24 24;" xml:space="preserve">
<style type="text/css">
	.st0{fill:none;stroke:#757575;stroke-width:0.8;stroke-miterlimit:10;}
</style>
<path id="_x30__x2C_4" class="st0" d="M3.7,21h17c0.2,0,0.3-0.1,0.3-0.3v-17c0-0.3-0.3-0.4-0.5-0.2l-17,17C3.3,20.7,3.5,21,3.7,21z"
	/>
<path id="_x33_" class="st0" d="M3.7,21H17V7L3.5,20.5C3.3,20.7,3.5,21,3.7,21z"/>
<path id="_x32_" class="st0" d="M3.7,21H13V11l-9.5,9.5C3.3,20.7,3.5,21,3.7,21z"/>
<path id="_x31_" class="st0" d="M3.7,21H9v-6l-5.5,5.5C3.3,20.7,3.5,21,3.7,21z"/>
</svg>
