<?xml version="1.0" encoding="UTF-8" standalone="no"?><!DOCTYPE svg PUBLIC "-//W3C//DTD SVG 1.1//EN" "http://www.w3.org/Graphics/SVG/1.1/DTD/svg11.dtd"><svg width="100%" height="100%" viewBox="0 0 24 24" version="1.1" xmlns="http://www.w3.org/2000/svg" xmlns:xlink="http://www.w3.org/1999/xlink" xml:space="preserve" xmlns:serif="http://www.serif.com/" style="fill-rule:evenodd;clip-rule:evenodd;stroke-linejoin:round;stroke-miterlimit:1.41421;"><path d="M3.678,19.53c-0.138,0.137 -0.179,0.343 -0.105,0.523c0.075,0.18 0.25,0.297 0.444,0.297l14.995,0c0.385,0 0.755,-0.154 1.028,-0.427c0.272,-0.272 0.424,-0.642 0.423,-1.028c-0.004,-3.41 -0.018,-11.871 -0.023,-14.966c0,-0.194 -0.117,-0.369 -0.296,-0.443c-0.18,-0.074 -0.387,-0.032 -0.524,0.104c-2.946,2.946 -12.993,12.991 -15.942,15.94Z" style="fill:none;stroke:#757575;stroke-width:1.5px;"/><path d="M12.65,20.35l0,-9.791" style="fill:none;stroke:#757575;stroke-width:1.5px;"/><path d="M8.65,20.35l0,-5.791" style="fill:none;stroke:#757575;stroke-width:1.5px;"/><path d="M16.65,20.35l0,-13.791" style="fill:none;stroke:#757575;stroke-width:1.5px;"/></svg>