<svg xmlns="http://www.w3.org/2000/svg" fill-rule="evenodd" stroke-linecap="round" stroke-linejoin="round" stroke-miterlimit="1.5" clip-rule="evenodd" viewBox="0 0 24 24">
  <path 
  fill="none"
  stroke="#757575"
  stroke-width="1.5" 
  d="M21.5 6c0-.398-.158-.779-.439-1.061-.282-.281-.663-.439-1.061-.439H4c-.398 
  0-.779.158-1.061.439C2.658 5.221 2.5 5.602 2.5 6v12c0 .398.158.779.439 1.061.282.281.663.439
  1.061.439h16c.398 0 .779-.158 1.061-.439.281-.282.439-.663.439-1.061V6zM5.964 15V9
  M8.964 9v6h3V9h-3zM14.964 9v6h3V9h-3z"/>
</svg>
