<svg xmlns="http://www.w3.org/2000/svg" fill-rule="evenodd" stroke-linecap="round" stroke-linejoin="round" stroke-miterlimit="1.41421" clip-rule="evenodd" viewBox="0 0 24 24">
  <path 
  fill="none"
  stroke="#757575"
  stroke-width="1.5" 
  d="M12 2.5c-5.244 0-9.5 4.256-9.5 9.5s4.256 9.5 9.5
  9.5 9.5-4.256 9.5-9.5-4.256-9.5-9.5-9.5z M12 12c1.242.305 
  2.308.862 2.308 1.923S13.274 15.846 12 15.846c-1.061
  0-1.955-.597-2.225-1.41M12 12c-1.065-.337-2.308-.862-2.308-1.923S10.726 
  8.154 12 8.154c1.071 0 1.973.609 2.232 1.435M12.032
  7v1.154M12.032 15.846V17"/>
</svg>