<svg xmlns="http://www.w3.org/2000/svg" fill-rule="evenodd" stroke-linecap="round" stroke-linejoin="round" stroke-miterlimit="1.5" clip-rule="evenodd" viewBox="0 0 24 24">
  <path fill="none" stroke="#757575" stroke-width="1.5" 
  d="M22.25 4.05c0-.345-.137-.675-.381-.919s-.574-.381-.919-.381H3.05c-.345 
  0-.675.137-.919.381s-.381.574-.381.919v11.9c0 
  .345.137.675.381.919s.574.381.919.381h17.9c.345 0
  .675-.137.919-.381s.381-.574.381-.919V4.05zM8.75 21h6.5M12 
  20.511v-2.745M5.75 13.25h2.5M10.75 13.25h2.5M15.75 6.75h2.5
  M5.75 6.75h7.5v3.5h-7.5zM15.75 9.75h2.5v3.5h-2.5z"/>
</svg>