<?xml version="1.0" encoding="utf-8"?>
<!-- Generator: Adobe Illustrator 21.1.0, SVG Export Plug-In . SVG Version: 6.00 Build 0)  -->
<svg version="1.1" id="Ebene_1" xmlns="http://www.w3.org/2000/svg" xmlns:xlink="http://www.w3.org/1999/xlink" x="0px" y="0px"
	 viewBox="0 0 24 24" style="enable-background:new 0 0 24 24;" xml:space="preserve">
<style type="text/css">
	.st0{fill:none;stroke:#757575;stroke-width:0.8;stroke-miterlimit:10;}
</style>
<path class="st0" d="M21.2,12.5c-0.2-0.1-0.5,0-0.5,0.1c-1.2,1.4-3.1,2.3-5,2.3c-3.6,0-6.5-2.9-6.5-6.5c0-1.9,0.8-3.6,2.3-5
	c0.2-0.1,0.2-0.4,0.1-0.5c-0.1-0.2-0.3-0.3-0.5-0.3C6.2,3,2.5,7,2.5,12c0,5.2,4.3,9.5,9.5,9.5c4.9,0,9-3.6,9.5-8.5
	C21.5,12.7,21.4,12.5,21.2,12.5z"/>
</svg>
