<svg xmlns="http://www.w3.org/2000/svg" fill-rule="evenodd" stroke-linecap="round" stroke-linejoin="round" stroke-miterlimit="1.41421" clip-rule="evenodd" viewBox="0 0 24 24">
  <path 
  fill="none" 
  stroke="#757575"
  stroke-width="1.5"
  d="M12 4.505c.82842712 0 1.5.67157288 1.5 1.5s-.67157288 
  1.5-1.5 1.5-1.5-.67157288-1.5-1.5.67157288-1.5 1.5-1.5zm0 
  6c.82842712 0 1.5.67157288 1.5 1.5s-.67157288 1.5-1.5 1.5-1.5-.67157288-1.5-1.5.67157288-1.5 
  1.5-1.5zm0 6c.82842712 0 1.5.67157288 1.5 1.5s-.67157288 
  1.5-1.5 1.5-1.5-.67157288-1.5-1.5.67157288-1.5 1.5-1.5z"/>
</svg>
