<svg xmlns="http://www.w3.org/2000/svg" fill-rule="evenodd" stroke-linecap="round" stroke-linejoin="round" stroke-miterlimit="1.5" clip-rule="evenodd" viewBox="0 0 24 24">
  <path fill="none" stroke="#757575" stroke-width="2" 
  d="M11.293 5.293c.39-.39 1.024-.39 1.414 0 .39.39.39 1.024 0
  1.414-.39.39-1.024.39-1.414 0-.39-.39-.39-1.024 0-1.414zM11.293 
  11.293c.39-.39 1.024-.39 1.414 0 .39.39.39 1.024 0 1.414-.39.39-1.024.39-1.414 
  0-.39-.39-.39-1.024 0-1.414zM11.293 17.293c.39-.39 1.024-.39 1.414 0 .39.39.39
  1.024 0 1.414-.39.39-1.024.39-1.414 0-.39-.39-.39-1.024 0-1.414z"/>
</svg>