<svg xmlns="http://www.w3.org/2000/svg" fill-rule="evenodd" stroke-linecap="round" stroke-linejoin="round" stroke-miterlimit="1.5" clip-rule="evenodd" viewBox="0 0 24 24">
  <path fill="none" stroke="#757575" stroke-width="1.5"
  d="M8.794 15.75s2.048-5.543 2.871-7.767c.052-.14.185-.233.335-.233.15
  0 .283.093.335.233.823 2.224 2.871 7.767 2.871 7.767M10.5 12.356h3M4.5 
  5.5c0-.552.448-1 1-1s1 .448 1 1-.448 1-1 1-1-.448-1-1z
  M9.134 3.203C10.037 2.909 11 2.75 12 2.75c5.105 0 9.25 4.145
  9.25 9.25s-4.145 9.25-9.25 9.25S2.75 17.105 2.75 
  12c0-.992.157-1.948.446-2.845"/>
</svg>