<svg xmlns="http://www.w3.org/2000/svg" fill-rule="evenodd" stroke-linecap="round" stroke-linejoin="round" stroke-miterlimit="1.41421" clip-rule="evenodd" viewBox="0 0 24 24">
  <path 
  fill="none" 
  stroke="#757575" 
  stroke-width="1.5"
  d="M11.5 14.5c-2.67 0-8 1.34-8 4v1 M8.879 5.379c1.17-1.171
  3.072-1.171 4.242 0 1.171 1.17 1.171 3.072 0 4.242-1.17
  1.171-3.072 1.171-4.242 0-1.171-1.17-1.171-3.072 0-4.242zM18.832 
  17.371v-6.958c0-.505.409-.913.913-.913h1.682m-4.724 5.741c1.176
  0 2.129.953 2.129 2.13 0 1.176-.953 2.129-2.129 2.129-1.177
  0-2.13-.953-2.13-2.129 0-1.177.953-2.13
  2.13-2.13z"/>
</svg>