<svg xmlns="http://www.w3.org/2000/svg" fill-rule="evenodd" stroke-linecap="round" stroke-linejoin="round" stroke-miterlimit="1.5" clip-rule="evenodd" viewBox="0 0 24 24">
  <path fill="none" stroke="#757575" stroke-width="1.5" 
  d="M21.5 6c0-.398-.158-.779-.439-1.061-.282-.281-.663-.439-1.061-.439H3.963c-.808
  0-1.463.655-1.463 1.463V18c0 .398.158.779.439 1.061.282.281.663.439 1.061.439h16c.398 
  0 .779-.158 1.061-.439.281-.282.439-.663.439-1.061V6z
  M5.075 14.011V9.985l3.131 4.026V9.985M12.679 9.985h-2.205v4.026h2.205M10.963 
  11.998h1.716M14.781 9.985s.017 1.843.027 3.035c.005.548.451.991 1 .991h2.267c.552
  0 1-.448 1-1V9.949M16.961 13.766V10.88"/>
</svg>