<?xml version="1.0" encoding="utf-8"?>
<!-- Generator: Adobe Illustrator 21.1.0, SVG Export Plug-In . SVG Version: 6.00 Build 0)  -->
<svg version="1.1" id="Ebene_1" xmlns="http://www.w3.org/2000/svg" xmlns:xlink="http://www.w3.org/1999/xlink" x="0px" y="0px"
	 viewBox="0 0 24 24" style="enable-background:new 0 0 24 24;" xml:space="preserve">
<style type="text/css">
	.st0{fill:none;stroke:#757575;stroke-width:0.8;stroke-miterlimit:10;}
</style>
<path class="st0" d="M21.4,11.7l-1.7-1.9c-0.1-0.1-0.1-0.2-0.1-0.4l0.2-2.6c0-0.3-0.1-0.5-0.4-0.5l-2.5-0.6c-0.1,0-0.2-0.1-0.3-0.2
	l-1.4-2.2C15.1,3,14.8,2.9,14.6,3l-2.3,1c-0.1,0.1-0.3,0.1-0.4,0L9.5,3C9.2,2.9,9,3,8.8,3.2L7.5,5.4C7.5,5.5,7.3,5.6,7.2,5.6
	L4.6,6.2C4.4,6.3,4.2,6.5,4.2,6.8l0.2,2.6c0,0.1,0,0.3-0.1,0.4l-1.7,1.9c-0.2,0.2-0.2,0.5,0,0.7l1.7,1.9c0.1,0.1,0.1,0.2,0.1,0.4
	l-0.2,2.6c0,0.2,0.1,0.5,0.4,0.5l2.5,0.6c0.1,0,0.2,0.1,0.3,0.2l1.4,2.2C8.9,21,9.2,21.1,9.5,21l2.3-1c0.1-0.1,0.3-0.1,0.4,0l2.3,1
	c0.2,0.1,0.5,0,0.6-0.2l1.3-2.2c0.1-0.1,0.2-0.2,0.3-0.2l2.5-0.6c0.2-0.1,0.4-0.3,0.4-0.5l-0.2-2.6c0-0.1,0-0.3,0.1-0.4l1.8-1.9
	C21.5,12.1,21.5,11.9,21.4,11.7z M12,14.6v1.7 M12,7.6v5.3"/>
</svg>
