<?xml version="1.0" encoding="utf-8"?>
<!-- Generator: Adobe Illustrator 21.1.0, SVG Export Plug-In . SVG Version: 6.00 Build 0)  -->
<svg version="1.1" id="Ebene_1" xmlns="http://www.w3.org/2000/svg" xmlns:xlink="http://www.w3.org/1999/xlink" x="0px" y="0px"
	 viewBox="0 0 24 24" style="enable-background:new 0 0 24 24;" xml:space="preserve">
<style type="text/css">
	.st0{fill:none;stroke:#757575;stroke-width:0.8;stroke-miterlimit:10;}
</style>
<path class="st0" d="M12,2.4c-5.3,0-9.6,4.3-9.6,9.6s4.3,9.6,9.6,9.6s9.6-4.3,9.6-9.6S17.3,2.4,12,2.4z M2.6,9.8L8,14.1
	c0.3,0.2,0.4,0.6,0.4,1l-0.2,1.2c0,0.9,0.6,1.5,1.3,1.8c0.4,0.1,0.6,0.5,0.6,1v2.4 M20.5,16.2c-0.3-0.8-1-1.3-1.8-1.3l0,0
	c-0.6,0-1-0.4-1-1v-1c0-0.6-0.5-1-1-1H12c-0.6,0-1-0.4-1-1v-1c0-0.5,0.4-1,1-1h1c0.6,0,1-0.4,1-1v-1c0-0.5,0.4-1,1-1h1
	c1,0,1.7-0.7,1.9-1.5"/>
</svg>
