<svg xmlns="http://www.w3.org/2000/svg" fill-rule="evenodd" stroke-linecap="round" stroke-linejoin="round" stroke-miterlimit="1.5" clip-rule="evenodd" viewBox="0 0 24 24">
  <path fill="none" stroke="#757575" stroke-width="1.5" 
  d="M13.124 6.992l-.553 1.392-1.383.555 1.366.559.577 1.395.549-1.404
  1.381-.552-1.387-.554-.55-1.391zM12.957 8.904l.284.042
  M6.166 4.166c3.22-3.219 8.448-3.219 11.668 0 3.219 3.22 
  3.219 8.448 0 11.668-3.22 3.219-8.448 
  3.219-11.668 0-3.219-3.22-3.219-8.448 0-11.668z
  M7.524 17.694s-.5 1.166-.927 2.162c-.132.309-.1.664.085.945.185.28.498.449.835.449h8.966c.337
  0 .65-.169.835-.449.185-.281.217-.636.085-.945-.44-1.025-.96-2.24-.96-2.24M6.845 
  20.097h9.945M7.313 18.884h9.157"/>
</svg>