<?xml version="1.0" encoding="utf-8"?>
<!-- Generator: Adobe Illustrator 21.1.0, SVG Export Plug-In . SVG Version: 6.00 Build 0)  -->
<svg version="1.1" id="Ebene_1" xmlns="http://www.w3.org/2000/svg" xmlns:xlink="http://www.w3.org/1999/xlink" x="0px" y="0px"
	 viewBox="0 0 24 24" style="enable-background:new 0 0 24 24;" xml:space="preserve">
<style type="text/css">
	.st0{fill:none;stroke:#757575;stroke-width:0.8;stroke-miterlimit:10;}
</style>
<path class="st0" d="M3.5,7.1C3.2,7.1,3,7.3,3,7.5v11c0,1.1,0.9,2,2,2h14c1.1,0,2-0.9,2-2v-11c0-0.3-0.2-0.5-0.5-0.5L3.5,7.1z
	 M15.6,5.5c0-1.1-0.9-2-2-2h-3.2c-1.1,0-2,0.9-2,2 M10.5,17l3-3l-3-3 M8.4,7V5.5c0-1.1,0.9-2,2-2h3.2c1.1,0,2,0.9,2,2V7"/>
</svg>
