<?xml version="1.0" encoding="utf-8"?>
<!-- Generator: Adobe Illustrator 21.1.0, SVG Export Plug-In . SVG Version: 6.00 Build 0)  -->
<svg version="1.1" id="Ebene_1" xmlns="http://www.w3.org/2000/svg" xmlns:xlink="http://www.w3.org/1999/xlink" x="0px" y="0px"
	 viewBox="0 0 24 24" style="enable-background:new 0 0 24 24;" xml:space="preserve">
<style type="text/css">
	.st0{fill:none;stroke:#757575;stroke-width:0.8;stroke-miterlimit:10;}
</style>
<path class="st0" d="M12,10.6c-0.9,0-1.4,0.7-1.4,1.4s0.7,1.4,1.4,1.4s1.4-0.7,1.4-1.4S12.9,10.6,12,10.6z M20.6,18.6V5.4
	c0-1.1-0.9-2-2-2H5.4c-1.1,0-2,0.9-2,2v13.2c0,1.1,0.9,2,2,2h13.2C19.7,20.6,20.6,19.7,20.6,18.6z M12,10.6c0,0,0-3.6,0-3.6h3.5
	C16.3,7,17,7.7,17,8.5v7c0,0.8-0.7,1.5-1.5,1.5h-7C7.7,17,7,16.3,7,15.5v-7C7,7.7,7.7,7,8.5,7"/>
</svg>
