<?xml version="1.0" encoding="UTF-8" standalone="no"?><!DOCTYPE svg PUBLIC "-//W3C//DTD SVG 1.1//EN" "http://www.w3.org/Graphics/SVG/1.1/DTD/svg11.dtd"><svg width="100%" height="100%" viewBox="0 0 24 24" version="1.1" xmlns="http://www.w3.org/2000/svg" xmlns:xlink="http://www.w3.org/1999/xlink" xml:space="preserve" xmlns:serif="http://www.serif.com/" style="fill-rule:evenodd;clip-rule:evenodd;stroke-linecap:round;stroke-linejoin:round;stroke-miterlimit:10;"><path d="M12,10.6c-0.9,0 -1.4,0.7 -1.4,1.4c0,0.7 0.7,1.4 1.4,1.4c0.7,0 1.4,-0.7 1.4,-1.4c0,-0.7 -0.5,-1.4 -1.4,-1.4Zm8.6,8l0,-13.2c0,-1.1 -0.9,-2 -2,-2l-13.2,0c-1.1,0 -2,0.9 -2,2l0,13.2c0,1.1 0.9,2 2,2l13.2,0c1.1,0 2,-0.9 2,-2Zm-8.6,-8l0,-3.6l3.5,0c0.8,0 1.5,0.7 1.5,1.5l0,7c0,0.8 -0.7,1.5 -1.5,1.5l-7,0c-0.8,0 -1.5,-0.7 -1.5,-1.5l0,-7c0,-0.8 0.7,-1.5 1.5,-1.5" style="fill:none;stroke:#757575;stroke-width:0.8px;"/></svg>