<svg xmlns="http://www.w3.org/2000/svg" fill-rule="evenodd" stroke-linecap="round" stroke-linejoin="round" stroke-miterlimit="1.5" clip-rule="evenodd" viewBox="0 0 24 24">
  <path 
  fill="none" 
  stroke="#757575"
  stroke-width="1.5"
  d="M20.603 11.886c.05-.081.148-.119.24-.093.091.026.154.109.154.205.003 
  0 .003.001.003.002 0 4.967-4.033 9-9 9s-9-4.033-9-9 4.033-9
  9-9h.002c.096.001.18.065.206.157.027.092-.011.191-.093.242-1.652 
  1.095-2.74 2.972-2.74 5.101 0 3.38 2.745 6.125 6.125 6.125 2.129
  0 4.006-1.088 5.103-2.739z"/>
</svg>