<svg xmlns="http://www.w3.org/2000/svg" fill-rule="evenodd" stroke-linejoin="round" stroke-linecap="round" stroke-miterlimit="1.41421" clip-rule="evenodd" viewBox="0 0 24 24">
  <path 
  id="Notification"
  fill="none"
  stroke="#757575"
  stroke-width="1.5"
  d="M10.103 18.654v.949c0 1.043.844 1.897 1.897 1.897 1.044 0 1.897-.854
  1.897-1.897v-.949m3.795-2.846v-4.744c0-2.912-1.556-5.351-4.269-5.996v-.645C13.423
  3.636 12.787 3 12 3s-1.423.636-1.423 1.423v.645c-2.723.645-4.269 3.074-4.269 5.996v4.744l-1.224
  1.224c-.598.597-.18 1.622.664 1.622h12.495c.844 0
  1.271-1.025.673-1.622l-1.224-1.224z"/>
  
 <path 
  id="Off"
  visibility="hidden"
  fill="none"
  stroke="#757575"
  stroke-width="1.5"
  d="M5.318 3.442l15.98 15.98"/>
  
  <path 
  id="Active"
  visibility="hidden"
  fill="none"
  stroke="#757575"
  stroke-width="1.5"
  d="M17.427 3.11c2.258 1.64 3.747 4.275 3.82 7.259
  M2.752 10.386c.068-2.982 1.55-5.618 3.802-7.261"/>
</svg>
