<?xml version="1.0" encoding="utf-8"?>
<!-- Generator: Adobe Illustrator 21.1.0, SVG Export Plug-In . SVG Version: 6.00 Build 0)  -->
<svg version="1.1" id="Ebene_1" xmlns="http://www.w3.org/2000/svg" xmlns:xlink="http://www.w3.org/1999/xlink" x="0px" y="0px"
	 viewBox="0 0 24 24" style="enable-background:new 0 0 24 24;" xml:space="preserve">
<style type="text/css">
	.st0{fill:none;stroke:#757575;stroke-width:0.8;stroke-miterlimit:10;}
</style>
<path class="st0" d="M3,15.3l4.1-2c0.2-0.1,0.3-0.1,0.5-0.1h0.7l0-5.4c0-0.7,0.5-1.3,1.3-1.3c0.7,0,1.3,0.5,1.3,1.3l0,9.6l3-0.7
	c0,0,0.1,0,0.2,0c0.2,0,0.5,0.1,0.8,0.2l0.7,0.8l-4.4,4.4c-0.2,0.2-0.5,0.4-0.9,0.4h-6c-0.6,0-1.2-0.4-1.3-1.1l-0.7-4.7
	c0-0.1,0-0.1,0-0.2C2.3,15.9,2.6,15.4,3,15.3z M5.2,14.3V4.6c0-0.6,0.5-1.1,1.1-1.1h12.3c0.6,0,1.1,0.5,1.1,1.1v13.3
	c0,0.6-0.5,1.1-1.1,1.1h-4.2"/>
</svg>
