<?xml version="1.0" encoding="utf-8"?>
<!-- Generator: Adobe Illustrator 21.1.0, SVG Export Plug-In . SVG Version: 6.00 Build 0)  -->
<svg version="1.1" id="Ebene_1" xmlns="http://www.w3.org/2000/svg" xmlns:xlink="http://www.w3.org/1999/xlink" x="0px" y="0px"
	 viewBox="0 0 24 24" style="enable-background:new 0 0 24 24;" xml:space="preserve">
<style type="text/css">
	.st0{fill:none;stroke:#757575;stroke-width:0.8;stroke-miterlimit:10;}
</style>
<path class="st0" d="M21.7,16.5c0,0.1,0,0.1,0,0.2L21,21.4c-0.1,0.7-0.7,1.1-1.3,1.1h-6c-0.4,0-0.7-0.2-0.9-0.4l-4.4-4.4l0.7-0.8
	c0.3-0.1,0.6-0.2,0.8-0.2c0.1,0,0.2,0,0.2,0l3,0.7V7.8c0-0.8,0.6-1.3,1.3-1.3c0.8,0,1.3,0.6,1.3,1.3v5.4h0.7c0.2,0,0.3,0,0.5,0.1
	l4.1,2C21.4,15.4,21.7,15.9,21.7,16.5z M9.6,19H5.4c-0.6,0-1.1-0.5-1.1-1.1V4.6c0-0.6,0.5-1.1,1.1-1.1h12.3c0.6,0,1.1,0.5,1.1,1.1
	v9.7"/>
</svg>
