<svg xmlns="http://www.w3.org/2000/svg" fill-rule="evenodd" stroke-linecap="round" stroke-linejoin="round" stroke-miterlimit="10" clip-rule="evenodd" viewBox="0 0 24 24">
  <path fill="none" stroke="#757575" stroke-width="2" 
  d="M3.127 2c1.6 3.364.446 5.873-.627 8.364-.327.727-.5 1.481-.5 2.272 
  0 2.993 2.462 5.455 5.455 5.455.19-.009.381-.018.572-.046L12
  22l3.973-3.955c.191.028.382.037.572.046 2.993 0 5.455-2.462 
  5.455-5.455 0-.791-.173-1.545-.5-2.272-1.073-2.491-2.227-5-.627-8.364-2.4 
  1.873-5.818 3.355-8.873 3.364C8.945 5.355 5.527 3.873 3.127 
  2zm10.129 14.979c-.488-.372-.912-.826-1.256-1.343-.355.533-.795
  1-1.303 1.378 M6.086 10.586c.78-.781 2.048-.781 2.828 0 
  .781.78.781 2.048 0 2.828-.78.781-2.048.781-2.828 
  0-.781-.78-.781-2.048 0-2.828zM15.086 10.586c.78-.781 
  2.048-.781 2.828 0 .781.78.781 2.048 0 2.828-.78.781-2.048.781-2.828
  0-.781-.78-.781-2.048 0-2.828z"/>
</svg>