<?xml version="1.0" encoding="UTF-8" standalone="no"?><!DOCTYPE svg PUBLIC "-//W3C//DTD SVG 1.1//EN" "http://www.w3.org/Graphics/SVG/1.1/DTD/svg11.dtd"><svg width="100%" height="100%" viewBox="0 0 24 24" version="1.1" xmlns="http://www.w3.org/2000/svg" xmlns:xlink="http://www.w3.org/1999/xlink" xml:space="preserve" xmlns:serif="http://www.serif.com/" style="fill-rule:evenodd;clip-rule:evenodd;stroke-linejoin:round;stroke-miterlimit:1.41421;"><path d="M16.545,10.364c-0.997,0 -1.818,0.82 -1.818,1.818c0,0.997 0.821,1.818 1.818,1.818c0.998,0 1.819,-0.821 1.819,-1.818c0,-1.009 -0.819,-1.818 -1.819,-1.818Zm-9.09,0c-0.998,0 -1.819,0.82 -1.819,1.818c0,0.997 0.821,1.818 1.819,1.818c0.997,0 1.818,-0.821 1.818,-1.818c0,-1.009 -0.818,-1.818 -1.818,-1.818Zm-4.328,-8.364c1.6,3.364 0.446,5.873 -0.627,8.364c-0.327,0.727 -0.5,1.481 -0.5,2.272c0,2.993 2.462,5.455 5.455,5.455c0.19,-0.009 0.381,-0.018 0.572,-0.046l3.973,3.955l3.973,-3.955c0.191,0.028 0.382,0.037 0.572,0.046c2.993,0 5.455,-2.462 5.455,-5.455c0,-0.791 -0.173,-1.545 -0.5,-2.272c-1.073,-2.491 -2.227,-5 -0.627,-8.364c-2.4,1.873 -5.818,3.355 -8.873,3.364c-3.055,-0.009 -6.473,-1.491 -8.873,-3.364Z" style="fill:none;stroke:#757575;stroke-width:0.8px;"/><path d="M14,17.455c-0.809,-0.428 -1.491,-1.055 -2,-1.819c-0.509,0.764 -1.191,1.391 -2,1.819" style="fill:none;stroke:#757575;stroke-width:0.8px;"/></svg>