<?xml version="1.0" encoding="utf-8"?>
<!-- Generator: Adobe Illustrator 21.1.0, SVG Export Plug-In . SVG Version: 6.00 Build 0)  -->
<svg version="1.1" id="Ebene_1" xmlns="http://www.w3.org/2000/svg" xmlns:xlink="http://www.w3.org/1999/xlink" x="0px" y="0px"
	 viewBox="0 0 24 24" style="enable-background:new 0 0 24 24;" xml:space="preserve">
<style type="text/css">
	.st0{fill:none;stroke:#757575;stroke-width:0.8;stroke-miterlimit:10;}
</style>
<path class="st0" d="M3.127,2c1.6,3.364 0.446,5.873 -0.627,8.364c-0.327,0.727 -0.5,1.481
-0.5,2.272c0,2.993 2.462,5.455 5.455,5.455c0.19,-0.009 0.381,-0.018
0.572,-0.046l3.973,3.955l3.973,-3.955c0.191,0.028 0.382,0.037
0.572,0.046c2.993,0 5.455,-2.462 5.455,-5.455c0,-0.791 -0.173,-1.545
-0.5,-2.272c-1.073,-2.491 -2.227,-5 -0.627,-8.364c-2.4,1.873 -5.818,3.355
-8.873,3.364c-3.055,-0.009 -6.473,-1.491 -8.873,-3.364Z"/>
<path class="st0" d="M14,17.455c-0.809,-0.428 -1.491,-1.055 -2,-1.819c-0.509,0.764 -1.191,1.391
-2,1.819"/>
<path class="st0" d="M 7.5 11.25 C 7.91421356237 11.25 8.25 11.5857864376 8.25 12 C 8.25 12.4142135624 7.91421356237 12.75 7.5 12.75 C 7.08578643763 12.75 6.75 12.4142135624 6.75 12 C 6.75 11.5857864376 7.08578643763 11.25 7.5 11.25 Z"/>
<path class="st0" d="M 16.5 11.25 C 16.9142135624 11.25 17.25 11.5857864376 17.25 12 C 17.25 12.4142135624 16.9142135624 12.75 16.5 12.75 C 16.0857864376 12.75 15.75 12.4142135624 15.75 12 C 15.75 11.5857864376 16.0857864376 11.25 16.5 11.25 Z"/>
<path class="st0" d="M 7.5 9 C 9.15685424949 9 10.5 10.3431457505 10.5 12 C 10.5 13.6568542495 9.15685424949 15 7.5 15 C 5.84314575051 15 4.5 13.6568542495 4.5 12 C 4.5 10.3431457505 5.84314575051 9 7.5 9 Z"/>
<path class="st0" d="M 16.5 9 C 18.1568542495 9 19.5 10.3431457505 19.5 12 C 19.5 13.6568542495 18.1568542495 15 16.5 15 C 14.8431457505 15 13.5 13.6568542495 13.5 12 C 13.5 10.3431457505 14.8431457505 9 16.5 9 Z"/>
</svg>
