<?xml version="1.0" encoding="utf-8"?>
<!-- Generator: Adobe Illustrator 21.1.0, SVG Export Plug-In . SVG Version: 6.00 Build 0)  -->
<svg version="1.1" id="Ebene_1" xmlns="http://www.w3.org/2000/svg" xmlns:xlink="http://www.w3.org/1999/xlink" x="0px" y="0px"
	 viewBox="0 0 24 24" style="enable-background:new 0 0 24 24;" xml:space="preserve">
<style type="text/css">
	.st0{fill:none;stroke:#757575;stroke-width:0.8;stroke-miterlimit:10;}
</style>
<path class="st0" d="M6.7,18.6h2.6c0.2,0,0.3-0.1,0.3-0.3V5.7c0-0.2-0.1-0.3-0.3-0.3H6.7c-0.2,0-0.3,0.1-0.3,0.3v12.6
	C6.4,18.5,6.5,18.6,6.7,18.6z M14.7,18.6h2.6c0.2,0,0.3-0.1,0.3-0.3V5.7c0-0.2-0.1-0.3-0.3-0.3h-2.6c-0.2,0-0.3,0.1-0.3,0.3v12.6
	C14.4,18.5,14.5,18.6,14.7,18.6z"/>
</svg>
