<?xml version="1.0" encoding="UTF-8" standalone="no"?>
<!DOCTYPE svg PUBLIC "-//W3C//DTD SVG 1.1//EN" "http://www.w3.org/Graphics/SVG/1.1/DTD/svg11.dtd">
<svg width="100%" height="100%" viewBox="0 0 64 64" version="1.1" xmlns="http://www.w3.org/2000/svg" xmlns:xlink="http://www.w3.org/1999/xlink" xml:space="preserve" xmlns:serif="http://www.serif.com/" style="fill-rule:evenodd;clip-rule:evenodd;stroke-linecap:round;stroke-linejoin:round;stroke-miterlimit:1.5;">
    <g transform="matrix(1.0041,0,0,1.0041,0.0285104,0.0570208)">
        <rect x="-0.028" y="-0.057" width="63.739" height="63.739" style="fill:rgb(235,235,235);"/>
    </g>
    <g transform="matrix(1.41179,0,0,1.41179,15.0593,16.4702)">
        <path d="M5.94,7.353C7.076,6.216 8.924,6.216 10.06,7.353C11.197,8.49 11.197,10.337 10.06,11.474C8.924,12.61 7.076,12.61 5.94,11.474C4.803,10.337 4.803,8.49 5.94,7.353ZM14.504,18.355C14.504,19.153 14.506,19.5 14.506,19.5L1.494,19.5C1.494,19.5 1.496,19.166 1.496,18.355C1.496,16.747 4.41,15.441 8,15.441C11.59,15.441 14.504,16.747 14.504,18.355ZM15.257,3.221C16.219,2.26 17.781,2.26 18.743,3.221C19.705,4.183 19.705,5.746 18.743,6.708C17.781,7.67 16.219,7.67 15.257,6.708C14.295,5.746 14.295,4.183 15.257,3.221ZM17,10.066C20.037,10.066 22.504,11.171 22.504,12.531C22.504,13.206 22.505,13.5 22.505,13.5L17,13.5" style="fill:none;stroke:rgb(117,117,117);stroke-width:1.5px;"/>
    </g>
</svg>
