<svg xmlns="http://www.w3.org/2000/svg" fill-rule="evenodd" stroke-linecap="round" stroke-linejoin="round" stroke-miterlimit="1.5" clip-rule="evenodd" viewBox="0 0 24 24">
  <path fill="none" stroke="#757575" stroke-width="1.5" 
  d="M5.94 7.353c1.136-1.137 2.984-1.137 4.12 0 1.137 
  1.137 1.137 2.984 0 4.121-1.136 1.136-2.984 1.136-4.12 
  0-1.137-1.137-1.137-2.984 0-4.121z
  M14.504 18.355c0 .798.002 1.145.002 1.145H1.494s.002-.334.002-1.145c0-1.608
  2.914-2.914 6.504-2.914 3.59 0 6.504 1.306 6.504 2.914z
  M15.257 5.221c.962-.961 2.524-.961 3.486 0 .962.962.962
  2.525 0 3.487-.962.962-2.524.962-3.486 0-.962-.962-.962-2.525
  0-3.487z
  M17 12.066c3.037 0 5.504 1.105 5.504 2.465 0
  .675.001.969.001.969H17"/>
</svg>