<svg xmlns="http://www.w3.org/2000/svg" fill-rule="evenodd" stroke-linecap="round" stroke-linejoin="round" stroke-miterlimit="1.5" clip-rule="evenodd" viewBox="0 0 24 24">
  <path fill="none" stroke="#757575" stroke-width="1.5" 
  d="M5.743 6.63c1.082-1.081 2.838-1.081 3.919 0s1.081 2.838 0 3.919-2.837 1.081-3.919 0c-1.081-1.081-1.081-2.838
  0-3.919zM1.5 17.169c0-1.568 2.77-2.842 6.181-2.842M1.5 17.169v1.012h6.173m6.232-1.012c0-1.568-2.77-2.842-6.181-2.842m6.181
  2.842v1.012H7.733M15.729 8.142c.897-.897 2.354-.897 3.251 0 .897.897.897 2.354 0 3.25-.897.897-2.354.897-3.251 0-.896-.896-.896-2.353
  0-3.25zM22.5 17.33c0-1.302-2.298-2.358-5.128-2.358M22.5 
  17.33v.839h-5.121"/>
</svg>