<?xml version="1.0" encoding="utf-8"?>
<!-- Generator: Adobe Illustrator 21.1.0, SVG Export Plug-In . SVG Version: 6.00 Build 0)  -->
<svg version="1.1" id="Ebene_1" xmlns="http://www.w3.org/2000/svg" xmlns:xlink="http://www.w3.org/1999/xlink" x="0px" y="0px"
	 viewBox="0 0 24 24" style="enable-background:new 0 0 24 24;" xml:space="preserve">
<style type="text/css">
	.st0{fill:none;stroke:#757575;stroke-width:0.8;stroke-miterlimit:10;}
</style>
<path class="st0" d="M7.8,11.6c1.4,0,2.5-1.1,2.5-2.5S9.2,6.6,7.8,6.6S5.3,7.7,5.3,9.1S6.4,11.6,7.8,11.6z M14.1,17.4
	c0-2.2-4.1-3-6.3-3s-6.3,1.1-6.3,3 M16.2,11.6c1.4,0,2.5-1.1,2.5-2.5s-1.1-2.5-2.5-2.5s-2.5,1.1-2.5,2.5S14.8,11.6,16.2,11.6z
	 M22.5,17.4c0-2.2-4.1-3-6.3-3c-0.4,0-0.8,0-1.2,0.1"/>
</svg>
