<svg xmlns="http://www.w3.org/2000/svg" fill-rule="evenodd" stroke-linecap="round" stroke-linejoin="round" stroke-miterlimit="1.5" clip-rule="evenodd" viewBox="0 0 24 24">
  <path 
  fill="none" 
  stroke="#757575" 
  stroke-width="1.5" 
  d="M21.5 6.5c0-.53-.211-1.039-.586-1.414S20.03 4.5 19.5 4.5h-15c-.53
  0-1.039.211-1.414.586S2.5 5.97 2.5 6.5v11c0 .53.211 1.039.586 1.414s.884.586
  1.414.586h15c.53 0 1.039-.211 1.414-.586s.586-.884.586-1.414v-11z 
  M9.658 9.658c.879-.877 2.305-.877 3.183 0 .878.879.878 2.305
  0 3.183-.878.878-2.304.878-3.183 0-.877-.878-.877-2.304 
  0-3.183zm3.183 3.183L15 15"/>
</svg>