<?xml version="1.0" encoding="utf-8"?>
<!-- Generator: Adobe Illustrator 21.1.0, SVG Export Plug-In . SVG Version: 6.00 Build 0)  -->
<svg version="1.1" id="Ebene_1" xmlns="http://www.w3.org/2000/svg" xmlns:xlink="http://www.w3.org/1999/xlink" x="0px" y="0px"
	 viewBox="0 0 24 24" style="enable-background:new 0 0 24 24;" xml:space="preserve">
<style type="text/css">
	.st0{fill:none;stroke:#757575;stroke-width:0.8;stroke-miterlimit:10;}
</style>
<path id="Phone_1_" class="st0" d="M11.7,19.2l3.9-3.9c0.3-0.3,0.7-0.4,1.1-0.2c1.2,0.4,2.4,0.6,3.8,0.6c0.5,0,1.1,0.4,1.1,1.1v3.7
	c0,0.5-0.5,1.1-1.1,1.1c-9.9,0-17.9-8-17.9-17.9C2.5,3,3,2.5,3.6,2.5h3.7c0.6,0,1.1,0.5,1.1,1.1c0,1.4,0.2,2.5,0.6,3.8
	c0.1,0.3,0,0.7-0.3,1.1l-3.9,3.9"/>
<path id="_x31__1_" class="st0" d="M12,9.5c1.4,0,2.5,1.1,2.5,2.5"/>
<path id="_x32__1_" class="st0" d="M12,6c3.3,0,6,2.7,6,6"/>
<path id="_x33__1_" class="st0" d="M12,2.5c5.2,0,9.5,4.3,9.5,9.5"/>
</svg>
