<svg xmlns="http://www.w3.org/2000/svg" fill-rule="evenodd" stroke-linecap="round" stroke-linejoin="round" stroke-miterlimit="1.41421" clip-rule="evenodd" viewBox="0 0 24 24">
  <path 
  id="Phone"
  fill="none" 
  stroke="#757575" 
  stroke-width="1.5"
  d="M5.505 12.258L8.66 9.104c.407-.407.605-.975.539-1.552l-.274-2.385c-.114-.956-.918-1.675-1.883-1.675H5.404c-1.069 0-1.959.889-1.892 
  1.959.501 8.082 6.965 14.536 15.037 15.037 1.07.067 1.959-.823 
  1.959-1.892v-1.638c.01-.955-.71-1.76-1.665-1.873l-2.404-.275c-.577-.066-1.145.133-1.552.54l-3.145 3.145"/>
  
  <path 
  id="Add"
  visibility="hidden"
  stroke="#757575" 
  stroke-width="1.5"
  d="M17 3.33v7.34M13.33 7h7.34"/>
  
  <path 
  id="Bluetooth"
  visibility="hidden"
  fill="none" 
  stroke="#757575" 
  stroke-width="1.5"
  d="M14.424 4.433L19.48 9.49 16.966 12V2l2.495 2.471-5.04 5.092"/>
  
  <path
  id="InCall"
  visibility="hidden"
  fill="none" 
  stroke="#757575" 
  stroke-width="1.5"
  d="M20.905 10.905c-.51-4.09-3.72-7.3-7.81-7.81M16.795 
  10.795c-.47-1.77-1.84-3.14-3.59-3.59"/>
</svg>
