<?xml version="1.0" encoding="utf-8"?>
<!-- Generator: Adobe Illustrator 21.1.0, SVG Export Plug-In . SVG Version: 6.00 Build 0)  -->
<svg version="1.1" id="Ebene_1" xmlns="http://www.w3.org/2000/svg" xmlns:xlink="http://www.w3.org/1999/xlink" x="0px" y="0px"
	 viewBox="0 0 24 24" style="enable-background:new 0 0 24 24;" xml:space="preserve">
<style type="text/css">
	.st0{fill:none;stroke:#757575;stroke-width:0.8;stroke-miterlimit:10;}
</style>
<path class="st0" d="M17.3,2v5l-1.8-1.1L13.7,7V2 M6,2C4.9,2,4,2.9,4,4v16c0,1.1,0.9,2,2,2h12c1.1,0,2-0.9,2-2V4c0-1.1-0.9-2-2-2H6z
	 M4,20.5l4.2-5.4c0.2-0.3,0.7-0.3,0.9,0l1.6,1.8c0.2,0.2,0.7,0.2,0.9,0l2.5-3.3c0.2-0.3,0.7-0.3,0.9,0l5.1,6.8"/>
</svg>
