<?xml version="1.0" encoding="utf-8"?>
<!-- Generator: Adobe Illustrator 21.1.0, SVG Export Plug-In . SVG Version: 6.00 Build 0)  -->
<svg version="1.1" id="Ebene_1" xmlns="http://www.w3.org/2000/svg" xmlns:xlink="http://www.w3.org/1999/xlink" x="0px" y="0px"
	 viewBox="0 0 24 24" style="enable-background:new 0 0 24 24;" xml:space="preserve">
<style type="text/css">
	.st0{fill:none;stroke:#757575;stroke-width:0.8;stroke-miterlimit:10;}
</style>
<path class="st0" d="M15.8,3H5.3C4,3,3,4,3,5.3v13.5C3,20,4,21,5.3,21h13.5c1.2,0,2.2-1,2.2-2.2V8.3 M3.8,20.6L8.1,15
	c0.2-0.3,0.7-0.3,0.9,0l1.6,1.9c0.2,0.2,0.7,0.2,0.9,0l2.6-3.4c0.2-0.3,0.7-0.3,0.9,0l5.3,7 M18,3h6 M21,0v6"/>
</svg>
