<?xml version="1.0" encoding="utf-8"?>
<!-- Generator: Adobe Illustrator 21.1.0, SVG Export Plug-In . SVG Version: 6.00 Build 0)  -->
<svg version="1.1" id="Ebene_1" xmlns="http://www.w3.org/2000/svg" xmlns:xlink="http://www.w3.org/1999/xlink" x="0px" y="0px"
	 viewBox="0 0 24 24" style="enable-background:new 0 0 24 24;" xml:space="preserve">
<style type="text/css">
	.st0{fill:none;stroke:#757575;stroke-width:0.8;stroke-miterlimit:10;}
</style>
<path class="st0" d="M21.5,16.5v-12c0-1.1-0.9-2-2-2h-12c-1.1,0-2,0.9-2,2v12c0,1.1,0.9,2,2,2h12C20.6,18.5,21.5,17.6,21.5,16.5z
	 M6.2,18.1l3.8-4.9c0.2-0.3,0.6-0.3,0.8,0l1.4,1.7c0.2,0.2,0.6,0.2,0.8,0l2.3-3c0.2-0.3,0.6-0.3,0.8,0l4.7,6.2 M17.1,21.5H4.5
	c-1.1,0-2-0.9-2-2V6.9"/>
</svg>
