<?xml version="1.0" encoding="utf-8"?>
<!-- Generator: Adobe Illustrator 21.1.0, SVG Export Plug-In . SVG Version: 6.00 Build 0)  -->
<svg version="1.1" id="Ebene_1" xmlns="http://www.w3.org/2000/svg" xmlns:xlink="http://www.w3.org/1999/xlink" x="0px" y="0px"
	 viewBox="0 0 24 24" style="enable-background:new 0 0 24 24;" xml:space="preserve">
<style type="text/css">
	.st0{fill:none;stroke:#757575;stroke-width:0.8;stroke-miterlimit:10;}
</style>
<path class="st0" d="M18,9.2L19,7l2.2-1L19,5l-1-2.2L17,5l-2.2,1L17,7L18,9.2z M13.3,10.7L12,7.8l-1.3,2.9L7.8,12l2.9,1.3l1.3,2.9
	l1.3-2.9l2.9-1.3L13.3,10.7z M21,12v7c0,1.1-0.9,2-2,2H5c-1.1,0-2-0.9-2-2V5c0-1.1,0.9-2,2-2h7"/>
</svg>
