<?xml version="1.0" encoding="utf-8"?>
<!-- Generator: Adobe Illustrator 21.1.0, SVG Export Plug-In . SVG Version: 6.00 Build 0)  -->
<svg version="1.1" id="Ebene_1" xmlns="http://www.w3.org/2000/svg" xmlns:xlink="http://www.w3.org/1999/xlink" x="0px" y="0px"
	 viewBox="0 0 24 24" style="enable-background:new 0 0 24 24;" xml:space="preserve">
<style type="text/css">
	.st0{fill:none;stroke:#757575;stroke-width:0.8;stroke-miterlimit:10;}
</style>
<path class="st0" d="M21,18.8V5.3C21,4,20,3,18.8,3H5.3C4,3,3,4,3,5.3v13.5C3,20,4,21,5.3,21h13.5C20,21,21,20,21,18.8z M3.8,20.6
	L8.1,15c0.2-0.3,0.7-0.3,0.9,0l1.6,1.9c0.2,0.2,0.7,0.2,0.9,0l2.6-3.4c0.2-0.3,0.7-0.3,0.9,0l5.3,7 M18,8.5c0,0.8-0.7,1.5-1.5,1.5
	C15.7,10,15,9.3,15,8.5S15.7,7,16.5,7C17.3,7,18,7.7,18,8.5z"/>
</svg>
