<svg xmlns="http://www.w3.org/2000/svg" fill-rule="evenodd" stroke-linecap="round" stroke-linejoin="round" stroke-miterlimit="1.5" clip-rule="evenodd" viewBox="0 0 24 24">
  <path
  fill="none"
  stroke="#757575" 
  stroke-width="1.5" 
  d="M21.5 5.81c0-.398-.158-.78-.439-1.061-.282-.281-.663-.439-1.061-.439H3.975c-.815 
  0-1.475.66-1.475 1.474V18.19c0 .398.158.78.439 1.061.282.281.663.439 1.061.439h16c.398 
  0 .779-.158 1.061-.439.281-.281.439-.663.439-1.061V5.81z M18.667
  12.738c0-.133-.053-.26-.147-.353-.094-.094-.221-.147-.353-.147h-5.364c-.125 
  0-.244.05-.332.138-.088.088-.138.207-.138.332v3.554c0
  .133.053.26.147.353.094.094.221.147.353.147h5.334c.132 0
  .259-.053.353-.147.094-.093.147-.22.147-.353v-3.524z"/>
</svg>