<?xml version="1.0" encoding="utf-8"?>
<!-- Generator: Adobe Illustrator 21.1.0, SVG Export Plug-In . SVG Version: 6.00 Build 0)  -->
<svg version="1.1" id="Ebene_1" xmlns="http://www.w3.org/2000/svg" xmlns:xlink="http://www.w3.org/1999/xlink" x="0px" y="0px"
	 viewBox="0 0 24 24" style="enable-background:new 0 0 24 24;" xml:space="preserve">
<style type="text/css">
	.st0{fill:none;stroke:#757575;stroke-width:0.8;stroke-miterlimit:10;}
</style>
<path class="st0" d="M13.7,4.5l-6,6c-0.1,0.1-0.4,0.2-0.5,0.2H4.7c-0.1,0-0.4,0.1-0.5,0.2l-0.7,0.7c-0.3,0.3-0.3,0.7,0,1l7.8,7.8
	c0.3,0.3,0.7,0.3,1,0l0.7-0.7c0.1-0.1,0.2-0.4,0.2-0.5v-2.3c0-0.1,0.1-0.4,0.2-0.5l6.1-6.1 M3,21l4.4-4.4 M12.2,3l8.8,8.8"/>
</svg>
