<?xml version="1.0" encoding="utf-8"?>
<!-- Generator: Adobe Illustrator 21.1.0, SVG Export Plug-In . SVG Version: 6.00 Build 0)  -->
<svg version="1.1" id="Ebene_1" xmlns="http://www.w3.org/2000/svg" xmlns:xlink="http://www.w3.org/1999/xlink" x="0px" y="0px"
	 viewBox="0 0 24 24" style="enable-background:new 0 0 24 24;" xml:space="preserve">
<style type="text/css">
	.st0{fill:none;stroke:#757575;stroke-width:0.8;stroke-miterlimit:10;}
</style>
<path class="st0" d="M13.9,7.3l-3,3c-0.1,0.1-0.2,0.1-0.3,0.1H9.4c-0.1,0-0.2,0-0.3,0.1l-0.4,0.3c-0.1,0.2-0.1,0.4,0,0.5l3.9,3.9
	c0.2,0.1,0.4,0.1,0.5,0l0.4-0.4c0.1-0.1,0.1-0.2,0.1-0.3v-1.1c0-0.1,0-0.2,0.1-0.3l3.1-3.1 M8.5,15.5l2.2-2.2 M13.1,6.5l4.4,4.4
	 M21.6,12c0,5.3-4.3,9.6-9.6,9.6S2.4,17.3,2.4,12S6.7,2.4,12,2.4S21.6,6.7,21.6,12z"/>
</svg>
