<svg xmlns="http://www.w3.org/2000/svg" fill-rule="evenodd" stroke-linecap="round" stroke-linejoin="round" stroke-miterlimit="10" clip-rule="evenodd" viewBox="0 0 24 24">
  <path 
  id="PlayList"
  fill="none" 
  stroke="#757575" 
  stroke-width="1.5" 
  d="M3 7h12M3 11h9m-9 4h7"/>
  
  
  <path 
  id="Add"
  fill="none" 
  stroke="#757575" 
  stroke-width="1.5" 
  d="M18 11v8-8zm-4 4h8-8z"/>
  
  <path 
  id="Added"
  visibility="hidden"
  fill="none" 
  stroke="#757575" 
  stroke-width="1.5" 
  d="M14 15.651l2.268 2.167L22 12.182"/>
  
  <path 
  id="Later"
  visibility="hidden"
  fill="none" 
  stroke="#757575" 
  stroke-width="1.5" 
  d="M18 11c-2.25 0-4 1.75-4 4s1.75 4 4 4 4-1.75 4-4-1.75-4-4-4zm1.338
  5.116l-1.463-.866V13.5"/>
  
  <path 
  id="Play"
  visibility="hidden"
  fill="none" 
  stroke="#757575" 
  stroke-width="1.5" 
  d="M14.716 11.648v6.704c0 .511.564.821.996.544l5.271-3.352c.401-.253.401-.835
  0-1.093l-5.271-3.347c-.432-.277-.996.033-.996.544z"/>
  
  <path 
  id="Remove"
  visibility="hidden"
  fill="none" 
  stroke="#757575" 
  stroke-width="1.5" 
  d="M18 11c2.209 0 4 1.791 4 4s-1.791 4-4 4-4-1.791-4-4
  1.791-4 4-4zm-.895 4h1.79-1.79z"/>
</svg>