<svg xmlns="http://www.w3.org/2000/svg" fill-rule="evenodd" stroke-linecap="round" stroke-linejoin="round" stroke-miterlimit="1.41421" clip-rule="evenodd" viewBox="0 0 24 24">
  <path
  fill="none"
  stroke="#757575"
  stroke-width="1.5" 
  d="M17.161 21.468v-1.291c0-1.716-3.438-2.58-5.161-2.58-1.723 0-5.161.864-5.161
  2.58v1.291 M9 12.532c0-1.655 1.344-3 3-3s3 1.345 3 3c0 1.656-1.344 3-3 
  3s-3-1.344-3-3z M5.5 12.532c0-3.587 2.913-6.5 6.5-6.5s6.5 2.913 6.5 6.5
  M2 12.532c0-5.519 4.481-10 10-10s10 4.481 10 10"/>
</svg>