<?xml version="1.0" encoding="utf-8"?>
<!-- Generator: Adobe Illustrator 21.1.0, SVG Export Plug-In . SVG Version: 6.00 Build 0)  -->
<svg version="1.1" id="Ebene_1" xmlns="http://www.w3.org/2000/svg" xmlns:xlink="http://www.w3.org/1999/xlink" x="0px" y="0px"
	 viewBox="0 0 24 24" style="enable-background:new 0 0 24 24;" xml:space="preserve">
<style type="text/css">
	.st0{fill:none;stroke:#757575;stroke-width:0.8;stroke-miterlimit:10;}
</style>
<path class="st0" d="M18,21c0-2.1-3.9-2.9-6-2.9S6,19.2,6,21 M15,12c0,1.7-1.3,3-3,3s-3-1.3-3-3s1.3-3,3-3S15,10.3,15,12z M7.4,16.6
	c-1.2-1.2-1.9-2.8-1.9-4.6c0-3.6,2.9-6.5,6.5-6.5s6.5,2.9,6.5,6.5c0,1.8-0.7,3.4-1.9,4.6 M4.9,19.2C3.1,17.4,2,14.9,2,12.1
	c0-5.5,4.5-10,10-10s10,4.5,10,10c0,2.8-1.1,5.3-2.9,7.1"/>
</svg>
