<?xml version="1.0" encoding="utf-8"?>
<!-- Generator: Adobe Illustrator 21.1.0, SVG Export Plug-In . SVG Version: 6.00 Build 0)  -->
<svg version="1.1" id="Ebene_1" xmlns="http://www.w3.org/2000/svg" xmlns:xlink="http://www.w3.org/1999/xlink" x="0px" y="0px"
	 viewBox="0 0 24 24" style="enable-background:new 0 0 24 24;" xml:space="preserve">
<style type="text/css">
	.st0{fill:none;stroke:#757575;stroke-width:0.8;stroke-miterlimit:10;}
</style>
<path class="st0" d="M16.2,6.7L16.2,6.7c1.2,0,2.1,0.9,2.1,2.1v5.6c0,0.1-0.1,0.3-0.2,0.4l-3.4,3.4c-0.1,0.1-0.2,0.2-0.2,0.4V21
	c0,0.3-0.2,0.5-0.5,0.5H9.9c-0.3,0-0.5-0.2-0.5-0.5v-2.4c0-0.1-0.1-0.3-0.2-0.4l-3.4-3.4c-0.1-0.1-0.2-0.2-0.2-0.4V8.8
	c0-1.2,0.9-2.1,2.1-2.1h0H16.2z M8.8,2.5v4.2 M15.2,2.5v4.2"/>
</svg>
