<svg xmlns="http://www.w3.org/2000/svg" fill-rule="evenodd" stroke-linecap="round" stroke-linejoin="round" stroke-miterlimit="1.5" clip-rule="evenodd" viewBox="0 0 24 24">
  <path 
  fill="none" 
  stroke="#757575"
  stroke-width="1.5"
  d="M17.49 8.5V4.085c0-.298-.242-.539-.54-.539H6.945c-.251 0-.455.204-.455.456V8.5M6.49 
  16.5v2.468c0 .846.685 1.532 1.531 1.532h7.968c.829 0 1.501-.672 1.501-1.5v-2.5M15.49 13.5h-7
  M17.49 16.5h2.489c.4 0 .785-.159 1.068-.443.283-.283.443-.667.443-1.068v-3.987c0-1.382-1.121-2.502-2.502-2.502H4.991C3.61 
  8.5 2.49 9.62 2.49 11.002v4.008c0 .823.667 1.49 1.49 1.49h2.51"/>
</svg>
