<svg xmlns="http://www.w3.org/2000/svg" fill-rule="evenodd" stroke-linecap="round" stroke-linejoin="bevel" stroke-miterlimit="1.41421" clip-rule="evenodd" viewBox="0 0 24 24">
  <path fill="none" stroke="#757575" stroke-width="1.5" 
  d="M21.71 10.833c-1.726-3.62-5.423-6-9.71-6-4.545 0-8.427 2.676-10 6.667 1.573 
  3.991 5.455 6.667 10 6.667.469 0 .93-.028 1.383-.084M9.605 11.5c0-1.314 
  1.066-2.381 2.381-2.381 1.314 0 2.381 1.067 2.381 2.381 0 1.314-1.067 
  2.381-2.381 2.381-1.315 0-2.381-1.067-2.381-2.381z
  M21.26 15.977c0-.165-.066-.324-.183-.44-.117-.117-.275-.183-.441-.183h-3.272c-.166
  0-.324.066-.441.183-.117.116-.183.275-.183.44v2.65c0
  .165.066.323.183.44.117.117.275.183.441.183h3.272c.166 
  0 .324-.066.441-.183.117-.117.183-.275.183-.44v-2.65zm-3.507-1.48c0-.688.559-1.247
  1.247-1.247.688 0 1.247.559 1.247 1.247"/>
</svg>