<?xml version="1.0" encoding="utf-8"?>
<!-- Generator: Adobe Illustrator 21.1.0, SVG Export Plug-In . SVG Version: 6.00 Build 0)  -->
<svg version="1.1" id="Ebene_1" xmlns="http://www.w3.org/2000/svg" xmlns:xlink="http://www.w3.org/1999/xlink" x="0px" y="0px"
	 viewBox="0 0 24 24" style="enable-background:new 0 0 24 24;" xml:space="preserve">
<style type="text/css">
	.st0{fill:none;stroke:#757575;stroke-width:0.8;stroke-miterlimit:10;}
</style>
<path class="st0" d="M16.2,7.8C17.3,8.8,18,10.3,18,12c0,3.3-2.7,6-6,6s-6-2.7-6-6s2.7-6,6-6 M12,9.6c-1.3,0-2.4,1.1-2.4,2.4
	s1.1,2.4,2.4,2.4s2.4-1.1,2.4-2.4S13.3,9.6,12,9.6z M12,9.6V2.4c-5.3,0-9.6,4.3-9.6,9.6s4.3,9.6,9.6,9.6s9.6-4.3,9.6-9.6
	c0-2.7-1.1-5.1-2.8-6.8"/>
</svg>
