<svg xmlns="http://www.w3.org/2000/svg" fill-rule="evenodd" stroke-linecap="round" stroke-linejoin="round" stroke-miterlimit="10" clip-rule="evenodd" viewBox="0 0 24 24">
  <path 
  fill="none"
  stroke="#757575" 
  stroke-width="1.5" 
  d="M19.66 17.074s-5.78-1.589-7.298-2.006c-.238-.066-.488-.072-.728-.017-1.412.318-6.432
  1.449-6.432 1.449-.6.1-1.049-.166-1.149-.766L3 10.851c-.1-.6.166-1.049.766-1.149 0 0
  5.025-1.132 6.434-1.45.239-.054.461-.165.647-.324C12.039 6.905 16.596 3 16.596 3c.6-.5
  1.427-.226 1.627.574L21 15.926c.1.8-.64 1.448-1.34
  1.148zm-11.011-1.34L9.798 21"/>
</svg>