<svg xmlns="http://www.w3.org/2000/svg" fill-rule="evenodd" stroke-linecap="round" stroke-linejoin="round" stroke-miterlimit="1.5" clip-rule="evenodd" viewBox="0 0 24 24">
  <path 
  fill="none" 
  stroke="#757575"
  stroke-width="1.5" 
  d="M5.459 5.459c3.61-3.61 9.472-3.61 13.082 
  0 3.61 3.61 3.61 9.472 0 13.082-3.61 3.61-9.472
  3.61-13.082 0-3.61-3.61-3.61-9.472 0-13.082z
  M15.25 4v1.956c0 .343-.136.672-.379.915s-.572.379-.915.379H12.25v3h-2v2.5h4v4h1.89c.373
  0 .715.212.88.547.345.697.896 1.812.896 
  1.812M2.993 9.885L8.75 15.75v1.2c0 .718.582
  1.3 1.3 1.3h.7l1 3"/>
</svg>