<?xml version="1.0" encoding="UTF-8" standalone="no"?><!DOCTYPE svg PUBLIC "-//W3C//DTD SVG 1.1//EN" "http://www.w3.org/Graphics/SVG/1.1/DTD/svg11.dtd"><svg width="100%" height="100%" viewBox="0 0 24 24" version="1.1" xmlns="http://www.w3.org/2000/svg" xmlns:xlink="http://www.w3.org/1999/xlink" xml:space="preserve" xmlns:serif="http://www.serif.com/" style="fill-rule:evenodd;clip-rule:evenodd;stroke-linecap:round;stroke-linejoin:round;stroke-miterlimit:1.5;"><path d="M21.521,11.985c0,-2.239 -0.89,-4.386 -2.473,-5.969c-1.583,-1.584 -3.73,-2.473 -5.969,-2.473l-9.558,0c-0.265,0 -0.52,0.105 -0.707,0.293c-0.188,0.187 -0.293,0.442 -0.293,0.707l0,14.886c0,0.266 0.105,0.52 0.293,0.708c0.187,0.187 0.442,0.292 0.707,0.292l9.558,0c2.239,0 4.386,-0.889 5.969,-2.472c1.583,-1.583 2.473,-3.731 2.473,-5.97l0,-0.002Zm-13.771,-8.432l0.011,16.894" style="fill:none;stroke:#757575;stroke-width:1.5px;"/></svg>