<svg xmlns="http://www.w3.org/2000/svg" fill-rule="evenodd" stroke-linecap="round" stroke-linejoin="round" stroke-miterlimit="1.5" clip-rule="evenodd" viewBox="0 0 24 24">
  <path fill="none" stroke="#757575" stroke-width=".8" d="M21.5 4.4c0-1.049-.851-1.9-1.9-1.9H4.4c-1.049 0-1.9.851-1.9 1.9v15.2c0 1.049.851 1.9 1.9 1.9h15.2c1.049 0 1.9-.851 1.9-1.9V4.4zM14 10.8c0-.442-.358-.8-.8-.8h-2.4c-.442 0-.8.358-.8.8v2.4c0 .442.358.8.8.8h2.4c.442 0 .8-.358.8-.8v-2.4zM6.5 14v1.85c0 .911.739 1.65 1.65 1.65H10M14 17.5h1.85c.911 0 1.65-.739 1.65-1.65V14M17.5 10V8.15c0-.911-.739-1.65-1.65-1.65H14M10 6.5H8.15c-.911 0-1.65.739-1.65 1.65V10"/>
</svg>
