<svg xmlns="http://www.w3.org/2000/svg" fill-rule="evenodd" stroke-linecap="round" stroke-linejoin="round" stroke-miterlimit="1.5" clip-rule="evenodd" viewBox="0 0 24 24">
  <path 
  fill="none" 
  stroke="#757575" 
  stroke-width=".8" 
  d="M10.5 4.122c0-.883-.717-1.6-1.6-1.6H4.1c-.883 0-1.6.717-1.6 1.6v4.8c0 .883.717 1.6 1.6 1.6h4.8c.883 0 1.6-.717 1.6-1.6v-4.8zM21.5 4.122c0-.883-.717-1.6-1.6-1.6h-4.8c-.883 0-1.6.717-1.6 1.6v4.8c0 .883.717 1.6 1.6 1.6h4.8c.883 0 1.6-.717 1.6-1.6v-4.8zM10.5 15.122c0-.883-.717-1.6-1.6-1.6H4.1c-.883 0-1.6.717-1.6 1.6v4.8c0 .883.717 1.6 1.6 1.6h4.8c.883 0 1.6-.717 1.6-1.6v-4.8zM7.5 16.922c0-.221-.179-.4-.4-.4H5.9c-.221 0-.4.179-.4.4v1.2c0 .221.179.4.4.4h1.2c.221 0 .4-.179.4-.4v-1.2zM7.5 5.922c0-.221-.179-.4-.4-.4H5.9c-.221 0-.4.179-.4.4v1.2c0 .221.179.4.4.4h1.2c.221 0 .4-.179.4-.4v-1.2zM18.5 5.922c0-.221-.179-.4-.4-.4h-1.2c-.221 0-.4.179-.4.4v1.2c0 .221.179.4.4.4h1.2c.221 0 .4-.179.4-.4v-1.2zM18.5 16.922c0-.221-.179-.4-.4-.4h-1.2c-.221 0-.4.179-.4.4v1.2c0 .221.179.4.4.4h1.2c.221 0 .4-.179.4-.4v-1.2zM21.5 13.922c0-.221-.179-.4-.4-.4h-1.2c-.221 0-.4.179-.4.4v1.2c0 .221.179.4.4.4h1.2c.221 0 .4-.179.4-.4v-1.2zM15.5 13.922c0-.221-.179-.4-.4-.4h-1.2c-.221 0-.4.179-.4.4v1.2c0 .221.179.4.4.4h1.2c.221 0 .4-.179.4-.4v-1.2zM21.5 19.922c0-.221-.179-.4-.4-.4h-1.2c-.221 0-.4.179-.4.4v1.2c0 .221.179.4.4.4h1.2c.221 0 .4-.179.4-.4v-1.2zM15.5 19.922c0-.221-.179-.4-.4-.4h-1.2c-.221 0-.4.179-.4.4v1.2c0 .221.179.4.4.4h1.2c.221 0 .4-.179.4-.4v-1.2z"/>
</svg>
