<?xml version="1.0" encoding="utf-8"?>
<!-- Generator: Adobe Illustrator 21.1.0, SVG Export Plug-In . SVG Version: 6.00 Build 0)  -->
<svg version="1.1" id="Ebene_1" xmlns="http://www.w3.org/2000/svg" xmlns:xlink="http://www.w3.org/1999/xlink" x="0px" y="0px"
	 viewBox="0 0 24 24" style="enable-background:new 0 0 24 24;" xml:space="preserve">
<style type="text/css">
	.st0{fill:none;stroke:#757575;stroke-width:0.8;stroke-miterlimit:10;}
</style>
<path class="st0" d="M7.5,22H4c-1.1,0-2-0.9-2-2v-3.5 M16.5,22H20c1.1,0,2-0.9,2-2v-3.5 M22,7.5V4c0-1.1-0.9-2-2-2h-3.5 M7.5,2H4
	C2.9,2,2,2.9,2,4v3.5 M6.2,5.2h2.5c0.6,0,1,0.4,1,1v2.5c0,0.6-0.4,1-1,1H6.2c-0.6,0-1-0.4-1-1V6.2C5.2,5.7,5.7,5.2,6.2,5.2z
	 M16.5,19.3v-1.7c0-0.6-0.4-1-1-1H13c-0.6,0-1,0.4-1,1v1.7 M18.4,12v3.5c0,0.6-0.4,1-1,1h-1.8 M20.3,12h-5.7 M6.9,12H5.1 M9.3,12H11
	c0.6,0,1,0.4,1,1v0.7 M12,6.5v3.7 M14.7,14.7v1.8 M22,7.5V4c0-1.1-0.9-2-2-2h-3.5 M15.2,5.2h2.5c0.6,0,1,0.4,1,1v2.5
	c0,0.6-0.4,1-1,1h-2.5c-0.6,0-1-0.4-1-1V6.2C14.2,5.7,14.7,5.2,15.2,5.2z M6.2,15.2h2.5c0.6,0,1,0.4,1,1v2.5c0,0.6-0.4,1-1,1H6.2
	c-0.6,0-1-0.4-1-1v-2.5C5.2,15.7,5.7,15.2,6.2,15.2z"/>
</svg>
