<svg xmlns="http://www.w3.org/2000/svg" fill-rule="evenodd" stroke-linecap="round" stroke-linejoin="round" stroke-miterlimit="1.5" clip-rule="evenodd" viewBox="0 0 24 24">
  <path 
  fill="none" 
  stroke="#757575"
  stroke-width="1.5"
  d="M22.25 6.25c0-.398-.158-.779-.439-1.061-.282-.281-.663-.439-1.061-.439H3.25c-.398
  0-.779.158-1.061.439-.281.282-.439.663-.439 1.061v12.5c0 .398.158.779.439
  1.061.282.281.663.439 1.061.439h17.5c.398 0 .779-.158 
  1.061-.439.281-.282.439-.663.439-1.061V6.25zM12 4.75v15.5M14.75 
  10.25h4.5M14.75 12.75h4.5M14.75 15.25h4.5"/>
</svg>