<?xml version="1.0" encoding="utf-8"?>
<!-- Generator: Adobe Illustrator 21.1.0, SVG Export Plug-In . SVG Version: 6.00 Build 0)  -->
<svg version="1.1" id="Ebene_1" xmlns="http://www.w3.org/2000/svg" xmlns:xlink="http://www.w3.org/1999/xlink" x="0px" y="0px"
	 viewBox="0 0 24 24" style="enable-background:new 0 0 24 24;" xml:space="preserve">
<style type="text/css">
	.st0{fill:none;stroke:#757575;stroke-width:0.8;stroke-miterlimit:10;}
</style>
<path class="st0" d="M15.3,16.6c-0.6,1.1-1.9,1.9-3.3,1.9s-2.6-0.7-3.3-1.9 M22,11.6c0-1.2-1-2.2-2.2-2.2c-0.6,0-1.1,0.2-1.5,0.6
	c-1.6-1.1-3.9-1.8-6.3-1.8S7.3,8.9,5.7,10C5.3,9.6,4.8,9.4,4.2,9.4C3,9.4,2,10.4,2,11.6c0,0.8,0.4,1.5,1,1.9c-0.1,0.3-0.1,0.7-0.1,1
	c0,3.4,4.1,6.2,9.1,6.2s9.1-2.8,9.1-6.2c0-0.3-0.1-0.7-0.1-1C21.6,13.1,22,12.4,22,11.6z M19.3,3.3c-0.9,0-1.6,0.7-1.6,1.6
	s0.7,1.6,1.6,1.6c0.9,0,1.6-0.7,1.6-1.6S20.1,3.3,19.3,3.3z M17.7,4.6l-4.2-0.7c-0.3,0-0.5,0.1-0.6,0.4l-1,3.9 M8.9,11.9
	c-0.7,0-1.3,0.6-1.3,1.3s0.6,1.3,1.3,1.3c0.7,0,1.3-0.6,1.3-1.3S9.6,11.9,8.9,11.9z M15.1,11.9c-0.7,0-1.3,0.6-1.3,1.3
	s0.6,1.3,1.3,1.3c0.7,0,1.3-0.6,1.3-1.3S15.8,11.9,15.1,11.9z"/>
</svg>
