<svg xmlns="http://www.w3.org/2000/svg" fill-rule="evenodd" stroke-linecap="round" stroke-linejoin="round" stroke-miterlimit="1.5" clip-rule="evenodd" viewBox="0 0 24 24">
  <path
      fill="none"
      stroke="#757575"
      stroke-width="2"
      d="M18.623 14.916c-.351.789-.85 1.528-1.496
  2.174-2.83 2.83-7.424 2.83-10.254 0-2.829-2.829-2.829-7.423
  0-10.253 2.83-2.829 7.424-2.829 10.254 0
  M15.277 8.723c-.072.072-.093.179-.054.273.038.093.129.154.231.154H19.1c.138
  0 .25-.112.25-.25V5.254c0-.102-.061-.193-.154-.231-.094-.039-.201-.018-.273.054l-3.646
  3.646z"/>
</svg>