<svg xmlns="http://www.w3.org/2000/svg" fill-rule="evenodd" stroke-linecap="round" stroke-linejoin="round" stroke-miterlimit="10" clip-rule="evenodd" viewBox="0 0 24 24">
  <path fill="none" stroke="#757575" stroke-width=".8" d="M12 10.797c.566 0 1.025.459 1.025 1.025 0 .566-.459 1.025-1.025 1.025-.566 0-1.025-.459-1.025-1.025 0-.566.459-1.025 1.025-1.025zm3.632-1.94c0-.396-.322-.718-.718-.718H9.172c-.397 0-.718.322-.718.718v11.896c0 .396.321.718.718.718h5.742c.396 0 .718-.322.718-.718V8.857zm-.278-3.226c-.861-.861-2.047-1.39-3.356-1.39-1.308 0-2.495.529-3.356 1.39m8.624-1.912c-1.342-1.356-3.207-2.19-5.268-2.19s-3.925.834-5.274 2.184"/>
</svg>
