<svg xmlns="http://www.w3.org/2000/svg" fill-rule="evenodd" stroke-linecap="round" stroke-linejoin="round" stroke-miterlimit="1.5" clip-rule="evenodd" viewBox="0 0 24 24">
  <path fill="none" stroke="#757575" stroke-width="1.5" 
  d="M15.059 10.034c0-.165-.134-.3-.3-.3H9.241c-.166 
  0-.3.135-.3.3V21.2c0 .166.134.3.3.3h5.518c.166 0 .3-.134.3-.3V10.034z
  M11.47 12.263c.292-.293.768-.293 1.06 0 .293.293.293.768 
  0 1.061-.292.292-.768.292-1.06 0-.293-.293-.293-.768 
  0-1.061zM8.007 6.917c2.204-2.204 5.782-2.204 7.986 
  0M5.344 4.255c3.674-3.673 9.638-3.673 13.312 0"/>
</svg>