<svg xmlns="http://www.w3.org/2000/svg" fill-rule="evenodd" stroke-linecap="round" stroke-linejoin="round" stroke-miterlimit="1.5" clip-rule="evenodd" viewBox="0 0 24 24">
  <path 
  fill="none" 
  stroke="#757575" 
  stroke-width="1.5"
  d="M12.028 14.772v1.926c0 
  .289-.174.55-.441.66-.267.111-.574.05-.779-.154-1.394-1.393-3.611-3.607-4.599-4.594-.134-.134-.209-.316-.209-.504.001-.19.077-.37.211-.503 
  1-.99 3.25-3.215 4.641-4.589.198-.196.494-.254.751-.147.258.108.425.359.425.638V9.5c5.69.811
  8.98 3.483 10.972 9.686-1.685-2.435-5.506-4.642-10.972-4.414zM5.808 
  17.204c-1.394-1.393-3.611-3.607-4.599-4.594-.134-.134-.209-.316-.209-.504.001-.19.077-.37.211-.503
  1-.99 3.25-3.215 4.641-4.589"/>
</svg>