<svg xmlns="http://www.w3.org/2000/svg" fill-rule="evenodd" stroke-linecap="round" stroke-linejoin="round" stroke-miterlimit="1.5" clip-rule="evenodd" viewBox="0 0 24 24">
  <path fill="none" stroke="#757575" stroke-width="2" 
  d="M9.157 19.657c.911.35 1.901.542 2.933.542 4.524 0 8.195-3.671 
  8.195-8.195 0-4.522-3.671-8.193-8.194-8.194-4.522.001-8.194 
  3.672-8.195 8.195L6 12l-2 2.5L2 12l1.896.005
  M11.293 11.293c.39-.39 1.024-.39 1.414 0 .39.39.39 
  1.024 0 1.414-.39.39-1.024.39-1.414 0-.39-.39-.39-1.024 0-1.414z"/>
</svg>