<svg xmlns="http://www.w3.org/2000/svg" fill-rule="evenodd" stroke-linecap="round" stroke-linejoin="round" stroke-miterlimit="1.5" clip-rule="evenodd" viewBox="0 0 24 24">
  <path 
  fill="none"
  stroke="#757575"
  stroke-width="1.5" 
  d="M9.157 19.657c.911.35 1.901.542 2.933.542 4.524 0
  8.195-3.671 8.195-8.195 0-4.522-3.671-8.193-8.194-8.194-4.522.001-8.194
  3.672-8.195 8.195L6 12l-2 2.5L2 12l1.896.005v2.007
  M11.978 10.75c.69-.012 1.26.538 1.272 1.228.012.69-.538
  1.26-1.228 1.272-.69.012-1.26-.538-1.272-1.228-.012-.69.538-1.26
  1.228-1.272z"/>
</svg>