<svg xmlns="http://www.w3.org/2000/svg" fill-rule="evenodd" stroke-linecap="round" stroke-linejoin="round" stroke-miterlimit="1.5" clip-rule="evenodd" viewBox="0 0 24 24">
  <path
  fill="none" 
  stroke="#757575" 
  stroke-width="1.5"
  d="M20.5 7V4.969c0-.398-.158-.78-.439-1.061-.282-.281-.663-.439-1.061-.439H5c-.398 
  0-.779.158-1.061.439-.281.281-.439.663-.439 1.061v14c0 .398.158.779.439 1.06.282.282.663.44
  1.061.44h14c.828 0 1.5-.672 1.5-1.5V13.5c0-.398-.158-.779-.439-1.061C19.779 12.158 19.398
  12 19 12H8.883l3.946 3.946M8.883 12l3.947-3.947"/>
</svg>
