<?xml version="1.0" encoding="utf-8"?>
<!-- Generator: Adobe Illustrator 21.1.0, SVG Export Plug-In . SVG Version: 6.00 Build 0)  -->
<svg version="1.1" id="Ebene_1" xmlns="http://www.w3.org/2000/svg" xmlns:xlink="http://www.w3.org/1999/xlink" x="0px" y="0px"
	 viewBox="0 0 24 24" style="enable-background:new 0 0 24 24;" xml:space="preserve">
<style type="text/css">
	.st0{fill:none;stroke:#757575;stroke-width:0.8;stroke-miterlimit:10;}
</style>
<path id="Device" class="st0" d="M5.5,9.2v5.7c0,0.7,0.6,1.3,1.3,1.3h10.4c0.7,0,1.3-0.6,1.3-1.3V9.2c0-0.7-0.6-1.3-1.3-1.3H6.8
	C6.1,7.9,5.5,8.4,5.5,9.2z"/>
<path id="Arrow" class="st0" d="M14.9,4.8l-2.3-2.3c-0.2-0.2,0-0.5,0.2-0.5C17.9,2.4,22,6.7,22,12 M2,12c0,5.3,4.1,9.6,9.3,10
	c0.3,0,0.4-0.3,0.2-0.5l-2.4-2.4"/>
</svg>
