<?xml version="1.0" encoding="utf-8"?>
<!-- Generator: Adobe Illustrator 21.1.0, SVG Export Plug-In . SVG Version: 6.00 Build 0)  -->
<svg version="1.1" id="Ebene_1" xmlns="http://www.w3.org/2000/svg" xmlns:xlink="http://www.w3.org/1999/xlink" x="0px" y="0px"
	 viewBox="0 0 24 24" style="enable-background:new 0 0 24 24;" xml:space="preserve">
<style type="text/css">
	.st0{fill:none;stroke:#757575;stroke-width:0.8;stroke-miterlimit:10;}
</style>
<path id="Device" class="st0" d="M20.8,15.9V8.1c0-1-0.8-1.8-1.8-1.8H4.9c-1,0-1.8,0.8-1.8,1.8v7.8c0,1,0.8,1.8,1.8,1.8h14.2
	C20,17.6,20.8,17,20.8,15.9z"/>
<path id="Arrow" class="st0" d="M8.8,19.9l2.5,2.5c0.2,0.2,0,0.5-0.2,0.5C5.5,22.6,1,17.8,1,12 M23,12c0-5.8-4.5-10.6-10.2-11
	c-0.3,0-0.4,0.3-0.2,0.6l2.6,2.6"/>
</svg>
