<svg xmlns="http://www.w3.org/2000/svg" fill-rule="evenodd" stroke-linecap="round" stroke-linejoin="round" stroke-miterlimit="1.5" clip-rule="evenodd" viewBox="0 0 24 24">
  <path 
  fill="none"
  stroke="#757575"
  stroke-width="1.5" 
  d="M11.965 13.5c1.104-.019 2.015.861 2.035
  1.965.019 1.104-.861 2.015-1.965 
  2.035-1.104.019-2.015-.861-2.035-1.965-.019-1.104.861-2.015
  1.965-2.035z M20.25 7.802c0-.353-.14-.692-.39-.942l-2.719-2.719c-.25-.25-.59-.391-.944-.391H5.75c-1.105
  0-2 .895-2 2v12.5c0 1.105.895 2 2 2h12.5c1.105 0 2-.895
  2-2V7.802zM3.75 7.5h16.187"/>
</svg>