<svg xmlns="http://www.w3.org/2000/svg" fill-rule="evenodd" stroke-linecap="round" stroke-linejoin="round" stroke-miterlimit="1.5" clip-rule="evenodd" viewBox="0 0 24 24">
  <path fill="none" stroke="#757575" stroke-width="1.5"
  d="M19.25 8.374c0-.079-.032-.156-.088-.212l-5.324-5.324c-.056-.056-.133-.088-.212-.088H6.75c-1.105 
  0-2 .895-2 2v14.5c0 1.105.895 2 2 2h10.5c.53 0 1.039-.211
  1.414-.586s.586-.884.586-1.414V8.374z
  M9.047 10.047c1.628-1.629 4.273-1.629 5.902 0 1.629 1.628
  1.629 4.273 0 5.902-1.629 1.629-4.274 1.629-5.902 
  0-1.629-1.629-1.629-4.274 0-5.902zm5.902 5.902l3.929 3.929"/>
</svg>