<svg xmlns="http://www.w3.org/2000/svg" fill-rule="evenodd" stroke-linejoin="round" stroke-linecap="round" stroke-miterlimit="1.41421" clip-rule="evenodd" viewBox="0 0 24 24">
  <path 
  id="Security - Umrandung"
  fill="none" 
  stroke="#757575"
  stroke-width="1.5"  
  d="M11.235 1.956L4.624 4.894c-.68.302-1.124.982-1.124 1.728v4.439c0 
  5.241 3.627 10.143 8.5 11.333 4.873-1.19 8.5-6.092 8.5-11.333V6.622c0-.746-.444-1.426-1.124-1.728l-6.611-2.938c-.482-.217-1.048-.217-1.53 
  0z"/>
  
  <path 
  id="Security - Gitter"
  fill="none" 
  stroke="#757575"
  stroke-width="1.5"  
  d="M12 1.793v10.203h8.462 M12 22.394V12.005H3.539"/>
  
  
  <path 
  id="Disabled"
  visibility="hidden"
  fill="none" 
  stroke="#757575"
  stroke-width="1.5"  
  d="M9 8.5l6 6m-6 0l6-6"/>
  
  <path 
  id="Enabled"
  visibility="hidden"
  fill="none" 
  stroke="#757575"
  stroke-width="1.5"  
  d="M8 12.094l2.266 2.281L16 8.625"/>
</svg>
