<svg xmlns="http://www.w3.org/2000/svg" fill-rule="evenodd" stroke-linecap="round" stroke-linejoin="round" stroke-miterlimit="1.5" clip-rule="evenodd" viewBox="0 0 24 24">
  <path 
  fill="none" 
  stroke="#757575"
  stroke-width="1.5"
  d="M15.01 10c0-.265-.106-.52-.293-.707-.188-.188-.442-.293-.707-.293H9.99c-.265
  0-.519.105-.707.293-.187.187-.293.442-.293.707v4c0 .265.106.52.293.707.188.188.442.293.707.293h4.02c.265
  0 .519-.105.707-.293.187-.187.293-.442.293-.707v-4zM3.5 18.611c0 .501.199.982.553 1.336.354.354.835.553
  1.336.553M18.611 20.5c.501 0 .982-.199 1.336-.553.354-.354.553-.835.553-1.336M20.5
  5.389c0-.501-.199-.982-.553-1.336-.354-.354-.835-.553-1.336-.553M5.389 3.5c-.501 
  0-.982.199-1.336.553-.354.354-.553.835-.553 1.336M3.5 8.576v1.889M3.5 13.535v1.889M20.5
  8.576v1.889M20.5 13.535v1.889M8.576 20.5h1.889M13.535 20.5h1.889M8.576 3.5h1.889M13.535 
  3.5h1.889"/>
</svg>