<?xml version="1.0" encoding="utf-8"?>
<!-- Generator: Adobe Illustrator 21.1.0, SVG Export Plug-In . SVG Version: 6.00 Build 0)  -->
<svg version="1.1" id="Ebene_1" xmlns="http://www.w3.org/2000/svg" xmlns:xlink="http://www.w3.org/1999/xlink" x="0px" y="0px"
	 viewBox="0 0 24 24" style="enable-background:new 0 0 24 24;" xml:space="preserve">
<style type="text/css">
	.st0{fill:none;stroke:#757575;stroke-width:0.8;stroke-miterlimit:10;}
</style>
<path class="st0" d="M12,11.7c1,0,1.8-0.8,1.8-1.8C13.8,9,13,8.2,12,8.2S10.2,9,10.2,10S11,11.7,12,11.7z M16.5,15.8
	c0-1.5-3-2.2-4.5-2.2s-4.5,0.8-4.5,2.2 M18,22H6c-1.1,0-2-0.9-2-2L4,4c0-1.1,0.9-2,2-2h12c1.1,0,2,0.9,2,2v16C20,21.1,19.1,22,18,22
	z"/>
</svg>
