<svg xmlns="http://www.w3.org/2000/svg" fill-rule="evenodd" stroke-linecap="round" stroke-linejoin="round" stroke-miterlimit="1.5" clip-rule="evenodd" viewBox="0 0 24 24">
  <path fill="none" stroke="#757575" stroke-width="1.5" 
  d="M9.3 16.893c-2.405 1.102-4.582 2.093-5.773
  2.602-.165.071-.355.054-.505-.045-.15-.098-.241-.266-.242-.445-.007-1.258-.019-3.197-.024-4.123-.001-.229.142-.434.358-.511.975-.348 
  3.702-1.322 5.356-1.912.199-.072.332-.261.332-.472-.001-.212-.134-.4-.334-.471-1.672-.59-4.439-1.566-5.385-1.9-.197-.069-.329-.256-.329-.465v-4.19c0-.154.077-.298.207-.384.129-.085.292-.099.434-.038
  1.853.793 7.163 3.214 11.153 5.015 M16 9.625c3.521 0 
  6.375 2.854 6.375 6.375S19.521 22.375 16 22.375 9.625
  19.521 9.625 16 12.479 9.625 16 9.625z
  M15.75 13.25v2.85l2 1.4"/>
</svg>