<?xml version="1.0" encoding="utf-8"?>
<!-- Generator: Adobe Illustrator 21.1.0, SVG Export Plug-In . SVG Version: 6.00 Build 0)  -->
<svg version="1.1" id="Ebene_1" xmlns="http://www.w3.org/2000/svg" xmlns:xlink="http://www.w3.org/1999/xlink" x="0px" y="0px"
	 viewBox="0 0 24 24" style="enable-background:new 0 0 24 24;" xml:space="preserve">
<style type="text/css">
	.st0{fill:none;stroke:#757575;stroke-width:0.8;stroke-miterlimit:10;}
</style>
<path class="st0" d="M21.5,19.4V4.6c0-1.2-0.9-2.1-2.1-2.1H4.6c-1.2,0-2.1,1-2.1,2.1v14.8c0,1.2,1,2.1,2.1,2.1h14.8
	C20.6,21.5,21.5,20.6,21.5,19.4z M16.4,12.6c0-0.2,0.1-0.4,0.1-0.6s0-0.4-0.1-0.6l1.3-1c0.1-0.1,0.1-0.2,0.1-0.4L16.5,8
	c-0.1-0.1-0.2-0.2-0.4-0.1l-1.5,0.6c-0.3-0.2-0.7-0.4-1-0.6l-0.2-1.6C13.5,6.1,13.4,6,13.2,6h-2.4c-0.1,0-0.3,0.1-0.3,0.2l-0.2,1.7
	C9.9,8,9.6,8.3,9.2,8.5L7.7,7.9C7.5,7.8,7.4,7.9,7.3,8l-1.2,2.1c0,0.1,0.1,0.2,0.2,0.4l1.3,1c0,0.2-0.1,0.4-0.1,0.6
	c0,0.2,0,0.4,0.1,0.6l-1.3,1c-0.1,0.1-0.1,0.2-0.1,0.4l1.2,2.1c0.1,0.1,0.2,0.2,0.4,0.1l1.5-0.6c0.3,0.2,0.7,0.4,1,0.6l0.2,1.5
	c0,0.1,0.1,0.2,0.3,0.2h2.4c0.2,0,0.3-0.1,0.3-0.2l0.2-1.5c0.4-0.2,0.7-0.4,1-0.6l1.5,0.6c0.1,0.1,0.3,0,0.4-0.1l1.2-2.1
	c0.1-0.1,0.1-0.3-0.1-0.4L16.4,12.6z M11.9,13.8c-1,0-1.8-0.8-1.8-1.8s0.8-1.8,1.8-1.8s1.8,0.8,1.8,1.8S13,13.8,11.9,13.8z"/>
</svg>
