<?xml version="1.0" encoding="utf-8"?>
<!-- Generator: Adobe Illustrator 21.1.0, SVG Export Plug-In . SVG Version: 6.00 Build 0)  -->
<svg version="1.1" id="Ebene_1" xmlns="http://www.w3.org/2000/svg" xmlns:xlink="http://www.w3.org/1999/xlink" x="0px" y="0px"
	 viewBox="0 0 24 24" style="enable-background:new 0 0 24 24;" xml:space="preserve">
<style type="text/css">
	.st0{fill:none;stroke:#757575;stroke-width:0.8;stroke-miterlimit:10;}
</style>
<path class="st0" d="M8.7,12c0,1.3-1.1,2.4-2.4,2.4S3.9,13.3,3.9,12S5,9.6,6.3,9.6S8.7,10.7,8.7,12z M17.7,16.3
	c-1.3,0-2.4,1.1-2.4,2.4s1.1,2.4,2.4,2.4c1.3,0,2.4-1.1,2.4-2.4S19,16.3,17.7,16.3z M17.7,3c-1.3,0-2.4,1.1-2.4,2.4s1.1,2.4,2.4,2.4
	c1.3,0,2.4-1.1,2.4-2.4S19,3,17.7,3z M8.4,10.8l7.3-4.2 M15.6,17.4l-7.3-4.2"/>
</svg>
