<?xml version="1.0" encoding="utf-8"?>
<!-- Generator: Adobe Illustrator 21.1.0, SVG Export Plug-In . SVG Version: 6.00 Build 0)  -->
<svg version="1.1" id="Ebene_1" xmlns="http://www.w3.org/2000/svg" xmlns:xlink="http://www.w3.org/1999/xlink" x="0px" y="0px"
	 viewBox="0 0 24 24" style="enable-background:new 0 0 24 24;" xml:space="preserve">
<style type="text/css">
	.st0{fill:none;stroke:#757575;stroke-width:0.8;stroke-miterlimit:10;}
</style>
<path class="st0" d="M8.9,17.7c-1,0-1.8,0.8-1.8,1.9s0.8,1.9,1.8,1.9s1.9-0.8,1.9-1.9C10.8,18.5,9.8,17.7,8.9,17.7z M2.6,2.5h2.1
	l4,8.5l-1.3,2.3c-0.1,0.3-0.2,0.6-0.2,0.9c0,1,0.8,1.9,1.9,1.9h10.8 M7.8,12.3h8.7c0.7,0,1.3-0.4,1.6-1l3.2-5.7
	c0.1-0.1,0.1-0.3,0.1-0.4c0-0.5-0.4-0.9-0.9-0.9h-15 M17.8,17.7c-1,0-1.8,0.8-1.8,1.9s0.8,1.9,1.8,1.9s1.9-0.8,1.9-1.9
	C19.7,18.5,18.9,17.7,17.8,17.7z"/>
</svg>
