<svg xmlns="http://www.w3.org/2000/svg" fill-rule="evenodd" stroke-linecap="round" stroke-linejoin="round" stroke-miterlimit="10" clip-rule="evenodd" viewBox="0 0 24 24">
  <path fill="none" stroke="#757575" stroke-width=".8" d="M18 2h-8L4 8v12c0 1.2.9 2 2 2h12c1.2 0 2-.9 2-2V4c0-1.2-.9-2-2-2z"/>
  <path fill="none" stroke="#757575" stroke-width=".8" d="M8.65 14.95c-.35-.6-.55-1.25-.55-1.95 0-2.15 1.75-3.9 3.9-3.9h1.65m-3.3 7.8H12c2.15 0 3.9-1.75 3.9-3.9 0-.7-.2-1.4-.55-1.95M12 15.8l-1.65 1.1L12 18m0-7.8l1.65-1.1L12 8"/>
</svg>
