<svg xmlns="http://www.w3.org/2000/svg" fill-rule="evenodd" stroke-linecap="round" stroke-linejoin="round" stroke-miterlimit="1.5" clip-rule="evenodd" viewBox="0 0 24 24">
  <path fill="none" stroke="#757575" stroke-width="1.5" 
  d="M2.47 16.97c.292-.293.768-.293 1.06 0 .293.292.293.768 0 1.06-.292.293-.768.293-1.06
  0-.293-.292-.293-.768 0-1.06zM13.47 16.97c.292-.293.768-.293 1.06 0 .293.292.293.768 
  0 1.06-.292.293-.768.293-1.06 0-.293-.292-.293-.768 0-1.06zM7.97
  16.97c.292-.293.768-.293 1.06 0 .293.292.293.768 0 
  1.06-.292.293-.768.293-1.06 0-.293-.292-.293-.768 0-1.06zM3.056
  12.547c0-4.739 3.795-8.587 8.47-8.587 4.675 0 8.47 3.848
  8.47 8.587M19.996 12.547v2.871M17 13l3 3 3-3"/>
</svg>