<?xml version="1.0" encoding="utf-8"?>
<!-- Generator: Adobe Illustrator 21.1.0, SVG Export Plug-In . SVG Version: 6.00 Build 0)  -->
<svg version="1.1" id="Ebene_1" xmlns="http://www.w3.org/2000/svg" xmlns:xlink="http://www.w3.org/1999/xlink" x="0px" y="0px"
	 viewBox="0 0 24 24" style="enable-background:new 0 0 24 24;" xml:space="preserve">
<style type="text/css">
	.st0{fill:none;stroke:#757575;stroke-width:0.8;stroke-miterlimit:10;}
</style>
<path class="st0" d="M6,4.5c1.4-1.1,3.1-1.9,5-2.1 M4.5,6c-1.1,1.4-1.9,3.1-2.1,5 M2.5,13c0.2,1.9,0.9,3.6,2.1,5 M6,19.5
	c1.4,1.1,3.1,1.9,5,2.1 M13.1,21.5c4.8-0.5,8.5-4.6,8.5-9.5c0-4.9-3.7-9-8.6-9.5 M16.2,12.2L10,16c-0.1,0.1-0.3,0-0.3-0.2V8.2
	C9.7,8,9.9,7.9,10,8l6.1,3.8C16.3,11.9,16.3,12.1,16.2,12.2z"/>
</svg>
