<svg xmlns="http://www.w3.org/2000/svg" fill-rule="evenodd" stroke-linejoin="round" stroke-miterlimit="1.41421" clip-rule="evenodd" viewBox="0 0 24 24">
  <path
  fill="none"
  stroke="#757575"
  stroke-linecap="round"
  stroke-miterlimit="1.5"
  stroke-width="1.5" 
  d="M13.935 2.697C18.254 3.591 21.5 7.417 21.5 12c0 4.647-3.337 8.515-7.745
  9.338M10.166 21.323c-1.256-.246-2.423-.739-3.449-1.426M4.166
  17.375c-.728-1.058-1.246-2.271-1.496-3.579M2.693 10.086c.256-1.251.758-2.413 
  1.453-3.432M6.541 4.224c1.013-.712 2.171-1.232 3.421-1.505
  M9.627 9.067v5.866c0 .447.494.719.872.476l4.611-2.933c.351-.222.351-.73 
  0-.957l-4.611-2.928c-.378-.243-.872.029-.872.476z"/>
</svg>