<svg width="100%" height="100%" viewBox="0 0 24 24" version="1.1" xmlns="http://www.w3.org/2000/svg" xml:space="preserve" fill-rule="evenodd" clip-rule="evenodd" stroke-linecap="round" stroke-linejoin="round" stroke-miterlimit="1.5">
  <path d="M12.011 8l3.464 2v4l-3.464 2-3.464-2v-4l3.464-2zM12.011 8L12 4.791l1.792-1.792M12 4.791l-1.792-1.792M11.989 15.999L12 19.208 10.208 21M12 19.208L13.792 21" fill="none" stroke="#757575" stroke-width=".8"/>
  <path d="M15.465 13.977l2.785 1.595.656 2.447M18.25 15.572l2.447-.656M15.516 10.019l2.774-1.615M20.737 9.06l-2.447-.656.656-2.447M8.603 10.021L5.818 8.426l-.656-2.448M5.818 8.426l-2.447.656M8.548 14.002l-2.773 1.614M3.327 14.961l2.448.655-.656 2.448" fill="none" stroke="#757575" stroke-width=".8"/>
</svg>
