<?xml version="1.0" encoding="utf-8"?>
<!-- Generator: Adobe Illustrator 21.1.0, SVG Export Plug-In . SVG Version: 6.00 Build 0)  -->
<svg version="1.1" id="Ebene_1" xmlns="http://www.w3.org/2000/svg" xmlns:xlink="http://www.w3.org/1999/xlink" x="0px" y="0px"
	 viewBox="0 0 24 24" style="enable-background:new 0 0 24 24;" xml:space="preserve">
<style type="text/css">
	.st0{fill:none;stroke:#757575;stroke-width:0.8;stroke-miterlimit:10;}
</style>
<path class="st0" d="M20.2,10.2c-1,0-1.8,0.8-1.8,1.8v2.7H5.6V12c0-1-0.8-1.8-1.8-1.8S2,11,2,12v4.5c0,1,0.8,1.8,1.8,1.8h16.4
	c1,0,1.8-0.8,1.8-1.8V12C22,11,21.2,10.2,20.2,10.2z M19.3,10.3V7.5c0-1-0.8-1.8-1.8-1.8h-11c-1,0-1.8,0.8-1.8,1.8v2.9"/>
</svg>
