<svg xmlns="http://www.w3.org/2000/svg" fill-rule="evenodd" stroke-linecap="round" stroke-linejoin="round" stroke-miterlimit="1.5" clip-rule="evenodd" viewBox="0 0 24 24">
  <path
  fill="none"
  stroke="#757575"
  stroke-width="1.5" 
  d="M7.833 6.646c0-.315.125-.617.348-.84.223-.223.525-.348.84-.348h7.938c.309 0
  .606.123.824.342.219.219.342.516.342.825v12.688c0 .315-.125.616-.348.839-.223.223-.524.348-.84.348H9.021c-.315
  0-.617-.125-.84-.348-.223-.223-.348-.524-.348-.84V6.646zm6.136 
  2.375c0-.546-.444-.99-.99-.99s-.989.444-.989.99.443.989.989.989.99-.443.99-.989zm1.385 
  6.333c0-1.311-1.064-2.375-2.375-2.375s-2.375 1.064-2.375 2.375 1.064 2.375 2.375 2.375
  2.375-1.064 2.375-2.375z M7.833 17.542h-1.77c-.316 
  0-.617-.125-.84-.348-.223-.223-.348-.525-.348-.84V3.687c0-.315.125-.616.348-.839.223-.223.524-.348.84-.348h7.938c.308
  0 .605.123.824.342.219.218.342.515.342.825v1.782"/>
</svg>