<?xml version="1.0" encoding="utf-8"?>
<!-- Generator: Adobe Illustrator 21.1.0, SVG Export Plug-In . SVG Version: 6.00 Build 0)  -->
<svg version="1.1" id="Ebene_1" xmlns="http://www.w3.org/2000/svg" xmlns:xlink="http://www.w3.org/1999/xlink" x="0px" y="0px"
	 viewBox="0 0 24 24" style="enable-background:new 0 0 24 24;" xml:space="preserve">
<style type="text/css">
	.st0{fill:none;stroke:#757575;stroke-width:0.8;stroke-miterlimit:10;}
</style>
<path class="st0" d="M18.1,2.1H9.8c-0.9,0-1.7,0.8-1.7,1.7v13.3c0,0.9,0.8,1.7,1.7,1.7h8.3c0.9,0,1.7-0.7,1.7-1.7V3.8
	C19.8,2.9,19,2.1,18.1,2.1z M14,4.2c0.7,0,1.3,0.6,1.3,1.3S14.7,6.8,14,6.8s-1.3-0.6-1.3-1.3S13.3,4.2,14,4.2z M14,16
	c-1.6,0-3-1.4-3-3s1.4-3,3-3s3,1.4,3,3S15.7,16,14,16z M14.8,21.9H6.2c-1.1,0-2-0.9-2-2V5.3"/>
</svg>
