<svg xmlns="http://www.w3.org/2000/svg" fill-rule="evenodd" stroke-linecap="round" stroke-linejoin="round" stroke-miterlimit="1.41421" clip-rule="evenodd" viewBox="0 0 24 24">
  <path 
  fill="none"
  stroke="#757575"
  stroke-width="1.5"
  d="M12 2.5c-5.244 0-9.5 4.256-9.5 9.5s4.256 9.5 9.5 9.5 9.5-4.256 9.5-9.5-4.256-9.5-9.5-9.5z
  M12 14.703l2.182 1.32c.4.242.889-.116.784-.568l-.578-2.482
  1.93-1.673c.352-.305.163-.883-.3-.92l-2.54-.216-.994-2.345c-.179-.426-.789-.426-.968
  0l-.994 2.34-2.54.216c-.463.036-.652.615-.3.92l1.93 1.672-.578
  2.482c-.105.453.384.81.784.568L12 14.703z"/>
</svg>