<svg xmlns="http://www.w3.org/2000/svg" fill-rule="evenodd" stroke-linecap="round" stroke-linejoin="round" stroke-miterlimit="1.5" clip-rule="evenodd" viewBox="0 0 24 24">
  <path 
  fill="none"
  stroke="#757575"
  stroke-width="1.5" 
  d="M12 19.045v-5 5zM21.5 6.455c0-.398-.158-.78-.439-1.061-.282-.281-.663-.439-1.061-.439H4c-.398
  0-.779.158-1.061.439-.281.281-.439.663-.439 1.061v3c0 .398.158.779.439 1.06.282.282.663.44 
  1.061.44h16c.398 0 .779-.158 1.061-.44.281-.281.439-.662.439-1.06v-3zM6 7.955h2m2.5 
  0H12m-2.5 8.59h5-5z"/>
</svg>