<?xml version="1.0" encoding="utf-8"?>
<!-- Generator: Adobe Illustrator 21.1.0, SVG Export Plug-In . SVG Version: 6.00 Build 0)  -->
<svg version="1.1" id="Ebene_1" xmlns="http://www.w3.org/2000/svg" xmlns:xlink="http://www.w3.org/1999/xlink" x="0px" y="0px"
	 viewBox="0 0 24 24" style="enable-background:new 0 0 24 24;" xml:space="preserve">
<style type="text/css">
	.st0{fill:none;stroke:#757575;stroke-width:0.8;stroke-miterlimit:10;}
</style>
<path class="st0" d="M12,7.5v9 M7.5,12h9 M16,20.7c3.3-1.5,5.6-4.9,5.6-8.7c0-5.3-4.3-9.6-9.6-9.6 M6.5,4.1c-0.7,0.5-1.3,1-1.8,1.7
	 M3.5,7.5C2.8,8.8,2.4,10.4,2.4,12 M2.6,13.9C3,16.2,4.3,18.1,6,19.5 M6.9,20.1c1.5,0.9,3.2,1.5,5.1,1.5c1,0,2-0.2,3-0.5"/>
</svg>
