<?xml version="1.0" encoding="utf-8"?>
<!-- Generator: Adobe Illustrator 21.1.0, SVG Export Plug-In . SVG Version: 6.00 Build 0)  -->
<svg version="1.1" id="Ebene_1" xmlns="http://www.w3.org/2000/svg" xmlns:xlink="http://www.w3.org/1999/xlink" x="0px" y="0px"
	 viewBox="0 0 24 24" style="enable-background:new 0 0 24 24;" xml:space="preserve">
<style type="text/css">
	.st0{fill:none;stroke:#757575;stroke-width:0.8;stroke-miterlimit:10;}
</style>
<path class="st0" d="M7.2,13.2c2.9-0.8,5.5-1.6,8.3-2.3c-0.3,2.3-1.6,3.5-3.5,4.1C10,15.3,8.5,14.8,7.2,13.2z M7.9,8.4
	c0.8,0,1.4,0.6,1.4,1.4c0,0.8-0.6,1.4-1.4,1.4s-1.4-0.6-1.4-1.4C6.5,9,7.1,8.4,7.9,8.4z M13.1,7c0.8,0,1.4,0.6,1.4,1.4
	s-0.6,1.4-1.4,1.4c-0.8,0-1.4-0.6-1.4-1.4S12.3,7,13.1,7z M15.7,20v-2.3c0-1.1,0.9-2,2-2H20c0.6,0,1-0.4,1-1V5c0-1.1-0.9-2-2-2H5
	C3.9,3,3,3.9,3,5v14c0,1.1,0.9,2,2,2h9.7C15.3,21,15.7,20.6,15.7,20z"/>
</svg>
