<svg xmlns="http://www.w3.org/2000/svg" fill-rule="evenodd" stroke-linecap="round" stroke-linejoin="round" stroke-miterlimit="1.5" clip-rule="evenodd" viewBox="0 0 24 24">
  <path 
  fill="none" 
  stroke="#757575"
  stroke-width="1.5"
  d="M19.5 20c0 .398-.158.779-.439 1.061-.282.281-.663.439-1.061.439H6c-.398 
  0-.779-.158-1.061-.439-.281-.282-.439-.663-.439-1.061V8.828c0-.53.211-1.039.586-1.414l4.328-4.328c.375-.375.884-.586 
  1.414-.586H18c.398 0 .779.158 1.061.439.281.282.439.663.439 1.061v16zM17.054 
  7.5v-2M14.054 7.5v-2M11.054 7.5v-2"/>
</svg>
