<?xml version="1.0" encoding="utf-8"?>
<!-- Generator: Adobe Illustrator 21.1.0, SVG Export Plug-In . SVG Version: 6.00 Build 0)  -->
<svg version="1.1" id="Ebene_1" xmlns="http://www.w3.org/2000/svg" xmlns:xlink="http://www.w3.org/1999/xlink" x="0px" y="0px"
	 viewBox="0 0 24 24" style="enable-background:new 0 0 24 24;" xml:space="preserve">
<style type="text/css">
	.st0{display:none;}
	.st1{display:inline;fill:none;stroke:#001A9F;stroke-width:0.8;stroke-miterlimit:10;}
	.st2{display:inline;fill:none;stroke:#FF842A;stroke-width:0.8;stroke-miterlimit:10;}
	.st3{display:inline;fill:none;stroke:#C4FF4A;stroke-width:0.8;stroke-miterlimit:10;}
	.st4{display:inline;fill:none;stroke:#74FFBA;stroke-width:0.8;stroke-miterlimit:10;}
	.st5{display:inline;fill:none;stroke:#000000;stroke-width:0.8;stroke-miterlimit:10;}
	.st6{fill:none;stroke:#757575;stroke-width:0.8;stroke-miterlimit:10;}
</style>
<g id="Original" class="st0">
	<path class="st1" d="M2.5,17.7L2.5,17.7c0,2.1,1.7,3.8,3.7,3.8h13.2c1.1,0,2-0.9,2-2V16c0-1.1-0.9-2-2.1-2H6.2
		C4.2,14,2.5,15.7,2.5,17.7z"/>
	<path class="st2" d="M4.4,21L4.4,21C2.6,20,2,17.7,3,15.9L9.6,4.4c0.6-1,1.8-1.3,2.7-0.7l3,1.8c1,0.6,1.3,1.8,0.7,2.7L9.5,19.6
		C8.5,21.4,6.2,22,4.4,21z"/>
	<path class="st3" d="M3,19.6L3,19.6c-1-1.8-0.4-4.1,1.4-5.1l11.5-6.6c1-0.6,2.2-0.2,2.7,0.7l1.8,3c0.6,1,0.2,2.2-0.7,2.7L8.1,21
		C6.3,22,4,21.4,3,19.6z"/>
	<path class="st4" d="M6.3,21.5L6.3,21.5c-2.1,0-3.8-1.7-3.8-3.8V4.5c0-1.1,0.9-2,2-2H8c1.1,0,2,0.9,2,2v13.2
		C10,19.8,8.3,21.5,6.3,21.5z"/>
	<circle class="st5" cx="6.3" cy="17.7" r="1.5"/>
</g>
<path class="st6" d="M20,14.1c0.9,0.2,1.5,1,1.5,1.9v3.5c0,1.1-0.9,2-2,2H6.3 M8.1,21l11.5-6.6c1-0.5,1.3-1.8,0.7-2.7l-1.8-3
	c-0.5-0.8-1.4-1.2-2.3-0.9 M9.5,19.6l6.6-11.5c0.6-1,0.2-2.2-0.7-2.7l-3-1.8C11.6,3.2,10.6,3.4,9.9,4 M10,17.7V4.5c0-1.1-0.9-2-2-2
	H4.5c-1.1,0-2,0.9-2,2v13.2c0,2.1,1.7,3.8,3.8,3.8h0C8.3,21.5,10,19.8,10,17.7z M6.3,16.5C5.6,16.5,5,17,5,17.7
	C5,18.4,5.6,19,6.3,19s1.3-0.6,1.3-1.3C7.5,17,6.9,16.5,6.3,16.5z"/>
</svg>
