<svg xmlns="http://www.w3.org/2000/svg" fill-rule="evenodd" stroke-linecap="round" stroke-linejoin="round" stroke-miterlimit="1.5" clip-rule="evenodd" viewBox="0 0 24 24">
  <path 
  fill="none"
  stroke="#757575"
  stroke-width="1.5"
  d="M21.5 6c0-.398-.158-.779-.439-1.061-.282-.281-.663-.439-1.061-.439H3.963c-.808 
  0-1.463.655-1.463 1.463V18c0 .398.158.779.439 1.061.282.281.663.439 1.061.439h16c.398
  0 .779-.158 1.061-.439.281-.282.439-.663.439-1.061V6zM5.5 12h2-2zM16.5
  16h2-2zM11.5 12h7-7zM5.5 16h7-7z"/>
</svg>