<svg xmlns="http://www.w3.org/2000/svg" fill-rule="evenodd" stroke-linecap="round" stroke-linejoin="round" stroke-miterlimit="1.5" clip-rule="evenodd" viewBox="0 0 24 24">
  <path fill="none" stroke="#757575" stroke-width="1.5"
  d="M21.25 4.05c0-.345-.137-.675-.381-.919s-.574-.381-.919-.381H4.05c-.345
  0-.675.137-.919.381s-.381.574-.381.919v11.9c0
  .345.137.675.381.919s.574.381.919.381h4.2L12 
  21l3.75-3.75h4.2c.345 0 .675-.137.919-.381s.381-.574.381-.919V4.05zM8.239
  8h9.011m-4.905 4h2.905M1.042 1.042l19.916 19.916"/>
</svg>