<?xml version="1.0" encoding="utf-8"?>
<!-- Generator: Adobe Illustrator 21.1.0, SVG Export Plug-In . SVG Version: 6.00 Build 0)  -->
<svg version="1.1" id="Ebene_1" xmlns="http://www.w3.org/2000/svg" xmlns:xlink="http://www.w3.org/1999/xlink" x="0px" y="0px"
	 viewBox="0 0 24 24" style="enable-background:new 0 0 24 24;" xml:space="preserve">
<style type="text/css">
	.st0{fill:none;stroke:#757575;stroke-width:0.8;stroke-miterlimit:10;}
</style>
<path class="st0" d="M17.2,12.6c0-0.1,0-0.4,0-0.6c0-2.8-2.3-5.2-5.2-5.2S6.8,9.2,6.8,12c0,1.2,0.4,2.3,1.1,3.2 M5.1,12H2.5
	 M21.5,12h-2.6 M18.9,5l-1.7,1.9 M6.8,6.9L5,5 M12,5.1V2.5 M17.2,12c0,2.9-2.3,5.2-5.2,5.2S6.8,14.9,6.8,12S9.1,6.8,12,6.8
	S17.2,9.1,17.2,12z M17.2,17.2l1.7,1.9 M5,19l1.9-2 M12,21.5v-2.6"/>
</svg>
