<svg fill-rule="evenodd" stroke-linecap="round" stroke-linejoin="round" stroke-miterlimit="1.5" clip-rule="evenodd" viewBox="0 0 24 24">
  <path fill="none" stroke="#757575" stroke-width="1.5" d="M10.82 11.283c.139-.533.022-1.099-.316-1.534-.337-.435-.858-.688-1.408-.686-1.48.006-3.402.014-4.916.02-.628.002-1.225.275-1.639.748-.413.473-.603 1.102-.52 1.725.07.532.144 1.098.216 1.64.208 1.575 1.55 2.752 3.138 2.752h1.47c1.628 0 3.05-1.101 3.459-2.677.171-.657.352-1.354.516-1.988zM13.125 11.283c-.139-.533-.022-1.099.316-1.534.337-.435.858-.688 1.408-.686 1.48.006 3.402.014 4.916.02.628.002 1.225.275 1.639.748.413.473.603 1.102.52 1.725-.07.532-.144 1.098-.216 1.64-.208 1.575-1.55 2.752-3.138 2.752H17.1c-1.628 0-3.05-1.101-3.459-2.677-.171-.657-.352-1.354-.516-1.988zM11.085 10.552c.266-.162.578-.256.912-.256.217 0 .425.04.617.112"/>
</svg>