<svg xmlns="http://www.w3.org/2000/svg" fill-rule="evenodd" stroke-linecap="round" stroke-linejoin="round" stroke-miterlimit="1.5" clip-rule="evenodd" viewBox="0 0 24 24">
  <path fill="none" stroke="#757575" stroke-width="1.5" 
  d="M8.995 8.995c1.658-1.659 4.352-1.659 6.01 0 1.659 1.658 1.659 4.352 0 
  6.01-1.658 1.659-4.352 1.659-6.01 0-1.659-1.658-1.659-4.352 0-6.01z
  M4.049 16.728C3.224 15.344 2.75 13.727 2.75 12c0-5.105 4.145-9.25 
  9.25-9.25 1.665 0 3.228.441 4.579 1.213M19.915 7.212c.847 1.397 
  1.335 3.036 1.335 4.788 0 5.105-4.145 9.25-9.25 9.25-1.742 
  0-3.372-.483-4.764-1.321"/>
</svg>