<?xml version="1.0" encoding="utf-8"?>
<!-- Generator: Adobe Illustrator 21.1.0, SVG Export Plug-In . SVG Version: 6.00 Build 0)  -->
<svg version="1.1" id="Ebene_1" xmlns="http://www.w3.org/2000/svg" xmlns:xlink="http://www.w3.org/1999/xlink" x="0px" y="0px"
	 viewBox="0 0 24 24" style="enable-background:new 0 0 24 24;" xml:space="preserve">
<style type="text/css">
	.st0{fill:none;stroke:#757575;stroke-width:0.8;stroke-miterlimit:10;}
</style>
<path class="st0" d="M3.9,6.8l7.7-4.3c0.3-0.2,0.6-0.2,0.9,0l7.7,4.3c0.3,0.2,0.5,0.5,0.5,0.8v8.5c0,0.4-0.2,0.7-0.5,0.8l-7.7,4.3
	c-0.3,0.2-0.6,0.2-0.9,0L3.9,17c-0.3-0.2-0.5-0.5-0.5-0.8V7.7C3.4,7.3,3.6,7,3.9,6.8z M3.4,7.1l8.2,4.6c0.3,0.2,0.6,0.2,0.9,0
	l8.2-4.6 M12.1,11.9v9.7"/>
</svg>
