<svg xmlns="http://www.w3.org/2000/svg" fill-rule="evenodd" stroke-linejoin="round" stroke-miterlimit="1.41421" clip-rule="evenodd" viewBox="0 0 24 24">
  <path fill="none" stroke="#757575" stroke-width="1.5" 
  d="M11.294 2.65L5.197 5.36c-.627.279-1.036.906-1.036 
  1.594v4.094c0 4.833 3.345 9.354 7.839 10.452 4.494-1.098
  7.839-5.619 7.839-10.452V6.954c0-.688-.409-1.315-1.036-1.594l-6.097-2.71c-.445-.2-.967-.2-1.412 0z
  M10.056 11.004c0-1.073.872-1.945 1.945-1.945s1.944.872 
  1.944 1.945-.871 1.944-1.944 1.944-1.945-.871-1.945-1.944zm1.945-2.098V7.5m0
  7v-1.406m-1.814-3.141L8.97 
  9.25m6.062 3.5l-1.218-.703m-3.629.001l-1.217.703m6.062-3.5l-1.217.703"/>
</svg>