<svg xmlns="http://www.w3.org/2000/svg" fill-rule="evenodd" stroke-linecap="round" stroke-linejoin="round" stroke-miterlimit="1.5" clip-rule="evenodd" viewBox="0 0 24 24">
  <path 
  fill="none" 
  stroke="#757575"
  stroke-width="1.5" 
  d="M7.5 13.991h9M6.25 6.991h1.5M11.25 6.991h1.5M16.25 6.991h1.5M10.009 
  11.5v5M21 5c0-.53-.211-1.039-.586-1.414S19.53 3 19 3H5c-.53 0-1.039.211-1.414.586S3
  4.47 3 5v14c0 .53.211 1.039.586 1.414S4.47 21 5 21h14c.53 0 1.039-.211 1.414-.586S21
  19.53 21 19V5z"/>
</svg>