<svg xmlns="http://www.w3.org/2000/svg" fill-rule="evenodd" stroke-linecap="round" stroke-linejoin="round" stroke-miterlimit="1.5" clip-rule="evenodd" viewBox="0 0 24 24">
  <path 
  fill="none"
  stroke="#757575" 
  stroke-width="1.5"
  d="M6.551 12.117c-.055-.054-.078-.132-.063-.209.016-.075.069-.138.14-.167 
  1.426-.57 7.152-2.861 8.91-3.565.088-.036.19-.015.257.053.067.067.088.168.053.256-.696
  1.736-2.941 7.333-3.545 
  8.838-.033.083-.106.145-.194.163-.088.018-.18-.009-.243-.072-.448-.443-1.293-1.279-1.622-1.605-.082-.081-.104-.204-.054-.308.221-.468.842-1.777 
  1.218-2.571.045-.096.025-.21-.049-.285-.076-.074-.189-.094-.285-.048-.801.383-2.125 
  1.016-2.578 1.233-.094.045-.207.026-.281-.048l-1.664-1.665z
  M12 2.5c-5.244 0-9.5 4.256-9.5 9.5s4.256 9.5 9.5 9.5 9.5-4.256
  9.5-9.5-4.256-9.5-9.5-9.5z"/>
</svg>