<?xml version="1.0" encoding="utf-8"?>
<!-- Generator: Adobe Illustrator 21.1.0, SVG Export Plug-In . SVG Version: 6.00 Build 0)  -->
<svg version="1.1" id="Ebene_1" xmlns="http://www.w3.org/2000/svg" xmlns:xlink="http://www.w3.org/1999/xlink" x="0px" y="0px"
	 viewBox="0 0 24 24" style="enable-background:new 0 0 24 24;" xml:space="preserve">
<style type="text/css">
	.st0{fill:none;stroke:#757575;stroke-width:0.8;stroke-miterlimit:10;}
</style>
<path class="st0" d="M17,17c0,2.8-2.2,5-5,5s-5-2.2-5-5c0-1.6,0.8-3.1,2-4V5c0-1.7,1.3-3,3-3s3,1.3,3,3v8C16.2,13.9,17,15.4,17,17
	 M12,15c-1.1,0-2,0.9-2,2s0.9,2,2,2s2-0.9,2-2S13.1,15,12,15z M12,8v7"/>
</svg>
