<svg width="100%" height="100%" viewBox="0 0 24 24" version="1.1" xmlns="http://www.w3.org/2000/svg" xml:space="preserve" fill-rule="evenodd" clip-rule="evenodd" stroke-linecap="round" stroke-linejoin="round" stroke-miterlimit="10">
  <path d="M22 18c0 1.1-.9 2-2 2H4c-1.1 0-2-.9-2-2v-3.5c1.4 0 2.5-1.1 2.5-2.5S3.4 9.5 2 9.5V6c0-1.1.9-2 2-2h16c1.1 0 2 .9 2 2v3.5c-1.4 0-2.5 1.1-2.5 2.5s1.1 2.5 2.5 2.5V18zM12 8v8m-3.467-5.956l6.934 4m-6.934 0l6.934-4" fill="none" stroke="#757575" stroke-width=".8"/>
</svg>
