<?xml version="1.0" encoding="utf-8"?>
<!-- Generator: Adobe Illustrator 21.1.0, SVG Export Plug-In . SVG Version: 6.00 Build 0)  -->
<svg version="1.1" id="Ebene_1" xmlns="http://www.w3.org/2000/svg" xmlns:xlink="http://www.w3.org/1999/xlink" x="0px" y="0px"
	 viewBox="0 0 24 24" style="enable-background:new 0 0 24 24;" xml:space="preserve">
<style type="text/css">
	.st0{fill:none;stroke:#757575;stroke-width:0.8;stroke-miterlimit:10;}
</style>
<path class="st0" d="M4.5,16c0,0.8-0.7,1.5-1.5,1.5S1.5,16.8,1.5,16c0-0.8,0.7-1.5,1.5-1.5S4.5,15.2,4.5,16z M10,7.5
	C9.2,7.5,8.5,8.2,8.5,9s0.7,1.5,1.5,1.5s1.5-0.7,1.5-1.5S10.8,7.5,10,7.5z M15,12.5c-0.8,0-1.5,0.7-1.5,1.5s0.7,1.5,1.5,1.5
	s1.5-0.7,1.5-1.5S15.8,12.5,15,12.5z M21,6.5c-0.8,0-1.5,0.7-1.5,1.5s0.7,1.5,1.5,1.5s1.5-0.7,1.5-1.5S21.8,6.5,21,6.5z M4.1,14.9
	l4.9-4.9 M11.1,10.1l2.9,2.9 M19.9,9.1l-3.9,3.9"/>
</svg>
