<?xml version="1.0" encoding="utf-8"?>
<!-- Generator: Adobe Illustrator 21.1.0, SVG Export Plug-In . SVG Version: 6.00 Build 0)  -->
<svg version="1.1" id="Ebene_1" xmlns="http://www.w3.org/2000/svg" xmlns:xlink="http://www.w3.org/1999/xlink" x="0px" y="0px"
	 viewBox="0 0 24 24" style="enable-background:new 0 0 24 24;" xml:space="preserve">
<style type="text/css">
	.st0{fill:none;stroke:#757575;stroke-width:0.8;stroke-miterlimit:10;}
</style>
<path class="st0" d="M9.8,8C9.2,8,8.6,8.6,8.6,9.3c0,0.7,0.6,1.3,1.3,1.3c0.7,0,1.3-0.6,1.3-1.3C11.1,8.6,10.5,8,9.8,8z M15.3,13.5
	c-0.7,0-1.3,0.6-1.3,1.3c0,0.7,0.6,1.3,1.3,1.3c0.7,0,1.3-0.6,1.3-1.3C16.5,14.1,15.9,13.5,15.3,13.5z M3.4,15.7l5.5-5.5 M10.7,10.2
	l3.7,3.7 M20.6,9.4l-4.5,4.5 M18.6,20.6H5.4c-1.1,0-2-0.9-2-2V5.4c0-1.1,0.9-2,2-2h13.2c1.1,0,2,0.9,2,2v13.2
	C20.6,19.7,19.7,20.6,18.6,20.6z"/>
</svg>
