<svg xmlns="http://www.w3.org/2000/svg" fill-rule="evenodd" stroke-linecap="round" stroke-linejoin="round" stroke-miterlimit="1.5" clip-rule="evenodd" viewBox="0 0 24 24">
  <path
  fill="none" 
  stroke="#757575" 
  stroke-width="1.5" 
  d="M1.939 14.939c.586-.585 1.536-.585 2.122 0 .585.586.585 1.536 0 
  2.122-.586.585-1.536.585-2.122 0-.585-.586-.585-1.536 0-2.122zM8.939
  7.939c.586-.585 1.536-.585 2.122 0 .585.586.585 1.536 0 2.122-.586.585-1.536.585-2.122
  0-.585-.586-.585-1.536 0-2.122zM19.939 6.939c.586-.585 1.536-.585 2.122 0 
  .585.586.585 1.536 0 2.122-.586.585-1.536.585-2.122 0-.585-.586-.585-1.536 
  0-2.122zM13.939 12.939c.586-.585 1.536-.585 2.122 0 .585.586.585 1.536 0
  2.122-.586.585-1.536.585-2.122 0-.585-.586-.585-1.536 0-2.122zM4.061
  14.939l4.878-4.878M11.061 10.061l2.878 2.878M16.061
  12.939l3.878-3.878"/>
</svg>