<?xml version="1.0" encoding="utf-8"?>
<!-- Generator: Adobe Illustrator 21.1.0, SVG Export Plug-In . SVG Version: 6.00 Build 0)  -->
<svg version="1.1" id="Ebene_1" xmlns="http://www.w3.org/2000/svg" xmlns:xlink="http://www.w3.org/1999/xlink" x="0px" y="0px"
	 viewBox="0 0 24 24" style="enable-background:new 0 0 24 24;" xml:space="preserve">
<style type="text/css">
	.st0{fill:none;stroke:#757575;stroke-width:0.8;stroke-miterlimit:10;}
</style>
<path class="st0" d="M11.1,2.5c0.9,0,1.6,0.7,1.6,1.6v6.3h0c1.1,0,2.2,0.3,3.1,0.8L19,13c0.4,0.2,0.7,0.7,0.6,1.2l-0.8,5.4
	c-0.2,1.1-1.1,2-2.3,2H9.7c-0.2,0-0.3-0.1-0.4-0.2l-4.6-4.6c-0.5-0.5-0.4-1.3,0.1-1.7l0,0c0.4-0.3,0.8-0.4,1.3-0.3l2.7,0.6
	c0.4,0.1,0.7-0.2,0.7-0.6V4.1C9.5,3.2,10.2,2.5,11.1,2.5L11.1,2.5z"/>
</svg>
