<?xml version="1.0" encoding="utf-8"?>
<!-- Generator: Adobe Illustrator 21.1.0, SVG Export Plug-In . SVG Version: 6.00 Build 0)  -->
<svg version="1.1" id="Ebene_1" xmlns="http://www.w3.org/2000/svg" xmlns:xlink="http://www.w3.org/1999/xlink" x="0px" y="0px"
	 viewBox="0 0 24 24" style="enable-background:new 0 0 24 24;" xml:space="preserve">
<style type="text/css">
	.st0{fill:none;stroke:#757575;stroke-width:0.8;stroke-miterlimit:10;}
</style>
<path class="st0" d="M21.6,12c0,5.3-4.3,9.6-9.6,9.6S2.4,17.3,2.4,12S6.7,2.4,12,2.4S21.6,6.7,21.6,12z M7,9c-0.6,0-1,0.4-1,1
	s0.4,1,1,1s1-0.4,1-1S7.6,9,7,9z M10,6C9.4,6,9,6.4,9,7s0.4,1,1,1s1-0.4,1-1S10.6,6,10,6z M17,9c-0.6,0-1,0.4-1,1s0.4,1,1,1
	s1-0.4,1-1S17.6,9,17,9z M18.6,19c-1.6-1.8-4-2.9-6.6-2.9c-2.6,0-5,1.1-6.6,2.9 M12,10.5c-0.8,0-1.5,0.7-1.5,1.5s0.7,1.5,1.5,1.5
	s1.5-0.7,1.5-1.5S12.8,10.5,12,10.5z M12.6,10.6l1.8-4.5"/>
</svg>
