<?xml version="1.0" encoding="utf-8"?>
<!-- Generator: Adobe Illustrator 19.2.1, SVG Export Plug-In . SVG Version: 6.00 Build 0)  -->
<svg version="1.1" id="Ebene_1" xmlns="http://www.w3.org/2000/svg" xmlns:xlink="http://www.w3.org/1999/xlink" x="0px" y="0px"
	 viewBox="0 0 24 24" style="enable-background:new 0 0 24 24;" xml:space="preserve">
<style type="text/css">
	.st0{fill:none;stroke:#757575;stroke-width:0.8;stroke-miterlimit:10;}
</style>
<path class="st0" d="M18.7,4.9H8.2c-1,0-1.9,0.9-1.9,1.9v13.3c0,1,0.9,1.9,1.9,1.9h10.5c1,0,1.9-0.9,1.9-1.9V6.8
	C20.6,5.7,19.7,4.9,18.7,4.9z M16.8,2H5.3c-1,0-1.9,0.9-1.9,1.9v10.5 M3.4,14.3c0,0.8,0.9,1.5,2,1.5h8.3 M11.5,13l2.9,2.9l-2.9,2.9
	 M7.4,15.8h6.9"/>
</svg>
