<?xml version="1.0" encoding="utf-8"?>
<!-- Generator: Adobe Illustrator 21.1.0, SVG Export Plug-In . SVG Version: 6.00 Build 0)  -->
<svg version="1.1" id="Ebene_1" xmlns="http://www.w3.org/2000/svg" xmlns:xlink="http://www.w3.org/1999/xlink" x="0px" y="0px"
	 viewBox="0 0 24 24" style="enable-background:new 0 0 24 24;" xml:space="preserve">
<style type="text/css">
	.st0{fill:none;stroke:#757575;stroke-width:0.8;stroke-miterlimit:10;}
</style>
<path class="st0" d="M3.9,3.6h5.3c0.5,0,0.8,0.4,0.8,0.8v5.3c0,0.5-0.4,0.8-0.8,0.8H3.9c-0.5,0-0.8-0.4-0.8-0.8V4.4
	C3.1,4,3.5,3.6,3.9,3.6z M17.4,3.6c1.9,0,3.5,1.6,3.5,3.5s-1.6,3.5-3.5,3.5s-3.5-1.6-3.5-3.5S15.5,3.6,17.4,3.6 M6.6,14.7l3.3,5.8
	H3.4L6.6,14.7z M21.3,17h-7.7 M17.5,13.1v7.7"/>
</svg>
