<?xml version="1.0" encoding="UTF-8" standalone="no"?><!DOCTYPE svg PUBLIC "-//W3C//DTD SVG 1.1//EN" "http://www.w3.org/Graphics/SVG/1.1/DTD/svg11.dtd"><svg width="100%" height="100%" viewBox="0 0 24 24" version="1.1" xmlns="http://www.w3.org/2000/svg" xmlns:xlink="http://www.w3.org/1999/xlink" xml:space="preserve" xmlns:serif="http://www.serif.com/" style="fill-rule:evenodd;clip-rule:evenodd;stroke-linecap:round;stroke-linejoin:round;stroke-miterlimit:10;"><path d="M19.9,6.8l1.3,-2.5m1.3,2.2l-2.6,0.4m0.5,2.3c0,-2.6 -1.8,-4.8 -4.1,-4.8c-2.3,0 -4.1,2.1 -4.1,4.8c0,0 -5.1,-0.1 -8.4,-4.2c-0.4,0.6 -0.4,1.7 -0.4,2l0,0.9c0,1.6 1.3,2.9 2.9,2.9m0.436,6.363c-0.74,0.617 -1.036,1.092 -4.236,1.437c1.9,1.3 4,2 6.4,2c6.3,0 11.5,-5.1 11.5,-11.5m-16.2,0.8c-0.425,0.955 0.89,5.224 2.9,4.5m-1.874,-0.802c-0.581,1.573 1.301,4.278 2.874,3.902" style="fill:none;stroke:#757575;stroke-width:0.8px;"/></svg>