<?xml version="1.0" encoding="utf-8"?>
<!-- Generator: Adobe Illustrator 21.1.0, SVG Export Plug-In . SVG Version: 6.00 Build 0)  -->
<svg version="1.1" id="Ebene_1" xmlns="http://www.w3.org/2000/svg" xmlns:xlink="http://www.w3.org/1999/xlink" x="0px" y="0px"
	 viewBox="0 0 24 24" style="enable-background:new 0 0 24 24;" xml:space="preserve">
<style type="text/css">
	.st0{fill:none;stroke:#757575;stroke-width:0.8;stroke-miterlimit:10;}
</style>
<path class="st0" d="M13.8,20.2c0,0.9-0.7,1.8-1.8,1.8s-1.8-0.7-1.8-1.8c0-0.9,0.7-1.8,1.8-1.8S13.8,19.3,13.8,20.2z M7.3,7.7
	c-0.9,0-1.8,0.7-1.8,1.7c0,0.9,0.7,1.8,1.8,1.8s1.8-0.7,1.8-1.8S8.1,7.7,7.3,7.7z M18.5,7.9h-2.9v2.9h2.9V7.9z M12,2v16.4 M9.1,4.9
	L12,2l2.9,2.9 M7.3,11.2v3.2h9.8v-3.6"/>
</svg>
