<svg xmlns="http://www.w3.org/2000/svg" fill-rule="evenodd" stroke-linecap="round" stroke-linejoin="round" stroke-miterlimit="1.5" clip-rule="evenodd" viewBox="0 0 24 24">
  <path fill="none" stroke="#757575" stroke-width="1.5" d="M11.321
  12.806c-1.01-.209-1.268-.864-2.808-2.996-.493-.853-1.532-1.585-.454-4.307 
  1.435-3.625-9.46-2.369-3.525 4.33 2.67 2.807 5.907 6.625 7.432 10.655h.068c1.525-4.03 
  4.762-7.848 7.432-10.655 5.935-6.699-4.96-7.955-3.525-4.33 1.078 2.722.039 3.454-.454 
  4.307-1.54 2.132-1.798 2.787-2.808 2.996-.098.02-1.26.02-1.358 0z
  M9.552 7.512l.848.947 M14.79 7.512l-.848.947 M12.009 13.685v1.01"/>
</svg>