<svg xmlns="http://www.w3.org/2000/svg" fill-rule="evenodd" stroke-linecap="round" stroke-linejoin="round" stroke-miterlimit="1.5" clip-rule="evenodd" viewBox="0 0 24 24">
  <path
  fill="none"
  stroke="#757575"
  stroke-width="1.5"
  d="M3.5 10V4M20.5 20v-6M17.5 5c0-.398-.158-.779-.439-1.061-.282-.281-.663-.439-1.061-.439H8c-.398 
  0-.779.158-1.061.439C6.658 4.221 6.5 4.602 6.5 5v14c0 .398.158.779.439 1.061.282.281.663.439 
  1.061.439h8c.398 0 .779-.158
  1.061-.439.281-.282.439-.663.439-1.061V5z"/>
</svg>
