<svg xmlns="http://www.w3.org/2000/svg" fill-rule="evenodd" stroke-linecap="round" stroke-linejoin="round" stroke-miterlimit="1.5" clip-rule="evenodd" viewBox="0 0 24 24">
  <path 
  id="Cam"
  fill="none" 
  stroke="#757575" 
  stroke-width="1.5"
  d="M17.263 11.713s2.327-2.325 3.71-3.707c.168-.168.421-.218.64-.127.219.091.363.305.363.542.003 
  1.887.008 5.21.011 7.098 0 .238-.142.453-.361.543-.219.092-.472.042-.64-.125-1.388-1.38-3.723-3.702-3.723-3.702
  M17.271 7.521c0-.531-.211-1.039-.586-1.414s-.884-.586-1.414-.586H4c-.53 0-1.039.211-1.414.586S2 6.99 
  2 7.521v8.916c0 .531.211 1.04.586 1.415s.884.585 1.414.585h11.271c.53 0 1.039-.21 
  1.414-.585s.586-.884.586-1.415V7.521z"/>
  
  <path 
  id="HQ"
  fill="none" 
  stroke="#757575"
  stroke-width="1.25"
  d="M5.728 9.954v4.311-4.311zm2.539 0v4.311-4.311zm-2.539 
  2.352h2.539-2.539zm7.944-1.807c0-.264-.215-.479-.479-.479h-2.234c-.264
  0-.479.215-.479.479v3.033c0 .265.215.479.479.479h2.234c.264 0
  .479-.214.479-.479v-3.033zm-1.571 4.455V13.14"/>
  
  <path 
  id="LQ"
  visibility="hidden"
  fill="none" 
  stroke="#757575" 
  stroke-width="1.25"
  d="M5.728 9.954v4.311-4.311zm0 
  4.311h2.539-2.539zm7.944-3.766c0-.264-.215-.479-.479-.479h-2.234c-.264 
  0-.479.215-.479.479v3.033c0 .265.215.479.479.479h2.234c.264 0
  .479-.214.479-.479v-3.033zm-1.571 4.455V13.14"/>
  
  <path
  id="MQ"
  visibility="hidden"
  fill="none"
  stroke="#757575"
  stroke-width="1.25"
  d="M6.523 12.438l1.749-2.484m-3.448 0v4.311-4.311zm3.448 0v4.311-4.311zm-3.448
  0l1.699 2.484-1.699-2.484zm8.852.545c0-.264-.214-.479-.479-.479h-2.233c-.265 
  0-.479.215-.479.479v3.033c0 .265.214.479.479.479h2.233c.265 0 
  .479-.214.479-.479v-3.033zm-1.571 4.455V13.14"/>
</svg>
