<svg xmlns="http://www.w3.org/2000/svg" fill-rule="evenodd" stroke-linecap="round" stroke-linejoin="round" stroke-miterlimit="1.5" clip-rule="evenodd" viewBox="0 0 24 24">
  <path 
  id="Volume"
  fill="none" 
  stroke="#757575" 
  stroke-width="1.5"
  d="M3.713 9.5c-.132 0-.26.053-.354.147-.093.093-.146.22-.146.353v4c0 .133.053.26.146.354.094.093.221.146.354.146h3.2l3.445 
  3.445c.143.143.358.186.545.109.187-.078.309-.261.309-.463-.003-2.579-.009-8.596-.011-11.173-.001-.202-.123-.385-.309-.462-.187-.077-.402-.034-.545.109-1.25 1.251-3.434 3.436-3.434 
  3.436S4.724 9.5 3.713 9.5z"/>
  
  <path 
  id="High"
  fill="none" 
  stroke="#757575" 
  stroke-width="1.5"
  d="M14.673 8.164c1.492.635 2.539 2.115 2.539 3.838 0 1.708-1.03 3.177-2.502 3.821
  M15.183 4.503c3.238.955 5.604 3.952 
  5.604 7.497 0 3.552-2.375 6.554-5.621 7.503"/>
  
  <path 
  id="Bluetooth"
  visibility="hidden"
  fill="none" 
  stroke="#757575" 
  stroke-width="1.5"
  d="M14.577 8.15l7.585
  7.585L18.39 19.5v-15l3.744 3.706-7.561 7.638"/>
  
  <path 
  id="Off"
  visibility="hidden"
  fill="none" 
  stroke="#757575" 
  stroke-width="1.5"
  d="M14.75,8.75l6.5,6.5m-6.5,0l6.5,-6.5"/>
</svg>
