<svg xmlns="http://www.w3.org/2000/svg" fill-rule="evenodd" stroke-linecap="round" stroke-linejoin="round" stroke-miterlimit="1.5" clip-rule="evenodd" viewBox="0 0 24 24">
  <path fill="none" stroke="#757575" stroke-width="2" 
  d="M8 3H4.5c-.398 0-.779.158-1.061.439C3.158 3.721 3 4.102 
  3 4.5V8m0 8v3.5c0 .398.158.779.439 1.061.282.281.663.439 
  1.061.439m0 0h15c.398 0 .779-.158 1.061-.439.281-.282.439-.663.439-1.061V16m0-8V4.5c0-.398-.158-.779-.439-1.061C20.279 
  3.158 19.898 3 19.5 3H16 M14.546 8.046c.388-.389 1.02-.389 
  1.408 0 .389.388.389 1.02 0 1.408-.388.389-1.02.389-1.408 
  0-.389-.388-.389-1.02 0-1.408z M10.605 15.95l1.4-1.833L17.6 
  20.51M6.77 20.758l1.662-2.109 1.416 2.026"/>
</svg>