<?xml version="1.0" encoding="utf-8"?>
<!-- Generator: Adobe Illustrator 21.1.0, SVG Export Plug-In . SVG Version: 6.00 Build 0)  -->
<svg version="1.1" id="Ebene_1" xmlns="http://www.w3.org/2000/svg" xmlns:xlink="http://www.w3.org/1999/xlink" x="0px" y="0px"
	 viewBox="0 0 24 24" style="enable-background:new 0 0 24 24;" xml:space="preserve">
<style type="text/css">
	.st0{fill:none;stroke:#757575;stroke-width:0.8;stroke-miterlimit:10;}
</style>
<path class="st0" d="M11,21H5c-1.1,0-2-0.9-2-2v-6 M13,21h6c1.1,0,2-0.9,2-2v-6 M21,11V5c0-1.1-0.9-2-2-2h-6 M11,3H5
	C3.9,3,3,3.9,3,5v6 M12.8,16.2l1.3-2.6c0.1-0.2,0.4-0.2,0.5,0l2,2.6h-9l2.7-3.4c0.1-0.2,0.4-0.1,0.5,0L12.8,16.2 M14.6,10.1
	c-0.6,0-1.1-0.5-1.1-1.1s0.5-1.1,1.1-1.1s1.1,0.5,1.1,1.1S15.2,10.1,14.6,10.1z"/>
</svg>
