<?xml version="1.0" encoding="utf-8"?>
<!-- Generator: Adobe Illustrator 21.1.0, SVG Export Plug-In . SVG Version: 6.00 Build 0)  -->
<svg version="1.1" id="Ebene_1" xmlns="http://www.w3.org/2000/svg" xmlns:xlink="http://www.w3.org/1999/xlink" x="0px" y="0px"
	 viewBox="0 0 24 24" style="enable-background:new 0 0 24 24;" xml:space="preserve">
<style type="text/css">
	.st0{fill:none;stroke:#757575;stroke-width:0.8;stroke-miterlimit:10;}
</style>
<path class="st0" d="M12,22c-5.7-3.1-8.5-6.8-8.5-11.5S7.3,2,12,2s8.5,3.8,8.5,8.5S16.7,19,12,19V22z M11.9,13.5l1.6-1.6
	c0.1-0.1,0.3-0.2,0.4-0.1c0.5,0.2,1,0.3,1.6,0.3c0.2,0,0.4,0.2,0.4,0.4v1.6c0,0.2-0.2,0.4-0.4,0.4c-4.2,0-7.6-3.4-7.6-7.6
	c0-0.2,0.2-0.4,0.4-0.4H10c0.3,0,0.4,0.2,0.4,0.4c0,0.6,0.1,1.1,0.3,1.6c0,0.1,0,0.3-0.1,0.4l-1.6,1.6"/>
</svg>
