<?xml version="1.0" encoding="utf-8"?>
<!-- Generator: Adobe Illustrator 21.1.0, SVG Export Plug-In . SVG Version: 6.00 Build 0)  -->
<svg version="1.1" id="Ebene_1" xmlns="http://www.w3.org/2000/svg" xmlns:xlink="http://www.w3.org/1999/xlink" x="0px" y="0px"
	 viewBox="0 0 24 24" style="enable-background:new 0 0 24 24;" xml:space="preserve">
<style type="text/css">
	.st0{fill:none;stroke:#757575;stroke-width:0.8;stroke-miterlimit:10;}
</style>
<path id="Bedienungshilfen" class="st0" d="M12.6,8.1L12.6,8.1 M9.8,13c-2.3,0-4.2,1.9-4.2,4.2s1.9,4.2,4.2,4.2s4.2-1.9,4.2-4.2
	 M18.4,11.7c-1.5,0-3.8-0.9-5-2.9c-0.4-0.6-0.9-0.9-1.7-0.9c-1.1,0-2,0.9-2,2v5.6c0,1,0.9,1.9,1.9,1.9h4.7v4.1 M11.7,2.5
	c-1.1,0-2,0.9-2,2s0.9,2,2,2s2-0.9,2-2S12.8,2.5,11.7,2.5z"/>
</svg>
