<svg xmlns="http://www.w3.org/2000/svg" xmlns:serif="http://www.serif.com/" fill-rule="evenodd" stroke-linecap="round" stroke-linejoin="round" stroke-miterlimit="1.5" clip-rule="evenodd" viewBox="0 0 24 24">
  <path 
  id="base"
  fill="none" 
  stroke="#757575"
  stroke-width="1.5"
  d="M1.038 6.86c-.112.08-.186.202-.205.338-.018.137.02.274.107.381 1.469 1.817 7.357 9.079 9.884 12.197.285.351.712.555 
  1.164.556.451 0 .879-.203 1.164-.553 2.536-3.112 8.442-10.362 9.912-12.166.087-.107.126-.245.109-.381-.018-.136-.091-.259-.202-.34C21.635 5.991 17.345 3.4 12.036
  3.4 6.728 3.4 2.39 5.965 1.038 6.86z"/>
  
  <path 
  id="0"
  visibility="hidden"
  fill="none"
  stroke="#757575"
  stroke-width="1.5"
  d="M14.504 17.898c-.304-.205-1.282-.796-2.492-.796s-2.199.585-2.508.789"/>
  
  <path 
  id="1"
  visibility="hidden"
  fill="none"
  stroke="#757575"
  stroke-width="1.5"
  d="M16.754 15.256c-.578-.39-2.436-1.512-4.736-1.512-2.299 0-4.178 
  1.111-4.764 1.498"/>
  
  <path 
  id="2"
  fill="none" 
  stroke="#757575"
  stroke-width="1.5"
  d="M19.005 12.614c-.853-.575-3.592-2.228-6.98-2.228-3.389 
  0-6.158 1.637-7.021 2.208"/>
  
  <path 
  id="3"
  visibility="hidden"
  fill="none" 
  stroke="#757575"
  stroke-width="1.5"
  d="M21.004 9.933c-1.096-.74-4.617-2.866-8.974-2.866-4.356 0-7.916 2.105-9.026 2.84"/>
  
  <path 
  id="Error"
  visibility="hidden"
  fill="none" 
  stroke="#757575"
  stroke-width="1.5"
  d=" M21.223 23v-.677V23zM21.25 15.013v4.975"/>
  
 <path 
  id="Disconnected"
  visibility="hidden"
  fill="none" 
  stroke="#757575"
  stroke-width="1.5"
  d="M21.223 23v-.677V23zm-1.758-6.477c.055-.366.223-.717.504-.998.701-.701 1.84-.701 2.541 0 .701.701.701 1.924 0 2.54m-1.284 2.011c-.01-.891.141-1.043.605-1.47.135-.124.379-.266.679-.541"/>
</svg>
