<?xml version="1.0" encoding="utf-8"?>
<!-- Generator: Adobe Illustrator 21.1.0, SVG Export Plug-In . SVG Version: 6.00 Build 0)  -->
<svg version="1.1" id="Ebene_1" xmlns="http://www.w3.org/2000/svg" xmlns:xlink="http://www.w3.org/1999/xlink" x="0px" y="0px"
	 viewBox="0 0 24 24" style="enable-background:new 0 0 24 24;" xml:space="preserve">
<style type="text/css">
	.st0{fill:none;stroke:#757575;stroke-width:0.8;stroke-miterlimit:10;}
</style>
<path id="_x30__x2C_4" class="st0" d="M12,21L23.4,6.9C22.9,6.6,18.5,3,12,3S1.1,6.6,0.6,6.9L12,21z"/>
<path id="_x31_" class="st0" d="M12,21l8.9-11c-0.3-0.2-3.8-3-8.9-3s-8.6,2.8-8.9,3L12,21z"/>
<path id="_x32_" class="st0" d="M12,21l6.4-8c-0.3-0.1-2.7-2.1-6.4-2.1s-6.1,2-6.4,2.1L12,21z"/>
<path id="_x33_" class="st0" d="M12,21l3.9-4.8c-0.1-0.1-1.7-1.4-3.9-1.4S8.3,16,8.1,16.2L12,21z"/>
<path id="Help" class="st0" d="M21.3,21.9v0.7 M21.3,20.9c0-1.1,0.4-1.5,0.9-2l0.7-0.7c0.4-0.4,0.7-0.9,0.7-1.5
	c0-1.2-0.8-2.1-2.1-2.1c-1.3,0-2.1,0.9-2.1,2.1"/>
<path id="Warning" class="st0" d="M21.3,20.3v-5.7 M21.3,22.6v-1"/>
</svg>
