<svg width="100%" height="100%" viewBox="0 0 24 24" version="1.1" xmlns="http://www.w3.org/2000/svg" xml:space="preserve" fill-rule="evenodd" clip-rule="evenodd" stroke-miterlimit="10">
  <path d="M1.908 8.153l9.467 11.7c.357.446 1.072.446 1.429 0l9.288-11.7c.357-.357.268-.982-.179-1.25-1.607-1.161-5.09-3.216-9.913-3.216S3.694 5.742 2.087 6.903c-.447.268-.536.893-.179 1.25z" fill="none" stroke="#757575" stroke-width=".8"/>
  <path d="M20.395 10.296c-.893-.714-3.93-2.947-8.395-2.947s-7.502 2.233-8.395 2.947" fill="none" stroke="#757575" stroke-width=".8"/>
  <path d="M18.162 13.065c-.625-.536-2.858-2.143-6.162-2.143s-5.537 1.696-6.162 2.143" fill="none" stroke="#757575" stroke-width=".8"/>
  <path d="M15.93 15.923c-.358-.357-1.787-1.34-3.93-1.34-2.054 0-3.483 1.072-3.93 1.34" fill="none" stroke="#757575" stroke-width=".8"/>
</svg>
