<?xml version="1.0" encoding="utf-8"?>
<!-- Generator: Adobe Illustrator 21.1.0, SVG Export Plug-In . SVG Version: 6.00 Build 0)  -->
<svg version="1.1" id="Ebene_1" xmlns="http://www.w3.org/2000/svg" xmlns:xlink="http://www.w3.org/1999/xlink" x="0px" y="0px"
	 viewBox="0 0 24 24" style="enable-background:new 0 0 24 24;" xml:space="preserve">
<style type="text/css">
	.st0{fill:none;stroke:#757575;stroke-width:0.8;stroke-miterlimit:10;}
</style>
<path id="_x30__x2C_4" class="st0" d="M12,20L22.1,7.5C21.7,7.2,17.8,4,12,4C6.2,4,2.3,7.2,1.9,7.5L12,20z"/>
<path id="_x31_" class="st0" d="M12,20l7.9-9.8C19.6,10,16.5,7.5,12,7.5c-4.5,0-7.6,2.5-7.9,2.7L12,20z"/>
<path id="_x32_" class="st0" d="M12,20l5.7-7.1C17.4,12.8,15.3,11,12,11c-3.3,0-5.4,1.8-5.7,1.9L12,20z"/>
<path id="_x33_" class="st0" d="M12,20l3.5-4.3c-0.1-0.1-1.5-1.2-3.5-1.2c-2,0-3.3,1.1-3.5,1.2L12,20z"/>
</svg>
