<svg xmlns="http://www.w3.org/2000/svg" fill-rule="evenodd" stroke-linecap="round" stroke-linejoin="round" stroke-miterlimit="1.5" clip-rule="evenodd" viewBox="0 0 24 24">
  <path id="Base" fill="none" stroke="#757575" stroke-width="1.5"
  d="M1 7.5s7.368 9.713 10.044 13.24c.227.299.581.475.956.475s.729-.176.956-.475C15.632 
  17.213 23 7.5 23 7.5c-5.95-6.371-16.135-6.307-22 0z"/>
  
  <path id="One" fill="none" stroke="#757575" stroke-width="1.5" 
  d="M8.016 16.75s1.849 2.437 3.028 3.99c.227.299.581.475.956.475s.729-.176.956-.475c1.178-1.553 
  3.027-3.99 3.027-3.99-2.244-3.536-5.717-3.51-7.967 0z"/>
  
  <path id="Two" fill="none" stroke="#757575" stroke-width="1.5" 
  d="M5.74 13.75s3.551 4.68 5.304 6.99c.227.299.581.475.956.475s.729-.176.956-.475c1.753-2.31
  5.303-6.99 5.303-6.99-3.194-4.531-9.318-4.513-12.519 0z"/>
  
  <path id="Three" fill="none" stroke="#757575" stroke-width="1.5"
  d="M11.044 20.74c.227.299.581.475.956.475s.729-.176.956-.475c2.266-2.987 
  7.775-10.247 7.775-10.247-4.467-5.007-12.943-5.017-17.457.007
  0 0 5.505 7.255 7.77 10.24z"/>
</svg>