<?xml version="1.0" encoding="UTF-8" standalone="no"?><!DOCTYPE svg PUBLIC "-//W3C//DTD SVG 1.1//EN" "http://www.w3.org/Graphics/SVG/1.1/DTD/svg11.dtd"><svg width="100%" height="100%" viewBox="0 0 24 24" version="1.1" xmlns="http://www.w3.org/2000/svg" xmlns:xlink="http://www.w3.org/1999/xlink" xml:space="preserve" xmlns:serif="http://www.serif.com/" style="fill-rule:evenodd;clip-rule:evenodd;stroke-miterlimit:10;"><path id="Umrandung" d="M0.7,7.7l10.6,13.1c0.4,0.5 1.2,0.5 1.6,0l10.4,-13.1c0.4,-0.4 0.3,-1.1 -0.2,-1.4c-1.8,-1.3 -5.7,-3.6 -11.1,-3.6c-5.4,0 -9.3,2.3 -11.1,3.6c-0.5,0.3 -0.6,1 -0.2,1.4Z" style="fill:none;stroke:#757575;stroke-width:0.8px;"/><path id="_x33__Balken_2_" d="M21.4,10.1c-1,-0.8 -4.4,-3.3 -9.4,-3.3c-5,0 -8.4,2.5 -9.4,3.3" style="fill:none;stroke:#757575;stroke-width:0.8px;"/><path id="_x32__Balken_2_" d="M18.9,13.2c-0.7,-0.6 -3.2,-2.4 -6.9,-2.4c-3.7,0 -6.2,1.9 -6.9,2.4" style="fill:none;stroke:#757575;stroke-width:0.8px;"/><path id="_x31__Balken_1_" d="M16.4,16.4c-0.4,-0.4 -2,-1.5 -4.4,-1.5c-2.3,0 -3.9,1.2 -4.4,1.5" style="fill:none;stroke:#8affe3;stroke-width:0.8px;"/><path id="Help" d="M21.3,21.9l0,0.7m0,-1.7c0,-1.1 0.4,-1.5 0.9,-2l0.7,-0.7c0.4,-0.4 0.7,-0.9 0.7,-1.5c0,-1.2 -0.8,-2.1 -2.1,-2.1c-1.3,0 -2.1,0.9 -2.1,2.1" style="fill:none;stroke:#757575;stroke-width:0.8px;"/><path id="Warning" d="M21.3,20.3l0,-5.7m0,8l0,-1" style="fill:none;stroke:#757575;stroke-width:0.8px;"/></svg>