<?xml version="1.0" encoding="utf-8"?>
<!-- Generator: Adobe Illustrator 21.1.0, SVG Export Plug-In . SVG Version: 6.00 Build 0)  -->
<svg version="1.1" id="Ebene_1" xmlns="http://www.w3.org/2000/svg" xmlns:xlink="http://www.w3.org/1999/xlink" x="0px" y="0px"
	 viewBox="0 0 24 24" style="enable-background:new 0 0 24 24;" xml:space="preserve">
<style type="text/css">
	.st0{fill:none;stroke:#757575;stroke-width:0.8;stroke-miterlimit:10;}
</style>
<path class="st0" d="M5.5,8c-0.6-3.2,0-5.6,1-5.9c0.8-0.2,2.1,1.1,3.2,3 M18.5,8c0.6-3.2,0-5.6-1-5.9c-0.9-0.2-2.2,1.1-3.2,2.9
	 M12,16.4c-0.7,0-1.2,0.5-1.2,1.1c0,0.6,0.5,1.1,1.2,1.1s1.2-0.5,1.2-1.1C13.2,16.9,12.6,16.4,12,16.4z M3.1,16.3L3.1,16.3
	c0.7-2.5,2.6-4.5,5.1-5.6c0.8-0.3,1.6,0.2,1.7,1l0.8,5.8 M13.2,17.5l0.8-5.8c0.1-0.8,1-1.3,1.7-1c2.5,1,4.4,3.1,5.1,5.6 M7.2,13.5
	h1.5 M15.2,13.5h1.5 M3.5,17.2C3.2,16.5,3,15.8,3,15C2.8,9.3,7.4,4.7,12,4.7c4.6,0,9.7,4.6,9,10.8c-0.1,0.5-0.2,1-0.4,1.5l-0.1,0.3
	c-0.3,0.5-0.9,0.7-1.4,0.4l0,0c-0.5-0.3-1.1-0.1-1.4,0.4l-0.5,0.9l-1.4,0.1c-0.5,0.1-0.8,0.4-0.9,0.8c-0.3,1.1-1.5,2-2.8,2
	s-2.5-0.8-2.8-2c-0.2-0.4-0.5-0.8-0.9-0.8l-1.4-0.1l-0.5-0.9c-0.3-0.6-0.9-0.7-1.4-0.4l0,0c-0.5,0.3-1.2,0.1-1.4-0.4L3.5,17.2z"/>
</svg>
