<svg xmlns="http://www.w3.org/2000/svg" fill-rule="evenodd" stroke-linecap="round" stroke-linejoin="round" stroke-miterlimit="1.5" clip-rule="evenodd" viewBox="0 0 24 24">
  <path fill="none" stroke="#757575" stroke-width="1.5" 
  d="M3.861 3.722c-.077-.155-.069-.338.022-.485.091-.147.251-.237.424-.237h6.884c.189 0
  .363.107.447.276.986 1.973 6.96 13.921 8.5 17 .078.155.069.339-.022.487-.091.147-.252.237-.425.237h-6.882c-.189 
  0-.363-.107-.447-.276-.987-1.973-6.963-13.925-8.501-17.002z
  M4 21l4.775-7.45 M14.845 9.69l3.905-6.44"/>
</svg>