<?xml version="1.0" encoding="utf-8"?>
<!-- Generator: Adobe Illustrator 21.1.0, SVG Export Plug-In . SVG Version: 6.00 Build 0)  -->
<svg version="1.1" id="Ebene_1" xmlns="http://www.w3.org/2000/svg" xmlns:xlink="http://www.w3.org/1999/xlink" x="0px" y="0px"
	 viewBox="0 0 35 24" style="enable-background:new 0 0 35 24;" xml:space="preserve">
<style type="text/css">
	.st0{fill:none;stroke:#757575;stroke-width:1.6;stroke-miterlimit:10;}
</style>
<path class="st0" d="M32.7,4.5c-0.5-1.7-1.7-3-3.5-3.1C25.4,1,21.6,1,17.5,1S9.6,1,5.6,1.3C4,1.5,2.6,2.7,2.1,4.5
	C1.8,7.1,1.8,9.8,1.8,12s0,5,0.5,7.5c0.5,1.7,1.7,3,3.5,3.1C9.6,23,13.4,23,17.5,23s7.9,0,11.9-0.5c1.7-0.2,3-1.4,3.5-3.1
	c0.3-2.5,0.3-4.9,0.3-7.4S33.2,7,32.7,4.5z M23.1,11.7l-9.2-5.6c-0.2-0.2-0.5,0-0.5,0.3v11.3c0,0.3,0.3,0.4,0.5,0.3l9.2-5.6
	C23.3,12.1,23.3,11.9,23.1,11.7z"/>
</svg>
