<?xml version="1.0" encoding="UTF-8" standalone="no"?><!DOCTYPE svg PUBLIC "-//W3C//DTD SVG 1.1//EN" "http://www.w3.org/Graphics/SVG/1.1/DTD/svg11.dtd"><svg width="100%" height="100%" viewBox="0 0 24 24" version="1.1" xmlns="http://www.w3.org/2000/svg" xmlns:xlink="http://www.w3.org/1999/xlink" xml:space="preserve" xmlns:serif="http://www.serif.com/" style="fill-rule:evenodd;clip-rule:evenodd;stroke-miterlimit:10;"><path d="M22.185,6.96c-0.315,-1.155 -1.155,-1.995 -2.31,-2.1c-2.625,-0.21 -5.145,-0.21 -7.875,-0.21c-2.73,0 -5.25,0 -7.98,0.21c-1.05,0.105 -1.995,0.945 -2.31,2.1c-0.21,1.785 -0.21,3.57 -0.21,5.04c0,1.47 0,3.36 0.315,5.04c0.315,1.155 1.155,1.995 2.31,2.1c2.625,0.21 5.145,0.21 7.875,0.21c2.73,0 5.25,0 7.98,-0.315c1.155,-0.105 1.995,-0.945 2.31,-2.1c0.21,-1.68 0.21,-3.255 0.21,-4.935c0,-1.68 0,-3.36 -0.315,-5.04Zm-12.285,7.665l0,-5.25c0,-0.21 0.315,-0.42 0.525,-0.315l4.41,2.625c0.21,0.105 0.21,0.42 0,0.525l-4.41,2.625c-0.315,0.21 -0.525,0 -0.525,-0.21Z" style="fill:none;stroke:#757575;stroke-width:0.84px;"/></svg>