<?xml version="1.0" encoding="utf-8"?>
<!-- Generator: Adobe Illustrator 21.1.0, SVG Export Plug-In . SVG Version: 6.00 Build 0)  -->
<svg version="1.1" id="Ebene_1" xmlns="http://www.w3.org/2000/svg" xmlns:xlink="http://www.w3.org/1999/xlink" x="0px" y="0px"
	 viewBox="0 0 24 24" style="enable-background:new 0 0 24 24;" xml:space="preserve">
<style type="text/css">
	.st0{fill:none;stroke:#757575;stroke-width:0.8;stroke-miterlimit:10;}
</style>
<path class="st0" d="M21.7,7.2c-0.3-1.1-1.1-1.9-2.2-2C17,5,14.6,5,12,5S7,5,4.4,5.2c-1,0.1-1.9,0.9-2.2,2C2,8.9,2,10.6,2,12
	s0,3.2,0.3,4.8c0.3,1.1,1.1,1.9,2.2,2C7,19,9.4,19,12,19s5,0,7.6-0.3c1.1-0.1,1.9-0.9,2.2-2C22,15.1,22,13.6,22,12S22,8.8,21.7,7.2z
	 M10,14.5V9.5c0-0.2,0.3-0.4,0.5-0.3l4.2,2.5c0.2,0.1,0.2,0.4,0,0.5l-4.2,2.5C10.2,14.9,10,14.7,10,14.5z"/>
</svg>
