<?xml version="1.0" encoding="utf-8"?>
<!-- Generator: Adobe Illustrator 21.1.0, SVG Export Plug-In . SVG Version: 6.00 Build 0)  -->
<svg version="1.1" id="Ebene_1" xmlns="http://www.w3.org/2000/svg" xmlns:xlink="http://www.w3.org/1999/xlink" x="0px" y="0px"
	 viewBox="0 0 24 24" style="enable-background:new 0 0 24 24;" xml:space="preserve">
<style type="text/css">
	.st0{fill:none;stroke:#757575;stroke-width:0.8;stroke-miterlimit:10;}
</style>
<path id="Youtube" class="st0" d="M21.7,7.2c-0.3-1.1-1.1-1.9-2.2-2C17,5,14.6,5,12,5S7,5,4.4,5.2c-1,0.1-1.9,0.9-2.2,2
	C2,8.9,2,10.6,2,12s0,3.2,0.3,4.8c0.3,1.1,1.1,1.9,2.2,2C7,19,9.4,19,12,19s5,0,7.6-0.3c1.1-0.1,1.9-0.9,2.2-2
	C22,15.1,22,13.6,22,12C22,10.4,22,8.8,21.7,7.2z M9.4,15.2c0-2.3,0-4.3,0-6.7c2.2,1.1,4.2,2.3,6.3,3.3C13.7,12.9,11.6,14,9.4,15.2z
	"/>
</svg>
