<?xml version="1.0" encoding="utf-8"?>
<!-- Generator: Adobe Illustrator 21.1.0, SVG Export Plug-In . SVG Version: 6.00 Build 0)  -->
<svg version="1.1" id="Ebene_1" xmlns="http://www.w3.org/2000/svg" xmlns:xlink="http://www.w3.org/1999/xlink" x="0px" y="0px"
	 viewBox="0 0 24 24" style="enable-background:new 0 0 24 24;" xml:space="preserve">
<style type="text/css">
	.st0{fill:none;stroke:#757575;stroke-width:0.8;stroke-miterlimit:10;}
</style>
<path class="st0" d="M16.4,21.9H7.6c-0.6,0-1-0.4-1-1v-8.8c0-0.6,0.4-1,1-1h8.8c0.5,0,1,0.4,1,1v8.8C17.4,21.5,17,21.9,16.4,21.9z
	 M6.6,18.5c-2.1-1.6-3.5-4.2-3.5-7.1c0-4.9,4-8.9,8.9-8.9s8.9,4,8.9,8.9c0,2.9-1.4,5.5-3.5,7.1 M8.3,8.5h7.4 M10.1,6h3.7"/>
</svg>
