<?xml version="1.0" encoding="utf-8"?>
<!-- Generator: Adobe Illustrator 21.1.0, SVG Export Plug-In . SVG Version: 6.00 Build 0)  -->
<svg version="1.1" id="Ebene_1" xmlns="http://www.w3.org/2000/svg" xmlns:xlink="http://www.w3.org/1999/xlink" x="0px" y="0px"
	 viewBox="0 0 24 24" style="enable-background:new 0 0 24 24;" xml:space="preserve">
<style type="text/css">
	.st0{fill:none;stroke:#757575;stroke-miterlimit:10;}
	.st1{display:none;fill:none;stroke:#757575;stroke-miterlimit:10;}
	.st2{display:none;fill:none;stroke:#757575;stroke-width:0.8;}
	.st3{fill:none;stroke:#757575;stroke-width:0.8;stroke-miterlimit:10;}
</style>
<path id="Kreis" class="st0" d="M21.6,12c0,5.3-4.3,9.6-9.6,9.6S2.4,17.3,2.4,12S6.7,2.4,12,2.4S21.6,6.7,21.6,12z"/>
<path id="Clock" class="st1" d="M7.4,12.1l1.6-4c0.1-0.2,0.2-0.4,0.4-0.6c0.7-0.7,1.8-0.7,2.6,0c0.7,0.7,0.7,1.8,0,2.6
	c-0.2,0.2-0.4,0.3-0.6,0.4L7.4,12.1z M14.9,16l1.7-4l-4,1.7l0,0c-0.2,0.1-0.4,0.2-0.6,0.4c-0.7,0.7-0.7,1.8,0,2.6
	c0.7,0.7,1.8,0.7,2.6,0C14.7,16.4,14.8,16.2,14.9,16L14.9,16z"/>
<path id="CounterClock" class="st1" d="M12.6,10.4c-0.2-0.1-0.4-0.2-0.6-0.4c-0.7-0.7-0.7-1.8,0-2.6c0.7-0.7,1.8-0.7,2.6,0
	c0.2,0.2,0.3,0.4,0.4,0.6l1.6,4L12.6,10.4z M9.1,15.9c0.1,0.2,0.2,0.4,0.4,0.6c0.7,0.7,1.8,0.7,2.6,0c0.7-0.7,0.7-1.8,0-2.6
	c-0.2-0.2-0.4-0.3-0.6-0.4l0,0l-4-1.7L9.1,15.9L9.1,15.9z"/>
<path id="DoubleTap" class="st1" d="M14,12c0,1.1-0.9,2-2,2s-2-0.9-2-2s0.9-2,2-2S14,10.9,14,12z M8.1,15.9c-1-1-1.6-2.4-1.6-3.9
	s0.6-2.9,1.6-3.9 M15.9,8.1c1,1,1.6,2.4,1.6,3.9s-0.6,2.9-1.6,3.9"/>
<path id="Down" class="st1" d="M12,14.8l-1.6-4c-0.1-0.2-0.2-0.5-0.2-0.7c0-1,0.8-1.8,1.8-1.8S13.8,9,13.8,10c0,0.3-0.1,0.5-0.2,0.7
	L12,14.8z"/>
<path id="home" class="st2" d="M17,11.7l-4.8-4.4c-0.1-0.1-0.3-0.1-0.4,0L7,11.7 M8.3,10.4v5c0,0.1,0.1,0.3,0.3,0.3h6.8
	c0.1,0,0.3-0.1,0.3-0.3v-5"/>
<path id="PinchIn" class="st1" d="M7.3,16.7l1.6-4c0.1-0.2,0.2-0.4,0.4-0.6c0.7-0.7,1.8-0.7,2.6,0s0.7,1.8,0,2.6
	c-0.2,0.2-0.4,0.3-0.6,0.4L7.3,16.7z M16.7,7.3l-1.6,4c-0.1,0.2-0.2,0.4-0.4,0.6c-0.7,0.7-1.8,0.7-2.6,0s-0.7-1.8,0-2.6
	c0.2-0.2,0.4-0.3,0.6-0.4L16.7,7.3z"/>
<path id="PinchOut" class="st1" d="M12.3,11.7l1.6-4c0.1-0.2,0.2-0.4,0.4-0.6c0.7-0.7,1.8-0.7,2.6,0c0.7,0.7,0.7,1.8,0,2.6
	c-0.2,0.2-0.4,0.3-0.6,0.4L12.3,11.7z M11.7,12.3l-1.6,4c-0.1,0.2-0.2,0.4-0.4,0.6c-0.7,0.7-1.8,0.7-2.6,0c-0.7-0.7-0.7-1.8,0-2.6
	c0.2-0.2,0.4-0.3,0.6-0.4L11.7,12.3z"/>
<path id="TwoDown" class="st1" d="M15.5,14.8l-1.6-4c-0.1-0.2-0.2-0.5-0.2-0.7c0-1,0.8-1.8,1.8-1.8S17.3,9,17.3,10
	c0,0.3-0.1,0.5-0.2,0.7L15.5,14.8z M8.5,14.8l-1.6-4c-0.1-0.2-0.2-0.5-0.2-0.7c0-1,0.8-1.8,1.8-1.8S10.3,9,10.3,10
	c0,0.3-0.1,0.5-0.2,0.7L8.5,14.8z"/>
<path id="TwoUp" class="st1" d="M17.2,13.2c0.1,0.2,0.2,0.5,0.2,0.7c0,1-0.8,1.8-1.8,1.8S13.7,15,13.7,14c0-0.3,0.1-0.5,0.2-0.7
	l1.6-4L17.2,13.2z M10.2,13.2c0.1,0.2,0.2,0.5,0.2,0.7c0,1-0.8,1.8-1.8,1.8S6.7,15,6.7,14c0-0.3,0.1-0.5,0.2-0.7l1.6-4L10.2,13.2z"
	/>
<path id="Up" class="st1" d="M13.7,13.2c0.1,0.2,0.2,0.5,0.2,0.7c0,1-0.8,1.8-1.8,1.8S10.2,15,10.2,14c0-0.3,0.1-0.5,0.2-0.7l1.6-4
	L13.7,13.2z"/>
<path id="Mic" class="st3" d="M12,14.6v1.9 M10.6,11.8V8.9c0-0.8,0.7-1.4,1.4-1.4s1.4,0.6,1.4,1.4v2.8c0,0.8-0.6,1.4-1.4,1.4
	S10.6,12.5,10.6,11.8z M8.9,11.5c0,1.7,1.4,3.1,3.1,3.1s3.1-1.4,3.1-3.1"/>
</svg>
