<?xml version="1.0" encoding="utf-8"?>
<!-- Generator: Adobe Illustrator 21.1.0, SVG Export Plug-In . SVG Version: 6.00 Build 0)  -->
<svg version="1.1" id="Ebene_1" xmlns="http://www.w3.org/2000/svg" xmlns:xlink="http://www.w3.org/1999/xlink" x="0px" y="0px"
	 viewBox="0 0 24 24" style="enable-background:new 0 0 24 24;" xml:space="preserve">
<style type="text/css">
	.st0{fill:none;stroke:#757575;stroke-width:0.8;stroke-miterlimit:10;}
</style>
<path class="st0" d="M7.6,8.8c0.6,0,1,0.4,1,1s-0.4,1-1,1s-1-0.4-1-1S7.1,8.8,7.6,8.8z M11,9.8c0,0.6,0.4,1,1,1s1-0.4,1-1
	s-0.4-1-1-1S11,9.2,11,9.8z M15.4,9.8c0,0.6,0.4,1,1,1c0.5,0,1-0.4,1-1s-0.5-1-1-1C15.8,8.8,15.4,9.2,15.4,9.8z M7.6,13.3
	c0.6,0,1,0.4,1,1s-0.4,1-1,1s-1-0.4-1-1S7.1,13.3,7.6,13.3z M11,14.3c0,0.6,0.4,1,1,1s1-0.4,1-1s-0.4-1-1-1S11,13.7,11,14.3z
	 M15.4,14.3c0,0.6,0.4,1,1,1c0.5,0,1-0.4,1-1s-0.5-1-1-1C15.8,13.3,15.4,13.7,15.4,14.3z M12,2.4c-5.3,0-9.6,4.3-9.6,9.6
	s4.3,9.6,9.6,9.6s9.6-4.3,9.6-9.6S17.3,2.4,12,2.4z"/>
</svg>
