<?xml version="1.0" encoding="utf-8"?>
<!-- Generator: Adobe Illustrator 21.1.0, SVG Export Plug-In . SVG Version: 6.00 Build 0)  -->
<svg version="1.1" id="Ebene_1" xmlns="http://www.w3.org/2000/svg" xmlns:xlink="http://www.w3.org/1999/xlink" x="0px" y="0px"
	 viewBox="0 0 24 24" style="enable-background:new 0 0 24 24;" xml:space="preserve">
<style type="text/css">
	.st0{fill:none;stroke:#757575;stroke-width:0.8;stroke-miterlimit:10;}
</style>
<path id="Download" class="st0" d="M11.9,12.1L12,5.1 M7.2,12l4.8,5.8l4.8-5.8L7.2,12z"/>
<path id="Close" class="st0" d="M7.5,7.5l9,9 M7.5,16.5l9-9"/>
<path id="Reload" class="st0" d="M14.6,10.3l3,1l1-3.1L14.6,10.3z M17.1,13.8c-1,3.2-4.3,4.9-7.5,4c-3.1-1-4.9-4.3-3.9-7.5
	s4.3-4.9,7.5-4c1.5,0.5,2.8,1.6,3.5,2.9"/>
<path id="Pause" class="st0" d="M8,17h2c0.2,0,0.2-0.1,0.2-0.2V7.2C10.2,7.1,10.1,7,10,7H8C7.8,7,7.8,7.1,7.8,7.2v9.5
	C7.8,16.9,7.8,17,8,17z M14,17h2c0.2,0,0.2-0.1,0.2-0.2V7.2C16.2,7.1,16.2,7,16,7h-2c-0.2,0-0.2,0.1-0.2,0.2v9.5
	C13.8,16.9,13.9,17,14,17z"/>
<path id="Play" class="st0" d="M9.3,7.4v9.3c0,0.3,0.3,0.5,0.6,0.3l7.3-4.6c0.2-0.2,0.2-0.5,0-0.6L9.9,7.1C9.6,6.9,9.3,7.1,9.3,7.4z
	"/>
</svg>
