<?xml version="1.0" encoding="utf-8"?>
<!-- Generator: Adobe Illustrator 21.1.0, SVG Export Plug-In . SVG Version: 6.00 Build 0)  -->
<svg version="1.1" id="Ebene_1" xmlns="http://www.w3.org/2000/svg" xmlns:xlink="http://www.w3.org/1999/xlink" x="0px" y="0px"
	 viewBox="0 0 24 24" style="enable-background:new 0 0 24 24;" xml:space="preserve">
<style type="text/css">
	.st0{fill:none;stroke:#757575;stroke-width:0.8;stroke-miterlimit:10;}
</style>
<path class="st0" d="M3.4,5.4v13.2c0,1.1,0.9,2,2,2h13.2c1.1,0,2-0.9,2-2V5.4c0-1.1-0.9-2-2-2H5.4C4.3,3.4,3.4,4.3,3.4,5.4z
	 M10,10.5H8c-0.3,0-0.5-0.2-0.5-0.5V8c0-0.3,0.2-0.5,0.5-0.5h2c0.3,0,0.5,0.2,0.5,0.5v2C10.5,10.3,10.3,10.5,10,10.5z M16,10.5h-2
	c-0.3,0-0.5-0.2-0.5-0.5V8c0-0.3,0.2-0.5,0.5-0.5h2c0.3,0,0.5,0.2,0.5,0.5v2C16.5,10.3,16.3,10.5,16,10.5z M16,16.5h-2
	c-0.3,0-0.5-0.2-0.5-0.5v-2c0-0.3,0.2-0.5,0.5-0.5h2c0.3,0,0.5,0.2,0.5,0.5v2C16.5,16.3,16.3,16.5,16,16.5z M10,16.5H8
	c-0.3,0-0.5-0.2-0.5-0.5v-2c0-0.3,0.2-0.5,0.5-0.5h2c0.3,0,0.5,0.2,0.5,0.5v2C10.5,16.3,10.3,16.5,10,16.5z"/>
</svg>
