<?xml version="1.0" encoding="utf-8"?>
<!-- Generator: Adobe Illustrator 21.1.0, SVG Export Plug-In . SVG Version: 6.00 Build 0)  -->
<svg version="1.1" id="O" xmlns="http://www.w3.org/2000/svg" xmlns:xlink="http://www.w3.org/1999/xlink" x="0px" y="0px"
	 viewBox="0 0 24 24" style="enable-background:new 0 0 24 24;" xml:space="preserve">
<style type="text/css">
	.st0{opacity:0.4;fill:none;stroke:#FF5715;stroke-width:0.1;stroke-miterlimit:10;enable-background:new    ;}
	.st1{opacity:0.4;fill:none;stroke:#FF001C;stroke-width:0.1;stroke-miterlimit:10;enable-background:new    ;}
	.st2{opacity:0.4;fill:none;stroke:#3000F4;stroke-width:0.1;stroke-miterlimit:10;enable-background:new    ;}
	.st3{opacity:0.4;fill:none;stroke:#64FF15;stroke-width:0.1;stroke-miterlimit:10;enable-background:new    ;}
	.st4{display:none;fill:none;stroke:#E83C66;stroke-width:0.6;stroke-miterlimit:10;}
	.st5{display:none;}
	.st6{display:inline;fill:none;stroke:#65B32E;stroke-width:0.8;stroke-miterlimit:10;}
	.st7{display:inline;fill:none;stroke:#000000;stroke-width:0.8;stroke-miterlimit:10;}
	.st8{display:inline;}
	.st9{fill:none;stroke:#FF1F6B;stroke-width:0.6;stroke-miterlimit:10;}
	.st10{fill:none;stroke:#000000;stroke-width:0.8;stroke-miterlimit:10;}
	.st11{display:inline;fill:none;stroke:#010202;stroke-width:0.8;stroke-miterlimit:10;}
	.st12{display:inline;fill:none;stroke:#000000;stroke-width:0.6;stroke-miterlimit:10;}
	.st13{display:inline;fill:none;stroke:#010202;stroke-width:0.6;stroke-miterlimit:10;}
	.st14{display:none;fill:none;stroke:#000000;stroke-width:0.8;stroke-miterlimit:10;}
	.st15{display:none;fill:none;stroke:#6AFFCB;stroke-width:0.8;stroke-miterlimit:10;}
	.st16{display:none;fill:none;stroke:#010202;stroke-width:0.8;stroke-miterlimit:10;}
	.st17{display:inline;fill:none;stroke:#FFA24A;stroke-width:0.8;stroke-miterlimit:10;}
	.st18{display:inline;fill:none;stroke:#9FFFB7;stroke-width:0.8;stroke-miterlimit:10;}
	.st19{display:inline;fill:none;stroke:#00FF00;stroke-width:0.8;stroke-miterlimit:10;}
	.st20{display:none;fill:none;stroke:#90C99A;stroke-width:0.8;stroke-miterlimit:10;}
	.st21{display:none;fill:none;stroke:#FF0066;stroke-width:0.8;stroke-miterlimit:10;}
	.st22{display:none;fill:none;stroke:#000000;stroke-width:0.6;stroke-miterlimit:10;}
	.st23{fill:none;stroke:#010202;stroke-width:0.8;stroke-miterlimit:10;}
	.st24{fill:none;stroke:#3FFF95;stroke-width:0.8;stroke-miterlimit:10;}
	.st25{fill:none;stroke:#6AFF8B;stroke-width:0.8;stroke-miterlimit:10;}
	.st26{fill:none;stroke:#EE760E;stroke-width:0.8;stroke-miterlimit:10;}
	.st27{display:inline;fill:none;stroke:#6AFF8B;stroke-width:0.8;stroke-miterlimit:10;}
	.st28{fill:none;stroke:#00FF32;stroke-width:0.8;stroke-miterlimit:10;}
	.st29{fill:none;stroke:#98CD7B;stroke-width:0.8;stroke-miterlimit:10;}
	.st30{display:inline;fill:none;stroke:#35FF79;stroke-width:0.8;stroke-miterlimit:10;}
	.st31{display:inline;fill:none;stroke:#FF0033;stroke-width:0.8;stroke-miterlimit:10;}
	.st32{display:inline;fill:none;stroke:#BF0005;stroke-width:0.8;stroke-miterlimit:10;}
	.st33{display:inline;fill:none;stroke:#ED2227;stroke-width:0.8;stroke-miterlimit:10;}
</style>
<g id="Grid_1_">
	<g id="Grid__x26__Raster">
		<g id="Grid">
			<g id="Horizontal_Rectangle">
			</g>
		</g>
		<path class="st0" d="M19,21H5c-1.1,0-2-0.9-2-2V5c0-1.1,0.9-2,2-2h14c1.1,0,2,0.9,2,2v14C21,20.1,20.1,21,19,21z"/>
	</g>
	<path class="st1" d="M20,4v16c0,1.1-0.9,2-2,2H6c-1.1,0-2-0.9-2-3V3c0-0.1,0.9-1,2-1h12C19.1,2,20,2.9,20,4z"/>
	<path class="st2" d="M20,20H4c-1.1,0-2-0.9-2-2V6c0-1.1,0.9-2,2-2h16c1.1,0,2,0.9,2,2v12C22,19.1,21.1,20,20,20z"/>
	<circle class="st3" cx="12" cy="12" r="10"/>
</g>
<path id="Support" class="st4" d="M12,2C6.4,2,2,6.4,2,12s4.4,10,10,10s10-4.4,10-10S17.6,2,12,2z M12,16.7v0.9 M9.1,9.3
	c0-1.8,1.2-2.9,2.9-2.9s2.9,1.3,2.9,2.9c0,0.8-0.3,1.7-0.8,2.2l-0.8,0.8C12.6,13,12,13.8,12,15.1"/>
<g id="System_1_" class="st5">
	<path id="Restore" class="st6" d="M12,8v4.6l3.7,2.4 M1,12l3,3l3-3H1z M4,12c0-2,0.8-4.1,2.3-5.7c3.1-3.1,8.2-3.1,11.3,0
		s3.1,8.2,0,11.3s-8.2,3.1-11.3,0"/>
	<path id="Update" class="st7" d="M16.2,2H7.4c-1,0-1.9,0.7-1.9,1.8v16.3c0,1,0.8,1.9,1.9,1.9h9.1c1,0,1.9-0.8,1.9-1.9V3.8
		C18.2,2.7,17.3,2,16.2,2z M11.9,7.8V16 M15.5,12.5L11.9,16l-3.6-3.6"/>
	<g id="Entwickler_1_" class="st8">
		<path id="RAM" class="st9" d="M16.3,18.3H7.7c-1.1,0-2-0.9-2-2V7.7c0-1.1,0.9-2,2-2h8.6c1.1,0,2,0.9,2,2v8.6
			C18.3,17.4,17.4,18.3,16.3,18.3z M9.4,5.7V2.5 M14.6,5.7V2.5 M14.6,21.5v-3.2 M9.4,21.5v-3.2 M2.5,9.4h3.2 M5.7,14.6H2.5
			 M21.5,14.6h-3.2 M21.5,9.4h-3.2 M14.1,9.9H9.9v4.2h4.2C14.1,14.1,14.1,9.9,14.1,9.9z"/>
		<path id="Entwickler" class="st10" d="M9.1,15.2L5.8,12L9,8.8 M14.9,8.8l3.2,3.2l-3.2,3.2 M18.4,7.5V3.8c-0.2-1-1.2-1.8-2.2-1.8
			H7.4c-1,0-1.9,0.7-1.9,1.8v3.7 M5.6,16.5v3.6c0,1,0.8,1.9,1.9,1.9h9.1c1,0,1.9-0.8,1.9-1.9v-3.6"/>
	</g>
	<path id="Sicherung" class="st11" d="M12,9.5v7 M8,13l4-3.5l4,3.5 M1.5,13.8c0,2.9,2.4,5.1,5.3,5.1h11.3c2.4,0,4.4-1.9,4.4-4.4
		c0-2.1-1.9-4-4.1-4.2c-0.6-3-3.3-5.2-6.4-5.2c-2.5,0-4.7,1.5-5.8,3.6C3.6,9,1.5,11.2,1.5,13.8"/>
	<path id="Uhr" class="st12" d="M12,2C6.4,2,2,6.4,2,12s4.4,10,10,10s10-4.4,10-10S17.6,2,12,2z M16.6,15.6L12,12V6.4"/>
	<path id="Sprachen" class="st13" d="M22,20.6L17.9,9.8H16l-4,10.8 M13.9,15.2H20 M6.2,7.9C6.9,9.6,7.9,10.5,9,12l-5.2,5.2 M2,5.2
		h14.6 M9.2,3.4v1.9 M9.1,12c2.2-2.2,3.4-4.6,4.2-6.7 M9.1,12l3.3,3.2"/>
	<path id="Info" class="st11" d="M11.9,9.1V7.4 M11.9,16.3v-5.4 M18.4,20V4c0-1.1-0.9-2-2-2H7.6c-1.1,0-2,0.9-2,2v16
		c0,1.1,0.9,2,2,2h8.9C17.5,22,18.4,21.1,18.4,20z"/>
</g>
<path id="Bedienungshilfen" class="st14" d="M12.7,7.9L12.7,7.9 M9.7,13.1c-2.4,0-4.4,2-4.4,4.4s2,4.4,4.4,4.4s4.4-2,4.4-4.4
	 M18.8,11.7c-1.6,0-4-0.9-5.3-3c-0.4-0.6-1-1-1.8-1c-1.2,0-2.1,0.9-2.1,2.1v5.9c0,1.1,0.9,2,2,2h5V22 M11.7,2
	c-1.2,0-2.1,0.9-2.1,2.1s0.9,2.1,2.1,2.1s2.1-0.9,2.1-2.1S12.9,2,11.7,2z"/>
<path id="Benutzer" class="st15" d="M12,11.2c1.1,0,2-0.9,2-2s-0.9-2-2-2s-2,0.9-2,2S10.9,11.2,12,11.2z M17,15.8
	c0-1.7-3.3-2.4-5-2.4s-5,0.9-5,2.4 M12,2C6.4,2,2,6.4,2,12s4.4,10,10,10s10-4.4,10-10S17.6,2,12,2z"/>
<path id="Security" class="st16" d="M12,2L3.8,5.6v5.5c0,5.1,3.5,9.8,8.2,10.9c4.7-1.2,8.2-5.9,8.2-10.9V5.6L12,2z M12,21.9v-10H3.8
	 M12,2.1v9.8h8.2"/>
<g id="Speicher" class="st5">
	<path id="Dateien" class="st7" d="M20,6h-8l-2-2H4C2.9,4,2,4.9,2,6v12c0,1.1,0.9,2,2,2h16c1.1,0,2-0.9,2-2V8C22,6.9,21.1,6,20,6z"
		/>
	<path id="Weitere_Apps" class="st17" d="M12,2.5c-4.8,0-8.7,1.9-8.7,4.3s3.8,4.3,8.7,4.3s8.7-1.9,8.7-4.3S16.8,2.5,12,2.5 M20.7,12
		c0,2.4-3.8,4.3-8.7,4.3s-8.7-2-8.7-4.3 M20.7,17.2c0,2.4-3.8,4.3-8.7,4.3s-8.7-1.9-8.7-4.3"/>
	<path id="Filme" class="st18" d="M6.5,4l2,4 M11.5,4l2,4 M16.5,4l2,4 M4,4C2.9,4,2,4.9,2,6v12c0,1.1,0.9,2,2,2h16c1.1,0,2-0.9,2-2
		V4H4z"/>
	<path id="Spiele" class="st19" d="M15,15.5l3.3,3.3c0,0,0.8,0.7,1.5,0.7c1.3,0,2.2-1,2.2-2.2l-1.5-8.8c-0.3-2.3-2.3-4-4.6-4H8.1
		c-2.3,0-4.3,1.7-4.6,4L2,17.3c0,1.2,0.8,2.2,2.2,2.2c0.7,0,1.5-0.7,1.5-0.7L9,15.5H15z"/>
	<path id="Bilder" class="st7" d="M21,19V5c0-1.1-0.9-2-2-2H5C3.9,3,3,3.9,3,5v14c0,1.1,0.9,2,2,2h14C20.1,21,21,20.1,21,19z
		 M3.8,20.6l4.7-6.1l2.5,3l3.5-4.5l5.7,7.6"/>
	<path id="Storage" class="st7" d="M18,2h-8L4,8v12c0,1.2,0.9,2,2,2h12c1.2,0,2-0.9,2-2V4C20,2.8,19.1,2,18,2z M10.9,4v4 M14,4v4
		 M17.1,4v4"/>
</g>
<path id="Sound" class="st20" d="M14.2,17.6c0,2.5-2,4.4-4.4,4.4s-4.4-2-4.4-4.4c0-2.5,2-4.4,4.4-4.4S14.2,15.1,14.2,17.6z M18.6,2
	h-4.4v15.7"/>
<path id="Display" class="st21" d="M8.9,18.8v2.1c0,0.5,0.4,1.1,1.1,1.1h4.2c0.6,0,1.1-0.5,1.1-1.1v-2.1 M11.9,2
	C7.8,2,4.6,5.3,4.6,9.4c0,2.5,1.3,4.7,3.2,6.1v2.3c0,0.5,0.4,1.1,1.1,1.1h6.4c0.6,0,1.1-0.5,1.1-1.1v-2.4c2-1.4,3.2-3.6,3.2-6.1
	C19.3,5.3,16.2,2,11.9,2z"/>
<path id="Battery" class="st22" d="M12.8,7l-2.2,5.5h2.7l-2.2,5.7 M14,2h-4v2H9C7.9,4,7,4.9,7,6v14c0,1.1,0.9,2,2,2h6
	c1.1,0,2-0.9,2-2V6c0-1.1-0.9-2-2-2h-1V2z"/>
<g id="Apps_und_Benachrichtigungen">
	<path id="Benachrichtigungen" class="st23" d="M10,19.3c0,1.1,0.9,2,2,2s2-0.9,2-2 M18,16.3v-5c0-3.1-1.6-5.6-4.5-6.3V4.3
		c0-0.8-0.7-1.5-1.5-1.5s-1.5,0.7-1.5,1.5V5C7.6,5.6,6,8.2,6,11.3v5l-2,2v1h16v-1L18,16.3z"/>
	<path id="Standard_Apps" class="st24" d="M18.4,11.4H5.6 M5.6,10v5.6c0,3.6,2.8,6.4,6.4,6.4s6.4-2.8,6.4-6.4V10 M9.3,9.1
		c-0.5,0-0.9-0.4-0.9-0.9s0.4-0.9,0.9-0.9s0.9,0.4,0.9,0.9S9.8,9.1,9.3,9.1z M14.7,9.1c-0.5,0-0.9-0.4-0.9-0.9s0.4-0.9,0.9-0.9
		s0.9,0.4,0.9,0.9S15.3,9.1,14.7,9.1z M5.6,10c0-3.6,2.8-6.4,6.4-6.4s6.4,2.8,6.4,6.4 M7.6,2l1.6,2.2 M16.4,2l-1.6,2.2"/>
	<path id="Apps" class="st25" d="M5,2l2.2,3.8 M19,2l-2.2,3.8 M9.1,9.8c0,0.7-0.6,1.3-1.3,1.3s-1.3-0.6-1.3-1.3S7,8.4,7.7,8.4
		C8.5,8.4,9.1,9,9.1,9.8z M16.3,8.4C15.6,8.4,15,9,15,9.7s0.6,1.3,1.3,1.3c0.7,0,1.3-0.6,1.3-1.3S17,8.4,16.3,8.4z M21.6,20v-4.9
		H2.4V20c0,1.1,0.9,2,2,2h15.1C20.7,22,21.6,21.1,21.6,20z M21.6,15.1V14c0-5.3-4.3-9.6-9.6-9.6S2.4,8.7,2.4,14c0,1.1,0,1.1,0,1.1"
		/>
</g>
<g id="Geräte" class="st5">
	<path id="Drucker" class="st10" d="M18.3,8.4H5.7C4.1,8.4,3,9.6,3,11.1v5.4h3.6V20h10.8v-3.6H21V11C21,9.6,19.7,8.4,18.3,8.4z
		 M8.4,13.9h7.2 M17.4,8.4V3.8H12H6.6v4.5"/>
	<path id="Usb" class="st26" d="M13.8,20.2c0,0.9-0.7,1.8-1.8,1.8s-1.8-0.7-1.8-1.8c0-0.9,0.7-1.8,1.8-1.8S13.8,19.3,13.8,20.2z
		 M7.3,7.7c-0.9,0-1.8,0.7-1.8,1.7c0,0.9,0.7,1.8,1.8,1.8s1.8-0.7,1.8-1.8S8.1,7.7,7.3,7.7z M18.5,7.9h-2.9v2.9h2.9V7.9z M12.1,2
		v16.5 M9.2,4.9L12.1,2L15,4.9 M7.3,10.9v3.5h9.8v-3.5"/>
	<path id="Beam" class="st27" d="M5.1,7.3l2.2,3.8 M18.9,7.3l-2.2,3.8 M21.5,20.3v-1.1c0-5.2-4.3-9.5-9.5-9.5S2.5,14,2.5,19.2
		c0,1.1,0,1.1,0,1.1H21.5z M16,13.5c-0.7,0-1.2,0.6-1.2,1.2c0,0.7,0.6,1.2,1.2,1.2c0.7,0,1.2-0.6,1.2-1.2C17.2,14,16.6,13.5,16,13.5
		z M8,13.5c-0.7,0-1.2,0.6-1.2,1.2C6.8,15.4,7.4,16,8,16c0.7,0,1.2-0.6,1.2-1.2C9.3,14,8.7,13.5,8,13.5z M16.7,5
		c-1.4-0.8-3-1.2-4.7-1.2c-1.8,0-3.4,0.5-4.8,1.3 M16.7,8c-1.4-0.8-3-1.2-4.7-1.2c-1.8,0-3.4,0.5-4.8,1.3"/>
	<path id="NFC" class="st28" d="M11.9,7v3.5 M12,10.5c-0.9,0-1.5,0.7-1.5,1.5s0.7,1.5,1.5,1.5s1.5-0.7,1.5-1.5S12.9,10.5,12,10.5z
		 M17,15V9c0-1.1-0.9-2-2-2H9C7.9,7,7,7.9,7,9v6c0,1.1,0.9,2,2,2h6C16.1,17,17,16.1,17,15z M21,19V5c0-1.1-0.9-2-2-2H5
		C3.9,3,3,3.9,3,5v14c0,1.1,0.9,2,2,2h14C20.1,21,21,20.1,21,19z"/>
	<path id="Cast" class="st10" d="M2,17.5c1.5,0,2.7,1.2,2.7,2.7 M8.4,20.2c0-3.5-2.8-6.4-6.4-6.4 M12,20.2c0-5.5-4.5-10-10-10
		 M13.8,20.2h6.4c1,0,1.8-0.8,1.8-1.8V5.6c0-1-0.8-1.8-1.8-1.8H3.8C2.8,3.8,2,4.6,2,5.6v2.7"/>
	<path id="Bluetooth" class="st10" d="M6.5,6.5l11.1,11.1L11.9,22V2l5.5,4.5l-10.9,11"/>
	<path id="Geräte_1_" class="st29" d="M1,17.9h13.1 M22.6,5.3H5.7c-1.1,0-1.9,0.9-1.9,1.9V18 M22.1,8.8h-5c-0.4,0-0.9,0.4-0.9,0.9
		v8.1c0,0.4,0.4,0.9,0.9,0.9h5c0.4,0,0.9-0.4,0.9-0.9V9.7C23,9.1,22.6,8.8,22.1,8.8z"/>
</g>
<g id="Netzwerk" class="st5">
	<path id="Airplane" class="st7" d="M15.9,21L12,19 M12,3v16l-3.9,2 M9.6,10.7l-7.1,3.9 M21.5,14.6l-7.1-3.9"/>
	<path id="VPN" class="st30" d="M12.6,10.2c-0.7-2.1-2.7-3.7-5.1-3.7c-3,0-5.4,2.4-5.4,5.4s2.4,5.4,5.4,5.4c2.4,0,4.4-1.5,5.1-3.7h4
		v3.7h3.7v-3.7h1.8V9.9L12.6,10.2L12.6,10.2z M7.5,13.8c-1,0-1.8-0.7-1.8-1.8s0.8-1.8,1.8-1.8S9.3,11,9.3,12S8.4,13.8,7.5,13.8z"/>
	<path id="Hotspot" class="st31" d="M15,12c0,1.7-1.3,3-3,3s-3-1.3-3-3s1.3-3,3-3S15,10.3,15,12z M16.6,16.5
		c1.2-1.2,1.9-2.8,1.9-4.6c0-3.6-2.9-6.5-6.5-6.5s-6.5,2.9-6.5,6.5c0,1.8,0.7,3.4,1.9,4.6 M19.1,19.1c1.8-1.8,2.9-4.3,2.9-7.1
		c0-5.5-4.5-10-10-10S2,6.5,2,12c0,2.8,1.1,5.3,2.9,7.1"/>
	<path id="Datenverbrauch" class="st32" d="M20,18.1c-1.8,2.4-4.7,3.9-8,3.9C6.5,22,2,17.5,2,12c0-5.1,3.9-9.3,8.8-9.9 M21.2,15.9
		c0.5-1.2,0.8-2.5,0.8-3.9c0-5.1-3.9-9.3-8.8-9.9"/>
	<path id="Mobiles_Netzwerk" class="st12" d="M13,21V11 M3,21h18V3L3,21z"/>
	<path id="WLAN" class="st33" d="M18.3,12.2C18.1,12,15.6,10,12,10s-6.1,2-6.3,2.2 M12,20L22.1,7.5C21.8,7.2,17.8,4,12,4
		S2.2,7.3,1.9,7.6L12,20L12,20L12,20z"/>
</g>
</svg>
