<?xml version="1.0" encoding="utf-8"?>
<!-- Generator: Adobe Illustrator 21.1.0, SVG Export Plug-In . SVG Version: 6.00 Build 0)  -->
<svg version="1.1" id="Ebene_1" xmlns="http://www.w3.org/2000/svg" xmlns:xlink="http://www.w3.org/1999/xlink" x="0px" y="0px"
	 viewBox="0 0 24 24" style="enable-background:new 0 0 24 24;" xml:space="preserve">
<style type="text/css">
	.st0{display:none;fill:none;stroke:#757575;stroke-width:0.8;stroke-miterlimit:10;}
	.st1{fill:none;stroke:#757575;stroke-width:0.8;stroke-miterlimit:10;}
</style>
<path id="Back" class="st0" d="M18.3,21.3L4.6,12.9c-0.7-0.4-0.7-1.4,0-1.9l13.7-8.4c0.7-0.4,1.7,0.1,1.7,0.9v16.8
	C19.9,21.3,19,21.8,18.3,21.3z"/>
<path id="Home" class="st0" d="M21.5,12c0,5.2-4.3,9.5-9.5,9.5S2.5,17.2,2.5,12S6.8,2.5,12,2.5S21.5,6.8,21.5,12z"/>
<path id="Recents" class="st0" d="M20,21H4c-0.5,0-1-0.5-1-1V4c0-0.5,0.5-1,1-1h16c0.5,0,1,0.5,1,1v16C21,20.5,20.5,21,20,21z"/>
<path id="BackIME" class="st0" d="M21.3,5.7l-8.4,13.7c-0.4,0.7-1.4,0.7-1.9,0L2.7,5.7C2.2,5,2.7,4.1,3.6,4.1h16.8
	C21.3,4.1,21.8,5,21.3,5.7z"/>
<path id="Docked" class="st1" d="M21,12H3 M20,21H4c-0.5,0-1-0.5-1-1V4c0-0.5,0.5-1,1-1h16c0.5,0,1,0.5,1,1v16
	C21,20.5,20.5,21,20,21z"/>
</svg>
