<?xml version="1.0" encoding="utf-8"?>
<!-- Generator: Adobe Illustrator 21.1.0, SVG Export Plug-In . SVG Version: 6.00 Build 0)  -->
<svg version="1.1" id="Ebene_1" xmlns="http://www.w3.org/2000/svg" xmlns:xlink="http://www.w3.org/1999/xlink" x="0px" y="0px"
	 viewBox="0 0 24 24" style="enable-background:new 0 0 24 24;" xml:space="preserve">
<style type="text/css">
	.st0{display:none;fill:none;stroke:#757575;stroke-width:0.8;stroke-miterlimit:10;}
	.st1{fill:none;stroke:#757575;stroke-width:0.8;stroke-miterlimit:10;}
</style>
<path id="Back" class="st0" d="M5.1,10.6l12.1-7.4c1.1-0.7,2.5,0.1,2.5,1.4l0,14.8c0,1.3-1.4,2-2.5,1.4L5.1,13.4
	C4.1,12.8,4.1,11.2,5.1,10.6z"/>
<path id="Home" class="st0" d="M21,12c0,4.9-4.1,9-9,9s-9-4.1-9-9s4.1-9,9-9S21,7.1,21,12z"/>
<path id="Recent" class="st0" d="M19,20.5H5c-0.8,0-1.5-0.7-1.5-1.5V5c0-0.8,0.7-1.5,1.5-1.5h14c0.8,0,1.5,0.7,1.5,1.5v14
	C20.5,19.8,19.8,20.5,19,20.5z"/>
<path id="Multi" class="st1" d="M20.5,12h-17V5c0-0.8,0.7-1.5,1.5-1.5h14c0.8,0,1.5,0.7,1.5,1.5V12z M3.1,20.5h17.8"/>
</svg>
