<?xml version="1.0" encoding="utf-8"?>
<!-- Generator: Adobe Illustrator 21.1.0, SVG Export Plug-In . SVG Version: 6.00 Build 0)  -->
<svg version="1.1" id="Ebene_1" xmlns="http://www.w3.org/2000/svg" xmlns:xlink="http://www.w3.org/1999/xlink" x="0px" y="0px"
	 viewBox="0 0 24 24" style="enable-background:new 0 0 24 24;" xml:space="preserve">
<style type="text/css">
	.st0{display:none;fill:none;stroke:#757575;stroke-width:0.8;stroke-miterlimit:10;}
	.st1{display:none;}
	.st2{display:inline;fill:none;stroke:#757575;stroke-width:0.8;stroke-miterlimit:10;}
	.st3{fill:none;stroke:#757575;stroke-width:0.8;stroke-miterlimit:10;}
	.st4{fill:none;stroke:#757575;stroke-width:0.8;}
</style>
<path id="Pixolor_-_Drop" class="st0" d="M20.2,13.8c0-2.1-0.8-4.2-2.4-5.7L12,2.2L6.2,8c-1.6,1.6-2.4,3.8-2.4,5.7
	c0,2.1,0.8,4.2,2.4,5.8C7.8,21.2,9.9,22,12,22s4.2-0.8,5.8-2.4C19.4,18,20.2,15.9,20.2,13.8"/>
<path id="Play_Console_-_Stat" class="st0" d="M2.7,3.1v17.8c0,0.7,0.8,1.4,1.7,1.1l16.3-9c0.7-0.4,0.7-1.5,0-1.9L4.4,2.2
	C3.6,1.7,2.7,2.2,2.7,3.1z M2.7,14.3l6.2-3.6l3.2,1.8l5.6-3.2"/>
<path id="TV_Time_-TV" class="st0" d="M6.1,18.7l-2.4,3.5 M20.3,22.2l-2.4-3.5 M22,16.5v-11c0-1.2-1-2.2-2.2-2.2H4.2
	C2.9,3.2,2,4.2,2,5.4v11c0,1.3,0.9,2.3,2.2,2.3h15.7C21.1,18.7,22,17.7,22,16.5z"/>
<path id="Adaway_-_Security" class="st0" d="M12,2L3.8,5.6V11c0,5,3.5,9.7,8.2,10.9c4.7-1.2,8.2-5.9,8.2-10.9V5.6L12,2z"/>
<g id="Play_Music" class="st1">
	<path id="Play_Music_-_Music" class="st2" d="M12,2C6.4,2,2,6.4,2,12s4.4,10,10,10s10-4.4,10-10S17.6,2,12,2z M13.1,14.8
		c0,1.2-1,2.2-2.2,2.2s-2.2-1-2.2-2.2s1-2.2,2.2-2.2S13.1,13.4,13.1,14.8z M15.3,7h-2.2v7.8"/>
	<path id="Play_Music_-_Downloaded" class="st2" d="M12,2C6.5,2,2,6.5,2,12s4.5,10,10,10s10-4.4,10-10S17.6,2,12,2z M7.1,17.2H17
		 M16.7,7.2l-6.6,6.6L7.3,11"/>
	<path id="Play_Music_-_Download_Paused" class="st2" d="M12,2C6.5,2,2,6.5,2,12s4.5,10,10,10s10-4.4,10-10S17.6,2,12,2z M7.3,16.7
		H12 M12,7.1v7 M16.1,10.6L12,14.2l-4.1-3.6 M14.1,14.8v2.3 M16.2,14.8v2.3"/>
</g>
<path id="Inbox_-_Inbox" class="st0" d="M21.7,8.4L12,14.5L2.3,8.4 M2,19.5c0,1.1,0.9,2,2,2h16c1.1,0,2-0.9,2-2v-10
	c0-0.7-0.4-1.3-1-1.7l-9-5.3L3,7.8c-0.6,0.4-1,1-1,1.7V19.5z"/>
<g id="Substratum" class="st1">
	<path id="Substratum_-_Done" class="st3" d="M12,2C6.5,2,2,6.5,2,12s4.5,10,10,10s10-4.5,10-10S17.5,2,12,2z M17,8.7l-6.7,6.6
		L7,12.1"/>
	<path id="Substratum_-_Warning" class="st3" d="M12,2C6.4,2,2,6.4,2,12s4.4,10,10,10s10-4.4,10-10S17.6,2,12,2z M12,14.3V6.6
		 M12,17.4v-1.3"/>
	<path id="Substratum_-_Update" class="st2" d="M12,2C6.5,2,2,6.5,2,12s4.5,10,10,10s10-4.5,10-10S17.5,2,12,2z M14.9,16.5L12,14.8
		l-2.9,1.8l0.8-3.2l-2.6-2.2l3.3-0.3L12,7.7l1.3,3.1l3.3,0.3L14,13.3L14.9,16.5z"/>
	<path id="Substratum_-_Overlay" class="st3" d="M7.5,13.4l4.5,3.5l4.5-3.5 M12,14.1l3.7-2.8l0.8-0.6L12,7.1l-4.5,3.5l0.8,0.6
		L12,14.1z M12,2C6.5,2,2,6.5,2,12s4.5,10,10,10s10-4.5,10-10S17.5,2,12,2z"/>
	<path id="Substratum_-_Floating" class="st3" d="M2.5,10.9V13 M2.5,15.2v2.1 M2.5,19.4c0,1.2,1,2.1,2.1,2.1 M2.5,6.7v2.1
		 M15.2,21.5h2.1 M19.4,2.5H8.8c-1.2,0-2.1,1-2.1,2.1v10.6c0,1.2,0.9,2.1,2.1,2.1h10.6c1.2,0,2.1-1,2.1-2.1V4.6
		C21.5,3.5,20.6,2.5,19.4,2.5z M10.9,21.5H13 M6.7,21.5h2.1"/>
	<path id="Substratum_-_Substratum" class="st3" d="M20.4,14.2c0.9,0.2,1.6,1.1,1.6,2v3.7c0,1.2-0.9,2.1-2.1,2.1H6 M7.9,21.5l12.1-7
		c1.1-0.5,1.4-1.9,0.7-2.8l-1.9-3.2c-0.5-0.8-1.5-1.3-2.4-0.9 M9.4,20l6.9-12.1c0.6-1.1,0.2-2.3-0.7-2.8l-3.2-1.9
		C11.6,2.8,10.5,3,9.8,3.6 M9.9,18V4.1c0-1.2-1-2.1-2.1-2.1H4.1C2.9,2,2,2.9,2,4.1V18c0,2.2,1.8,4,4,4l0,0C8.1,22,9.9,20.2,9.9,18z
		 M6,16.7c-0.7,0-1.4,0.5-1.4,1.3s0.6,1.4,1.4,1.4s1.4-0.6,1.4-1.4C7.3,17.3,6.6,16.7,6,16.7z"/>
</g>
<path id="News_-_News" class="st0" d="M12,12h7 M19,8L19,8h-7 M9,12.5v-5C9,7.2,8.8,7,8.5,7h-3C5.2,7,5,7.2,5,7.5v5
	C5,12.8,5.2,13,5.5,13h3C8.8,13,9,12.8,9,12.5z M22,18V5c0-0.6-0.5-1-1-1H3C2.5,4,2,4.4,2,5v13c0,1.1,0.9,2,2,2h16
	C21.1,20,22,19.1,22,18z"/>
<g id="Play_Store" class="st1">
	<path id="PlayStore_-_Update" class="st2" d="M3.2,2.2l13.2,13.2 M16.3,8.6L3.2,21.8 M2.7,3.1v17.8c0,0.8,0.9,1.3,1.7,1L20.7,13
		c0.8-0.4,0.8-1.4,0-1.9L4.4,2.2C3.6,1.7,2.7,2.2,2.7,3.1z"/>
	<path id="PlayStore_-_Update_Finished" class="st2" d="M2.7,3.1v17.8c0,0.8,0.9,1.3,1.7,1L20.7,13c0.8-0.4,0.8-1.4,0-1.9L4.4,2.2
		C3.6,1.7,2.7,2.2,2.7,3.1z M7.7,10.7L10,13l8.4-8.5"/>
</g>
<path id="Android_-_Screenshot" class="st0" d="M21.5,19.2V4.9c0-1.4-1.1-2.4-2.3-2.4H4.9c-1.4,0-2.4,1.1-2.4,2.4v14.2
	c0,1.3,1.1,2.3,2.4,2.3h14.2C20.4,21.5,21.5,20.4,21.5,19.2z M3.3,21.1l4.5-5.9c0.2-0.3,0.7-0.3,0.9,0l1.7,2c0.2,0.2,0.7,0.2,0.9,0
	l2.7-3.6c0.2-0.3,0.7-0.3,0.9,0l5.6,7.4 M18.3,8.3c0,0.8-0.7,1.6-1.6,1.6s-1.6-0.7-1.6-1.6c0-0.8,0.7-1.6,1.6-1.6
	C17.6,6.7,18.3,7.5,18.3,8.3z"/>
<path id="Whatsapp_-_WhatsApp" class="st0" d="M12,22H2V12C2,6.5,6.5,2,12,2s10,4.5,10,10S17.5,22,12,22z M8.6,12.1l1.8-1.8
	c0.2-0.2,0.2-0.4,0.2-0.5c-0.2-0.6-0.3-1.2-0.3-1.8c0-0.3-0.2-0.5-0.5-0.5H8C7.8,7.5,7.5,7.8,7.5,8c0,4.7,3.8,8.5,8.5,8.5
	c0.3,0,0.5-0.3,0.5-0.5v-1.8c0-0.3-0.3-0.5-0.5-0.5c-0.7,0-1.3-0.1-1.8-0.3c-0.1-0.1-0.3-0.1-0.5,0.1l-1.8,1.9"/>
<g id="Clock">
	<path id="Clock__x7C__Hourglass" class="st4" d="M19.5,19.8L4.5,4.2C3.9,3.5,4.4,2.5,5.3,2.5h13.4c0.9,0,1.4,1,0.8,1.7L4.5,19.8
		c-0.6,0.7-0.1,1.7,0.8,1.7h13.4C19.6,21.5,20.1,20.5,19.5,19.8z"/>
	<path id="Clock__x7C__Clock" class="st3" d="M12,2C6.4,2,2,6.4,2,12s4.4,10,10,10s10-4.4,10-10S17.6,2,12,2z M16.8,15.6l-5.1-3V6.8
		"/>
	<path id="Clock__x7C__Timer" class="st3" d="M8.8,2h6.5 M12,14.4V7.9 M12,4.7c-4.8,0-8.6,3.9-8.6,8.6S7.2,22,12,22s8.6-3.9,8.6-8.6
		S16.8,4.7,12,4.7z M20.4,4.8l-2.3,2.3"/>
	<path id="Clock__x7C__Alarm" class="st3" d="M20.9,13.1c0,4.9-4,8.9-8.9,8.9s-8.9-4-8.9-8.9s4-8.9,8.9-8.9S20.9,8.1,20.9,13.1z
		 M2.1,5.8L6.6,2 M17.4,2l4.5,3.8 M11.8,8v5.6l4.3,2.6"/>
</g>
</svg>
