<?xml version="1.0" encoding="utf-8"?>
<!-- Generator: Adobe Illustrator 21.1.0, SVG Export Plug-In . SVG Version: 6.00 Build 0)  -->
<svg version="1.1" id="Ebene_1" xmlns="http://www.w3.org/2000/svg" xmlns:xlink="http://www.w3.org/1999/xlink" x="0px" y="0px"
	 viewBox="0 0 24 24" style="enable-background:new 0 0 24 24;" xml:space="preserve">
<style type="text/css">
	.st0{display:none;}
	.st1{display:inline;}
	.st2{fill:none;stroke:#757575;stroke-width:0.8;stroke-miterlimit:10;}
	.st3{fill:none;stroke:#2E00E9;stroke-width:0.8;stroke-miterlimit:10;}
	.st4{display:inline;fill:none;stroke:#3FFF95;stroke-width:0.8;stroke-miterlimit:10;}
	.st5{display:none;fill:none;stroke:#7E8ACD;stroke-width:0.8;stroke-miterlimit:10;}
	.st6{display:none;fill:none;stroke:#757575;stroke-width:0.8;stroke-miterlimit:10;}
	.st7{display:inline;fill:none;stroke:#757575;stroke-width:0.8;stroke-miterlimit:10;}
	.st8{display:none;fill:none;stroke:#000000;stroke-width:0.8;stroke-miterlimit:10;}
</style>
<g id="Left" class="st0">
	<g id="Subs" class="st1">
		<path id="Brush" class="st2" d="M7.4,13.9c-1.8,0-3.3,1.5-3.3,3.3c0,1.4-1.3,2.2-2.2,2.2c1.1,1.3,2.8,2.1,4.4,2.1
			c2.4,0,4.3-1.9,4.3-4.3C10.7,15.4,9.2,13.9,7.4,13.9z M10.7,16.9L21.8,5.8c0.4-0.4,0.4-1.1,0-1.5l-1.5-1.5c-0.4-0.4-1.1-0.4-1.5,0
			L7.7,13.9"/>
		<path id="Warning" class="st2" d="M12,14V7.3 M12,16.8v-1.1 M12,2.5c-5.2,0-9.5,4.3-9.5,9.5s4.3,9.5,9.5,9.5s9.5-4.3,9.5-9.5
			S17.2,2.5,12,2.5z"/>
		<path id="Updated" class="st2" d="M14.9,16.5L12,14.7l-2.9,1.8l0.8-3.3L7.3,11l3.4-0.3L12,7.5l1.3,3.1l3.4,0.3l-2.6,2.2L14.9,16.5
			z M12,2.5c-5.2,0-9.5,4.3-9.5,9.5s4.3,9.5,9.5,9.5s9.5-4.3,9.5-9.5S17.2,2.5,12,2.5z"/>
		<path id="Done" class="st2" d="M16.8,8.8l-6.4,6.4l-3.1-3.1 M12,2.5c-5.2,0-9.5,4.3-9.5,9.5s4.3,9.5,9.5,9.5s9.5-4.3,9.5-9.5
			S17.2,2.5,12,2.5z"/>
		<path id="Overlay" class="st3" d="M2.5,14l9.5,7.4l9.5-7.4 M12,17.4l7.8-6l1.7-1.4L12,2.6L2.5,10l1.7,1.4L12,17.4z"/>
	</g>
	<path id="Inbox" class="st4" d="M21.7,8.4L12,14.5L2.3,8.4 M2,19.5c0,1.1,0.9,2,2,2h16c1.1,0,2-0.9,2-2v-10c0-0.7-0.4-1.3-1-1.7
		l-9-5.3L3,7.8c-0.6,0.4-1,1-1,1.7V19.5z"/>
</g>
<path id="Adb" class="st5" d="M21.5,12c0,5.2-4.3,9.5-9.5,9.5S2.5,17.2,2.5,12S6.8,2.5,12,2.5S21.5,6.8,21.5,12z M9.6,8.7
	c0,0.7-0.6,1.4-1.4,1.4c-0.7,0-1.4-0.6-1.4-1.4s0.6-1.4,1.4-1.4C8.9,7.4,9.6,8,9.6,8.7z M17.2,8.7c0,0.7-0.6,1.4-1.4,1.4
	s-1.4-0.6-1.4-1.4s0.6-1.4,1.4-1.4S17.2,8,17.2,8.7z M3.1,15.3H21"/>
<path id="Screenshot" class="st6" d="M21,19.1V4.9c0-1-0.9-1.9-1.9-1.9H4.9C3.9,3,3,3.9,3,4.9v14.2c0,1,0.9,1.9,1.9,1.9h14.2
	C20.1,21,21,20.1,21,19.1z M3.8,20.6L8.1,15c0.2-0.3,0.7-0.3,0.9,0l1.6,1.9c0.2,0.2,0.7,0.2,0.9,0l2.6-3.4c0.2-0.3,0.7-0.3,0.9,0
	l5.3,7"/>
<g id="Wifi" class="st0">
	<path id="_x34_" class="st7" d="M22.9,7.9c0.4-0.5,0.3-1.2-0.2-1.5C21,5.3,17.2,3.1,12,3.1S3,5.3,1.3,6.4c-0.5,0.3-0.6,1-0.2,1.5
		l10.1,12.6c0.4,0.5,1.2,0.5,1.6,0L22.9,7.9z"/>
	<path id="_x33_" class="st7" d="M20.6,10.8c0.3-0.4,0.2-0.9-0.2-1.2C19.1,8.7,16,7,12,7C7.9,7,4.9,8.7,3.6,9.6
		c-0.4,0.3-0.5,0.8-0.2,1.2l7.8,9.7c0.4,0.5,1.2,0.5,1.6,0L20.6,10.8z"/>
	<path id="_x32_" class="st7" d="M18.1,14c0.2-0.3,0.2-0.8-0.1-1c-1-0.7-3.1-1.8-5.9-1.8s-5,1.2-5.9,1.8c-0.3,0.2-0.4,0.7-0.1,1
		l5.3,6.5c0.4,0.5,1.2,0.5,1.6,0L18.1,14z"/>
	<path id="_x31_" class="st7" d="M15.7,16.9c0.1-0.2,0.1-0.4-0.1-0.5C15,16,13.7,15.3,12,15.3S9,16,8.4,16.4
		c-0.2,0.1-0.2,0.3-0.1,0.5c0.6,0.7,2,2.5,2.9,3.6c0.4,0.5,1.2,0.5,1.6,0L15.7,16.9z"/>
</g>
<path id="Mobile" class="st6" d="M4.2,20.9h15.6c0.6,0,1.1-0.5,1.1-1.1V4.2c0-1-1.2-1.5-1.9-0.8L3.4,19C2.7,19.7,3.2,20.9,4.2,20.9z
	 M4.2,20.9h12.4V5.8L3.4,19C2.7,19.7,3.2,20.9,4.2,20.9z M4.2,20.9h8.1V10.1L3.4,19C2.7,19.7,3.2,20.9,4.2,20.9z M4.2,20.9H8v-6.5
	L3.4,19C2.7,19.7,3.2,20.9,4.2,20.9z"/>
<path id="Vibrate" class="st8" d="M7.9,3.1h8c0.5,0,1,0.4,1,1v15.8c0,0.5-0.4,1-1,1h-8c-0.5,0-1-0.4-1-1V4.1C7,3.5,7.4,3.1,7.9,3.1z
	 M4.1,2.8v4.8 M19.9,21.2v-4.8"/>
<path id="Downloaded" class="st6" d="M12,2.5c-5.2,0-9.5,4.3-9.5,9.5s4.3,9.5,9.5,9.5s9.5-4.2,9.5-9.5S17.3,2.5,12,2.5z M7.3,17h9.4
	 M16.5,7.4l-6.2,6.2L7.5,11"/>
<path id="Security" class="st6" d="M12,2.5L4.2,5.9v5.2c0,4.8,3.3,9.3,7.8,10.4c4.5-1.1,7.8-5.6,7.8-10.4V5.9L12,2.5z"/>
<path id="tv" class="st2" d="M6.1,19l-2.4,3.5 M20.3,22.5L17.9,19 M22,16.8v-11c0-1.2-1-2.2-2.2-2.2H4.2C2.9,3.5,2,4.5,2,5.7v11
	C2,18,2.9,19,4.2,19h15.7C21.1,19,22,18,22,16.8z"/>
</svg>
