<?xml version="1.0" encoding="utf-8"?>
<!-- Generator: Adobe Illustrator 21.1.0, SVG Export Plug-In . SVG Version: 6.00 Build 0)  -->
<svg version="1.1" id="Ebene_1" xmlns="http://www.w3.org/2000/svg" xmlns:xlink="http://www.w3.org/1999/xlink" x="0px" y="0px"
	 viewBox="0 0 24 24" style="enable-background:new 0 0 24 24;" xml:space="preserve">
<style type="text/css">
	.st0{display:none;fill:none;stroke:#7E8ACD;stroke-width:0.8;stroke-miterlimit:10;}
	.st1{display:none;fill:none;stroke:#757575;stroke-width:0.8;stroke-miterlimit:10;}
	.st2{display:none;}
	.st3{display:inline;fill:none;stroke:#757575;stroke-width:0.8;stroke-miterlimit:10;}
	.st4{display:none;fill:none;stroke:#000000;stroke-width:0.8;stroke-miterlimit:10;}
</style>
<path id="Adb" class="st0" d="M21.5,12c0,5.2-4.3,9.5-9.5,9.5S2.5,17.2,2.5,12S6.8,2.5,12,2.5S21.5,6.8,21.5,12z M9.6,8.7
	c0,0.7-0.6,1.4-1.4,1.4c-0.7,0-1.4-0.6-1.4-1.4s0.6-1.4,1.4-1.4C8.9,7.4,9.6,8,9.6,8.7z M17.2,8.7c0,0.7-0.6,1.4-1.4,1.4
	s-1.4-0.6-1.4-1.4s0.6-1.4,1.4-1.4S17.2,8,17.2,8.7z M3.1,15.3H21"/>
<path id="Screenshot" class="st1" d="M21,19.1V4.9c0-1-0.9-1.9-1.9-1.9H4.9C3.9,3,3,3.9,3,4.9v14.2c0,1,0.9,1.9,1.9,1.9h14.2
	C20.1,21,21,20.1,21,19.1z M3.8,20.6L8.1,15c0.2-0.3,0.7-0.3,0.9,0l1.6,1.9c0.2,0.2,0.7,0.2,0.9,0l2.6-3.4c0.2-0.3,0.7-0.3,0.9,0
	l5.3,7"/>
<g id="Wifi" class="st2">
	<path id="_x34_" class="st3" d="M22.9,7.9c0.4-0.5,0.3-1.2-0.2-1.5C21,5.3,17.2,3.1,12,3.1S3,5.3,1.3,6.4c-0.5,0.3-0.6,1-0.2,1.5
		l10.1,12.6c0.4,0.5,1.2,0.5,1.6,0L22.9,7.9z"/>
	<path id="_x33_" class="st3" d="M20.6,10.8c0.3-0.4,0.2-0.9-0.2-1.2C19.1,8.7,16,7,12,7C7.9,7,4.9,8.7,3.6,9.6
		c-0.4,0.3-0.5,0.8-0.2,1.2l7.8,9.7c0.4,0.5,1.2,0.5,1.6,0L20.6,10.8z"/>
	<path id="_x32_" class="st3" d="M18.1,14c0.2-0.3,0.2-0.8-0.1-1c-1-0.7-3.1-1.8-5.9-1.8s-5,1.2-5.9,1.8c-0.3,0.2-0.4,0.7-0.1,1
		l5.3,6.5c0.4,0.5,1.2,0.5,1.6,0L18.1,14z"/>
	<path id="_x31_" class="st3" d="M15.7,16.9c0.1-0.2,0.1-0.4-0.1-0.5C15,16,13.7,15.3,12,15.3S9,16,8.4,16.4
		c-0.2,0.1-0.2,0.3-0.1,0.5c0.6,0.7,2,2.5,2.9,3.6c0.4,0.5,1.2,0.5,1.6,0L15.7,16.9z"/>
</g>
<path id="Mobile" class="st1" d="M4.2,20.9h15.6c0.6,0,1.1-0.5,1.1-1.1V4.2c0-1-1.2-1.5-1.9-0.8L3.4,19C2.7,19.7,3.2,20.9,4.2,20.9z
	 M4.2,20.9h12.4V5.8L3.4,19C2.7,19.7,3.2,20.9,4.2,20.9z M4.2,20.9h8.1V10.1L3.4,19C2.7,19.7,3.2,20.9,4.2,20.9z M4.2,20.9H8v-6.5
	L3.4,19C2.7,19.7,3.2,20.9,4.2,20.9z"/>
<path id="Vibrate" class="st4" d="M7.9,3.1h8c0.5,0,1,0.4,1,1v15.8c0,0.5-0.4,1-1,1h-8c-0.5,0-1-0.4-1-1V4.1C7,3.5,7.4,3.1,7.9,3.1z
	 M4.1,2.8v4.8 M19.9,21.2v-4.8"/>
</svg>
