<?xml version="1.0" encoding="utf-8"?>
<!-- Generator: Adobe Illustrator 21.1.0, SVG Export Plug-In . SVG Version: 6.00 Build 0)  -->
<svg version="1.1" id="Ebene_1" xmlns="http://www.w3.org/2000/svg" xmlns:xlink="http://www.w3.org/1999/xlink" x="0px" y="0px"
	 viewBox="0 0 24 24" style="enable-background:new 0 0 24 24;" xml:space="preserve">
<style type="text/css">
	.st0{fill:none;stroke:#757575;stroke-width:0.8;stroke-miterlimit:10;}
	.st1{display:none;fill:none;stroke:#0AFF41;stroke-width:0.8;stroke-miterlimit:10;}
</style>
<path id="_x31_" class="st0" d="M12,6.1l2.7-1.8L12,2.5V6.1z M12,17.9l-2.7,1.8l2.7,1.8V17.9z M4.3,12c0-4.3,3.5-7.7,7.7-7.7
	 M19.7,12c0,4.3-3.5,7.7-7.7,7.7"/>
<path class="st1" d="M12,19.7c4.3,0,7.7-3.5,7.7-7.7S16.3,4.3,12,4.3S4.3,7.7,4.3,12c0,1.5,0.4,2.9,1.2,4.1
	C6.9,18.3,9.3,19.7,12,19.7z"/>
<path id="_x32_" class="st0" d="M15,6.9l3.3-0.2l-1.5-2.9L15,6.9z M9,17.1l-3.3,0.2l1.5,2.9L9,17.1z M5.3,8.1
	c2.1-3.7,6.8-5,10.5-2.8 M18.7,15.9c-2.1,3.7-6.8,5-10.5,2.8"/>
<path id="_x33_" class="st0" d="M17.1,9l2.9,1.5l0.2-3.3L17.1,9z M6.9,15L4,13.5l-0.2,3.3L6.9,15z M8.1,5.3
	c3.7-2.1,8.4-0.9,10.5,2.8 M15.9,18.7c-3.7,2.1-8.4,0.9-10.5-2.8"/>
<path id="_x34_" class="st0" d="M17.9,12l1.8,2.7l1.8-2.7H17.9z M6.1,12L4.3,9.3L2.5,12H6.1z M12,4.3c4.3,0,7.7,3.5,7.7,7.7
	 M12,19.7c-4.3,0-7.7-3.5-7.7-7.7"/>
<path id="_x35_" class="st0" d="M17.1,15l0.2,3.3l2.9-1.5L17.1,15z M6.9,9L6.7,5.8L3.8,7.3L6.9,9z M15.9,5.3c3.7,2.1,5,6.8,2.8,10.5
	 M8.1,18.7c-3.7-2.1-5-6.8-2.8-10.5"/>
<path id="_x36_" class="st0" d="M15,17.1L13.5,20l3.3,0.2L15,17.1z M9,6.9L10.5,4L7.3,3.8L9,6.9z M18.7,8.1
	c2.1,3.7,0.9,8.4-2.8,10.5 M5.3,15.9C3.2,12.2,4.5,7.5,8.1,5.3"/>
</svg>
