<?xml version="1.0" encoding="utf-8"?>
<!-- Generator: Adobe Illustrator 21.1.0, SVG Export Plug-In . SVG Version: 6.00 Build 0)  -->
<svg version="1.1" id="Ebene_1" xmlns="http://www.w3.org/2000/svg" xmlns:xlink="http://www.w3.org/1999/xlink" x="0px" y="0px"
	 viewBox="0 0 24 24" style="enable-background:new 0 0 24 24;" xml:space="preserve">
<style type="text/css">
	.st0{display:none;}
	.st1{display:inline;}
	.st2{opacity:0.4;fill:none;stroke:#FF5715;stroke-width:0.1;stroke-miterlimit:10;enable-background:new    ;}
	.st3{display:inline;opacity:0.4;fill:none;stroke:#FF001C;stroke-width:0.1;stroke-miterlimit:10;enable-background:new    ;}
	.st4{display:inline;opacity:0.4;fill:none;stroke:#3000F4;stroke-width:0.1;stroke-miterlimit:10;enable-background:new    ;}
	.st5{display:inline;opacity:0.4;fill:none;stroke:#64FF15;stroke-width:0.1;stroke-miterlimit:10;enable-background:new    ;}
	.st6{display:none;fill:none;stroke:#1CA638;stroke-width:0.8;stroke-miterlimit:10;}
	.st7{fill:none;stroke:#65B32E;stroke-width:0.8;stroke-miterlimit:10;}
</style>
<g id="Grid_1_" class="st0">
	<g id="Grid__x26__Raster" class="st1">
		<g id="Grid">
			<g id="Horizontal_Rectangle">
			</g>
		</g>
		<path class="st2" d="M19,21H5c-1.1,0-2-0.9-2-2V5c0-1.1,0.9-2,2-2h14c1.1,0,2,0.9,2,2v14C21,20.1,20.1,21,19,21z"/>
	</g>
	<path class="st3" d="M20,4v16c0,1.1-0.9,2-2,2H6c-1.1,0-2-0.9-2-3V3c0-0.1,0.9-1,2-1h12C19.1,2,20,2.9,20,4z"/>
	<path class="st4" d="M20,20H4c-1.1,0-2-0.9-2-2V6c0-1.1,0.9-2,2-2h16c1.1,0,2,0.9,2,2v12C22,19.1,21.1,20,20,20z"/>
	<circle class="st5" cx="12" cy="12" r="10"/>
</g>
<path id="Power" class="st6" d="M18.4,4.6c2.1,1.8,3.5,4.5,3.5,7.5c0,5.4-4.4,9.9-9.9,9.9s-9.9-4.4-9.9-9.9c0-3,1.3-5.7,3.5-7.5
	 M12,12V2"/>
<path id="Restart" class="st7" d="M18.4,8.8l3.8,1.5l0.6-3.9L18.4,8.8z M21.4,15c-1.6,5.2-7.1,8.1-12.3,6.5S0.9,14.4,2.5,9.3
	s7.1-8.1,12.3-6.5c2.6,0.9,4.6,2.7,5.8,4.9"/>
</svg>
