<?xml version="1.0" encoding="utf-8"?>
<!-- Generator: Adobe Illustrator 21.1.0, SVG Export Plug-In . SVG Version: 6.00 Build 0)  -->
<svg version="1.1" id="Ebene_1" xmlns="http://www.w3.org/2000/svg" xmlns:xlink="http://www.w3.org/1999/xlink" x="0px" y="0px"
	 viewBox="0 0 24 12.9" style="enable-background:new 0 0 24 12.9;" xml:space="preserve">
<style type="text/css">
	.st0{fill:none;stroke:#757575;stroke-width:0.4;}
</style>
<path class="st0" d="M8.5,8.5c-0.2,0-0.2-0.2-0.2-0.3l2.4-3.4c0.2-0.3,0.7-0.3,0.9,0l2.6,3.7H8.5z M13.6,8.5h1.9
	c0.2,0,0.2-0.2,0.2-0.3L14,5.8c-0.2-0.2-0.5-0.2-0.7,0l-0.4,0.6 M14,4c-0.3,0-0.5,0.2-0.5,0.5S13.7,5,14,5s0.5-0.2,0.5-0.5
	S14.3,4,14,4z"/>
</svg>
