<?xml version="1.0" encoding="utf-8"?>
<!-- Generator: Adobe Illustrator 21.1.0, SVG Export Plug-In . SVG Version: 6.00 Build 0)  -->
<svg version="1.1" id="Ebene_1" xmlns="http://www.w3.org/2000/svg" xmlns:xlink="http://www.w3.org/1999/xlink" x="0px" y="0px"
	 viewBox="0 0 24 13.5" style="enable-background:new 0 0 24 13.5;" xml:space="preserve">
<style type="text/css">
	.st0{fill:#25262D;}
	.st1{fill:#D37A7A;}
	.st2{fill:#2A2B32;}
	.st3{fill:none;stroke:#FFFFFF;stroke-width:0.4;}
</style>
<path id="Darker_1_" class="st0" d="M24,13.5H0V0h24V13.5z"/>
<path id="Accent" class="st1" d="M6.2,0h6l5.9,5.9l-3,3L6.2,0z M14.5,0l4.8,4.8L24,0"/>
<path id="Dark" class="st2" d="M6.1,0l1.3,1.3L0,8.7V0H6.1z M10.5,13.5h5.6L24,5.6V0L10.5,13.5z M24,13.5V7.8l-5.6,5.7"/>
<path id="Foccus" class="st3" d="M8.1,11.2H2.5l2.4-3.4c0.2-0.3,0.7-0.3,0.9,0L8.1,11.2z M7.4,11.2h2.1L7.8,8.8
	c-0.2-0.2-0.5-0.2-0.6,0L6.8,9.3 M7.8,6.3c-0.3,0-0.5,0.2-0.5,0.5s0.2,0.5,0.5,0.5c0.3,0,0.5-0.2,0.5-0.5S8.1,6.3,7.8,6.3z"/>
</svg>
