<?xml version="1.0" encoding="utf-8"?>
<!-- Generator: Adobe Illustrator 21.1.0, SVG Export Plug-In . SVG Version: 6.00 Build 0)  -->
<svg version="1.1" id="Ebene_1" xmlns="http://www.w3.org/2000/svg" xmlns:xlink="http://www.w3.org/1999/xlink" x="0px" y="0px"
	 viewBox="0 0 24 24" style="enable-background:new 0 0 24 24;" xml:space="preserve">
<style type="text/css">
	.st0{fill:none;stroke:#757575;stroke-width:0.8;stroke-miterlimit:10;}
</style>
<path class="st0" d="M12,9c-1.7,0-3,1.3-3,3s1.3,3,3,3s3-1.3,3-3S13.7,9,12,9z M13,2.5c1.9,0.2,3.6,1,5,2.1 M18,19.5
	c-1.4,1.1-3.1,1.9-5,2.1 M11,21.5c-1.9-0.2-3.6-1-5-2.1 M6,4.5c1.4-1.1,3.1-1.9,5-2.1 M19.5,6c1.1,1.4,1.9,3.1,2.1,5 M21.5,13
	c-0.2,1.9-1,3.6-2.1,5 M2.5,11c0.2-1.9,1-3.6,2.1-5 M4.5,18c-1.1-1.4-1.9-3.1-2.1-5"/>
</svg>
