<?xml version="1.0" encoding="utf-8"?>
<!-- Generator: Adobe Illustrator 21.1.0, SVG Export Plug-In . SVG Version: 6.00 Build 0)  -->
<svg version="1.1" id="Ebene_1" xmlns="http://www.w3.org/2000/svg" xmlns:xlink="http://www.w3.org/1999/xlink" x="0px" y="0px"
	 viewBox="0 0 24 24" style="enable-background:new 0 0 24 24;" xml:space="preserve">
<style type="text/css">
	.st0{display:none;fill:none;stroke:#000000;stroke-width:0.6;stroke-miterlimit:10;}
	.st1{fill:none;stroke:#757575;stroke-width:0.6;stroke-miterlimit:10;}
	.st2{display:none;fill:none;stroke:#757576;stroke-width:0.6;stroke-miterlimit:22.9256;}
	.st3{display:none;fill:none;stroke:#757575;stroke-width:0.6;stroke-miterlimit:10;}
	.st4{display:none;}
	.st5{display:inline;fill:none;stroke:#231F20;stroke-width:0.6;stroke-miterlimit:10;}
	.st6{display:inline;fill:none;stroke:#5FFFC6;stroke-width:0.6;stroke-miterlimit:10;}
	.st7{display:inline;fill:none;stroke:#ECFF3F;stroke-width:0.6;stroke-miterlimit:10;}
	.st8{display:inline;fill:none;stroke:#7F7FFF;stroke-width:0.6;stroke-miterlimit:10;}
	.st9{display:none;fill:none;stroke:#231F20;stroke-width:0.6;stroke-miterlimit:10;}
	.st10{display:none;fill:none;stroke:#9FFFB7;stroke-width:0.6;stroke-miterlimit:10;}
	.st11{fill:none;stroke:#B6E1DC;stroke-width:0.6;stroke-miterlimit:10;}
	.st12{fill:none;stroke:#757575;stroke-width:0.8;stroke-miterlimit:10;}
</style>
<path id="Hangouts" class="st0" d="M12,1.5c-5,0-9.1,4.1-9.1,9.1c0,4.7,4.3,8.6,9.1,8.6v3.3c5.5-2.8,9.1-7.3,9.1-11.9
	C21.1,5.6,17,1.5,12,1.5L12,1.5z M10.7,12c0,1.1-0.6,2-1.3,2v-2H6.7V8.1h3.9L10.7,12L10.7,12z M17.3,12c0,1.1-0.6,2-1.3,2v-2h-2.6
	V8.1h3.9V12z"/>
<path id="Music" class="st1" d="M12,1.5C6.2,1.5,1.5,6.2,1.5,12S6.2,22.5,12,22.5S22.5,17.8,22.5,12S17.8,1.5,12,1.5z M13.4,15.3
	c0,1.4-1.1,2.7-2.7,2.7C9.3,18,8,16.9,8,15.3c0-1.4,1.1-2.7,2.7-2.7S13.4,13.7,13.4,15.3z M16.1,6h-2.7v9.3"/>
<path id="Photos" class="st2" d="M12,10.5V7.7V6.9H7.8H6.9L2,12h0.8H11 M10.5,12H7.7H6.9v4.2V17l5.1,5v-0.8V13 M12,13.5v2.7V17h4.2
	H17l5-5h-0.8H13 M13.5,12h2.7H17V7.8V6.9L12,2v0.8V11"/>
<path id="Youtube" class="st3" d="M22.1,7c-0.3-1.2-1.2-2-2.3-2.1c-2.5-0.2-5.1-0.2-7.8-0.2s-5.3,0-7.9,0.2C3,5,2.1,5.8,1.8,7
	c-0.3,1.7-0.3,3.5-0.3,5s0,3.4,0.4,5c0.3,1.2,1.2,2,2.3,2.1c2.5,0.2,5.1,0.2,7.8,0.2s5.3,0,7.9-0.3c1.2-0.1,2-0.9,2.3-2.1
	c0.3-1.6,0.3-3.3,0.3-4.9C22.5,10.4,22.5,8.6,22.1,7z M9.3,15.4c0-2.4,0-4.6,0-7c2.3,1.2,4.4,2.4,6.7,3.5
	C13.7,12.9,11.5,14.1,9.3,15.4z"/>
<path id="Plus" class="st3" d="M12.3,9.6c-0.6-0.5-1.5-0.9-2.3-0.8c-1.6,0-3.1,1.5-3,3.2c0,1.3,0.9,2.6,2.2,3
	c1.2,0.4,2.7,0.1,3.4-0.9c0.6-0.7,0.7-1.7,0.6-2.6h-3.1 M14.2,12h3 M15.7,10.5v3 M22.5,12c0,5.8-4.8,10.5-10.5,10.5S1.5,17.8,1.5,12
	S6.2,1.5,12,1.5S22.5,6.2,22.5,12z"/>
<g id="DriveColor" class="st4">
	<path class="st5" d="M8.7,3.9L12,9.6 M9.1,14.4h5.7 M12,9.6l2.8,5 M9.1,14.4L12,9.6 M9.1,14.4l-3.3,5.7 M14.8,14.4h6.5 M8.7,3.9
		L2.6,14.4l3.3,5.7h12.3l3.3-5.7L15.3,3.9H8.7z"/>
	<path id="Grün2" class="st6" d="M8.6,3H8.4L1.6,14.7L3,17 M10.4,12L12,9.3"/>
	<path id="Gelb" class="st7" d="M8.3,2.9L12,9.3 M12,9.3l3.1,5.4 M22.3,14.5L15.6,3H8.4L8.3,3.2"/>
	<path id="Blau" class="st8" d="M8.8,14.7h6.3 M14.1,14.7h8.5 M5.2,21h13.6l3.6-6.3l-0.1-0.2"/>
	<path id="Grün1" class="st6" d="M2.8,16.7L5.2,21h0.2 M5.2,21.1l3.7-6.4l1.7-2.9"/>
</g>
<path id="Drive" class="st9" d="M8.3,2.9l3.6,6.4 M8.8,14.7h6.4 M11.9,9.3l3.2,5.6 M8.8,14.7L12,9.3 M8.8,14.7l-3.6,6.4 M15.1,14.7
	h7.3 M8.3,2.9L1.5,14.7l3.6,6.4h13.7l3.6-6.4L15.6,2.9H8.3z"/>
<path id="TVShowtime" class="st0" d="M8.5,8.5h-7v-7h7V8.5z M15.5,1.5h-7v7h7V1.5z M22.5,1.5h-7v7h7V1.5z M15.5,8.5h-7v7h7V8.5z
	 M15.5,15.5h-7v7h7V15.5z"/>
<path id="Movies" class="st10" d="M6.2,3.6l2.1,4.2 M11.5,3.6l2.1,4.2 M16.7,3.6l2.1,4.2 M3.6,3.6c-1.2,0-2.1,0.9-2.1,2.1v12.6
	c0,1.2,0.9,2.1,2.1,2.1h16.8c1.2,0,2.1-0.9,2.1-2.1V3.6H3.6z"/>
<path id="Substratum" class="st0" d="M7,14.2c-1.8,0-3.3,1.5-3.3,3.3c0,1.4-1.3,2.2-2.2,2.2c1,1.3,2.8,2.2,4.4,2.2
	c2.4,0,4.4-2,4.4-4.4C10.3,15.7,8.9,14.2,7,14.2z M22.2,3.9l-1.5-1.5c-0.4-0.4-1.1-0.4-1.6,0l-9.9,9.9l3,3l9.9-9.9
	C22.6,5,22.6,4.3,22.2,3.9z"/>
<path id="EX_Kernel" class="st0" d="M7.4,8h6 M4,16h5.9 M5.7,11.7h5.9 M15,7.7l2.3,8.6 M12.1,16.3L20,7.7 M22.5,21V3
	c0-0.8-0.7-1.5-1.5-1.5H3C2.2,1.5,1.5,2.2,1.5,3v18c0,0.8,0.7,1.5,1.5,1.5h18C21.8,22.5,22.5,21.8,22.5,21z"/>
<path id="Books" class="st11" d="M18.3,1.5H5.7c-1.2,0-2.1,0.9-2.1,2.1v16.8c0,1.2,0.9,2.1,2.1,2.1h12.6c1.2,0,2.1-0.9,2.1-2.1V3.6
	C20.4,2.4,19.5,1.5,18.3,1.5z M5.7,3.6H11V12l-2.6-1.6L5.7,12V3.6z"/>
<path id="Contacts" class="st12" d="M12,11.2c1.2,0,2.1-0.9,2.1-2.1S13.2,7,12,7S9.9,7.9,9.9,9.1S10.8,11.2,12,11.2z M17.3,16
	c0-1.8-3.5-2.5-5.3-2.5S6.8,14.4,6.8,16 M12,1.5C6.1,1.5,1.5,6.1,1.5,12S6.1,22.5,12,22.5S22.5,17.9,22.5,12S17.9,1.5,12,1.5z"/>
</svg>
